<svg xmlns="http://www.w3.org/2000/svg" viewBox="0 0 1704.22 94.12">
  <title>ggviz_alt</title>
  <g id="Layer_2" data-name="Layer 2">
    <g id="Layer_1-2" data-name="Layer 1">
      <g>
        <g>
          <path d="M474.07,48.95a6,6,0,0,1,1.7,4.35V74.5a6,6,0,0,1-3.1,5.4,39.89,39.89,0,0,1-21.5,6.1,36,36,0,0,1-18.3-4.85A36.31,36.31,0,0,1,419.57,68a34.7,34.7,0,0,1-4.9-18,34.7,34.7,0,0,1,4.9-18,36.65,36.65,0,0,1,31.6-18,35.26,35.26,0,0,1,17.2,4,5.42,5.42,0,0,1,3,4.9,6.32,6.32,0,0,1-1.65,4.35,5.21,5.21,0,0,1-4,1.85,8.19,8.19,0,0,1-3.3-.8,28.31,28.31,0,0,0-11.2-2.3,22.46,22.46,0,0,0-11.8,3.25,24.22,24.22,0,0,0,0,41.5A22.46,22.46,0,0,0,451.17,74a38.92,38.92,0,0,0,6-.5,34.75,34.75,0,0,0,5.6-1.3v-13h-9.4A6,6,0,0,1,449,57.5a6.16,6.16,0,0,1,0-8.6,6,6,0,0,1,4.35-1.7h16.4A5.74,5.74,0,0,1,474.07,48.95Z" transform="translate(0 -6.59)" style="fill: #ecddaa"/>
          <path d="M535.77,32.2a6,6,0,0,1,1.7,4.4V78.9a6,6,0,0,1-1.7,4.35,5.74,5.74,0,0,1-4.3,1.75,5.66,5.66,0,0,1-4.25-1.7,6.28,6.28,0,0,1-1.75-4.3,21.68,21.68,0,0,1-15.7,7,22.86,22.86,0,0,1-12.5-3.55,24.87,24.87,0,0,1-8.85-9.85,30.73,30.73,0,0,1-3.25-14.3,31.43,31.43,0,0,1,3.2-14.35,24.59,24.59,0,0,1,8.75-9.9,22.28,22.28,0,0,1,12.25-3.55,23.18,23.18,0,0,1,9,1.75,23.64,23.64,0,0,1,7.1,4.45v-.1a6,6,0,0,1,1.7-4.35,5.74,5.74,0,0,1,4.3-1.75A5.83,5.83,0,0,1,535.77,32.2Zm-13.9,38a17.64,17.64,0,0,0,4.1-12,17.83,17.83,0,0,0-4.1-12,14,14,0,0,0-21.1,0,17.83,17.83,0,0,0-4.1,12,17.77,17.77,0,0,0,4,12A13.2,13.2,0,0,0,511.27,75,13.35,13.35,0,0,0,521.87,70.25Z" transform="translate(0 -6.59)" style="fill: #ecddaa"/>
          <path d="M578.81,75A5.3,5.3,0,0,1,580,78.6q0,2.7-3,4.55A12.25,12.25,0,0,1,570.36,85a19.37,19.37,0,0,1-10.45-2.65q-4.25-2.65-4.25-11.25V43.5h-4.6a5.47,5.47,0,0,1-5.6-5.6,5.14,5.14,0,0,1,1.6-3.85,5.52,5.52,0,0,1,4-1.55h4.6V26.1a6,6,0,0,1,6.1-6.1,5.63,5.63,0,0,1,4.2,1.75,6,6,0,0,1,1.7,4.35v6.4h7.1a5.47,5.47,0,0,1,5.6,5.6,5.15,5.15,0,0,1-1.6,3.85,5.52,5.52,0,0,1-4,1.55h-7.1V70.6a3.82,3.82,0,0,0,1.1,3,4.43,4.43,0,0,0,3,1,8.59,8.59,0,0,0,2.2-.4,6,6,0,0,1,2.3-.5A3.33,3.33,0,0,1,578.81,75Z" transform="translate(0 -6.59)" style="fill: #ecddaa"/>
          <path d="M633.16,36.55Q637,42.6,637,53.3V78.9a6,6,0,0,1-1.7,4.35,6.16,6.16,0,0,1-8.6,0A6,6,0,0,1,625,78.9V53.3q0-5.5-2.15-8.65t-7.55-3.15q-5.6,0-8.75,3.35a11.85,11.85,0,0,0-3.15,8.45V78.9a6,6,0,0,1-1.7,4.35,6.16,6.16,0,0,1-8.6,0,6,6,0,0,1-1.7-4.35V17.1a6,6,0,0,1,1.7-4.35,6.16,6.16,0,0,1,8.6,0,6,6,0,0,1,1.7,4.35V39.2A24.42,24.42,0,0,1,610.21,33a17.31,17.31,0,0,1,9.25-2.55Q629.36,30.5,633.16,36.55Z" transform="translate(0 -6.59)" style="fill: #ecddaa"/>
          <path d="M696.06,60.9a6.36,6.36,0,0,1-4.2,1.5h-33a15.07,15.07,0,0,0,5.5,9.25,15.37,15.37,0,0,0,9.7,3.35,21.5,21.5,0,0,0,6.4-.75,16.65,16.65,0,0,0,3.65-1.6L686,71.5a7.62,7.62,0,0,1,3.4-.9,4.91,4.91,0,0,1,3.6,1.5,4.8,4.8,0,0,1,1.5,3.5q0,2.7-2.8,4.9a23.86,23.86,0,0,1-7.5,3.9A31,31,0,0,1,660,82.5a24.41,24.41,0,0,1-9.65-9.65A28.13,28.13,0,0,1,647,59a30.67,30.67,0,0,1,3.6-15.1,25.57,25.57,0,0,1,9.5-9.95,24.55,24.55,0,0,1,12.6-3.45,23.37,23.37,0,0,1,12.45,3.6,26.93,26.93,0,0,1,9.35,9.7A26.08,26.08,0,0,1,698,57,5.14,5.14,0,0,1,696.06,60.9ZM659,52.4h26.2v-.7a10.34,10.34,0,0,0-4.1-7.2,13,13,0,0,0-8.4-3Q661.06,41.5,659,52.4Z" transform="translate(0 -6.59)" style="fill: #ecddaa"/>
          <path d="M740.81,32.2a5.07,5.07,0,0,1,2.05,4,6.2,6.2,0,0,1-1.6,4.65,5.27,5.27,0,0,1-3.8,1.55,10,10,0,0,1-3.4-.7l-1.35-.4a8.15,8.15,0,0,0-2.25-.3,8.89,8.89,0,0,0-5,1.6,11.69,11.69,0,0,0-4,4.85A17.85,17.85,0,0,0,720,55.2V78.9a6,6,0,0,1-1.7,4.35,6.16,6.16,0,0,1-8.6,0A6,6,0,0,1,708,78.9V37.6a6,6,0,0,1,1.7-4.35,6.16,6.16,0,0,1,8.6,0A6,6,0,0,1,720,37.6v1.3a15.16,15.16,0,0,1,6.6-6.25,20.3,20.3,0,0,1,9.2-2.15A7.65,7.65,0,0,1,740.81,32.2Z" transform="translate(0 -6.59)" style="fill: #ecddaa"/>
          <path d="M795.26,60.9a6.36,6.36,0,0,1-4.2,1.5h-33a15.07,15.07,0,0,0,5.5,9.25,15.37,15.37,0,0,0,9.7,3.35,21.5,21.5,0,0,0,6.4-.75,16.65,16.65,0,0,0,3.65-1.6l1.85-1.15a7.62,7.62,0,0,1,3.4-.9,4.91,4.91,0,0,1,3.6,1.5,4.8,4.8,0,0,1,1.5,3.5q0,2.7-2.8,4.9a23.86,23.86,0,0,1-7.5,3.9,31,31,0,0,1-24.15-1.9,24.41,24.41,0,0,1-9.65-9.65A28.13,28.13,0,0,1,746.16,59a30.67,30.67,0,0,1,3.6-15.1,25.57,25.57,0,0,1,9.5-9.95,24.55,24.55,0,0,1,12.6-3.45,23.37,23.37,0,0,1,12.45,3.6,26.93,26.93,0,0,1,9.35,9.7,26.08,26.08,0,0,1,3.5,13.2A5.14,5.14,0,0,1,795.26,60.9Zm-37.1-8.5h26.2v-.7a10.34,10.34,0,0,0-4.1-7.2,13,13,0,0,0-8.4-3Q760.26,41.5,758.16,52.4Z" transform="translate(0 -6.59)" style="fill: #ecddaa"/>
          <path d="M854.76,12.7a6,6,0,0,1,1.7,4.4V78.9a6,6,0,0,1-1.7,4.35,5.74,5.74,0,0,1-4.3,1.75,5.66,5.66,0,0,1-4.25-1.7,6.28,6.28,0,0,1-1.75-4.3,21.68,21.68,0,0,1-15.7,7,22.86,22.86,0,0,1-12.5-3.55,24.87,24.87,0,0,1-8.85-9.85,30.73,30.73,0,0,1-3.25-14.3,31.43,31.43,0,0,1,3.2-14.35,24.59,24.59,0,0,1,8.75-9.9,22.28,22.28,0,0,1,12.25-3.55,23.17,23.17,0,0,1,9,1.75,23.64,23.64,0,0,1,7.1,4.45V17.1a6,6,0,0,1,1.7-4.35,5.74,5.74,0,0,1,4.3-1.75A5.83,5.83,0,0,1,854.76,12.7Zm-13.9,57.55a17.64,17.64,0,0,0,4.1-12,17.83,17.83,0,0,0-4.1-12,14,14,0,0,0-21.1,0,17.82,17.82,0,0,0-4.1,12,17.77,17.77,0,0,0,4,12A13.2,13.2,0,0,0,830.26,75,13.36,13.36,0,0,0,840.86,70.25Z" transform="translate(0 -6.59)" style="fill: #ecddaa"/>
          <path d="M954.36,48.95a6,6,0,0,1,1.7,4.35V74.5a6,6,0,0,1-3.1,5.4,39.89,39.89,0,0,1-21.5,6.1,36.65,36.65,0,0,1-31.6-18A34.69,34.69,0,0,1,895,50a34.69,34.69,0,0,1,4.9-18,36.65,36.65,0,0,1,31.6-18,35.26,35.26,0,0,1,17.2,4,5.42,5.42,0,0,1,3,4.9A6.32,6.32,0,0,1,950,27.25a5.21,5.21,0,0,1-4,1.85,8.19,8.19,0,0,1-3.3-.8,28.31,28.31,0,0,0-11.2-2.3,22.46,22.46,0,0,0-11.8,3.25,24.22,24.22,0,0,0,0,41.5A22.45,22.45,0,0,0,931.46,74a38.93,38.93,0,0,0,6-.5,34.73,34.73,0,0,0,5.6-1.3v-13h-9.4a6,6,0,0,1-4.35-1.7,6.16,6.16,0,0,1,0-8.6,6,6,0,0,1,4.35-1.7h16.4A5.75,5.75,0,0,1,954.36,48.95Z" transform="translate(0 -6.59)" style="fill: #ecddaa"/>
          <path d="M1016.06,32.2a6,6,0,0,1,1.7,4.4V78.9a6,6,0,0,1-1.7,4.35,5.74,5.74,0,0,1-4.3,1.75,5.66,5.66,0,0,1-4.25-1.7,6.28,6.28,0,0,1-1.75-4.3,21.68,21.68,0,0,1-15.7,7,22.86,22.86,0,0,1-12.5-3.55,24.87,24.87,0,0,1-8.85-9.85,30.73,30.73,0,0,1-3.25-14.3,31.43,31.43,0,0,1,3.2-14.35,24.59,24.59,0,0,1,8.75-9.9,22.28,22.28,0,0,1,12.25-3.55,23.17,23.17,0,0,1,9,1.75,23.64,23.64,0,0,1,7.1,4.45v-.1a6,6,0,0,1,1.7-4.35,5.74,5.74,0,0,1,4.3-1.75A5.83,5.83,0,0,1,1016.06,32.2Zm-13.9,38a17.64,17.64,0,0,0,4.1-12,17.83,17.83,0,0,0-4.1-12,14,14,0,0,0-21.1,0,17.82,17.82,0,0,0-4.1,12,17.77,17.77,0,0,0,4,12A13.21,13.21,0,0,0,991.56,75,13.36,13.36,0,0,0,1002.16,70.25Z" transform="translate(0 -6.59)" style="fill: #ecddaa"/>
          <path d="M1063.61,32.2a5.07,5.07,0,0,1,2.05,4,6.2,6.2,0,0,1-1.6,4.65,5.27,5.27,0,0,1-3.8,1.55,10,10,0,0,1-3.4-.7l-1.35-.4a8.15,8.15,0,0,0-2.25-.3,8.89,8.89,0,0,0-5,1.6,11.69,11.69,0,0,0-4,4.85,17.85,17.85,0,0,0-1.55,7.75V78.9a6,6,0,0,1-1.7,4.35,6.16,6.16,0,0,1-8.6,0,6,6,0,0,1-1.7-4.35V37.6a6,6,0,0,1,1.7-4.35,6.16,6.16,0,0,1,8.6,0,6,6,0,0,1,1.7,4.35v1.3a15.16,15.16,0,0,1,6.6-6.25,20.3,20.3,0,0,1,9.2-2.15A7.65,7.65,0,0,1,1063.61,32.2Z" transform="translate(0 -6.59)" style="fill: #ecddaa"/>
          <path d="M1119.56,12.7a6,6,0,0,1,1.7,4.4V78.9a6,6,0,0,1-1.7,4.35,5.74,5.74,0,0,1-4.3,1.75,5.66,5.66,0,0,1-4.25-1.7,6.28,6.28,0,0,1-1.75-4.3,21.68,21.68,0,0,1-15.7,7,22.86,22.86,0,0,1-12.5-3.55,24.87,24.87,0,0,1-8.85-9.85A30.73,30.73,0,0,1,1069,58.3a31.43,31.43,0,0,1,3.2-14.35,24.59,24.59,0,0,1,8.75-9.9,22.28,22.28,0,0,1,12.25-3.55,23.17,23.17,0,0,1,9,1.75,23.64,23.64,0,0,1,7.1,4.45V17.1a6,6,0,0,1,1.7-4.35,5.74,5.74,0,0,1,4.3-1.75A5.83,5.83,0,0,1,1119.56,12.7Zm-13.9,57.55a17.64,17.64,0,0,0,4.1-12,17.83,17.83,0,0,0-4.1-12,14,14,0,0,0-21.1,0,17.82,17.82,0,0,0-4.1,12,17.77,17.77,0,0,0,4,12A13.2,13.2,0,0,0,1095.06,75,13.36,13.36,0,0,0,1105.66,70.25Z" transform="translate(0 -6.59)" style="fill: #ecddaa"/>
          <path d="M1180.36,60.9a6.36,6.36,0,0,1-4.2,1.5h-33a15.07,15.07,0,0,0,5.5,9.25,15.37,15.37,0,0,0,9.7,3.35,21.5,21.5,0,0,0,6.4-.75,16.65,16.65,0,0,0,3.65-1.6l1.85-1.15a7.62,7.62,0,0,1,3.4-.9,4.91,4.91,0,0,1,3.6,1.5,4.8,4.8,0,0,1,1.5,3.5q0,2.7-2.8,4.9a23.86,23.86,0,0,1-7.5,3.9,31,31,0,0,1-24.15-1.9,24.41,24.41,0,0,1-9.65-9.65,28.13,28.13,0,0,1-3.4-13.85,30.67,30.67,0,0,1,3.6-15.1,25.57,25.57,0,0,1,9.5-9.95A24.55,24.55,0,0,1,1157,30.5a23.37,23.37,0,0,1,12.45,3.6,26.93,26.93,0,0,1,9.35,9.7,26.08,26.08,0,0,1,3.5,13.2A5.14,5.14,0,0,1,1180.36,60.9Zm-37.1-8.5h26.2v-.7a10.34,10.34,0,0,0-4.1-7.2,13,13,0,0,0-8.4-3Q1145.36,41.5,1143.26,52.4Z" transform="translate(0 -6.59)" style="fill: #ecddaa"/>
          <path d="M1235,36.55q3.9,6.05,3.9,16.75V78.9a6,6,0,0,1-1.7,4.35,6.16,6.16,0,0,1-8.6,0,6,6,0,0,1-1.7-4.35V53.3q0-5.5-2.3-8.65t-7.9-3.15q-5.8,0-9.1,3.35a11.55,11.55,0,0,0-3.3,8.45V78.9a6,6,0,0,1-1.7,4.35,6.16,6.16,0,0,1-8.6,0,6,6,0,0,1-1.7-4.35V37.6a6,6,0,0,1,1.7-4.35,6.16,6.16,0,0,1,8.6,0,6,6,0,0,1,1.7,4.35v1.7a24.17,24.17,0,0,1,7-6.2,18.28,18.28,0,0,1,9.55-2.6Q1231.06,30.5,1235,36.55Z" transform="translate(0 -6.59)" style="fill: #ecddaa"/>
          <path d="M1247.85,73.7a5.69,5.69,0,0,1,5.5-5.3,5.65,5.65,0,0,1,4,1.9,21.07,21.07,0,0,0,6.25,4.6,18.63,18.63,0,0,0,7.85,1.5q7.8-.3,7.8-5.9a4.78,4.78,0,0,0-2.65-4.4,37.44,37.44,0,0,0-8.25-3,71.17,71.17,0,0,1-9.45-3.2,16.69,16.69,0,0,1-6.3-4.85Q1250,51.8,1250,46.3a13.23,13.23,0,0,1,2.75-8.35,18.1,18.1,0,0,1,7.2-5.5,23.27,23.27,0,0,1,9.45-2,29.07,29.07,0,0,1,10.2,1.9,17.77,17.77,0,0,1,8,5.6,5.57,5.57,0,0,1,1.3,3.6,4.64,4.64,0,0,1-1.9,3.8,5,5,0,0,1-3.2,1.1,4.87,4.87,0,0,1-3.6-1.4,12.72,12.72,0,0,0-4.65-3.5,15.4,15.4,0,0,0-6.45-1.3q-7.6,0-7.6,5.5a4.7,4.7,0,0,0,1.4,3.55,9.55,9.55,0,0,0,3.55,2.1q2.15.75,6,1.85a66.24,66.24,0,0,1,9,3.1,15.45,15.45,0,0,1,6.1,4.9,14,14,0,0,1,2.5,8.7,13.34,13.34,0,0,1-2.9,8.55,18.35,18.35,0,0,1-7.45,5.55,24.07,24.07,0,0,1-9.35,1.9,33.88,33.88,0,0,1-12.3-2.2,20.43,20.43,0,0,1-9.3-7.1A4.86,4.86,0,0,1,1247.85,73.7Z" transform="translate(0 -6.59)" style="fill: #ecddaa"/>
        </g>
        <g>
          <path d="M1607.33,53.65h0c0,2.83-.67,5.14-1.5,5.14H1305.55V48.5h300.27C1606.65,48.5,1607.33,50.81,1607.33,53.65Z" transform="translate(0 -6.59)" style="fill: #ecddaa;fill-rule: evenodd"/>
          <path d="M1592.24,6.59v18a18.09,18.09,0,0,1-18,18h-20v-18a18.09,18.09,0,0,1,18-18Z" transform="translate(0 -6.59)" style="fill: #ecddaa;fill-rule: evenodd"/>
          <path d="M1547.26,6.59v18a18.09,18.09,0,0,1-18,18h-20v-18a18.09,18.09,0,0,1,18-18Z" transform="translate(0 -6.59)" style="fill: #ecddaa;fill-rule: evenodd"/>
          <path d="M1502.29,6.59v18a18.09,18.09,0,0,1-18,18h-20v-18a18.09,18.09,0,0,1,18-18Z" transform="translate(0 -6.59)" style="fill: #ecddaa;fill-rule: evenodd"/>
          <path d="M1457.31,6.59v18a18.09,18.09,0,0,1-18,18h-20v-18a18.09,18.09,0,0,1,18-18Z" transform="translate(0 -6.59)" style="fill: #ecddaa;fill-rule: evenodd"/>
          <path d="M1412.33,6.59v18a18.09,18.09,0,0,1-18,18h-20v-18a18.09,18.09,0,0,1,18-18Z" transform="translate(0 -6.59)" style="fill: #ecddaa;fill-rule: evenodd"/>
          <path d="M1367.35,6.59v18a18.09,18.09,0,0,1-18,18h-20v-18a18.09,18.09,0,0,1,18-18Z" transform="translate(0 -6.59)" style="fill: #ecddaa;fill-rule: evenodd"/>
          <path d="M1592.24,100.71v-18a18.09,18.09,0,0,0-18-18h-20v18a18.09,18.09,0,0,0,18,18Z" transform="translate(0 -6.59)" style="fill: #d8c284;fill-rule: evenodd"/>
          <path d="M1547.26,100.71v-18a18.09,18.09,0,0,0-18-18h-20v18a18.09,18.09,0,0,0,18,18Z" transform="translate(0 -6.59)" style="fill: #d8c284;fill-rule: evenodd"/>
          <path d="M1502.29,100.71v-18a18.09,18.09,0,0,0-18-18h-20v18a18.09,18.09,0,0,0,18,18Z" transform="translate(0 -6.59)" style="fill: #d8c284;fill-rule: evenodd"/>
          <path d="M1457.31,100.71v-18a18.09,18.09,0,0,0-18-18h-20v18a18.09,18.09,0,0,0,18,18Z" transform="translate(0 -6.59)" style="fill: #c6ac6d;fill-rule: evenodd"/>
          <path d="M1412.33,100.71v-18a18.09,18.09,0,0,0-18-18h-20v18a18.09,18.09,0,0,0,18,18Z" transform="translate(0 -6.59)" style="fill: #c6ac6d;fill-rule: evenodd"/>
          <path d="M1367.35,100.71v-18a18.09,18.09,0,0,0-18-18h-20v18a18.09,18.09,0,0,0,18,18Z" transform="translate(0 -6.59)" style="fill: #c6ac6d;fill-rule: evenodd"/>
          <g>
            <rect x="1615.55" y="27.77" width="88.67" height="8.64" style="fill: #ecddaa"/>
            <rect x="1615.55" y="42.74" width="88.67" height="8.64" style="fill: #ecddaa"/>
            <rect x="1615.55" y="57.71" width="88.67" height="8.64" style="fill: #ecddaa"/>
          </g>
        </g>
        <g>
          <path d="M96.9,53.65h0c0,2.83.67,5.14,1.5,5.14H398.67V48.5H98.39C97.57,48.5,96.9,50.81,96.9,53.65Z" transform="translate(0 -6.59)" style="fill: #ecddaa;fill-rule: evenodd"/>
          <path d="M112,6.59v18a18.09,18.09,0,0,0,18,18h20v-18a18.09,18.09,0,0,0-18-18Z" transform="translate(0 -6.59)" style="fill: #ecddaa;fill-rule: evenodd"/>
          <path d="M157,6.59v18a18.09,18.09,0,0,0,18,18h20v-18a18.09,18.09,0,0,0-18-18Z" transform="translate(0 -6.59)" style="fill: #ecddaa;fill-rule: evenodd"/>
          <path d="M201.93,6.59v18a18.09,18.09,0,0,0,18,18h20v-18a18.09,18.09,0,0,0-18-18Z" transform="translate(0 -6.59)" style="fill: #ecddaa;fill-rule: evenodd"/>
          <path d="M246.91,6.59v18a18.09,18.09,0,0,0,18,18h20v-18a18.09,18.09,0,0,0-18-18Z" transform="translate(0 -6.59)" style="fill: #ecddaa;fill-rule: evenodd"/>
          <path d="M291.89,6.59v18a18.09,18.09,0,0,0,18,18h20v-18a18.09,18.09,0,0,0-18-18Z" transform="translate(0 -6.59)" style="fill: #ecddaa;fill-rule: evenodd"/>
          <path d="M336.87,6.59v18a18.09,18.09,0,0,0,18,18h20v-18a18.09,18.09,0,0,0-18-18Z" transform="translate(0 -6.59)" style="fill: #ecddaa;fill-rule: evenodd"/>
          <path d="M112,100.71v-18a18.09,18.09,0,0,1,18-18h20v18a18.09,18.09,0,0,1-18,18Z" transform="translate(0 -6.59)" style="fill: #d8c284;fill-rule: evenodd"/>
          <path d="M157,100.71v-18a18.09,18.09,0,0,1,18-18h20v18a18.09,18.09,0,0,1-18,18Z" transform="translate(0 -6.59)" style="fill: #d8c284;fill-rule: evenodd"/>
          <path d="M201.93,100.71v-18a18.09,18.09,0,0,1,18-18h20v18a18.09,18.09,0,0,1-18,18Z" transform="translate(0 -6.59)" style="fill: #d8c284;fill-rule: evenodd"/>
          <path d="M246.91,100.71v-18a18.09,18.09,0,0,1,18-18h20v18a18.09,18.09,0,0,1-18,18Z" transform="translate(0 -6.59)" style="fill: #c6ac6d;fill-rule: evenodd"/>
          <path d="M291.89,100.71v-18a18.09,18.09,0,0,1,18-18h20v18a18.09,18.09,0,0,1-18,18Z" transform="translate(0 -6.59)" style="fill: #c6ac6d;fill-rule: evenodd"/>
          <path d="M336.87,100.71v-18a18.09,18.09,0,0,1,18-18h20v18a18.09,18.09,0,0,1-18,18Z" transform="translate(0 -6.59)" style="fill: #c6ac6d;fill-rule: evenodd"/>
          <g>
            <rect y="27.77" width="88.67" height="8.64" style="fill: #ecddaa"/>
            <rect y="42.74" width="88.67" height="8.64" style="fill: #ecddaa"/>
            <rect y="57.71" width="88.67" height="8.64" style="fill: #ecddaa"/>
          </g>
        </g>
      </g>
    </g>
  </g>
</svg>
