<svg xmlns="http://www.w3.org/2000/svg" viewBox="0 0 1188.94 142.98">
  <title>ggviz_logo</title>
  <g id="Layer_2" data-name="Layer 2">
    <g id="Layer_1-2" data-name="Layer 1">
      <g>
        <text transform="translate(8.33 85)" style="font-size: 100px;fill: #fbca6e;font-family: Quicksand-Bold, Quicksand;font-weight: 700">G<tspan x="69.6" y="0" style="letter-spacing: -0.0219873046875em">r</tspan><tspan x="110.8" y="0" style="letter-spacing: 0.0000048828125em">owing </tspan><tspan x="423.5" y="0" style="letter-spacing: 0.013994140625em">G</tspan><tspan x="494.5" y="0">a</tspan><tspan x="556.79" y="0" style="letter-spacing: -0.0219921875em">r</tspan><tspan x="598" y="0">dens</tspan></text>
        <path d="M1101.34,100.44h0c0,2.55-1.53,4.65-3.4,4.65H415.69V95.78h682.25C1099.81,95.78,1101.34,97.87,1101.34,100.44Z" style="fill: #fbca6e;fill-rule: evenodd"/>
        <path d="M0,100.44H0c0-2.55.74-4.65,1.64-4.65h329v9.31H1.64C.74,105.09,0,103,0,100.44Z" style="fill: #fbca6e;fill-rule: evenodd"/>
        <path d="M1087.71,57.9V74.21a16.35,16.35,0,0,1-16.31,16.31h-18.06V74.2a16.35,16.35,0,0,1,16.31-16.31Z" style="fill: #fbca6e;fill-rule: evenodd"/>
        <path d="M1047,57.9V74.21a16.35,16.35,0,0,1-16.31,16.31h-18.06V74.2A16.35,16.35,0,0,1,1029,57.9Z" style="fill: #fbca6e;fill-rule: evenodd"/>
        <path d="M1006.39,57.9V74.21a16.35,16.35,0,0,1-16.31,16.31H972V74.2A16.35,16.35,0,0,1,988.33,57.9Z" style="fill: #fbca6e;fill-rule: evenodd"/>
        <path d="M965.73,57.9V74.21a16.35,16.35,0,0,1-16.31,16.31H931.36V74.2A16.35,16.35,0,0,1,947.67,57.9Z" style="fill: #fbca6e;fill-rule: evenodd"/>
        <path d="M925.07,57.9V74.21a16.35,16.35,0,0,1-16.31,16.31H890.7V74.2A16.35,16.35,0,0,1,907,57.9Z" style="fill: #fbca6e;fill-rule: evenodd"/>
        <path d="M884.41,57.9V74.21a16.35,16.35,0,0,1-16.31,16.31H850V74.2A16.35,16.35,0,0,1,866.35,57.9Z" style="fill: #fbca6e;fill-rule: evenodd"/>
        <path d="M1087.71,143V126.67a16.36,16.36,0,0,0-16.31-16.31h-18.06v16.31A16.35,16.35,0,0,0,1069.64,143Z" style="fill: #fcbd4d;fill-rule: evenodd"/>
        <path d="M1047,143V126.67a16.36,16.36,0,0,0-16.31-16.31h-18.06v16.31A16.35,16.35,0,0,0,1029,143Z" style="fill: #fcbd4d;fill-rule: evenodd"/>
        <path d="M1006.39,143V126.67a16.36,16.36,0,0,0-16.31-16.31H972v16.31A16.35,16.35,0,0,0,988.33,143Z" style="fill: #fcbd4d;fill-rule: evenodd"/>
        <path d="M965.73,143V126.67a16.36,16.36,0,0,0-16.31-16.31H931.36v16.31A16.35,16.35,0,0,0,947.67,143Z" style="fill: #eda934;fill-rule: evenodd"/>
        <path d="M925.07,143V126.67a16.35,16.35,0,0,0-16.31-16.31H890.7v16.31A16.35,16.35,0,0,0,907,143Z" style="fill: #eda934;fill-rule: evenodd"/>
        <path d="M884.41,143V126.67a16.35,16.35,0,0,0-16.31-16.31H850v16.31A16.35,16.35,0,0,0,866.35,143Z" style="fill: #eda934;fill-rule: evenodd"/>
        <g>
          <rect x="1108.78" y="83" width="80.16" height="7.81" style="fill: #fbca6e"/>
          <rect x="1108.78" y="96.53" width="80.16" height="7.81" style="fill: #fbca6e"/>
          <rect x="1108.78" y="110.07" width="80.16" height="7.81" style="fill: #fbca6e"/>
        </g>
      </g>
    </g>
  </g>
</svg>
