<svg xmlns="http://www.w3.org/2000/svg" viewBox="0 0 737.91 124.47">
  <title>ggviz_desaturate_logo</title>
  <g id="Layer_2" data-name="Layer 2">
    <g id="Layer_1-2" data-name="Layer 1">
      <g>
        <text transform="translate(0 94.17)" style="font-size: 100px;fill: #ecddaa;font-family: Quicksand-Bold, Quicksand;font-weight: 700">GG Viz</text>
        <path d="M641,47.06h0c0,2.83-.67,5.14-1.5,5.14H339.24V41.91H639.51C640.33,41.91,641,44.22,641,47.06Z" style="fill: #ecddaa;fill-rule: evenodd"/>
        <path d="M625.93,0V18a18.09,18.09,0,0,1-18,18h-20V18a18.09,18.09,0,0,1,18-18Z" style="fill: #ecddaa;fill-rule: evenodd"/>
        <path d="M580.95,0V18a18.09,18.09,0,0,1-18,18h-20V18A18.09,18.09,0,0,1,561,0Z" style="fill: #ecddaa;fill-rule: evenodd"/>
        <path d="M536,0V18a18.09,18.09,0,0,1-18,18h-20V18A18.09,18.09,0,0,1,516,0Z" style="fill: #ecddaa;fill-rule: evenodd"/>
        <path d="M491,0V18a18.09,18.09,0,0,1-18,18H453V18A18.09,18.09,0,0,1,471,0Z" style="fill: #ecddaa;fill-rule: evenodd"/>
        <path d="M446,0V18a18.09,18.09,0,0,1-18,18H408V18A18.09,18.09,0,0,1,426,0Z" style="fill: #ecddaa;fill-rule: evenodd"/>
        <path d="M401,0V18a18.09,18.09,0,0,1-18,18H363V18a18.09,18.09,0,0,1,18-18Z" style="fill: #ecddaa;fill-rule: evenodd"/>
        <path d="M625.93,94.12v-18a18.09,18.09,0,0,0-18-18h-20v18a18.09,18.09,0,0,0,18,18Z" style="fill: #d8c284;fill-rule: evenodd"/>
        <path d="M580.95,94.12v-18a18.09,18.09,0,0,0-18-18h-20v18a18.09,18.09,0,0,0,18,18Z" style="fill: #d8c284;fill-rule: evenodd"/>
        <path d="M536,94.12v-18a18.09,18.09,0,0,0-18-18h-20v18a18.09,18.09,0,0,0,18,18Z" style="fill: #d8c284;fill-rule: evenodd"/>
        <path d="M491,94.12v-18a18.09,18.09,0,0,0-18-18H453v18a18.09,18.09,0,0,0,18,18Z" style="fill: #c6ac6d;fill-rule: evenodd"/>
        <path d="M446,94.12v-18a18.09,18.09,0,0,0-18-18H408v18a18.09,18.09,0,0,0,18,18Z" style="fill: #c6ac6d;fill-rule: evenodd"/>
        <path d="M401,94.12v-18a18.09,18.09,0,0,0-18-18H363v18a18.09,18.09,0,0,0,18,18Z" style="fill: #c6ac6d;fill-rule: evenodd"/>
        <g>
          <rect x="649.23" y="27.77" width="88.67" height="8.64" style="fill: #ecddaa"/>
          <rect x="649.23" y="42.74" width="88.67" height="8.64" style="fill: #ecddaa"/>
          <rect x="649.23" y="57.71" width="88.67" height="8.64" style="fill: #ecddaa"/>
        </g>
      </g>
    </g>
  </g>
</svg>
