<svg xmlns="http://www.w3.org/2000/svg" viewBox="0 0 2360.68 2028.68">
  <title>land_nav_hover</title>
  <g id="Layer_2" data-name="Layer 2">
    <g id="Layer_1-2" data-name="Layer 1">
      <g>
        <polygon id="hawthorn_backing" points="0 2028.68 154.93 2028.68 761 1750 761 102.68 589.79 102.68 0 563 0 2028.68" style="fill: #fff"/>
        <g id="hawthorn">
          <path d="M527.2,854.25a15,15,0,0,0-15.24,0,15,15,0,0,0-5.51,6,19.13,19.13,0,0,0-2.11,9.09,18.77,18.77,0,0,0,2.1,9,15.11,15.11,0,0,0,5.52,5.94,15,15,0,0,0,15.24,0,15.11,15.11,0,0,0,5.52-5.94,18.79,18.79,0,0,0,2.1-9,19.15,19.15,0,0,0-2.11-9.09A15,15,0,0,0,527.2,854.25Z" style="fill: #c0dcb0"/>
          <path d="M207.46,852.17a12.85,12.85,0,0,0-10.32,4.71c-2.83,3.31-4.2,7.38-4.2,12.45s1.35,9.13,4.14,12.39a12.87,12.87,0,0,0,10.38,4.65,13,13,0,0,0,10.45-4.66c2.82-3.27,4.19-7.32,4.19-12.38s-1.37-9.14-4.2-12.45A13,13,0,0,0,207.46,852.17Z" style="fill: #c0dcb0"/>
          <path d="M566.28,1045H758.41c4.08,0,7.27-4.11,7.27-9V107.18c0-4.87-3.19-9.18-7.27-9.18H618c-4.08,0-7.33,4.31-7.33,9.18v52.91c0,4.87-3.37,8.91-7.45,8.91H531.8c-4.08,0-7.11,3.86-7.11,8.73v50c0,4.87-3.58,9.3-7.66,9.3H445.59c-4.08,0-6.9,3.46-6.9,8.33v50c0,4.87-3.79,8.7-7.87,8.7H359.38c-4.08,0-7.69,4.07-7.69,8.94v52.91c0,4.87-3,9.15-7.08,9.15H270.7c-4.08,0-7,3.61-7,8.48v50c0,4.87-3.68,8.55-7.76,8.55H184.49c-4.08,0-7.81,4.22-7.81,9.09V571.6c0,4.87-2.89,8.4-7,8.4H12.07c-4.08,0-7.39,4.37-7.39,9.24V1036c0,4.87,3.31,9,7.39,9H204.2c4.08,0,7.48,3.78,7.48,8.65v85.24c0,4.87-3.4,9.11-7.48,9.11H12.07c-4.08,0-7.39,3.66-7.39,8.53v858.29c0,4.87,3.31,9.18,7.39,9.18H154.93c4.08,0,7.75-4.31,7.75-9.18V1759.09c0-4.87,3-9.09,7-9.09H758.41c4.08,0,7.27-3.67,7.27-8.54V1156.53c0-4.87-3.19-8.53-7.27-8.53H566.28c-4.08,0-7.6-4.24-7.6-9.11v-85.24C558.68,1048.78,562.2,1045,566.28,1045Zm56.4-200.51a10.23,10.23,0,0,1,3-7.31,10.49,10.49,0,0,1,14.7,0,10.17,10.17,0,0,1,2,2.82,35.32,35.32,0,0,1,4.87-3.48,25,25,0,0,1,13-3.54c9.21,0,15.68,2.91,19.38,8.63,3.42,5.31,5.09,12.62,5.09,21.73V894a10.07,10.07,0,0,1-2.82,7.31,10.14,10.14,0,0,1-14.42,0,10,10,0,0,1-2.75-7.31V863.33c0-3.73-.87-6.63-2.32-8.61-1.25-1.72-3.63-2.55-7.12-2.55-3.84,0-6.55,1-8.62,3.13a10.77,10.77,0,0,0-2.94,8V894a10.3,10.3,0,0,1-3.08,7.31,10.16,10.16,0,0,1-7.41,3A10.34,10.34,0,0,1,622.68,894Zm-57,0a10.28,10.28,0,0,1,3.06-7.31,10.54,10.54,0,0,1,14.75,0,10.45,10.45,0,0,1,1.56,2,22,22,0,0,1,4.93-3.34,27.45,27.45,0,0,1,12.39-2.9,12.15,12.15,0,0,1,8,2.73,9.1,9.1,0,0,1,3.55,7.11c0,3.31-1,5.91-2.83,7.73a9.38,9.38,0,0,1-6.65,2.71,14.89,14.89,0,0,1-5.06-1l-1.46-.43a6.82,6.82,0,0,0-1.87-.24,7.67,7.67,0,0,0-4.34,1.42,11,11,0,0,0-3.56,4.62,18.65,18.65,0,0,0-1.43,8V894a10.5,10.5,0,0,1-21,0ZM160.68,894a9.84,9.84,0,0,1-2.84,7.37,10,10,0,0,1-7.38,2.95,10.62,10.62,0,0,1-7.48-3,10.26,10.26,0,0,1-3.3-7.37V869h-32v25a9.77,9.77,0,0,1-3.16,7.43,10.79,10.79,0,0,1-14.8-.09,10.07,10.07,0,0,1-3-7.34V824.69a10.13,10.13,0,0,1,3.16-7.37,10.64,10.64,0,0,1,7.66-2.95,10.16,10.16,0,0,1,10.18,10.32V849h32V824.69a10.08,10.08,0,0,1,3.48-7.43,10.78,10.78,0,0,1,7.43-2.89,9.83,9.83,0,0,1,7.35,2.92,10,10,0,0,1,2.75,7.4Zm81,0a10,10,0,0,1-2.78,7.31,9.82,9.82,0,0,1-7.26,3,9.65,9.65,0,0,1-7.23-3,10.26,10.26,0,0,1-1.4-1.82,31.67,31.67,0,0,1-5.32,3.21,27.5,27.5,0,0,1-12,2.76,30.5,30.5,0,0,1-16.61-4.73,32.93,32.93,0,0,1-11.68-13,40,40,0,0,1-4.23-18.54,40.85,40.85,0,0,1,4.16-18.57,32.6,32.6,0,0,1,11.56-13.06A29.82,29.82,0,0,1,205.18,833a30.91,30.91,0,0,1,12,2.33,34.4,34.4,0,0,1,5.59,2.93,10.21,10.21,0,0,1,1.67-2.25,9.94,9.94,0,0,1,7.31-3,9.68,9.68,0,0,1,7.17,2.92,10,10,0,0,1,2.81,7.4Zm100.06-45.86,0,.11-18.38,49.51a8.9,8.9,0,0,1-3.73,4.66,9.78,9.78,0,0,1-5.7,1.53h-.19l-1.06.11c-2.66-.18-6.27-1.31-8.55-6.15l-.07-.09-7.35-21.24-7,21.27-.08.18c-2.29,4.84-5.89,5.84-8.55,6L280,904h-.19a9.77,9.77,0,0,1-5.7-1.53,9.16,9.16,0,0,1-3.72-4.78L252,848.35a10.87,10.87,0,0,1-.67-3.77,10.51,10.51,0,0,1,2.74-7.2,9.69,9.69,0,0,1,7.46-3.22,10.37,10.37,0,0,1,5.78,1.63,9.07,9.07,0,0,1,3.66,5l10.12,27.47,6.69-18.13,0-.07a9.74,9.74,0,0,1,9.35-6.25,9.1,9.1,0,0,1,5.75,1.72,11.2,11.2,0,0,1,3.26,4.56l6.49,17.6,10-26.89a9,9,0,0,1,3.75-5,11.13,11.13,0,0,1,6-1.61,9.47,9.47,0,0,1,7,3,10.42,10.42,0,0,1,2.8,7.4A13.28,13.28,0,0,1,341.75,848.19Zm43.46,37.29a3.09,3.09,0,0,0,1.76.41,7.2,7.2,0,0,0,1.73-.32,10.26,10.26,0,0,1,3.76-.76,6.93,6.93,0,0,1,5.36,2.67,9.29,9.29,0,0,1,2.1,6.21c0,2.24-.85,5.44-4.94,8a17.71,17.71,0,0,1-9.57,2.68,26.46,26.46,0,0,1-14.18-3.64c-4.32-2.69-6.56-8.09-6.56-16V855h-2.42a10,10,0,0,1,0-20h2.42v-4.31a10.25,10.25,0,0,1,10.39-10.32,9.29,9.29,0,0,1,7,3,10,10,0,0,1,2.65,7.31V835h6a10,10,0,0,1,0,20h-6v29.09A1.71,1.71,0,0,0,385.21,885.48ZM472.68,894a10,10,0,0,1-2.66,7.31,9.44,9.44,0,0,1-7.08,3,9.87,9.87,0,0,1-7.34-3,10.14,10.14,0,0,1-2.91-7.31V863.33c0-3.76-.66-6.69-2-8.69-.42-.61-1.67-2.47-6.57-2.47-3.65,0-6.43,1-8.38,3.08a11.28,11.28,0,0,0-3,8.08V894a10.07,10.07,0,0,1-2.82,7.31,9.87,9.87,0,0,1-7.28,3,9.6,9.6,0,0,1-7.16-3,10,10,0,0,1-2.74-7.31V819.89a10,10,0,0,1,2.76-7.31,10.19,10.19,0,0,1,14.45,0,10.06,10.06,0,0,1,2.79,7.31V839a25.3,25.3,0,0,1,3.72-2.57,23.94,23.94,0,0,1,12.7-3.5c9,0,15.16,2.92,18.77,8.66,3.33,5.31,4.81,12.61,4.81,21.7Zm77.83-6a33.61,33.61,0,0,1-13,13,37.62,37.62,0,0,1-36,0,33.73,33.73,0,0,1-12.9-13,39.48,39.48,0,0,1,0-37.4,34.18,34.18,0,0,1,12.88-13,37.2,37.2,0,0,1,36,0,34.07,34.07,0,0,1,12.95,13,39.47,39.47,0,0,1,0,37.4Z" style="fill: #c0dcb0"/>
        </g>
      </g>
      <g id="eleventh">
        <polygon points="1246 1348.68 1115.68 1348.68 811 1293 811 101.68 1045.68 101.68 1246 224 1246 1348.68" style="fill: #fff"/>
        <path id="eleventh-2" data-name="eleventh" d="M1115.68,224V402h-70V97h-230V1293h101v-76h129V1039h70v305h135V224Zm-116,329.47a9.15,9.15,0,0,1,2.67-6.44,8.92,8.92,0,0,1,6.51-2.66,8.57,8.57,0,0,1,6.36,2.66,9,9,0,0,1,2.46,6.44v14.94c1-.54,1.61-1.06,2.41-1.55a20.56,20.56,0,0,1,10.88-3c7.67,0,13.24,2.51,16.35,7.45,2.83,4.5,4.37,10.67,4.37,18.35v25.6a9.11,9.11,0,0,1-2.62,6.44,9,9,0,0,1-6.53,2.66,8.61,8.61,0,0,1-6.38-2.66,9,9,0,0,1-2.47-6.44v-25.6a12.36,12.36,0,0,0-1.7-7c-.31-.45-1.29-1.84-5.11-1.84-2.9,0-5.19.79-6.71,2.41a9,9,0,0,0-2.48,6.39v25.6a8.94,8.94,0,0,1-2.42,6.44,8.64,8.64,0,0,1-6.39,2.66,9,9,0,0,1-6.55-2.66,9.12,9.12,0,0,1-2.64-6.44Zm-49.14,14.88a8.51,8.51,0,0,1,6.09-2.35h2v-3.53a8.61,8.61,0,0,1,8.76-9.1A9,9,0,0,1,974,556a9.2,9.2,0,0,1,2.72,6.44V566h3.65a8.36,8.36,0,0,1,8.6,8.5,8.28,8.28,0,0,1-2.51,6.05,8.6,8.6,0,0,1-6.09,2.45h-3.65v24a2.19,2.19,0,0,1-.11.84,1.68,1.68,0,0,0,.87.16,5.32,5.32,0,0,0,1.17-.24,8.76,8.76,0,0,1,3.24-.66,6.21,6.21,0,0,1,4.82,2.4,8.22,8.22,0,0,1,1.86,5.5c0,2-.76,4.83-4.36,7.09a15.27,15.27,0,0,1-8.25,2.31,21.6,21.6,0,0,1-11.81-3.11c-3.76-2.34-5.44-7-5.44-13.79V583h-2a8.58,8.58,0,0,1-8.6-8.7A8.06,8.06,0,0,1,950.55,568.35Zm-53.86,46.92a8.72,8.72,0,0,1-2.89,6.56,9.67,9.67,0,0,1-6.76,2.54,9.2,9.2,0,0,1-6.67-2.6,8.83,8.83,0,0,1-2.68-6.5v-42l-1.66,1a9.17,9.17,0,0,1-4.78,1.34,8.6,8.6,0,0,1-6.46-2.87,9,9,0,0,1-2.54-6.23,8.67,8.67,0,0,1,1.28-4.56,9.18,9.18,0,0,1,3.32-3.25l15.12-9,.07,0a12.11,12.11,0,0,1,5.7-1.25,8.72,8.72,0,0,1,6.37,2.66,9.07,9.07,0,0,1,2.57,6.44Zm16.86-39.7a8.49,8.49,0,0,1-6.41-2.87,9,9,0,0,1-2.52-6.23,8.68,8.68,0,0,1,1.3-4.56,9.2,9.2,0,0,1,3.33-3.25l15.12-9,.07,0a12.11,12.11,0,0,1,5.7-1.25,8.28,8.28,0,0,1,6.17,2.66,8.91,8.91,0,0,1,2.37,6.44v57.8a8.54,8.54,0,0,1-2.69,6.56,9.19,9.19,0,0,1-6.56,2.54,9.67,9.67,0,0,1-6.87-2.6,9,9,0,0,1-2.88-6.5v-42l-1.46,1A8.83,8.83,0,0,1,913.55,575.57ZM1115.68,861h-199V708h199Zm33.9-246.69a25.89,25.89,0,0,1-10.66,8.26,34.82,34.82,0,0,1-13.89,2.8,45,45,0,0,1-13.72-1.94,32.71,32.71,0,0,1-11.56-6.7,9.93,9.93,0,0,1-3.72-7.55,8.68,8.68,0,0,1,2.55-6.14,8.54,8.54,0,0,1,6.25-2.66,8.25,8.25,0,0,1,5.28,1.86,26.7,26.7,0,0,0,7,4.35,21.63,21.63,0,0,0,7.9,1.29,15.15,15.15,0,0,0,8.07-2.05c2.35-1.45,2.63-2.78,2.63-3.65a5,5,0,0,0-2.61-4.52c-2.3-1.46-6.18-2.61-11.53-3.41-11.15-1.63-24.46-7-24.46-23.37a21.44,21.44,0,0,1,3.85-12.69,23.88,23.88,0,0,1,10.26-8.12,35,35,0,0,1,13.88-2.69,39.54,39.54,0,0,1,12.82,2.06,31.89,31.89,0,0,1,10.2,5.54,9.53,9.53,0,0,1,4,7.6,8.68,8.68,0,0,1-2.55,6.14,8.43,8.43,0,0,1-6.15,2.66,7.34,7.34,0,0,1-4.5-1.5l-.08-.06a23.69,23.69,0,0,0-6.42-3.38,21.24,21.24,0,0,0-7.29-1.56c-3.56,0-6.28.62-8.06,1.83a4.47,4.47,0,0,0,0,7.62c2,1.26,5.44,2.34,10.11,3.2a60.89,60.89,0,0,1,14.45,4.07,20.57,20.57,0,0,1,9,7.51c2,3.18,3.08,7.34,3.08,12.37A21,21,0,0,1,1149.59,614.31Zm39-6.35a5.33,5.33,0,0,0,1.2-.24,8.82,8.82,0,0,1,3.25-.66,6.22,6.22,0,0,1,4.83,2.41,8.22,8.22,0,0,1,1.86,5.49c0,2-.76,4.83-4.36,7.09a15.27,15.27,0,0,1-8.25,2.31,22,22,0,0,1-11.91-3.11c-3.76-2.34-5.54-7-5.54-13.79V583h-1.85a8.58,8.58,0,0,1-8.6-8.7,8.06,8.06,0,0,1,2.51-6,8.52,8.52,0,0,1,6.09-2.35h1.85v-3.53A9,9,0,0,1,1185,556a9.13,9.13,0,0,1,2.64,6.44V566h3.85a8.36,8.36,0,0,1,8.6,8.5,8.29,8.29,0,0,1-2.51,6.05,8.6,8.6,0,0,1-6.09,2.45h-3.85v24c0,.63,0,.84,0,.84A2,2,0,0,0,1188.59,608Z" style="fill: #acce89"/>
      </g>
      <g id="hope">
        <rect x="1296" y="4.68" width="638" height="845.17" style="fill: #fff"/>
        <g id="hope-2" data-name="hope">
          <path d="M1783.82,273a13.29,13.29,0,0,0-4.17-5.87,15.06,15.06,0,0,0-9.87-3.46c-8,0-12.93,2.33-15.26,9.33Z" style="fill: #a5cd8d"/>
          <path d="M1679.06,263.47a15.69,15.69,0,0,0-12.57,5.61c-3.37,3.91-5,8.74-5,14.77s1.64,10.9,5,14.85a16.59,16.59,0,0,0,25,0c3.38-4,5-8.81,5-14.85s-1.62-10.87-5-14.78A15.5,15.5,0,0,0,1679.06,263.47Z" style="fill: #a5cd8d"/>
          <path d="M1591,266a18,18,0,0,0-18.3,0,18,18,0,0,0-6.61,7.18,22.81,22.81,0,0,0-2.52,10.84,22.39,22.39,0,0,0,2.51,10.75,18.11,18.11,0,0,0,6.62,7.12,18,18,0,0,0,18.3,0,18.12,18.12,0,0,0,6.62-7.12,22.42,22.42,0,0,0,2.51-10.76,22.83,22.83,0,0,0-2.52-10.84A18,18,0,0,0,1591,266Z" style="fill: #a5cd8d"/>
          <path d="M1781.33,416h150.76a6.61,6.61,0,0,0,6.59-6.66V6.56A6.54,6.54,0,0,0,1932.09,0H1307.86c-3.9,0-7.18,3.14-7.18,6.56V845.17c0,3.42,3.28,5.83,7.18,5.83h624.23c3.9,0,6.59-2.41,6.59-5.83V587c0-3.42-2.69-6-6.59-6H1781.33a6.47,6.47,0,0,1-6.65-6.41V421.74C1774.68,418.31,1777.43,416,1781.33,416ZM1522.68,312.83a10.93,10.93,0,0,1-3.26,8.24,11.39,11.39,0,0,1-8.36,3.3,11.35,11.35,0,0,1-11.38-11.54V283h-39v29.83a10.92,10.92,0,0,1-3.54,8.3,11.66,11.66,0,0,1-8.15,3.24,11.08,11.08,0,0,1-11.31-11.54V231.91a11,11,0,0,1,3.27-8.24,11.62,11.62,0,0,1,8.45-3.3,11.27,11.27,0,0,1,11.28,11.54V261h39V231.91a10.8,10.8,0,0,1,3.55-8.3,11.68,11.68,0,0,1,8.15-3.24,11,11,0,0,1,8.23,3.26,11.14,11.14,0,0,1,3.07,8.28Zm94.87-7.27a38.72,38.72,0,0,1-14.93,14.93,43.4,43.4,0,0,1-41.51,0,38.85,38.85,0,0,1-14.85-14.92,45.55,45.55,0,0,1,0-43.14,39.37,39.37,0,0,1,14.84-15,42.89,42.89,0,0,1,41.54,0,39.24,39.24,0,0,1,14.92,15,45.55,45.55,0,0,1,0,43.14Zm96.25-.27a37.54,37.54,0,0,1-13.31,15,35,35,0,0,1-32.94,2.44c-2-.93-3.87-2-5.87-3.1v21.17a11.14,11.14,0,0,1-3,8.18,10.43,10.43,0,0,1-7.92,3.36,10.75,10.75,0,0,1-8-3.26,11.16,11.16,0,0,1-3.11-8.28V255a11.21,11.21,0,0,1,3.08-8.18,11.48,11.48,0,0,1,16.23,0,11.31,11.31,0,0,1,2,2.77,37.19,37.19,0,0,1,6.22-4,29.88,29.88,0,0,1,14-3.49,35.11,35.11,0,0,1,19.1,5.44,38,38,0,0,1,13.45,14.95,46.21,46.21,0,0,1,4.88,21.4A47.19,47.19,0,0,1,1713.8,305.29Zm58.78,20.48a44.42,44.42,0,0,1-22-5.28,37.29,37.29,0,0,1-14.67-14.68A42.53,42.53,0,0,1,1730.8,285a46.08,46.08,0,0,1,5.42-22.59,38.9,38.9,0,0,1,14.41-15.07,37.49,37.49,0,0,1,19.15-5.24,35.8,35.8,0,0,1,19,5.49,40.83,40.83,0,0,1,14.12,14.64,39.65,39.65,0,0,1,5.3,20v.13a10.53,10.53,0,0,1-3.74,7.78,12,12,0,0,1-7.8,2.93h-42.23a17.31,17.31,0,0,0,5.57,7.45,18.37,18.37,0,0,0,11.74,4,27.24,27.24,0,0,0,8-.94,20.36,20.36,0,0,0,4.44-1.94c1.29-.81,2.17-1.37,2.65-1.66l.1-.06.1-.05a13.68,13.68,0,0,1,6.1-1.58,9.93,9.93,0,0,1,7.16,3,9.77,9.77,0,0,1,3,7c0,3.48-1.7,6.58-5.07,9.22a36.44,36.44,0,0,1-11.39,5.94A44.27,44.27,0,0,1,1772.58,325.77Z" style="fill: #a5cd8d"/>
        </g>
      </g>
      <g id="foothills">
        <polygon points="1974 4.68 2253.68 4.68 2356 145 2356 1140.68 1974 1140.68 1974 4.68" style="fill: #fff"/>
        <g id="foothills-2" data-name="foothills">
          <path d="M2233.07,657h120.26c3.83,0,7.35-3,7.35-6.78V173.81c0-3.83-3.52-6.81-7.35-6.81h-92.51a7.22,7.22,0,0,1-7.14-7.06V7.3c0-3.83-2.9-7.3-6.74-7.3H2203a7.6,7.6,0,0,0-7.32,7.3V111.37a6.36,6.36,0,0,1-6.55,6.63h-39.31a6.85,6.85,0,0,1-7.13-6.63V7.3c0-3.83-2.91-7.3-6.74-7.3H1985.62a7.26,7.26,0,0,0-6.94,7.3V650.22a6.81,6.81,0,0,0,6.94,6.78h115.63c3.83,0,7.43,3.26,7.43,7.09V807.47c0,3.83-3.6,6.53-7.43,6.53H1985.62c-3.83,0-6.94,3.52-6.94,7.35v307.58a7.05,7.05,0,0,0,6.94,7.07h150.32a6.89,6.89,0,0,0,6.74-7.07V1024.86a7,7,0,0,1,7.13-6.86h39.31a6.55,6.55,0,0,1,6.55,6.86v104.07A7.39,7.39,0,0,0,2203,1136h150.32a7.42,7.42,0,0,0,7.35-7.07V821.35a7.67,7.67,0,0,0-7.35-7.35H2233.07c-3.83,0-7.39-2.69-7.39-6.53V664.09A7.47,7.47,0,0,1,2233.07,657Zm91.26-215.5a25.34,25.34,0,0,0-5.47-2,53.43,53.43,0,0,1-7.09-2.4,14,14,0,0,1-5.28-4.06,12.69,12.69,0,0,1,0-14.8,15.06,15.06,0,0,1,6-4.57,18.82,18.82,0,0,1,7.61-1.57,23,23,0,0,1,8,1.49,14.8,14.8,0,0,1,6.64,4.67,6,6,0,0,1,1.36,3.83,5.34,5.34,0,0,1-2.13,4.3,5.6,5.6,0,0,1-3.54,1.22,5.53,5.53,0,0,1-4-1.59l-.07-.07-.06-.08a7.12,7.12,0,0,0-2.63-2,9.16,9.16,0,0,0-3.81-.76c-3.47,0-3.47,1.23-3.47,2a1.4,1.4,0,0,0,.4,1.12,5,5,0,0,0,1.83,1.06c1,.35,2.42.78,4.24,1.3a49.8,49.8,0,0,1,6.75,2.33,13.16,13.16,0,0,1,5.17,4.15,12.1,12.1,0,0,1,2.21,7.47,11.6,11.6,0,0,1-2.52,7.4,15.25,15.25,0,0,1-6.16,4.6,19.4,19.4,0,0,1-7.5,1.52,26.5,26.5,0,0,1-9.58-1.72,16.75,16.75,0,0,1-7.59-5.79,5.44,5.44,0,0,1-1-3.34,5.71,5.71,0,0,1,2.73-4.81,5.85,5.85,0,0,1,3.23-1,6,6,0,0,1,4.29,2,13.32,13.32,0,0,0,3.92,2.91,11.51,11.51,0,0,0,4.81.9c3.62-.14,3.62-1.51,3.62-2.25A1.47,1.47,0,0,0,2324.33,441.5Zm-43.65-37a6.59,6.59,0,0,1,6.64-6.39,6.21,6.21,0,0,1,4.51,1.86,6.33,6.33,0,0,1,1.85,4.53V449a6.32,6.32,0,0,1-6.42,6.39,6.53,6.53,0,0,1-6.58-6.39Zm-25,0a6.5,6.5,0,0,1,13,0V449a6.39,6.39,0,0,1-2,4.55,6.55,6.55,0,0,1-4.66,1.85,6.23,6.23,0,0,1-4.53-1.87,6.33,6.33,0,0,1-1.86-4.53Zm-24,.72a5.13,5.13,0,0,1,1.87-4.42,7.65,7.65,0,0,1,4.63-1.18,7.55,7.55,0,0,1,4.75,1.22,5.25,5.25,0,0,1,1.76,4.38v1.37a5.16,5.16,0,0,1-1.86,4.46,8,8,0,0,1-4.73,1.14,7.37,7.37,0,0,1-4.66-1.22,5.23,5.23,0,0,1-1.74-4.38Zm0,14a6.33,6.33,0,0,1,1.87-4.53,6.25,6.25,0,0,1,4.57-1.87,6.45,6.45,0,0,1,6.56,6.39V449a6.5,6.5,0,0,1-13,0Zm-192.54-7.9a6.17,6.17,0,0,1-4.53,1.66h-16.94v9h13.7a6.31,6.31,0,0,1,4.5,1.69,6,6,0,0,1,1.89,4.49,5.6,5.6,0,0,1-1.87,4.13,6.18,6.18,0,0,1-4.53,1.68h-13.7v15a6.1,6.1,0,0,1-1.88,4.59,6.2,6.2,0,0,1-4.43,1.81,6.62,6.62,0,0,1-4.74-1.79,6.31,6.31,0,0,1-1.94-4.6V407.36a6.32,6.32,0,0,1,1.92-4.53,6.44,6.44,0,0,1,4.62-1.83h23.4a6.34,6.34,0,0,1,4.5,1.72,6,6,0,0,1,1.89,4.51A5.56,5.56,0,0,1,2039.15,411.34Zm48.26,34.12a20.36,20.36,0,0,1-7.85,7.85,22.78,22.78,0,0,1-21.8,0,20.42,20.42,0,0,1-7.81-7.85,23.88,23.88,0,0,1,0-22.64,20.71,20.71,0,0,1,7.8-7.88,22.52,22.52,0,0,1,21.82,0,20.64,20.64,0,0,1,7.84,7.88,23.88,23.88,0,0,1,0,22.64Zm50,0a20.36,20.36,0,0,1-7.85,7.85,22.78,22.78,0,0,1-21.8,0,20.42,20.42,0,0,1-7.81-7.85,23.88,23.88,0,0,1,0-22.64,20.71,20.71,0,0,1,7.8-7.88,22.52,22.52,0,0,1,21.82,0,20.64,20.64,0,0,1,7.84,7.88,23.88,23.88,0,0,1,0,22.64Zm28.36-1.77a1.32,1.32,0,0,0,.81.19,4,4,0,0,0,.92-.18,6.22,6.22,0,0,1,2.3-.46,4.33,4.33,0,0,1,3.35,1.68,5.84,5.84,0,0,1-1.76,8.82,10.83,10.83,0,0,1-5.85,1.64,16.42,16.42,0,0,1-8.71-2.21c-2.65-1.65-4.13-5-4.13-9.8V425h-1.06a5.74,5.74,0,0,1-4.3-1.5,5.66,5.66,0,0,1-1.74-4.17,5.13,5.13,0,0,1,1.76-3.93,5.8,5.8,0,0,1,4.27-1.4h1.06v-3a6.52,6.52,0,0,1,6.58-6.39,6.28,6.28,0,0,1,4.54,1.87,6.35,6.35,0,0,1,1.88,4.53v3h3a5.77,5.77,0,0,1,4.29,1.52,5.7,5.7,0,0,1,1.74,4.19,5.09,5.09,0,0,1-1.76,3.91,5.79,5.79,0,0,1-4.27,1.38h-3v18A2.59,2.59,0,0,0,2165.74,443.69Zm55.95,5.28a6.49,6.49,0,0,1-2,4.53,6.69,6.69,0,0,1-4.76,1.87,6.06,6.06,0,0,1-4.48-1.87,6.23,6.23,0,0,1-1.74-4.53V430.54a9.05,9.05,0,0,0-1.25-5.1c-.24-.34-1-1.4-3.81-1.4a6.36,6.36,0,0,0-6.94,6.5V449a6.14,6.14,0,0,1-1.61,4.53,6,6,0,0,1-4.44,1.87,5.75,5.75,0,0,1-4.34-1.87,6.12,6.12,0,0,1-1.6-4.53v-44.5a6.16,6.16,0,0,1,1.65-4.53,6,6,0,0,1,4.46-1.87,5.7,5.7,0,0,1,4.32,1.87,6.11,6.11,0,0,1,1.58,4.53v11.08a14.63,14.63,0,0,0,2.06-1.3,14.8,14.8,0,0,1,7.8-2.13c5.46,0,9.62,1.78,11.83,5.29a24.55,24.55,0,0,1,3.31,13.12Z" style="fill: #acce89"/>
          <path d="M2073.14,425.27a8.79,8.79,0,0,0-8.94,0,8.82,8.82,0,0,0-3.23,3.52,11.28,11.28,0,0,0-1.24,5.36,11.07,11.07,0,0,0,1.24,5.31,8.87,8.87,0,0,0,3.24,3.49,8.79,8.79,0,0,0,8.94,0,8.89,8.89,0,0,0,3.24-3.49,11.07,11.07,0,0,0,1.24-5.31,11.29,11.29,0,0,0-1.24-5.36A8.84,8.84,0,0,0,2073.14,425.27Z" style="fill: #acce89"/>
          <path d="M2123.11,425.27a8.79,8.79,0,0,0-8.94,0,8.82,8.82,0,0,0-3.23,3.52,11.28,11.28,0,0,0-1.24,5.36,11.07,11.07,0,0,0,1.24,5.31,8.87,8.87,0,0,0,3.24,3.49,8.79,8.79,0,0,0,8.94,0,8.89,8.89,0,0,0,3.24-3.49,11.07,11.07,0,0,0,1.24-5.31,11.29,11.29,0,0,0-1.24-5.36A8.84,8.84,0,0,0,2123.11,425.27Z" style="fill: #acce89"/>
        </g>
      </g>
      <g id="kerr">
        <polygon points="2210.68 1903.82 1978.68 1903.82 1978.68 1182 2360.68 1182 2360.68 1527 2210.68 1903.82" style="fill: #fff"/>
        <g id="kerr-2" data-name="kerr">
          <path d="M2157.08,1391.35a10.61,10.61,0,0,0-6.85-2.57c-5.18,0-8.43,2.22-10.18,5.22h19.46A8.83,8.83,0,0,0,2157.08,1391.35Z" style="fill: #b8d7a5"/>
          <path d="M2355.78,1276H2215.11a4.75,4.75,0,0,1-4.43-4.84v-80.81a4.43,4.43,0,0,0-4.55-4.36h-223a4.38,4.38,0,0,0-4.49,4.36v710.79a4.81,4.81,0,0,0,4.49,4.85h223a4.86,4.86,0,0,0,4.55-4.85V1531.54a4.48,4.48,0,0,1,4.43-4.54h140.66c2.48,0,4.91-2,4.91-4.44V1280.14C2360.68,1277.66,2358.25,1276,2355.78,1276Zm-251.56,155.75a10.21,10.21,0,0,1-6.92,2.62,8.81,8.81,0,0,1-7.11-3.63l-20.74-27-6.77,6.25v15a9,9,0,0,1-2.49,6.73,9.15,9.15,0,0,1-6.7,2.62,9.74,9.74,0,0,1-6.93-2.7,9.35,9.35,0,0,1-2.88-6.64v-60.11a9.33,9.33,0,0,1,3-6.67,9.81,9.81,0,0,1,7-2.67,8.71,8.71,0,0,1,6.51,2.64,9.11,9.11,0,0,1,2.47,6.7V1386l28.42-27.74a10.31,10.31,0,0,1,7.32-3.25,8.25,8.25,0,0,1,6.41,3,9.37,9.37,0,0,1,2.4,6.09,8.56,8.56,0,0,1-2.74,6.18l-20.78,19.83,21.58,28.55a10.49,10.49,0,0,1,1.48,2.85,9.89,9.89,0,0,1,.58,3.22A9,9,0,0,1,2104.22,1431.75Zm75.33-29.37a8.5,8.5,0,0,1-3.05,6.3,9.63,9.63,0,0,1-6.29,2.32H2140a9.53,9.53,0,0,0,3.44,4.18,12.92,12.92,0,0,0,8.25,2.82,18.92,18.92,0,0,0,5.73-.65,14.45,14.45,0,0,0,3.13-1.36l2-1.24.1-.06.1-.05a10.93,10.93,0,0,1,4.88-1.25,8.14,8.14,0,0,1,5.87,2.44,8,8,0,0,1,2.44,5.76c0,1.95-.7,4.82-4.06,7.46a27.81,27.81,0,0,1-8.69,4.54,35.23,35.23,0,0,1-27.55-2.2,28.46,28.46,0,0,1-11.2-11.2,32.36,32.36,0,0,1-3.91-15.85,35,35,0,0,1,4.12-17.16,29.65,29.65,0,0,1,11-11.48,28.6,28.6,0,0,1,14.62-4,27.36,27.36,0,0,1,14.52,4.19,31.1,31.1,0,0,1,10.75,11.15,30.22,30.22,0,0,1,4,15.22Zm58.68-14.77a8.53,8.53,0,0,1-6,2.46,13.28,13.28,0,0,1-4.52-.89l-1.25-.37a5.53,5.53,0,0,0-1.52-.2,6.28,6.28,0,0,0-3.54,1.16,9.53,9.53,0,0,0-3.21,3.84,15.65,15.65,0,0,0-1.47,6.77V1425a9.16,9.16,0,0,1-2.47,6.62,8.67,8.67,0,0,1-6.47,2.73,8.81,8.81,0,0,1-6.54-2.73,9.21,9.21,0,0,1-2.53-6.61v-43a9.21,9.21,0,0,1,2.53-6.62,9.32,9.32,0,0,1,13.18,0,9.26,9.26,0,0,1,1.13,1.43,19.5,19.5,0,0,1,4-2.64,24.17,24.17,0,0,1,10.91-2.55,10.91,10.91,0,0,1,7.17,2.46,8.22,8.22,0,0,1,3.22,6.47A9.32,9.32,0,0,1,2238.23,1387.61Zm59.7,0a8.53,8.53,0,0,1-6,2.46,13.29,13.29,0,0,1-4.52-.89l-1.25-.37a5.53,5.53,0,0,0-1.52-.2,6.28,6.28,0,0,0-3.54,1.16,9.28,9.28,0,0,0-3.06,3.84,15.71,15.71,0,0,0-1.32,6.77V1425a9.28,9.28,0,0,1-2.62,6.62,9,9,0,0,1-6.62,2.73,8.47,8.47,0,0,1-6.38-2.73,9.09,9.09,0,0,1-2.37-6.61v-43a9.09,9.09,0,0,1,2.38-6.62,8.74,8.74,0,0,1,6.5-2.73,8.88,8.88,0,0,1,6.56,2.73,9.13,9.13,0,0,1,1.11,1.43,19.43,19.43,0,0,1,4-2.64,24.15,24.15,0,0,1,10.9-2.55,10.9,10.9,0,0,1,7.16,2.46,8.22,8.22,0,0,1,3.22,6.47A9.32,9.32,0,0,1,2297.92,1387.61Z" style="fill: #b8d7a5"/>
        </g>
      </g>
      <g id="living_harvest">
        <rect x="815.68" y="1391.39" width="1117" height="626.98" style="fill: #fff"/>
        <g id="living_harvest-2" data-name="living_harvest">
          <path d="M1250.65,1692.25a12.21,12.21,0,0,0-9.73,4.26,16.28,16.28,0,0,0-3.88,11.22,16.07,16.07,0,0,0,3.87,11.16,12.28,12.28,0,0,0,9.74,4.21,12.45,12.45,0,0,0,9.81-4.23,15.94,15.94,0,0,0,3.91-11.14,16.15,16.15,0,0,0-3.92-11.21A12.38,12.38,0,0,0,1250.65,1692.25Z" style="fill: #a5cd8d"/>
          <path d="M1456,1692.25a11.54,11.54,0,0,0-9.27,4.23,16.56,16.56,0,0,0-3.79,11.25c0,4.59,1.22,8.25,3.74,11.2a11.56,11.56,0,0,0,9.32,4.17,11.72,11.72,0,0,0,9.39-4.19,16.36,16.36,0,0,0,3.78-11.18,16.57,16.57,0,0,0-3.79-11.25A11.66,11.66,0,0,0,1456,1692.25Z" style="fill: #a5cd8d"/>
          <path d="M1675.11,1698a11.64,11.64,0,0,0-2.74-3.24,11.32,11.32,0,0,0-7.35-2.69c-5.67,0-9.2,1.93-11,5.93Z" style="fill: #a5cd8d"/>
          <path d="M1932.68,1397.63A4.63,4.63,0,0,0,1928,1393H820.31a4.63,4.63,0,0,0-4.63,4.63v620.73a4.63,4.63,0,0,0,4.63,4.63H1928a4.63,4.63,0,0,0,4.63-4.63ZM990,1737.39a9.63,9.63,0,0,1-6.84,2.61H947.39a9.49,9.49,0,0,1-9.71-9.61v-63.58a9.46,9.46,0,0,1,2.88-6.93,10.35,10.35,0,0,1,14.1,0,9.58,9.58,0,0,1,3,6.94V1721h25.46a9.74,9.74,0,0,1,6.84,2.75,9.31,9.31,0,0,1,2.87,6.92A9,9,0,0,1,990,1737.39Zm35.7-7a9.55,9.55,0,0,1-2.75,6.88,9.42,9.42,0,0,1-6.91,2.83,9.07,9.07,0,0,1-6.76-2.84,9.41,9.41,0,0,1-2.59-6.87V1685a9.42,9.42,0,0,1,2.59-6.88,9.22,9.22,0,0,1,6.82-2.83,9.36,9.36,0,0,1,6.88,2.83,9.53,9.53,0,0,1,2.72,6.88Zm0-64.79c0,3.13-.82,5.41-2.7,6.77-1.61,1.16-3.82,1.73-7.07,1.73s-5.76-.61-7.34-1.85a8.07,8.07,0,0,1-2.89-6.65v-2.09a7.92,7.92,0,0,1,3.08-6.71c1.65-1.21,4.06-1.79,7.16-1.79,3.29,0,5.57.6,7.16,1.85,1.79,1.41,2.6,3.64,2.6,6.65Zm72.51,23.22-20.56,45.3a9.81,9.81,0,0,1-3.22,4.19,9,9,0,0,1-4.88,1.68l-1.08,0h-.17a8.65,8.65,0,0,1-5.23-1.62,10.4,10.4,0,0,1-3.46-4.3l-20.45-45.28a11.71,11.71,0,0,1-1-4.74,8.5,8.5,0,0,1,2.78-6.16,9.42,9.42,0,0,1,6.71-2.66,10.12,10.12,0,0,1,5.44,1.56,9.77,9.77,0,0,1,3.79,4.41l12.43,28.47,12.32-28.34a10.19,10.19,0,0,1,3.43-4.44,8.15,8.15,0,0,1,4.82-1.56h.42a9.11,9.11,0,0,1,6.4,2.55,8.7,8.7,0,0,1,2.67,6.39A11.29,11.29,0,0,1,1098.19,1688.82Zm32.49,41.57a9.39,9.39,0,0,1-2.56,6.88,9,9,0,0,1-6.72,2.83,9.59,9.59,0,0,1-9.72-9.71V1685a9.58,9.58,0,0,1,2.78-6.88,9.43,9.43,0,0,1,6.91-2.83,9,9,0,0,1,6.73,2.83,9.42,9.42,0,0,1,2.57,6.88Zm0-64.79c0,3.13-.63,5.41-2.51,6.77-1.61,1.16-3.63,1.73-6.88,1.73s-5.45-.61-7-1.85c-1.78-1.39-2.58-3.63-2.58-6.65v-2.09c0-3,.86-5.31,2.77-6.71,1.65-1.21,3.9-1.79,7-1.79,3.29,0,5.3.6,6.89,1.85,1.79,1.41,2.34,3.64,2.34,6.65Zm74,64.79a9.56,9.56,0,0,1-2.76,6.88,9.46,9.46,0,0,1-6.92,2.83,10.18,10.18,0,0,1-7.24-2.84,9.84,9.84,0,0,1-3.07-6.87v-28.16c0-3.37-.3-6-1.6-7.74-1.1-1.5-3-2.24-6.09-2.24-3.45,0-5.86.91-7.71,2.79a9.62,9.62,0,0,0-2.6,7.19v28.16a9.59,9.59,0,0,1-2.79,6.88,9.44,9.44,0,0,1-6.92,2.83,10.15,10.15,0,0,1-7.23-2.84,9.83,9.83,0,0,1-3.06-6.87V1685a10,10,0,0,1,10.09-9.71,9.56,9.56,0,0,1,7,2.83,9.76,9.76,0,0,1,1.73,2.36,32.93,32.93,0,0,1,4.26-3,23.19,23.19,0,0,1,12.05-3.29c8.53,0,14.64,2.7,18.08,8,3.16,4.91,4.82,11.66,4.82,20Zm78,2.42c0,9.88-3,17.36-9.3,22.23-6.05,4.69-13.58,7.06-22.73,7.06a54,54,0,0,1-9.64-1.15,42.11,42.11,0,0,1-8.88-2.42c-5.9-2.53-7.15-6.35-7.15-9.11a8.44,8.44,0,0,1,.46-2.63,9.73,9.73,0,0,1,3.27-5.17,8.4,8.4,0,0,1,5.33-1.91,9.61,9.61,0,0,1,2.94.45c.33.09,1.2.39,5.67,2.11a22.76,22.76,0,0,0,8,1.72c4.7,0,8.15-.87,10.27-2.58a7.63,7.63,0,0,0,2.77-5.05q-1.27.88-2.72,1.7a24.19,24.19,0,0,1-12,3.13,29.23,29.23,0,0,1-15.6-4.35,30.42,30.42,0,0,1-11-12,36.5,36.5,0,0,1-4-17.12,37.26,37.26,0,0,1,3.9-17.15,30.22,30.22,0,0,1,10.86-12.06,28.49,28.49,0,0,1,15.4-4.37,27.05,27.05,0,0,1,11.74,2.6,31.94,31.94,0,0,1,4.53,2.62,9.54,9.54,0,0,1,1.71-2.39,9.36,9.36,0,0,1,6.88-2.83,9.08,9.08,0,0,1,6.68,2.75,9.36,9.36,0,0,1,2.58,7Zm126-2.42a9.15,9.15,0,0,1-2.52,6.94,9,9,0,0,1-6.78,2.77,9.65,9.65,0,0,1-9.69-9.71V1708h-29v22.39a9.32,9.32,0,0,1-3.11,7,10.25,10.25,0,0,1-14-.09,9.62,9.62,0,0,1-2.89-6.91v-63.58a9.52,9.52,0,0,1,3-6.93,10,10,0,0,1,7.19-2.77,9.78,9.78,0,0,1,6.89,2.77,9.53,9.53,0,0,1,3,6.94V1689h29v-22.19a9.27,9.27,0,0,1,3-7,9.87,9.87,0,0,1,6.87-2.72,8.78,8.78,0,0,1,6.7,2.75c1.83,1.83,2.38,4.17,2.38,7Zm79,0a9.46,9.46,0,0,1-2.64,6.88,9.69,9.69,0,0,1-13.65.05,9.65,9.65,0,0,1-1.17-1.48,29.54,29.54,0,0,1-4.7,2.81,25.46,25.46,0,0,1-11.14,2.55,28.2,28.2,0,0,1-15.36-4.37,30.44,30.44,0,0,1-10.79-12,36.92,36.92,0,0,1-3.91-17.11,37.7,37.7,0,0,1,3.84-17.13,30.12,30.12,0,0,1,10.69-12.07,27.58,27.58,0,0,1,15.09-4.38,28.6,28.6,0,0,1,11.05,2.16,31.88,31.88,0,0,1,4.94,2.56,9.67,9.67,0,0,1,1.44-1.89,9.46,9.46,0,0,1,16.32,6.88Zm59-39.7a8.85,8.85,0,0,1-6.27,2.55,13.89,13.89,0,0,1-4.72-.93l-1.33-.39a6,6,0,0,0-1.65-.21,6.8,6.8,0,0,0-3.84,1.26,10.36,10.36,0,0,0-3.53,4.13,16.7,16.7,0,0,0-1.64,7.23v26.07a9.34,9.34,0,0,1-2.49,6.88,8.85,8.85,0,0,1-6.65,2.83,9.7,9.7,0,0,1-9.86-9.71V1685a9.65,9.65,0,0,1,2.85-6.87,9.89,9.89,0,0,1,13.86,0,10,10,0,0,1,1.31,1.65,20.5,20.5,0,0,1,4.35-2.9,25.4,25.4,0,0,1,11.47-2.68,11.38,11.38,0,0,1,7.47,2.56,8.54,8.54,0,0,1,3.34,6.71A9.7,9.7,0,0,1,1546.66,1690.69Zm76.55-1.87-20.56,45.3a9.82,9.82,0,0,1-3.22,4.19,9,9,0,0,1-4.88,1.68l-1.08,0h-.17a8.65,8.65,0,0,1-5.22-1.62,10.4,10.4,0,0,1-3.46-4.3l-20.45-45.28a11.69,11.69,0,0,1-1-4.74,8.5,8.5,0,0,1,2.78-6.16,9.42,9.42,0,0,1,6.71-2.66,10.12,10.12,0,0,1,5.44,1.56,9.78,9.78,0,0,1,3.79,4.41l12.43,28.47,12.33-28.34a10.18,10.18,0,0,1,3.43-4.44,8.15,8.15,0,0,1,4.82-1.56h.42a9.11,9.11,0,0,1,6.4,2.55,8.7,8.7,0,0,1,2.67,6.39A11.27,11.27,0,0,1,1623.21,1688.82Zm72.64,17.61a8.44,8.44,0,0,1-3.17,6.35,9.86,9.86,0,0,1-6.54,2.23h-32.21a12.57,12.57,0,0,0,3.8,4.93,13.92,13.92,0,0,0,8.83,3.11,21.16,21.16,0,0,0,6.11-.65A15.5,15.5,0,0,0,1676,1721l2.1-1.3.1-.05.1,0a11.39,11.39,0,0,1,5.08-1.3,8.43,8.43,0,0,1,6.08,2.53,8.31,8.31,0,0,1,2.53,6c0,2-.73,5-4.23,7.75a29.2,29.2,0,0,1-9.14,4.77,37.1,37.1,0,0,1-29-2.31,29.93,29.93,0,0,1-11.77-11.78,34,34,0,0,1-4.11-16.69,36.84,36.84,0,0,1,4.34-18.06,31.21,31.21,0,0,1,11.56-12.08,30.09,30.09,0,0,1,15.37-4.21,28.77,28.77,0,0,1,15.27,4.41,32.71,32.71,0,0,1,11.31,11.73,31.78,31.78,0,0,1,4.25,16Zm58,25.45a23.25,23.25,0,0,1-9.39,7,29.59,29.59,0,0,1-11.44,2.32,40.45,40.45,0,0,1-14.61-2.62,25.52,25.52,0,0,1-11.57-8.83,8.27,8.27,0,0,1-1.57-5.08,8.67,8.67,0,0,1,4.15-7.31,8.87,8.87,0,0,1,4.9-1.52,9.11,9.11,0,0,1,6.52,3,20.44,20.44,0,0,0,6,4.46,17.59,17.59,0,0,0,7.32,1.37c5.64-.23,5.64-2.35,5.64-3.49a2.29,2.29,0,0,0-1.39-2.23,38.76,38.76,0,0,0-8.37-3,81.61,81.61,0,0,1-10.82-3.67,21.41,21.41,0,0,1-8.05-6.19c-2.38-2.92-3.59-6.8-3.59-11.52a17.56,17.56,0,0,1,3.65-11,23,23,0,0,1,9.09-7,28.72,28.72,0,0,1,11.6-2.4,35.11,35.11,0,0,1,12.27,2.28,22.58,22.58,0,0,1,10.11,7.12,9,9,0,0,1,2.07,5.81,8.1,8.1,0,0,1-3.23,6.53,8.49,8.49,0,0,1-5.38,1.86,8.38,8.38,0,0,1-6.08-2.42l-.1-.1-.09-.11a11.09,11.09,0,0,0-4-3,14,14,0,0,0-5.85-1.16c-5.36,0-5.36,1.91-5.36,3a2.18,2.18,0,0,0,.62,1.75,7.6,7.6,0,0,0,2.81,1.64c1.52.53,3.7,1.2,6.48,2a76.28,76.28,0,0,1,10.3,3.56,20.06,20.06,0,0,1,7.88,6.32c2.23,2.95,3.36,6.77,3.36,11.38A17.66,17.66,0,0,1,1753.83,1731.87Zm42.39-9.52a3,3,0,0,0,1.51.31,6.42,6.42,0,0,0,1.53-.28,9.76,9.76,0,0,1,3.55-.71,6.6,6.6,0,0,1,5.11,2.54,8.76,8.76,0,0,1,2,5.85c0,2.11-.8,5.14-4.64,7.55a16.47,16.47,0,0,1-8.9,2.49,25.25,25.25,0,0,1-13.34-3.37c-4-2.51-6.34-7.53-6.34-14.92V1695h-1.55a9.5,9.5,0,0,1,0-19h1.55v-3.69a10,10,0,0,1,10.09-9.71,8.61,8.61,0,0,1,6.48,2.83,9.32,9.32,0,0,1,2.43,6.88V1676h5.52a9.31,9.31,0,0,1,9.16,9.42,9.47,9.47,0,0,1-9.16,9.58h-5.52v26.26A1.15,1.15,0,0,0,1796.21,1722.35Z" style="fill: #a5cd8d"/>
        </g>
      </g>
      <g id="centennial">
        <rect id="centennial_backing" x="1300.68" y="902" width="632" height="435" style="fill: #fff"/>
        <g id="centennial-2" data-name="centennial">
          <path d="M1614.92,1011a8.4,8.4,0,0,0-2.44-3.07,9.22,9.22,0,0,0-6-2.22c-4.75,0-7.71,2.29-9.14,5.29Z" style="fill: #c0dcb0"/>
          <path d="M1458.4,1011a8.4,8.4,0,0,0-2.44-3.07,9.22,9.22,0,0,0-6-2.22c-4.75,0-7.7,2.29-9.14,5.29Z" style="fill: #c0dcb0"/>
          <path d="M1807.06,1006a9.35,9.35,0,0,0-7.51,3.43,14.9,14.9,0,0,0,0,18,9.37,9.37,0,0,0,7.55,3.38,9.49,9.49,0,0,0,7.6-3.39,13.12,13.12,0,0,0,3-9,13.29,13.29,0,0,0-3-9A9.44,9.44,0,0,0,1807.06,1006Z" style="fill: #c0dcb0"/>
          <path d="M1922.85,902H1306.52c-3.36,0-5.84.06-5.84,3.42v214.91c0,3.36,2.48,8.67,5.84,8.67h95.29c3.36,0,5.87.13,5.87,3.49v91.23c0,3.36-2.51,9.27-5.87,9.27h-95.29c-3.36,0-5.84-.47-5.84,2.89v93.26c0,3.36,2.48,7.85,5.84,7.85h616.34c3.36,0,5.83-4.49,5.83-7.85V905.42C1928.68,902.06,1926.21,902,1922.85,902Zm-381.8,94a6.83,6.83,0,0,1,4.83-2h1.8v-3.29a7.27,7.27,0,0,1,7.36-7.25,6.41,6.41,0,0,1,4.83,2.11,7,7,0,0,1,1.81,5.14V994h4.58a6.88,6.88,0,0,1,6.82,7,6.95,6.95,0,0,1-6.82,7h-4.58v21a1.42,1.42,0,0,0,.49,1.11,2.34,2.34,0,0,0,1.39.33,5.34,5.34,0,0,0,1.3-.24,7.23,7.23,0,0,1,2.66-.54,4.83,4.83,0,0,1,3.73,1.86,6.52,6.52,0,0,1,1.48,4.35c0,1.56-.6,3.81-3.47,5.61a12.54,12.54,0,0,1-6.78,1.9,19,19,0,0,1-10.12-2.58c-3.05-1.9-4.68-5.73-4.68-11.37V1008h-1.8a7.05,7.05,0,0,1-4.83-12Zm-124.61,42.16a6.45,6.45,0,0,1-2.84,2.48,33.54,33.54,0,0,1-15.12,3.54,35.91,35.91,0,0,1-16.38-3.78,29.55,29.55,0,0,1-12.07-11.28c-3-4.94-4.5-11-4.5-17.89a33.14,33.14,0,0,1,4.26-16.73,30.49,30.49,0,0,1,11.82-11.63,34.35,34.35,0,0,1,16.88-4.16,32.74,32.74,0,0,1,15.1,3.57,6.58,6.58,0,0,1,3.75,6.17,7.79,7.79,0,0,1-1.69,4.73,6.26,6.26,0,0,1-5.13,2.61,8.2,8.2,0,0,1-3.86-1,19.25,19.25,0,0,0-8.18-1.75,19,19,0,0,0-9.5,2.28,15.12,15.12,0,0,0-6.1,6.33,20.52,20.52,0,0,0-2.18,9.61c0,6.17,1.63,10.86,4.85,14s7.51,4.69,12.93,4.69a17.91,17.91,0,0,0,8.21-1.76l.1,0a8.78,8.78,0,0,1,3.56-.86,6.74,6.74,0,0,1,5.33,2.63,7.58,7.58,0,0,1,1.74,4.79A6.65,6.65,0,0,1,1416.44,1038.2Zm55-16a7.47,7.47,0,0,1-4.89,1.79H1440.8a9.05,9.05,0,0,0,3.29,4.34,11.15,11.15,0,0,0,7.11,2.44,16.7,16.7,0,0,0,4.88-.55,12.52,12.52,0,0,0,2.69-1.17l1.63-1,.13-.07a8.56,8.56,0,0,1,3.82-1,6.26,6.26,0,0,1,4.51,1.87,6.15,6.15,0,0,1,1.88,4.42,7.28,7.28,0,0,1-3.17,5.79,22.55,22.55,0,0,1-7,3.67,28.66,28.66,0,0,1-22.39-1.78,23.06,23.06,0,0,1-9.07-9.08,26.29,26.29,0,0,1-3.17-12.88,28.47,28.47,0,0,1,3.35-14,24.07,24.07,0,0,1,8.91-9.31A23.19,23.19,0,0,1,1450,992.5a22.15,22.15,0,0,1,11.76,3.39,25.24,25.24,0,0,1,8.73,9,24.51,24.51,0,0,1,3.28,12.35A6.56,6.56,0,0,1,1471.4,1022.21Zm30.44-14a7.87,7.87,0,0,0-2.16,5.86v22a7.18,7.18,0,0,1-2.09,5.13,7,7,0,0,1-5.17,2.11,6.44,6.44,0,0,1-4.92-2.11,7,7,0,0,1-1.82-5.13V1000.6a6.94,6.94,0,0,1,1.8-5.13,6.64,6.64,0,0,1,5-2.11,6.77,6.77,0,0,1,5.08,2.11,7,7,0,0,1,1.42,2.16,24.88,24.88,0,0,1,3.6-2.61,17.74,17.74,0,0,1,9.23-2.52c6.54,0,11.37,2.06,14,6.12,2.44,3.78,3.86,9,3.86,15.49v22a7.5,7.5,0,0,1-15,0v-22c0-2.71-.38-4.81-1.44-6.26-.93-1.27-2.55-1.89-5.1-1.89A8.27,8.27,0,0,0,1501.84,1008.24Zm118.84,220.68a6.08,6.08,0,0,1-6.08,6.08h-96.84a6.08,6.08,0,0,1-6.08-6.08v-93.84a6.08,6.08,0,0,1,6.08-6.08h96.84a6.08,6.08,0,0,1,6.08,6.08Zm7.24-206.71A7.48,7.48,0,0,1,1623,1024h-25.71a9.06,9.06,0,0,0,3.29,4.34,11.15,11.15,0,0,0,7.11,2.44,16.7,16.7,0,0,0,4.88-.55,12.46,12.46,0,0,0,2.69-1.17l1.63-1,.13-.07a8.56,8.56,0,0,1,3.82-1,6.26,6.26,0,0,1,4.51,1.87,6.16,6.16,0,0,1,1.88,4.43,7.28,7.28,0,0,1-3.17,5.79,22.52,22.52,0,0,1-7,3.67,28.66,28.66,0,0,1-22.39-1.78,23,23,0,0,1-9.07-9.08,26.27,26.27,0,0,1-3.17-12.88,28.45,28.45,0,0,1,3.35-14,24,24,0,0,1,8.91-9.31,23.18,23.18,0,0,1,11.85-3.24,22.16,22.16,0,0,1,11.75,3.39,25.25,25.25,0,0,1,8.73,9,24.52,24.52,0,0,1,3.28,12.35A6.56,6.56,0,0,1,1627.92,1022.21Zm57.76,13.91a7.06,7.06,0,0,1-2,5.13,7.1,7.1,0,0,1-10.11,0,7,7,0,0,1-1.94-5.13v-22a10.53,10.53,0,0,0-1.68-6.26c-.93-1.27-2.67-1.89-5.22-1.89-2.79,0-5.1.75-6.62,2.28a8.11,8.11,0,0,0-2.48,5.86v22a7,7,0,0,1-1.83,5.13,6.68,6.68,0,0,1-5,2.11,6.86,6.86,0,0,1-5.12-2.11,7.1,7.1,0,0,1-2-5.13V1000.6a7.14,7.14,0,0,1,2.06-5.13,7.33,7.33,0,0,1,10.29,0,7.09,7.09,0,0,1,1.45,2.16,25,25,0,0,1,3.62-2.61,17.77,17.77,0,0,1,9.24-2.52c6.54,0,11.12,2.06,13.74,6.12,2.44,3.78,3.6,9,3.6,15.49Zm58,0a7,7,0,0,1-1.89,5.13,6.58,6.58,0,0,1-5,2.11,6.85,6.85,0,0,1-5.11-2.11,7.1,7.1,0,0,1-2-5.13v-22a10.54,10.54,0,0,0-1.61-6.26c-.93-1.27-2.63-1.89-5.19-1.89a8,8,0,0,0-6.17,2.28,7.79,7.79,0,0,0-2,5.86v22a7.34,7.34,0,0,1-2.26,5.13,7.16,7.16,0,0,1-5.25,2.11,7.34,7.34,0,0,1-7.48-7.25V1000.6a7.2,7.2,0,0,1,2.13-5.13,7.39,7.39,0,0,1,10.34,0,7.11,7.11,0,0,1,1.46,2.16,25.09,25.09,0,0,1,3.62-2.61,17.77,17.77,0,0,1,9.24-2.52c6.54,0,11.05,2.06,13.67,6.12,2.44,3.78,3.53,9,3.53,15.49Zm28,0a7.09,7.09,0,0,1-2,5.13,6.82,6.82,0,0,1-5.1,2.11,6.6,6.6,0,0,1-5-2.11,7,7,0,0,1-1.9-5.13V1000.6a7,7,0,0,1,1.9-5.13,7.14,7.14,0,0,1,10.14,0,7.07,7.07,0,0,1,2,5.13Zm0-50.65c0,2.33-.54,4-1.91,5-1.2.87-2.81,1.28-5.27,1.28s-4.43-.45-5.6-1.37a6,6,0,0,1-2.21-4.93v-1.63a5.92,5.92,0,0,1,2.34-5,9.25,9.25,0,0,1,5.43-1.33c2.49,0,4.17.45,5.35,1.37s1.87,2.69,1.87,4.93Zm60,50.65a7.16,7.16,0,0,1-2.07,5.13,6.94,6.94,0,0,1-5.16,2.11,6.84,6.84,0,0,1-5.1-2.07,7.27,7.27,0,0,1-1.08-1.42,22.57,22.57,0,0,1-3.93,2.39,19.6,19.6,0,0,1-8.57,2,21.71,21.71,0,0,1-11.82-3.36,23.44,23.44,0,0,1-8.32-9.24,28.53,28.53,0,0,1-3-13.21,29.15,29.15,0,0,1,3-13.24,23.23,23.23,0,0,1,8.23-9.3,21.22,21.22,0,0,1,11.61-3.37,22,22,0,0,1,8.51,1.66,24.32,24.32,0,0,1,4.12,2.18,7,7,0,0,1,1.25-1.73,6.89,6.89,0,0,1,5.13-2.11,7.07,7.07,0,0,1,7.25,7.25Zm29,0a7,7,0,0,1-2,5.16,6.86,6.86,0,0,1-5.08,2.09,6.6,6.6,0,0,1-5-2.11,7,7,0,0,1-1.94-5.13V983a7,7,0,0,1,7.12-7.25,6.58,6.58,0,0,1,4.95,2.11,7,7,0,0,1,1.93,5.13Z" style="fill: #c0dcb0"/>
        </g>
      </g>
    </g>
  </g>
</svg>
