<svg xmlns="http://www.w3.org/2000/svg" viewBox="0 0 656.28 129.89">
  <title>produce_scale</title>
  <g id="Layer_2" data-name="Layer 2">
    <g id="Layer_2-2" data-name="Layer 2">
      <rect x="48.88" width="45" height="45" style="fill: #e9dca9"/>
      <rect x="95.88" width="45" height="45" style="fill: #d9d6a2"/>
      <rect x="142.88" width="45" height="45" style="fill: #cdd29d"/>
      <rect x="189.88" width="45" height="45" style="fill: #c4ce99"/>
      <rect x="236.88" width="45" height="45" style="fill: #becc96"/>
      <rect x="283.88" width="45" height="45" style="fill: #b3c891"/>
      <rect x="330.88" width="45" height="45" style="fill: #acc58f"/>
      <rect x="377.88" width="45" height="45" style="fill: #a4c28b"/>
      <rect x="424.88" width="45" height="45" style="fill: #9abe87"/>
      <rect x="471.88" width="45" height="45" style="fill: #8cb981"/>
      <rect x="518.88" width="45" height="45" style="fill: #7db37a"/>
      <rect x="565.88" width="45" height="45" style="fill: #6dad73"/>
      <g>
        <path d="M67.38,64V85.91A7.59,7.59,0,0,0,75,93.5H577.79a7.59,7.59,0,0,0,7.59-7.59V64" style="fill: none;stroke: #344c35;stroke-miterlimit: 10"/>
        <g>
          <circle cx="67.38" cy="64.26" r="3.76" style="fill: #fff"/>
          <path d="M63.12,64.26A4.26,4.26,0,1,0,67.38,60a4.26,4.26,0,0,0-4.26,4.26Zm7.52,0A3.26,3.26,0,1,1,67.38,61a3.26,3.26,0,0,1,3.26,3.26Z" style="fill: #344c35"/>
        </g>
        <g>
          <circle cx="585.38" cy="64.26" r="3.76" style="fill: #fff"/>
          <path d="M589.64,64.26A4.26,4.26,0,1,1,585.38,60a4.26,4.26,0,0,1,4.26,4.26Zm-7.52,0A3.26,3.26,0,1,0,585.38,61a3.26,3.26,0,0,0-3.26,3.26Z" style="fill: #344c35"/>
        </g>
      </g>
      <g>
        <path d="M9.45,127.46a1.23,1.23,0,0,1,.38.94,1.2,1.2,0,0,1-.38.91,1.34,1.34,0,0,1-1,.36H1.34A1.32,1.32,0,0,1,0,128.32V115.61a1.28,1.28,0,0,1,.4-1,1.39,1.39,0,0,1,1-.38,1.31,1.31,0,0,1,.95.38,1.28,1.28,0,0,1,.4,1v11.48H8.49A1.34,1.34,0,0,1,9.45,127.46Z"/>
        <path d="M22.29,124.36a1.4,1.4,0,0,1-.92.33H14.1a3.31,3.31,0,0,0,1.21,2,3.38,3.38,0,0,0,2.13.74,4.72,4.72,0,0,0,1.41-.17,3.67,3.67,0,0,0,.8-.35l.41-.25a1.68,1.68,0,0,1,.75-.2,1.08,1.08,0,0,1,.79.33,1.06,1.06,0,0,1,.33.77,1.37,1.37,0,0,1-.62,1.08,5.24,5.24,0,0,1-1.65.86,6.82,6.82,0,0,1-5.31-.42A5.37,5.37,0,0,1,12.23,127a6.19,6.19,0,0,1-.75-3,6.75,6.75,0,0,1,.79-3.32,5.62,5.62,0,0,1,2.09-2.19,5.4,5.4,0,0,1,2.77-.76,5.14,5.14,0,0,1,2.74.79,5.93,5.93,0,0,1,2.06,2.13,5.74,5.74,0,0,1,.77,2.9A1.13,1.13,0,0,1,22.29,124.36Zm-8.16-1.87h5.76v-.15a2.27,2.27,0,0,0-.9-1.58,2.86,2.86,0,0,0-1.85-.66A2.73,2.73,0,0,0,14.12,122.49Z"/>
        <path d="M35.46,118.05a1.31,1.31,0,0,1,.37,1v9.31a1.32,1.32,0,0,1-.37,1,1.26,1.26,0,0,1-.95.38,1.24,1.24,0,0,1-.94-.37,1.38,1.38,0,0,1-.38-.95,4.77,4.77,0,0,1-3.45,1.54,5,5,0,0,1-2.75-.78A5.47,5.47,0,0,1,25,126.94a6.76,6.76,0,0,1-.71-3.15,6.91,6.91,0,0,1,.7-3.16A5.41,5.41,0,0,1,27,118.46a4.9,4.9,0,0,1,2.7-.78,5.1,5.1,0,0,1,2,.39,5.21,5.21,0,0,1,1.56,1v0a1.32,1.32,0,0,1,.37-1,1.26,1.26,0,0,1,.95-.39A1.28,1.28,0,0,1,35.46,118.05Zm-3.06,8.37a3.88,3.88,0,0,0,.9-2.63,3.92,3.92,0,0,0-.9-2.64,3.08,3.08,0,0,0-4.64,0,4.32,4.32,0,0,0,0,5.27,2.91,2.91,0,0,0,2.32,1A2.94,2.94,0,0,0,32.41,126.42Z"/>
        <path d="M37.82,127.18A1.25,1.25,0,0,1,39,126a1.24,1.24,0,0,1,.88.42,4.63,4.63,0,0,0,1.38,1,4.09,4.09,0,0,0,1.73.33q1.72-.07,1.72-1.3a1.05,1.05,0,0,0-.58-1,8.23,8.23,0,0,0-1.81-.66,15.63,15.63,0,0,1-2.08-.7,3.67,3.67,0,0,1-1.39-1.07,3,3,0,0,1-.58-1.93,2.91,2.91,0,0,1,.6-1.84,4,4,0,0,1,1.58-1.21,5.12,5.12,0,0,1,2.08-.43,6.39,6.39,0,0,1,2.24.42,3.9,3.9,0,0,1,1.76,1.23,1.22,1.22,0,0,1,.29.79,1,1,0,0,1-.42.84,1.11,1.11,0,0,1-.7.24,1.07,1.07,0,0,1-.79-.31,2.79,2.79,0,0,0-1-.77,3.38,3.38,0,0,0-1.42-.29q-1.67,0-1.67,1.21a1,1,0,0,0,.31.78,2.11,2.11,0,0,0,.78.46q.47.16,1.33.41a14.61,14.61,0,0,1,2,.68,3.4,3.4,0,0,1,1.34,1.08,3.09,3.09,0,0,1,.55,1.91,2.93,2.93,0,0,1-.64,1.88,4,4,0,0,1-1.64,1.22,5.29,5.29,0,0,1-2.06.42,7.45,7.45,0,0,1-2.71-.48,4.49,4.49,0,0,1-2-1.56A1.07,1.07,0,0,1,37.82,127.18Z"/>
        <path d="M55.54,127.48a1.18,1.18,0,0,1-.4,1.78,2.69,2.69,0,0,1-1.46.41,4.27,4.27,0,0,1-2.3-.58,2.72,2.72,0,0,1-.93-2.48v-6.07h-1a1.2,1.2,0,0,1-1.23-1.23,1.13,1.13,0,0,1,.35-.85,1.21,1.21,0,0,1,.88-.34h1v-1.41a1.31,1.31,0,0,1,1.34-1.34,1.24,1.24,0,0,1,.92.38,1.32,1.32,0,0,1,.37,1v1.41h1.56a1.2,1.2,0,0,1,1.23,1.23,1.13,1.13,0,0,1-.35.85,1.21,1.21,0,0,1-.88.34H53.08v6a.84.84,0,0,0,.24.67,1,1,0,0,0,.66.21,1.89,1.89,0,0,0,.48-.09,1.31,1.31,0,0,1,.51-.11A.73.73,0,0,1,55.54,127.48Z"/>
        <path d="M73.17,114.94a5,5,0,0,1,1.63,1.8,5.26,5.26,0,0,1,0,4.94,4.94,4.94,0,0,1-1.63,1.81,3.8,3.8,0,0,1-2.13.67H67.21v4.16a1.36,1.36,0,0,1-.35,1,1.21,1.21,0,0,1-.92.37,1.17,1.17,0,0,1-.9-.38,1.36,1.36,0,0,1-.35-1V115.61A1.32,1.32,0,0,1,66,114.27h5A3.8,3.8,0,0,1,73.17,114.94Zm-1.31,6.37a2.6,2.6,0,0,0,.66-.91,2.87,2.87,0,0,0,0-2.35,2.49,2.49,0,0,0-.66-.9,1.28,1.28,0,0,0-.83-.34H67.21v4.86H71A1.26,1.26,0,0,0,71.86,121.31Z"/>
        <path d="M80.2,129.28a1.3,1.3,0,0,1-1,.38,1.24,1.24,0,0,1-.92-.38,1.32,1.32,0,0,1-.37-1v-13.6a1.32,1.32,0,0,1,1.34-1.34,1.24,1.24,0,0,1,.92.38,1.32,1.32,0,0,1,.37,1v13.6A1.3,1.3,0,0,1,80.2,129.28Z"/>
        <path d="M94.14,118.05a1.31,1.31,0,0,1,.37,1v9.31a1.32,1.32,0,0,1-.37,1,1.26,1.26,0,0,1-.95.38,1.24,1.24,0,0,1-.94-.37,1.38,1.38,0,0,1-.38-.95,4.77,4.77,0,0,1-3.45,1.54,5,5,0,0,1-2.75-.78,5.47,5.47,0,0,1-1.95-2.17,6.76,6.76,0,0,1-.71-3.15,6.91,6.91,0,0,1,.7-3.16,5.41,5.41,0,0,1,1.92-2.18,4.9,4.9,0,0,1,2.7-.78,5.1,5.1,0,0,1,2,.39,5.21,5.21,0,0,1,1.56,1v0a1.32,1.32,0,0,1,.37-1,1.26,1.26,0,0,1,.95-.39A1.28,1.28,0,0,1,94.14,118.05Zm-3.06,8.37a3.88,3.88,0,0,0,.9-2.63,3.92,3.92,0,0,0-.9-2.64,3.08,3.08,0,0,0-4.64,0,4.32,4.32,0,0,0,0,5.27,2.91,2.91,0,0,0,2.32,1A2.94,2.94,0,0,0,91.08,126.42Z"/>
        <path d="M106.76,119a6.77,6.77,0,0,1,.86,3.69v5.63a1.32,1.32,0,0,1-.37,1,1.36,1.36,0,0,1-1.89,0,1.32,1.32,0,0,1-.37-1v-5.63a3.17,3.17,0,0,0-.51-1.9,2,2,0,0,0-1.74-.69,2.68,2.68,0,0,0-2,.74,2.54,2.54,0,0,0-.73,1.86v5.63a1.32,1.32,0,0,1-.37,1,1.35,1.35,0,0,1-1.89,0,1.32,1.32,0,0,1-.37-1v-9.09a1.32,1.32,0,0,1,.37-1,1.35,1.35,0,0,1,1.89,0,1.32,1.32,0,0,1,.37,1v.37a5.31,5.31,0,0,1,1.55-1.36,4,4,0,0,1,2.1-.57A3.41,3.41,0,0,1,106.76,119Z"/>
        <path d="M116.72,127.48a1.18,1.18,0,0,1-.4,1.78,2.69,2.69,0,0,1-1.46.41,4.27,4.27,0,0,1-2.3-.58,2.72,2.72,0,0,1-.93-2.48v-6.07h-1a1.2,1.2,0,0,1-1.23-1.23,1.13,1.13,0,0,1,.35-.85,1.21,1.21,0,0,1,.88-.34h1v-1.41a1.31,1.31,0,0,1,1.34-1.34,1.24,1.24,0,0,1,.92.38,1.32,1.32,0,0,1,.37,1v1.41h1.56a1.2,1.2,0,0,1,1.23,1.23,1.13,1.13,0,0,1-.35.85,1.21,1.21,0,0,1-.88.34h-1.56v6a.84.84,0,0,0,.24.67,1,1,0,0,0,.66.21,1.89,1.89,0,0,0,.48-.09,1.31,1.31,0,0,1,.51-.11A.73.73,0,0,1,116.72,127.48Z"/>
        <path d="M129.51,124.36a1.4,1.4,0,0,1-.92.33h-7.26a3.31,3.31,0,0,0,1.21,2,3.38,3.38,0,0,0,2.13.74,4.72,4.72,0,0,0,1.41-.17,3.67,3.67,0,0,0,.8-.35l.41-.25a1.68,1.68,0,0,1,.75-.2,1.08,1.08,0,0,1,.79.33,1.06,1.06,0,0,1,.33.77,1.37,1.37,0,0,1-.62,1.08,5.24,5.24,0,0,1-1.65.86,6.82,6.82,0,0,1-5.31-.42,5.37,5.37,0,0,1-2.12-2.12,6.19,6.19,0,0,1-.75-3,6.75,6.75,0,0,1,.79-3.32,5.62,5.62,0,0,1,2.09-2.19,5.4,5.4,0,0,1,2.77-.76,5.14,5.14,0,0,1,2.74.79,5.93,5.93,0,0,1,2.06,2.13,5.74,5.74,0,0,1,.77,2.9A1.13,1.13,0,0,1,129.51,124.36Zm-8.16-1.87h5.76v-.15a2.27,2.27,0,0,0-.9-1.58,2.86,2.86,0,0,0-1.85-.66A2.73,2.73,0,0,0,121.35,122.49Z"/>
        <path d="M142.6,113.76a1.31,1.31,0,0,1,.37,1v13.6a1.32,1.32,0,0,1-.37,1,1.26,1.26,0,0,1-.95.38,1.24,1.24,0,0,1-.94-.37,1.38,1.38,0,0,1-.38-.95,4.77,4.77,0,0,1-3.45,1.54,5,5,0,0,1-2.75-.78,5.47,5.47,0,0,1-1.95-2.17,6.76,6.76,0,0,1-.71-3.15,6.91,6.91,0,0,1,.7-3.16,5.41,5.41,0,0,1,1.92-2.18,4.9,4.9,0,0,1,2.7-.78,5.1,5.1,0,0,1,2,.39,5.21,5.21,0,0,1,1.56,1v-4.31a1.32,1.32,0,0,1,.37-1,1.26,1.26,0,0,1,.95-.38A1.28,1.28,0,0,1,142.6,113.76Zm-3.06,12.66a3.88,3.88,0,0,0,.9-2.63,3.92,3.92,0,0,0-.9-2.64,3.08,3.08,0,0,0-4.64,0,4.32,4.32,0,0,0,0,5.27,2.91,2.91,0,0,0,2.32,1A2.94,2.94,0,0,0,139.54,126.42Z"/>
      </g>
      <g>
        <path d="M535,114.63a1.26,1.26,0,0,1,.41,1v12.74a1.3,1.3,0,0,1-1.36,1.34,1.37,1.37,0,0,1-1-.37,1.29,1.29,0,0,1-.38-1v-8.87L529,125a1.88,1.88,0,0,1-.51.43,1,1,0,0,1-.59.14,1,1,0,0,1-.57-.14,1.87,1.87,0,0,1-.51-.43l-3.63-5.74v9.06a1.36,1.36,0,0,1-.35,1,1.21,1.21,0,0,1-.92.37,1.17,1.17,0,0,1-.9-.38,1.36,1.36,0,0,1-.35-1V115.59a1.27,1.27,0,0,1,.41-.95,1.35,1.35,0,0,1,1-.4,1.46,1.46,0,0,1,.66.17,1.28,1.28,0,0,1,.51.43l4.8,7.37,4.93-7.37a1.34,1.34,0,0,1,.47-.43,1.23,1.23,0,0,1,.6-.17A1.35,1.35,0,0,1,535,114.63Z"/>
        <path d="M549,126.95a5.6,5.6,0,0,1-2.17,2.17,6.35,6.35,0,0,1-6.06,0,5.62,5.62,0,0,1-2.16-2.17,6.69,6.69,0,0,1,0-6.31,5.7,5.7,0,0,1,2.16-2.18,6.27,6.27,0,0,1,6.06,0,5.67,5.67,0,0,1,2.17,2.18,6.69,6.69,0,0,1,0,6.31Zm-2.3-5.08a3.32,3.32,0,0,0-1.21-1.31,3.3,3.3,0,0,0-3.37,0,3.32,3.32,0,0,0-1.21,1.31,4,4,0,0,0-.45,1.92,4,4,0,0,0,.45,1.91,3.34,3.34,0,0,0,1.21,1.3,3.3,3.3,0,0,0,3.37,0,3.34,3.34,0,0,0,1.21-1.3,4,4,0,0,0,.45-1.91A4,4,0,0,0,546.71,121.87Z"/>
        <path d="M551.12,127.18a1.25,1.25,0,0,1,1.21-1.17,1.24,1.24,0,0,1,.88.42,4.63,4.63,0,0,0,1.38,1,4.09,4.09,0,0,0,1.73.33q1.72-.07,1.72-1.3a1.05,1.05,0,0,0-.58-1,8.23,8.23,0,0,0-1.81-.66,15.63,15.63,0,0,1-2.08-.7,3.67,3.67,0,0,1-1.39-1.07,3,3,0,0,1-.58-1.93,2.91,2.91,0,0,1,.6-1.84,4,4,0,0,1,1.58-1.21,5.12,5.12,0,0,1,2.08-.43,6.39,6.39,0,0,1,2.24.42,3.9,3.9,0,0,1,1.76,1.23,1.22,1.22,0,0,1,.29.79,1,1,0,0,1-.42.84,1.11,1.11,0,0,1-.7.24,1.07,1.07,0,0,1-.79-.31,2.79,2.79,0,0,0-1-.77,3.38,3.38,0,0,0-1.42-.29q-1.67,0-1.67,1.21a1,1,0,0,0,.31.78,2.11,2.11,0,0,0,.78.46q.47.16,1.33.41a14.61,14.61,0,0,1,2,.68,3.4,3.4,0,0,1,1.34,1.08,3.09,3.09,0,0,1,.55,1.91,2.93,2.93,0,0,1-.64,1.88,4,4,0,0,1-1.64,1.22,5.29,5.29,0,0,1-2.06.42,7.45,7.45,0,0,1-2.71-.48,4.49,4.49,0,0,1-2-1.56A1.07,1.07,0,0,1,551.12,127.18Z"/>
        <path d="M568.84,127.48a1.18,1.18,0,0,1-.4,1.78,2.69,2.69,0,0,1-1.46.41,4.27,4.27,0,0,1-2.3-.58,2.72,2.72,0,0,1-.93-2.48v-6.07h-1a1.2,1.2,0,0,1-1.23-1.23,1.13,1.13,0,0,1,.35-.85,1.21,1.21,0,0,1,.88-.34h1v-1.41a1.31,1.31,0,0,1,1.34-1.34,1.24,1.24,0,0,1,.92.38,1.32,1.32,0,0,1,.37,1v1.41H568a1.2,1.2,0,0,1,1.23,1.23,1.13,1.13,0,0,1-.35.85,1.21,1.21,0,0,1-.88.34h-1.56v6a.84.84,0,0,0,.24.67,1,1,0,0,0,.66.21,1.89,1.89,0,0,0,.48-.09,1.31,1.31,0,0,1,.51-.11A.73.73,0,0,1,568.84,127.48Z"/>
        <path d="M586.48,114.94a5,5,0,0,1,1.63,1.8,5.26,5.26,0,0,1,0,4.94,4.94,4.94,0,0,1-1.63,1.81,3.8,3.8,0,0,1-2.13.67h-3.83v4.16a1.36,1.36,0,0,1-.35,1,1.21,1.21,0,0,1-.92.37,1.17,1.17,0,0,1-.9-.38,1.36,1.36,0,0,1-.35-1V115.61a1.32,1.32,0,0,1,1.34-1.34h5A3.8,3.8,0,0,1,586.48,114.94Zm-1.31,6.37a2.6,2.6,0,0,0,.66-.91,2.87,2.87,0,0,0,0-2.35,2.49,2.49,0,0,0-.66-.9,1.28,1.28,0,0,0-.83-.34h-3.83v4.86h3.83A1.26,1.26,0,0,0,585.17,121.31Z"/>
        <path d="M593.5,129.28a1.3,1.3,0,0,1-1,.38,1.24,1.24,0,0,1-.92-.38,1.32,1.32,0,0,1-.37-1v-13.6a1.32,1.32,0,0,1,1.34-1.34,1.24,1.24,0,0,1,.92.38,1.32,1.32,0,0,1,.37,1v13.6A1.3,1.3,0,0,1,593.5,129.28Z"/>
        <path d="M607.44,118.05a1.31,1.31,0,0,1,.37,1v9.31a1.32,1.32,0,0,1-.37,1,1.26,1.26,0,0,1-.95.38,1.24,1.24,0,0,1-.94-.37,1.38,1.38,0,0,1-.38-.95,4.77,4.77,0,0,1-3.45,1.54,5,5,0,0,1-2.75-.78,5.47,5.47,0,0,1-1.95-2.17,6.76,6.76,0,0,1-.71-3.15,6.91,6.91,0,0,1,.7-3.16,5.41,5.41,0,0,1,1.92-2.18,4.9,4.9,0,0,1,2.7-.78,5.1,5.1,0,0,1,2,.39,5.21,5.21,0,0,1,1.56,1v0a1.32,1.32,0,0,1,.37-1,1.26,1.26,0,0,1,.95-.39A1.28,1.28,0,0,1,607.44,118.05Zm-3.06,8.37a3.88,3.88,0,0,0,.9-2.63,3.92,3.92,0,0,0-.9-2.64,3.08,3.08,0,0,0-4.64,0,4.32,4.32,0,0,0,0,5.27,2.91,2.91,0,0,0,2.32,1A2.94,2.94,0,0,0,604.38,126.42Z"/>
        <path d="M620.07,119a6.77,6.77,0,0,1,.86,3.69v5.63a1.32,1.32,0,0,1-.37,1,1.36,1.36,0,0,1-1.89,0,1.32,1.32,0,0,1-.37-1v-5.63a3.17,3.17,0,0,0-.51-1.9,2,2,0,0,0-1.74-.69,2.68,2.68,0,0,0-2,.74,2.54,2.54,0,0,0-.73,1.86v5.63a1.32,1.32,0,0,1-.37,1,1.35,1.35,0,0,1-1.89,0,1.32,1.32,0,0,1-.37-1v-9.09a1.32,1.32,0,0,1,.37-1,1.35,1.35,0,0,1,1.89,0,1.32,1.32,0,0,1,.37,1v.37a5.31,5.31,0,0,1,1.55-1.36,4,4,0,0,1,2.1-.57A3.41,3.41,0,0,1,620.07,119Z"/>
        <path d="M630,127.48a1.18,1.18,0,0,1-.4,1.78,2.69,2.69,0,0,1-1.46.41,4.27,4.27,0,0,1-2.3-.58,2.72,2.72,0,0,1-.93-2.48v-6.07h-1a1.2,1.2,0,0,1-1.23-1.23,1.13,1.13,0,0,1,.35-.85,1.21,1.21,0,0,1,.88-.34h1v-1.41a1.31,1.31,0,0,1,1.34-1.34,1.24,1.24,0,0,1,.92.38,1.32,1.32,0,0,1,.37,1v1.41h1.56a1.2,1.2,0,0,1,1.23,1.23,1.13,1.13,0,0,1-.35.85,1.21,1.21,0,0,1-.88.34h-1.56v6a.84.84,0,0,0,.24.67,1,1,0,0,0,.66.21,1.89,1.89,0,0,0,.48-.09,1.31,1.31,0,0,1,.51-.11A.73.73,0,0,1,630,127.48Z"/>
        <path d="M642.82,124.36a1.4,1.4,0,0,1-.92.33h-7.26a3.31,3.31,0,0,0,1.21,2,3.38,3.38,0,0,0,2.13.74,4.72,4.72,0,0,0,1.41-.17,3.67,3.67,0,0,0,.8-.35l.41-.25a1.68,1.68,0,0,1,.75-.2,1.08,1.08,0,0,1,.79.33,1.06,1.06,0,0,1,.33.77,1.37,1.37,0,0,1-.62,1.08,5.24,5.24,0,0,1-1.65.86,6.82,6.82,0,0,1-5.31-.42,5.37,5.37,0,0,1-2.12-2.12,6.19,6.19,0,0,1-.75-3,6.75,6.75,0,0,1,.79-3.32,5.62,5.62,0,0,1,2.09-2.19,5.4,5.4,0,0,1,2.77-.76,5.14,5.14,0,0,1,2.74.79,5.93,5.93,0,0,1,2.06,2.13,5.74,5.74,0,0,1,.77,2.9A1.13,1.13,0,0,1,642.82,124.36Zm-8.16-1.87h5.76v-.15a2.27,2.27,0,0,0-.9-1.58,2.86,2.86,0,0,0-1.85-.66A2.73,2.73,0,0,0,634.65,122.49Z"/>
        <path d="M655.91,113.76a1.31,1.31,0,0,1,.37,1v13.6a1.32,1.32,0,0,1-.37,1,1.26,1.26,0,0,1-.95.38,1.24,1.24,0,0,1-.94-.37,1.38,1.38,0,0,1-.38-.95,4.77,4.77,0,0,1-3.45,1.54,5,5,0,0,1-2.75-.78,5.47,5.47,0,0,1-1.95-2.17,6.76,6.76,0,0,1-.71-3.15,6.91,6.91,0,0,1,.7-3.16,5.41,5.41,0,0,1,1.92-2.18,4.9,4.9,0,0,1,2.7-.78,5.1,5.1,0,0,1,2,.39,5.21,5.21,0,0,1,1.56,1v-4.31a1.32,1.32,0,0,1,.37-1,1.26,1.26,0,0,1,.95-.38A1.28,1.28,0,0,1,655.91,113.76Zm-3.06,12.66a3.88,3.88,0,0,0,.9-2.63,3.92,3.92,0,0,0-.9-2.64,3.08,3.08,0,0,0-4.64,0,4.32,4.32,0,0,0,0,5.27,2.91,2.91,0,0,0,2.32,1A2.94,2.94,0,0,0,652.85,126.42Z"/>
      </g>
    </g>
  </g>
</svg>
