<?xml version="1.0" encoding="utf-8"?>
<!-- Generator: Adobe Illustrator 20.1.0, SVG Export Plug-In . SVG Version: 6.00 Build 0)  -->
<svg version="1.1" id="Layer_1" xmlns="http://www.w3.org/2000/svg" xmlns:xlink="http://www.w3.org/1999/xlink" x="0px" y="0px"
	 viewBox="0 0 892 45" style="enable-background:new 0 0 892 45;" xml:space="preserve">
<style type="text/css">
	.st0{fill:#E9DCA9;}
	.st1{fill:#D9D6A2;}
	.st2{fill:#CDD29D;}
	.st3{fill:#C4CE99;}
	.st4{fill:#BECC96;}
	.st5{fill:#B3C891;}
	.st6{fill:#ACC58F;}
	.st7{fill:#A4C28B;}
	.st8{fill:#9ABE87;}
	.st9{fill:#8CB981;}
	.st10{fill:#7DB37A;}
	.st11{fill:#6DAD73;}
</style>
<title>produce_scale</title>
<g>
	<rect x="168.7" class="st0" width="45" height="45"/>
	<rect x="215.7" class="st1" width="45" height="45"/>
	<rect x="262.7" class="st2" width="45" height="45"/>
	<rect x="309.7" class="st3" width="45" height="45"/>
	<rect x="356.7" class="st4" width="45" height="45"/>
	<rect x="403.7" class="st5" width="45" height="45"/>
	<rect x="450.7" class="st6" width="45" height="45"/>
	<rect x="497.7" class="st7" width="45" height="45"/>
	<rect x="544.7" class="st8" width="45" height="45"/>
	<rect x="591.7" class="st9" width="45" height="45"/>
	<rect x="638.7" class="st10" width="45" height="45"/>
	<rect x="685.7" class="st11" width="45" height="45"/>
	<g>
		<path class="st0" d="M15.2,28.3c0.3,0.2,0.4,0.6,0.4,0.9c0,0.3-0.1,0.7-0.4,0.9c-0.3,0.3-0.6,0.4-1,0.4H7c-0.7,0-1.3-0.6-1.3-1.3
			c0,0,0,0,0-0.1V16.5c0-0.4,0.1-0.7,0.4-1c0.3-0.3,0.6-0.4,1-0.4c0.4,0,0.7,0.1,1,0.4c0.3,0.3,0.4,0.6,0.4,1v11.5h5.7
			C14.6,27.9,14.9,28.1,15.2,28.3z"/>
		<path class="st0" d="M28,25.2c-0.3,0.2-0.6,0.3-0.9,0.3h-7.3c0.1,0.8,0.6,1.5,1.2,2c0.6,0.5,1.4,0.7,2.1,0.7c0.5,0,1,0,1.4-0.2
			c0.3-0.1,0.5-0.2,0.8-0.3l0.4-0.2c0.2-0.1,0.5-0.2,0.8-0.2c0.3,0,0.6,0.1,0.8,0.3c0.2,0.2,0.3,0.5,0.3,0.8c0,0.4-0.3,0.8-0.6,1.1
			c-0.5,0.4-1.1,0.7-1.6,0.9c-1.8,0.6-3.7,0.4-5.3-0.4c-0.9-0.5-1.6-1.2-2.1-2.1c-0.5-0.9-0.8-2-0.8-3c0-1.2,0.2-2.3,0.8-3.3
			c0.5-0.9,1.2-1.7,2.1-2.2c0.8-0.5,1.8-0.8,2.8-0.8c1,0,1.9,0.3,2.7,0.8c0.9,0.5,1.6,1.3,2.1,2.1c0.5,0.9,0.8,1.9,0.8,2.9
			C28.4,24.7,28.2,25,28,25.2z M19.8,23.3h5.8v-0.2c-0.1-0.6-0.4-1.2-0.9-1.6c-0.5-0.4-1.2-0.7-1.9-0.7C21.4,20.8,20,21.8,19.8,23.3
			L19.8,23.3z"/>
		<path class="st0" d="M41.2,18.9c0.3,0.3,0.4,0.6,0.4,1v9.3c0,0.4-0.1,0.7-0.4,1c-0.2,0.3-0.6,0.4-1,0.4c-0.4,0-0.7-0.1-0.9-0.4
			c-0.2-0.3-0.4-0.6-0.4-0.9c-0.9,1-2.1,1.5-3.5,1.5c-1,0-1.9-0.3-2.8-0.8c-0.9-0.5-1.5-1.3-2-2.2c-0.5-1-0.7-2.1-0.7-3.2
			c0-1.1,0.2-2.2,0.7-3.2c0.5-0.9,1.2-1.6,2-2.2c0.8-0.5,1.7-0.8,2.7-0.8c0.7,0,1.4,0.1,2,0.4c0.6,0.2,1.1,0.6,1.6,1l0,0
			c0-0.4,0.1-0.7,0.4-1c0.2-0.3,0.6-0.4,1-0.4C40.6,18.5,40.9,18.7,41.2,18.9z M38.1,27.3c0.6-0.7,0.9-1.7,0.9-2.6
			c0-1-0.3-1.9-0.9-2.6c-1.1-1.3-3.1-1.4-4.3-0.3c-0.1,0.1-0.2,0.2-0.3,0.3c-1.2,1.6-1.2,3.7,0,5.3c0.6,0.7,1.4,1,2.3,1
			C36.7,28.3,37.5,27.9,38.1,27.3L38.1,27.3z"/>
		<path class="st0" d="M43.5,28c0-0.6,0.5-1.1,1.2-1.2c0.3,0,0.7,0.2,0.9,0.4c0.4,0.4,0.9,0.8,1.4,1c0.5,0.2,1.1,0.3,1.7,0.3
			c1.1,0,1.7-0.5,1.7-1.3c0-0.4-0.2-0.8-0.6-1c-0.6-0.3-1.2-0.5-1.8-0.7c-0.7-0.2-1.4-0.4-2.1-0.7c-0.5-0.2-1-0.6-1.4-1.1
			c-0.4-0.6-0.6-1.2-0.6-1.9c0-0.7,0.2-1.3,0.6-1.8c0.4-0.5,1-0.9,1.6-1.2c0.7-0.3,1.4-0.4,2.1-0.4c0.8,0,1.5,0.1,2.2,0.4
			c0.7,0.2,1.3,0.7,1.8,1.2c0.2,0.2,0.3,0.5,0.3,0.8c0,0.3-0.1,0.6-0.4,0.8c-0.2,0.2-0.4,0.2-0.7,0.2c-0.3,0-0.6-0.1-0.8-0.3
			c-0.3-0.3-0.6-0.6-1-0.8c-0.4-0.2-0.9-0.3-1.4-0.3c-1.1,0-1.7,0.4-1.7,1.2c0,0.3,0.1,0.6,0.3,0.8c0.2,0.2,0.5,0.4,0.8,0.5
			c0.3,0.1,0.8,0.2,1.3,0.4c0.7,0.2,1.4,0.4,2,0.7c0.5,0.2,1,0.6,1.3,1.1c0.4,0.6,0.6,1.2,0.5,1.9c0,0.7-0.2,1.3-0.6,1.9
			c-0.4,0.5-1,1-1.6,1.2c-0.7,0.3-1.4,0.4-2.1,0.4c-0.9,0-1.8-0.2-2.7-0.5c-0.8-0.3-1.5-0.9-2-1.6C43.6,28.5,43.6,28.2,43.5,28z"/>
		<path class="st0" d="M61.2,28.3c0.4,0.5,0.3,1.3-0.2,1.7c-0.1,0-0.1,0.1-0.2,0.1c-0.4,0.3-0.9,0.4-1.5,0.4c-0.8,0-1.6-0.2-2.3-0.6
			c-0.7-0.6-1.1-1.5-0.9-2.5v-6.1h-1c-0.7,0-1.2-0.5-1.2-1.2c0,0,0,0,0-0.1c0-0.3,0.1-0.6,0.3-0.8c0.2-0.2,0.6-0.4,0.9-0.3h1v-1.4
			c0-0.7,0.6-1.3,1.3-1.3c0,0,0,0,0.1,0c0.3,0,0.7,0.1,0.9,0.4c0.3,0.3,0.4,0.6,0.4,1V19h1.6c0.7,0,1.2,0.5,1.2,1.2c0,0,0,0,0,0.1
			c0,0.3-0.1,0.6-0.3,0.8c-0.2,0.2-0.6,0.4-0.9,0.3h-1.6v6c0,0.2,0.1,0.5,0.2,0.7c0.2,0.1,0.4,0.2,0.7,0.2c0.2,0,0.3,0,0.5-0.1
			c0.2-0.1,0.3-0.1,0.5-0.1C60.9,28.1,61.1,28.2,61.2,28.3z"/>
		<path class="st0" d="M78.9,15.8c0.7,0.5,1.2,1.1,1.6,1.8c0.8,1.5,0.8,3.4,0,4.9c-0.4,0.7-0.9,1.4-1.6,1.8
			c-0.6,0.4-1.4,0.7-2.1,0.7h-3.8v4.2c0,0.4-0.1,0.7-0.3,1c-0.2,0.2-0.6,0.4-0.9,0.4c-0.3,0-0.7-0.1-0.9-0.4c-0.2-0.3-0.4-0.6-0.3-1
			V16.5c0-0.7,0.6-1.3,1.3-1.3c0,0,0,0,0,0h5C77.5,15.1,78.2,15.4,78.9,15.8z M77.6,22.2c0.3-0.3,0.5-0.6,0.7-0.9
			c0.3-0.7,0.3-1.6,0-2.3c-0.1-0.3-0.4-0.7-0.7-0.9c-0.2-0.2-0.5-0.3-0.8-0.3h-3.8v4.9h3.8C77,22.5,77.3,22.4,77.6,22.2z"/>
		<path class="st0" d="M85.9,30.1c-0.3,0.3-0.6,0.4-1,0.4c-0.3,0-0.7-0.1-0.9-0.4c-0.3-0.3-0.4-0.6-0.4-1V15.5
			c0-0.7,0.6-1.3,1.3-1.3c0,0,0,0,0,0c0.3,0,0.7,0.1,0.9,0.4c0.3,0.3,0.4,0.6,0.4,1v13.6C86.3,29.5,86.1,29.9,85.9,30.1z"/>
		<path class="st0" d="M99.8,18.9c0.3,0.3,0.4,0.6,0.4,1v9.3c0,0.4-0.1,0.7-0.4,1c-0.2,0.3-0.6,0.4-0.9,0.4c-0.4,0-0.7-0.1-0.9-0.4
			c-0.2-0.3-0.4-0.6-0.4-0.9c-0.9,1-2.1,1.5-3.4,1.5c-1,0-1.9-0.3-2.8-0.8c-0.8-0.5-1.5-1.3-1.9-2.2c-0.5-1-0.7-2.1-0.7-3.2
			c0-1.1,0.2-2.2,0.7-3.2c0.4-0.9,1.1-1.6,1.9-2.2c0.8-0.5,1.7-0.8,2.7-0.8c0.7,0,1.4,0.1,2,0.4c0.6,0.2,1.1,0.6,1.6,1l0,0
			c0-0.4,0.1-0.7,0.4-1c0.2-0.3,0.6-0.4,0.9-0.4C99.3,18.6,99.6,18.7,99.8,18.9z M96.8,27.3c0.6-0.7,0.9-1.7,0.9-2.6
			c0-1-0.3-1.9-0.9-2.6c-1.1-1.3-3.1-1.4-4.3-0.3c-0.1,0.1-0.2,0.2-0.3,0.3c-1.2,1.6-1.2,3.7,0,5.3c0.6,0.7,1.4,1,2.3,1
			C95.4,28.3,96.2,27.9,96.8,27.3z"/>
		<path class="st0" d="M112.5,19.8c0.6,1.1,0.9,2.4,0.9,3.7v5.6c0,0.4-0.1,0.7-0.4,1c-0.5,0.5-1.4,0.5-1.9,0c-0.3-0.3-0.4-0.6-0.4-1
			v-5.6c0-0.7-0.1-1.3-0.5-1.9c-0.4-0.5-1.1-0.8-1.7-0.7c-0.7,0-1.5,0.2-2,0.7c-0.5,0.5-0.8,1.2-0.7,1.9v5.6c0,0.4-0.1,0.7-0.4,1
			c-0.5,0.5-1.4,0.5-1.9,0c-0.3-0.3-0.4-0.6-0.4-1v-9.1c0-0.4,0.1-0.7,0.4-1c0.5-0.5,1.4-0.5,1.9,0c0.3,0.3,0.4,0.6,0.4,1v0.4
			c0.4-0.6,0.9-1,1.6-1.4c0.6-0.4,1.4-0.6,2.1-0.6C110.6,18.4,111.7,18.9,112.5,19.8z"/>
		<path class="st0" d="M122.4,28.3c0.4,0.5,0.3,1.3-0.2,1.7c-0.1,0-0.1,0.1-0.2,0.1c-0.4,0.3-0.9,0.4-1.5,0.4
			c-0.8,0-1.6-0.2-2.3-0.6c-0.7-0.6-1.1-1.5-0.9-2.5v-6.1h-1c-0.7,0-1.2-0.5-1.2-1.2c0,0,0,0,0-0.1c0-0.3,0.1-0.6,0.3-0.8
			c0.2-0.2,0.6-0.4,0.9-0.3h1v-1.4c0-0.7,0.6-1.3,1.3-1.3c0,0,0,0,0.1,0c0.3,0,0.7,0.1,0.9,0.4c0.3,0.3,0.4,0.6,0.4,1V19h1.6
			c0.7,0,1.2,0.5,1.2,1.2c0,0,0,0,0,0.1c0,0.3-0.1,0.6-0.3,0.8c-0.2,0.2-0.6,0.4-0.9,0.3H120v6c0,0.2,0.1,0.5,0.2,0.7
			c0.2,0.1,0.4,0.2,0.7,0.2c0.2,0,0.3,0,0.5-0.1c0.2-0.1,0.3-0.1,0.5-0.1C122.1,28.1,122.3,28.2,122.4,28.3z"/>
		<path class="st0" d="M135.2,25.2c-0.3,0.2-0.6,0.3-0.9,0.3H127c0.1,0.8,0.6,1.5,1.2,2c0.6,0.5,1.4,0.7,2.1,0.7c0.5,0,1,0,1.4-0.2
			c0.3-0.1,0.5-0.2,0.8-0.3l0.4-0.2c0.2-0.1,0.5-0.2,0.8-0.2c0.3,0,0.6,0.1,0.8,0.3c0.2,0.2,0.3,0.5,0.3,0.8c0,0.4-0.3,0.8-0.6,1.1
			c-0.5,0.4-1.1,0.7-1.7,0.9c-1.8,0.6-3.7,0.4-5.3-0.4c-0.9-0.5-1.6-1.2-2.1-2.1c-0.5-0.9-0.8-2-0.8-3c0-1.2,0.2-2.3,0.8-3.3
			c0.5-0.9,1.2-1.7,2.1-2.2c0.8-0.5,1.8-0.8,2.8-0.8c1,0,1.9,0.3,2.7,0.8c0.9,0.5,1.6,1.3,2.1,2.1c0.5,0.9,0.8,1.9,0.8,2.9
			C135.6,24.7,135.5,25,135.2,25.2z M127.1,23.3h5.8v-0.2c-0.1-0.6-0.4-1.2-0.9-1.6c-0.5-0.4-1.2-0.7-1.9-0.7
			C128.6,20.8,127.2,21.9,127.1,23.3z"/>
		<path class="st0" d="M148.3,14.6c0.3,0.3,0.4,0.6,0.4,1v13.6c0,0.4-0.1,0.7-0.4,1c-0.2,0.3-0.6,0.4-0.9,0.4
			c-0.4,0-0.7-0.1-0.9-0.4c-0.2-0.3-0.4-0.6-0.4-0.9c-0.9,1-2.1,1.5-3.4,1.5c-1,0-1.9-0.3-2.8-0.8c-0.8-0.5-1.5-1.3-1.9-2.2
			c-0.5-1-0.7-2.1-0.7-3.2c0-1.1,0.2-2.2,0.7-3.2c0.4-0.9,1.1-1.6,1.9-2.2c0.8-0.5,1.7-0.8,2.7-0.8c0.7,0,1.4,0.1,2,0.4
			c0.6,0.2,1.1,0.6,1.6,1v-4.3c0-0.4,0.1-0.7,0.4-1c0.2-0.3,0.6-0.4,0.9-0.4C147.7,14.3,148.1,14.4,148.3,14.6z M145.2,27.3
			c0.6-0.7,0.9-1.7,0.9-2.6c0-1-0.3-1.9-0.9-2.6c-1.1-1.3-3.1-1.4-4.3-0.3c-0.1,0.1-0.2,0.2-0.3,0.3c-1.2,1.6-1.2,3.7,0,5.3
			c0.6,0.7,1.4,1,2.3,1C143.8,28.3,144.7,27.9,145.2,27.3L145.2,27.3z"/>
	</g>
	<g>
		<path class="st11" d="M765,15.5c0.3,0.3,0.4,0.6,0.4,1v12.7c0,0.7-0.5,1.3-1.3,1.3c0,0-0.1,0-0.1,0c-0.4,0-0.7-0.1-1-0.4
			c-0.3-0.3-0.4-0.6-0.4-1v-8.9l-3.7,5.5c-0.1,0.2-0.3,0.3-0.5,0.4c-0.2,0.1-0.4,0.2-0.6,0.1c-0.2,0-0.4,0-0.6-0.1
			c-0.2-0.1-0.4-0.3-0.5-0.4l-3.6-5.7v9.1c0,0.4-0.1,0.7-0.3,1c-0.2,0.2-0.6,0.4-0.9,0.4c-0.3,0-0.7-0.1-0.9-0.4
			c-0.2-0.3-0.4-0.6-0.3-1V16.4c0-0.4,0.1-0.7,0.4-0.9c0.3-0.3,0.6-0.4,1-0.4c0.2,0,0.5,0.1,0.7,0.2c0.2,0.1,0.4,0.2,0.5,0.4
			l4.8,7.4l4.9-7.4c0.1-0.2,0.3-0.3,0.5-0.4c0.2-0.1,0.4-0.2,0.6-0.2C764.4,15.1,764.8,15.2,765,15.5z"/>
		<path class="st11" d="M779,27.8c-0.5,0.9-1.3,1.7-2.2,2.2c-1.9,1-4.2,1-6.1,0c-0.9-0.5-1.7-1.3-2.2-2.2c-1.1-2-1.1-4.3,0-6.3
			c0.5-0.9,1.3-1.7,2.2-2.2c1.9-1,4.2-1,6.1,0c0.9,0.5,1.7,1.3,2.2,2.2C780.1,23.5,780.1,25.8,779,27.8z M776.7,22.7
			c-0.3-0.5-0.7-1-1.2-1.3c-1-0.6-2.3-0.6-3.4,0c-0.5,0.3-0.9,0.8-1.2,1.3c-0.3,0.6-0.5,1.3-0.5,1.9c0,0.7,0.1,1.3,0.5,1.9
			c0.3,0.5,0.7,1,1.2,1.3c1,0.6,2.3,0.6,3.4,0c0.5-0.3,0.9-0.8,1.2-1.3c0.3-0.6,0.5-1.2,0.5-1.9C777.2,24,777,23.3,776.7,22.7
			L776.7,22.7z"/>
		<path class="st11" d="M781.1,28c0-0.6,0.6-1.2,1.2-1.2c0.3,0,0.7,0.2,0.9,0.4c0.4,0.4,0.9,0.8,1.4,1c0.5,0.2,1.1,0.3,1.7,0.3
			c1.1,0,1.7-0.5,1.7-1.3c0-0.4-0.2-0.8-0.6-1c-0.6-0.3-1.2-0.5-1.8-0.7c-0.7-0.2-1.4-0.4-2.1-0.7c-0.5-0.2-1-0.6-1.4-1.1
			c-0.4-0.6-0.6-1.2-0.6-1.9c0-0.7,0.2-1.3,0.6-1.8c0.4-0.5,1-0.9,1.6-1.2c0.7-0.3,1.4-0.4,2.1-0.4c0.8,0,1.5,0.1,2.2,0.4
			c0.7,0.2,1.3,0.7,1.8,1.2c0.2,0.2,0.3,0.5,0.3,0.8c0,0.3-0.1,0.6-0.4,0.8c-0.2,0.2-0.4,0.2-0.7,0.2c-0.3,0-0.6-0.1-0.8-0.3
			c-0.3-0.3-0.6-0.6-1-0.8c-0.4-0.2-0.9-0.3-1.4-0.3c-1.1,0-1.7,0.4-1.7,1.2c0,0.3,0.1,0.6,0.3,0.8c0.2,0.2,0.5,0.4,0.8,0.5
			c0.3,0.1,0.8,0.2,1.3,0.4c0.7,0.2,1.4,0.4,2,0.7c0.5,0.2,1,0.6,1.3,1.1c0.4,0.6,0.6,1.2,0.5,1.9c0,0.7-0.2,1.3-0.6,1.9
			c-0.4,0.5-1,1-1.6,1.2c-0.7,0.3-1.4,0.4-2.1,0.4c-0.9,0-1.8-0.2-2.7-0.5c-0.8-0.3-1.5-0.9-2-1.6C781.3,28.5,781.2,28.3,781.1,28z"
			/>
		<path class="st11" d="M798.9,28.3c0.4,0.5,0.3,1.3-0.2,1.7c-0.1,0-0.1,0.1-0.2,0.1c-0.4,0.3-0.9,0.4-1.5,0.4
			c-0.8,0-1.6-0.2-2.3-0.6c-0.7-0.6-1.1-1.5-0.9-2.5v-6.1h-1c-0.7,0-1.2-0.5-1.2-1.2c0,0,0,0,0-0.1c0-0.3,0.1-0.6,0.3-0.8
			c0.2-0.2,0.6-0.4,0.9-0.3h1v-1.4c0-0.7,0.6-1.3,1.3-1.3c0,0,0,0,0.1,0c0.3,0,0.7,0.1,0.9,0.4c0.3,0.3,0.4,0.6,0.4,1V19h1.6
			c0.7,0,1.2,0.5,1.2,1.2c0,0,0,0,0,0.1c0,0.3-0.1,0.6-0.3,0.8c-0.2,0.2-0.6,0.4-0.9,0.3h-1.6v6c0,0.2,0.1,0.5,0.2,0.7
			c0.2,0.1,0.4,0.2,0.7,0.2c0.2,0,0.3,0,0.5-0.1c0.2-0.1,0.3-0.1,0.5-0.1C798.5,28.1,798.7,28.2,798.9,28.3z"/>
		<path class="st11" d="M816.5,15.8c0.7,0.5,1.2,1.1,1.6,1.8c0.8,1.5,0.8,3.4,0,4.9c-0.4,0.7-0.9,1.4-1.6,1.8
			c-0.6,0.4-1.4,0.7-2.1,0.7h-3.8v4.2c0,0.4-0.1,0.7-0.3,1c-0.2,0.2-0.6,0.4-0.9,0.4c-0.3,0-0.7-0.1-0.9-0.4c-0.2-0.3-0.4-0.6-0.3-1
			V16.5c0-0.7,0.6-1.3,1.3-1.3c0,0,0,0,0,0h5C815.1,15.1,815.9,15.4,816.5,15.8z M815.2,22.2c0.3-0.3,0.5-0.6,0.7-0.9
			c0.3-0.7,0.3-1.6,0-2.3c-0.1-0.3-0.4-0.7-0.7-0.9c-0.2-0.2-0.5-0.3-0.8-0.3h-3.8v4.9h3.8C814.7,22.5,815,22.4,815.2,22.2z"/>
		<path class="st11" d="M823.5,30.1c-0.3,0.3-0.6,0.4-1,0.4c-0.3,0-0.7-0.1-0.9-0.4c-0.3-0.3-0.4-0.6-0.4-1V15.5
			c0-0.7,0.6-1.3,1.3-1.3c0,0,0,0,0,0c0.3,0,0.7,0.1,0.9,0.4c0.3,0.3,0.4,0.6,0.4,1v13.6C823.9,29.5,823.8,29.9,823.5,30.1z"/>
		<path class="st11" d="M837.5,18.9c0.3,0.3,0.4,0.6,0.4,1v9.3c0,0.4-0.1,0.7-0.4,1c-0.2,0.3-0.6,0.4-1,0.4c-0.4,0-0.7-0.1-0.9-0.4
			c-0.2-0.3-0.4-0.6-0.4-0.9c-0.9,1-2.1,1.5-3.5,1.5c-1,0-1.9-0.3-2.8-0.8c-0.8-0.5-1.5-1.3-2-2.2c-0.5-1-0.7-2.1-0.7-3.2
			c0-1.1,0.2-2.2,0.7-3.2c0.4-0.9,1.1-1.6,1.9-2.2c0.8-0.5,1.7-0.8,2.7-0.8c0.7,0,1.4,0.1,2,0.4c0.6,0.2,1.1,0.6,1.6,1l0,0
			c0-0.4,0.1-0.7,0.4-1c0.2-0.3,0.6-0.4,1-0.4C836.9,18.6,837.2,18.7,837.5,18.9z M834.4,27.3c0.6-0.7,0.9-1.7,0.9-2.6
			c0-1-0.3-1.9-0.9-2.6c-1.1-1.3-3.1-1.4-4.3-0.3c-0.1,0.1-0.2,0.2-0.3,0.3c-1.2,1.6-1.2,3.7,0,5.3c0.6,0.7,1.4,1,2.3,1
			C833,28.3,833.8,27.9,834.4,27.3z"/>
		<path class="st11" d="M850.1,19.8c0.6,1.1,0.9,2.4,0.9,3.7v5.6c0,0.4-0.1,0.7-0.4,1c-0.5,0.5-1.4,0.5-1.9,0
			c-0.3-0.3-0.4-0.6-0.4-1v-5.6c0-0.7-0.1-1.3-0.5-1.9c-0.4-0.5-1.1-0.8-1.7-0.7c-0.7,0-1.5,0.2-2,0.7c-0.5,0.5-0.8,1.2-0.7,1.9v5.6
			c0,0.4-0.1,0.7-0.4,1c-0.5,0.5-1.4,0.5-1.9,0c-0.3-0.3-0.4-0.6-0.4-1v-9.1c0-0.4,0.1-0.7,0.4-1c0.5-0.5,1.4-0.5,1.9,0
			c0.3,0.3,0.4,0.6,0.4,1v0.4c0.4-0.6,0.9-1,1.5-1.4c0.6-0.4,1.4-0.6,2.1-0.6C848.2,18.4,849.4,18.9,850.1,19.8z"/>
		<path class="st11" d="M860,28.3c0.4,0.5,0.3,1.3-0.2,1.7c-0.1,0-0.1,0.1-0.2,0.1c-0.4,0.3-0.9,0.4-1.5,0.4c-0.8,0-1.6-0.2-2.3-0.6
			c-0.7-0.6-1.1-1.5-0.9-2.5v-6.1h-1c-0.7,0-1.2-0.5-1.2-1.2c0,0,0,0,0-0.1c0-0.3,0.1-0.6,0.3-0.8c0.2-0.2,0.6-0.4,0.9-0.3h1v-1.4
			c0-0.7,0.6-1.3,1.3-1.3c0,0,0,0,0.1,0c0.3,0,0.7,0.1,0.9,0.4c0.3,0.3,0.4,0.6,0.4,1V19h1.6c0.7,0,1.2,0.5,1.2,1.2c0,0,0,0,0,0.1
			c0,0.3-0.1,0.6-0.3,0.8c-0.2,0.2-0.6,0.4-0.9,0.3h-1.6v6c0,0.2,0.1,0.5,0.2,0.7c0.2,0.1,0.4,0.2,0.7,0.2c0.2,0,0.3,0,0.5-0.1
			c0.2-0.1,0.3-0.1,0.5-0.1C859.7,28.1,859.9,28.2,860,28.3z"/>
		<path class="st11" d="M872.8,25.2c-0.3,0.2-0.6,0.3-0.9,0.3h-7.3c0.1,0.8,0.6,1.5,1.2,2c0.6,0.5,1.4,0.7,2.1,0.7
			c0.5,0,1,0,1.4-0.2c0.3-0.1,0.5-0.2,0.8-0.3l0.4-0.2c0.2-0.1,0.5-0.2,0.8-0.2c0.3,0,0.6,0.1,0.8,0.3c0.2,0.2,0.3,0.5,0.3,0.8
			c0,0.4-0.3,0.8-0.6,1.1c-0.5,0.4-1.1,0.7-1.7,0.9c-1.8,0.6-3.7,0.4-5.3-0.4c-0.9-0.5-1.6-1.2-2.1-2.1c-0.5-0.9-0.8-2-0.8-3
			c0-1.2,0.2-2.3,0.8-3.3c0.5-0.9,1.2-1.7,2.1-2.2c0.8-0.5,1.8-0.8,2.8-0.8c1,0,1.9,0.3,2.7,0.8c0.9,0.5,1.6,1.3,2.1,2.1
			c0.5,0.9,0.8,1.9,0.8,2.9C873.2,24.7,873.1,25,872.8,25.2z M864.7,23.3h5.8v-0.2c-0.1-0.6-0.4-1.2-0.9-1.6
			c-0.5-0.4-1.2-0.7-1.8-0.7C866.2,20.8,864.8,21.8,864.7,23.3L864.7,23.3z"/>
		<path class="st11" d="M885.9,14.6c0.3,0.3,0.4,0.6,0.4,1v13.6c0,0.4-0.1,0.7-0.4,1c-0.2,0.3-0.6,0.4-1,0.4c-0.4,0-0.7-0.1-0.9-0.4
			c-0.2-0.3-0.4-0.6-0.4-0.9c-0.9,1-2.1,1.5-3.5,1.5c-1,0-1.9-0.3-2.8-0.8c-0.8-0.5-1.5-1.3-2-2.2c-0.5-1-0.7-2.1-0.7-3.2
			c0-1.1,0.2-2.2,0.7-3.2c0.4-0.9,1.1-1.6,1.9-2.2c0.8-0.5,1.7-0.8,2.7-0.8c0.7,0,1.4,0.1,2,0.4c0.6,0.2,1.1,0.6,1.6,1v-4.3
			c0-0.4,0.1-0.7,0.4-1c0.2-0.3,0.6-0.4,1-0.4C885.3,14.3,885.7,14.4,885.9,14.6z M882.9,27.3c0.6-0.7,0.9-1.7,0.9-2.6
			c0-1-0.3-1.9-0.9-2.6c-1.1-1.3-3.1-1.4-4.3-0.3c-0.1,0.1-0.2,0.2-0.3,0.3c-1.2,1.6-1.2,3.7,0,5.3c0.6,0.7,1.4,1,2.3,1
			C881.4,28.3,882.3,27.9,882.9,27.3z"/>
	</g>
</g>
</svg>
