<svg xmlns="http://www.w3.org/2000/svg" viewBox="0 0 600.99 96.23">
  <title>carrot_produce</title>
  <g id="Layer_2" data-name="Layer 2">
    <g id="Layer_1-2" data-name="Layer 1">
      <g>
        <path d="M207.53,48.12c-11.12-12.25-34.41-25.73-61.91-34.69s-52-11-64.78-6.58Z" style="fill: #5a9411;fill-rule: evenodd"/>
        <path d="M207.53,48.12c-12.82,4.45-37.27,2.37-64.77-6.59S92,19.1,80.84,6.84Z" style="fill: #66aa13;fill-rule: evenodd"/>
        <path d="M207.53,48.12c-11.12,12.26-34.41,25.73-61.91,34.69s-52,11-64.78,6.58Z" style="fill: #66aa13;fill-rule: evenodd"/>
        <path d="M207.53,48.12c-12.82-4.45-37.27-2.38-64.77,6.59S92,77.14,80.84,89.39Z" style="fill: #5a9411;fill-rule: evenodd"/>
        <path d="M207.53,48.12c-19.61,13.68-58.71,23-103.76,23S19.61,61.8,0,48.12Z" style="fill: #66aa13;fill-rule: evenodd"/>
        <path d="M207.53,48.12c-19.61-13.68-58.71-23-103.76-23S19.61,34.43,0,48.12Z" style="fill: #5a9411;fill-rule: evenodd"/>
        <path d="M584.26,31.92,224.24,0a48.26,48.26,0,0,0-48.12,48.12h0a48.26,48.26,0,0,0,48.12,48.12l360-31.92V64c.28,0,.56,0,.85,0a15.89,15.89,0,0,0,0-31.77l-.85,0Z" style="fill: #ff8300;fill-rule: evenodd"/>
        <path d="M246.57,94.25l8.3-.73V75a4.16,4.16,0,0,0-4.15-4.15h0A4.16,4.16,0,0,0,246.57,75V94.25Zm89.34-7.92,8.3-.74V72.65a4.16,4.16,0,0,0-4.15-4.15h0a4.16,4.16,0,0,0-4.15,4.15V86.33Zm80.47-7.13,8.3-.73V66.25a4.16,4.16,0,0,0-4.15-4.15h0a4.16,4.16,0,0,0-4.15,4.15v13Zm59.29-5.26,8.3-.74V65.38a4.16,4.16,0,0,0-4.15-4.15h0a4.16,4.16,0,0,0-4.15,4.15Z" style="fill: #e7410f;fill-rule: evenodd"/>
        <path d="M584.26,31.92,224.24,0a48.26,48.26,0,0,0-48.12,48.12H601A15.89,15.89,0,0,0,585.1,32.23l-.85,0Z" style="fill: #e7410f;fill-rule: evenodd"/>
        <rect x="216.52" y="40.55" width="8.3" height="34.2" rx="4.15" ry="4.15" style="fill: #e7410f"/>
        <rect x="361.12" y="35.83" width="8.3" height="34.2" rx="4.15" ry="4.15" style="fill: #e7410f"/>
        <rect x="392.17" y="30.21" width="6.76" height="27.85" rx="3.38" ry="3.38" style="fill: #e7410f"/>
        <rect x="270.75" y="39.25" width="8.31" height="34.2" rx="4.15" ry="4.15" style="fill: #e7410f"/>
        <rect x="454.91" y="26.06" width="8.3" height="34.19" rx="4.15" ry="4.15" style="fill: #e7410f"/>
        <path d="M294,62h0a5,5,0,0,0,5-5V26.14a5,5,0,0,0-5-5h0a5,5,0,0,0-5,5V57A5,5,0,0,0,294,62Z" style="fill: #e7410f;fill-rule: evenodd"/>
      </g>
    </g>
  </g>
</svg>
