<svg xmlns="http://www.w3.org/2000/svg" viewBox="0 0 630.38 193.99">
  <title>corn_produce</title>
  <g id="Layer_2" data-name="Layer 2">
    <g id="Layer_1-2" data-name="Layer 1">
      <g>
        <path d="M519,83.91c50.39,0,93.52,13.62,111.37,32.93H458.24a16.52,16.52,0,0,1-16.47-16.47V83.91H519Z" style="fill: #9ac512;fill-rule: evenodd"/>
        <path d="M343.94,164.91q6.58,0,13-.31h112c73.06,0,135.59-19.75,161.47-47.75H380.8A24,24,0,0,0,358.59,132H283.18a16.52,16.52,0,0,0-16.47,16.46v16.48h77.24Z" style="fill: #5d9f14;fill-rule: evenodd"/>
        <g>
          <rect x="130.69" y="64.66" width="375.8" height="72.92" style="fill: #f5a600"/>
          <path d="M143.66,46.43h0a13,13,0,0,1,13,13,13,13,0,0,1,13-13h0a13,13,0,0,1,13,13,13,13,0,0,1,13-13h0a13,13,0,0,1,13,13,13,13,0,0,1,13-13h0a13,13,0,0,1,13,13,13,13,0,0,1,13-13h0a13,13,0,0,1,13,13,13,13,0,0,1,13-13h0a13,13,0,0,1,13,13,13,13,0,0,1,13-13h0a13,13,0,0,1,13,13,13,13,0,0,1,13-13h0a13,13,0,0,1,13,13,13,13,0,0,1,13-13h0a13,13,0,0,1,13,13,13,13,0,0,1,13-13h0a13,13,0,0,1,13,13,13,13,0,0,1,13-13h0a13,13,0,0,1,13,13,13,13,0,0,1,13-13h0a13,13,0,0,1,13,13,13,13,0,0,1,13-13h0a13,13,0,0,1,13,13,13,13,0,0,1,13-13h0a13,13,0,0,1,13,13V69.92a13,13,0,0,1-13,13h0a13,13,0,0,1-13-13,13,13,0,0,1-13,13h0a13,13,0,0,1-13-13,13,13,0,0,1-13,13h0a13,13,0,0,1-13-13,13,13,0,0,1-13,13h0a13,13,0,0,1-13-13,13,13,0,0,1-13,13h0a13,13,0,0,1-13-13,13,13,0,0,1-13,13h0a13,13,0,0,1-13-13,13,13,0,0,1-13,13h0a13,13,0,0,1-13-13,13,13,0,0,1-13,13h0a13,13,0,0,1-13-13,13,13,0,0,1-13,13h0a13,13,0,0,1-13-13,13,13,0,0,1-13,13h0a13,13,0,0,1-13-13,13,13,0,0,1-13,13h0a13,13,0,0,1-13-13,13,13,0,0,1-13,13h0a13,13,0,0,1-13-13,13,13,0,0,1-13,13h0a13,13,0,0,1-13-13,13,13,0,0,1-13,13h0a13,13,0,0,1-13-13V59.39A13,13,0,0,1,143.66,46.43Z" style="fill: #ebd400;fill-rule: evenodd"/>
          <path d="M143.66,46.43h0a12.86,12.86,0,1,1,0,25.72h0a12.86,12.86,0,1,1,0-25.72Zm13,12.86a13,13,0,0,1,13-12.86h0a12.86,12.86,0,1,1,0,25.72h0a13,13,0,0,1-13-12.86Zm25.93,0a13,13,0,0,1,13-12.86h0a12.86,12.86,0,1,1,0,25.72h0a13,13,0,0,1-13-12.86Zm25.93,0a13,13,0,0,1,13-12.86h0a12.86,12.86,0,1,1,0,25.72h0a13,13,0,0,1-13-12.86Zm25.93,0a13,13,0,0,1,13-12.86h0a12.86,12.86,0,1,1,0,25.72h0a13,13,0,0,1-13-12.86Zm25.93,0a13,13,0,0,1,13-12.86h0a12.86,12.86,0,1,1,0,25.72h0a13,13,0,0,1-13-12.86Zm25.93,0a13,13,0,0,1,13-12.86h0a12.86,12.86,0,1,1,0,25.72h0a13,13,0,0,1-13-12.86Zm25.93,0a13,13,0,0,1,13-12.86h0a12.86,12.86,0,1,1,0,25.72h0a13,13,0,0,1-13-12.86Zm25.93,0a13,13,0,0,1,13-12.86h0a12.86,12.86,0,1,1,0,25.72h0a13,13,0,0,1-13-12.86Zm25.93,0a13,13,0,0,1,13-12.86h0a12.86,12.86,0,1,1,0,25.72h0a13,13,0,0,1-13-12.86Zm25.93,0a13,13,0,0,0,13,12.86h0a12.86,12.86,0,1,0,0-25.72h0a13,13,0,0,0-13,12.86Zm25.93,0a13,13,0,0,1,13-12.86h0a12.86,12.86,0,1,1,0,25.72h0a13,13,0,0,1-13-12.86Zm25.93,0a13,13,0,0,1,13-12.86h0a12.86,12.86,0,1,1,0,25.72h0a13,13,0,0,1-13-12.86Zm25.93,0a13,13,0,0,0,13,12.86h0a12.86,12.86,0,1,0,0-25.72h0A13,13,0,0,0,467.78,59.29Z" style="fill: #fce300;fill-rule: evenodd"/>
          <path d="M143.66,119.35h0a13,13,0,0,0,13-13,13,13,0,0,0,13,13h0a13,13,0,0,0,13-13,13,13,0,0,0,13,13h0a13,13,0,0,0,13-13,13,13,0,0,0,13,13h0a13,13,0,0,0,13-13,13,13,0,0,0,13,13h0a13,13,0,0,0,13-13,13,13,0,0,0,13,13h0a13,13,0,0,0,13-13,13,13,0,0,0,13,13h0a13,13,0,0,0,13-13,13,13,0,0,0,13,13h0a13,13,0,0,0,13-13,13,13,0,0,0,13,13h0a13,13,0,0,0,13-13,13,13,0,0,0,13,13h0a13,13,0,0,0,13-13,13,13,0,0,0,13,13h0a13,13,0,0,0,13-13,13,13,0,0,0,13,13h0a13,13,0,0,0,13-13,13,13,0,0,0,13,13h0a13,13,0,0,0,13-13,13,13,0,0,0,13,13h0a13,13,0,0,0,12.88-11.47,13,13,0,0,0,12.88,11.47h0a13,13,0,0,0,13-13V95.85a13,13,0,0,0-13-13h0a13,13,0,0,0-12.87,11.47,13,13,0,0,0-12.88-11.47h0a13,13,0,0,0-13,13,13,13,0,0,0-13-13h0a13,13,0,0,0-13,13,13,13,0,0,0-13-13h0a13,13,0,0,0-13,13,13,13,0,0,0-13-13h0a13,13,0,0,0-13,13,13,13,0,0,0-13-13h0a13,13,0,0,0-13,13,13,13,0,0,0-13-13h0a13,13,0,0,0-13,13,13,13,0,0,0-13-13h0a13,13,0,0,0-13,13,13,13,0,0,0-13-13h0a13,13,0,0,0-13,13,13,13,0,0,0-13-13h0a13,13,0,0,0-13,13,13,13,0,0,0-13-13h0a13,13,0,0,0-13,13,13,13,0,0,0-13-13h0a13,13,0,0,0-13,13,13,13,0,0,0-13-13h0a13,13,0,0,0-13,13,13,13,0,0,0-13-13h0a13,13,0,0,0-13,13,13,13,0,0,0-13-13h0a13,13,0,0,0-13,13v10.53A13,13,0,0,0,143.66,119.35Z" style="fill: #ebd400;fill-rule: evenodd"/>
          <path d="M519.46,96.06v-.2a13,13,0,0,0-13-13h0a13,13,0,0,0-12.87,11.47,13,13,0,0,0-12.88-11.47h0a13,13,0,0,0-13,13,13,13,0,0,0-13-13h0a13,13,0,0,0-13,13,13,13,0,0,0-13-13h0a13,13,0,0,0-13,13,13,13,0,0,0-13-13h0a13,13,0,0,0-13,13,13,13,0,0,0-13-13h0a13,13,0,0,0-13,13,13,13,0,0,0-13-13h0a13,13,0,0,0-13,13,13,13,0,0,0-13-13h0a13,13,0,0,0-13,13,13,13,0,0,0-13-13h0a13,13,0,0,0-13,13,13,13,0,0,0-13-13h0a13,13,0,0,0-13,13,13,13,0,0,0-13-13h0a13,13,0,0,0-13,13,13,13,0,0,0-13-13h0a13,13,0,0,0-13,13,13,13,0,0,0-13-13h0a13,13,0,0,0-13,13,13,13,0,0,0-13-13h0a13,13,0,0,0-13,13,13,13,0,0,0-13-13h0a13,13,0,0,0-13,13v.2a13,13,0,0,0,13,13h0a13,13,0,0,0,13-13,13,13,0,0,0,13,13h0a13,13,0,0,0,13-13,13,13,0,0,0,13,13h0a13,13,0,0,0,13-13,13,13,0,0,0,13,13h0a13,13,0,0,0,13-13,13,13,0,0,0,13,13h0a13,13,0,0,0,13-13,13,13,0,0,0,13,13h0a13,13,0,0,0,13-13,13,13,0,0,0,13,13h0a13,13,0,0,0,13-13,13,13,0,0,0,13,13h0a13,13,0,0,0,13-13,13,13,0,0,0,13,13h0a13,13,0,0,0,13-13,13,13,0,0,0,13,13h0a13,13,0,0,0,13-13,13,13,0,0,0,13,13h0a13,13,0,0,0,13-13,13,13,0,0,0,13,13h0a13,13,0,0,0,13-13,13,13,0,0,0,13,13h0a13,13,0,0,0,13-13,13,13,0,0,0,13,13h0a13,13,0,0,0,12.88-11.47A13,13,0,0,0,506.49,109h0A13,13,0,0,0,519.46,96.06Z" style="fill: #ffec00;fill-rule: evenodd"/>
          <path d="M143.66,119.35h0a13,13,0,0,1,13,13,13,13,0,0,1,13-13h0a13,13,0,0,1,13,13,13,13,0,0,1,13-13h0a13,13,0,0,1,13,13,13,13,0,0,1,13-13h0a13,13,0,0,1,13,13,13,13,0,0,1,13-13h0a13,13,0,0,1,13,13,13,13,0,0,1,13-13h0a13,13,0,0,1,13,13,13,13,0,0,1,13-13h0a13,13,0,0,1,13,13,13,13,0,0,1,13-13h0a13,13,0,0,1,13,13,13,13,0,0,1,13-13h0a13,13,0,0,1,13,13,13,13,0,0,1,13-13h0a13,13,0,0,1,13,13,13,13,0,0,1,13-13h0a13,13,0,0,1,13,13,13,13,0,0,1,13-13h0a13,13,0,0,1,13,13,13,13,0,0,1,13-13h0a13,13,0,0,1,13,13,13,13,0,0,1,13-13h0a13,13,0,0,1,13,13V128.2a9.5,9.5,0,0,1,9.47-9.47h0a9.5,9.5,0,0,1,9.47,9.47v7.7a9.5,9.5,0,0,1-9.47,9.47h0a9.5,9.5,0,0,1-9.47-9.47v6.95a13,13,0,0,1-13,13h0a13,13,0,0,1-13-13,13,13,0,0,1-13,13h0a13,13,0,0,1-13-13,13,13,0,0,1-13,13h0a13,13,0,0,1-13-13,13,13,0,0,1-13,13h0a13,13,0,0,1-13-13,13,13,0,0,1-13,13h0a13,13,0,0,1-13-13,13,13,0,0,1-13,13h0a13,13,0,0,1-13-13,13,13,0,0,1-13,13h0a13,13,0,0,1-13-13,13,13,0,0,1-13,13h0a13,13,0,0,1-13-13,13,13,0,0,1-13,13h0a13,13,0,0,1-13-13,13,13,0,0,1-13,13h0a13,13,0,0,1-13-13,13,13,0,0,1-13,13h0a13,13,0,0,1-13-13,13,13,0,0,1-13,13h0a13,13,0,0,1-13-13,13,13,0,0,1-13,13h0a13,13,0,0,1-13-13,13,13,0,0,1-13,13h0a13,13,0,0,1-13-13V132.31A13,13,0,0,1,143.66,119.35Z" style="fill: #ebbe00;fill-rule: evenodd"/>
          <path d="M143.66,119.35h0a13,13,0,0,1,13,13,13,13,0,0,1,13-13h0a13,13,0,0,1,13,13,13,13,0,0,1,13-13h0a13,13,0,0,1,13,13,13,13,0,0,1,13-13h0a13,13,0,0,1,13,13,13,13,0,0,1,13-13h0a13,13,0,0,1,13,13,13,13,0,0,1,13-13h0a13,13,0,0,1,13,13,13,13,0,0,1,13-13h0a13,13,0,0,1,13,13,13,13,0,0,1,13-13h0a13,13,0,0,1,13,13,13,13,0,0,1,13-13h0a13,13,0,0,1,13,13,13,13,0,0,1,13-13h0a13,13,0,0,1,13,13,13,13,0,0,1,13-13h0a13,13,0,0,1,13,13,13,13,0,0,1,13-13h0a13,13,0,0,1,13,13,13,13,0,0,1,13-13h0a13,13,0,0,1,13,13,13,13,0,0,1,13-13h0a13,13,0,0,1,13,13v1.22a13,13,0,0,1-13,13h0a13,13,0,0,1-13-13,13,13,0,0,1-13,13h0a13,13,0,0,1-13-13,13,13,0,0,1-13,13h0a13,13,0,0,1-13-13,13,13,0,0,1-13,13h0a13,13,0,0,1-13-13,13,13,0,0,1-13,13h0a13,13,0,0,1-13-13,13,13,0,0,1-13,13h0a13,13,0,0,1-13-13,13,13,0,0,1-13,13h0a13,13,0,0,1-13-13,13,13,0,0,1-13,13h0a13,13,0,0,1-13-13,13,13,0,0,1-13,13h0a13,13,0,0,1-13-13,13,13,0,0,1-13,13h0a13,13,0,0,1-13-13,13,13,0,0,1-13,13h0a13,13,0,0,1-13-13,13,13,0,0,1-13,13h0a13,13,0,0,1-13-13,13,13,0,0,1-13,13h0a13,13,0,0,1-13-13,13,13,0,0,1-13,13h0a13,13,0,0,1-13-13v-1.22a13,13,0,0,1,13-13Zm350.08,8a9.5,9.5,0,0,1,9.44-8.66h0a9.5,9.5,0,0,1,9.44,8.66,9.5,9.5,0,0,1-9.44,8.66h0A9.5,9.5,0,0,1,493.74,127.39Z" style="fill: #ebd400;fill-rule: evenodd"/>
          <rect x="493.7" y="56.25" width="18.95" height="26.64" rx="9.47" ry="9.47" style="fill: #fce300"/>
        </g>
        <path d="M191,112C300,112,393.21,82.56,431.81,40.8H62.09a35.72,35.72,0,0,0-35.6,35.6V112Z" style="fill: #5d9f14;fill-rule: evenodd"/>
        <path d="M307.85,40.8H62.09a35.72,35.72,0,0,0-35.6,35.6v5.2h98.43C200.06,81.6,266.63,65.53,307.85,40.8Z" style="fill: #9ac512;fill-rule: evenodd"/>
        <path d="M138.47,112c73.05,0,135.59,19.75,161.47,47.75H50.36a24,24,0,0,1-23.88-23.87V112h112Z" style="fill: #73ae0e;fill-rule: evenodd"/>
        <rect x="47.18" y="124.3" width="114.57" height="6.56" rx="3.28" ry="3.28" style="fill: #9ac512"/>
        <path d="M223.94,140.59H50.46a3.29,3.29,0,0,0-3.28,3.28h0a3.29,3.29,0,0,0,3.28,3.28H223.94a3.29,3.29,0,0,0,3.28-3.28h0A3.29,3.29,0,0,0,223.94,140.59Z" style="fill: #9ac512;fill-rule: evenodd"/>
        <rect x="40.72" y="68.03" width="114.57" height="6.56" rx="3.28" ry="3.28" style="fill: #7fbc0a"/>
        <path d="M234.41,51.74H55.24A3.29,3.29,0,0,0,52,55h0a3.29,3.29,0,0,0,3.28,3.28H234.41A3.29,3.29,0,0,0,237.69,55h0A3.29,3.29,0,0,0,234.41,51.74Z" style="fill: #7fbc0a;fill-rule: evenodd"/>
        <path d="M150.44,0H396.21a35.72,35.72,0,0,1,35.6,35.6V40.8H333.38C258.24,40.8,191.66,24.73,150.44,0Z" style="fill: #9ac512;fill-rule: evenodd"/>
        <path d="M429.18,22.22a35.38,35.38,0,0,1,2,6.56H319.09a3.29,3.29,0,0,1-3.28-3.28h0a3.29,3.29,0,0,1,3.28-3.28Z" style="fill: #aecc29;fill-rule: evenodd"/>
        <path d="M418.05,7.55a36.32,36.32,0,0,1,6.48,6.55H257.71a3.29,3.29,0,0,1-3.28-3.28h0a3.29,3.29,0,0,1,3.28-3.28Z" style="fill: #aecc29;fill-rule: evenodd"/>
        <path d="M63.92,194H270.08a30,30,0,0,0,29.87-29.86v-4.36H217.37C154.34,159.77,98.5,173.25,63.92,194Z" style="fill: #73ae0e;fill-rule: evenodd"/>
        <polygon points="26.49 81.61 26.49 122.28 0 122.28 7.46 118.89 14.92 115.5 7.46 112.11 0 108.72 7.46 105.33 14.92 101.94 7.46 98.55 0 95.16 7.46 91.77 14.92 88.38 7.46 85 0 81.61 26.49 81.61" style="fill: #5d9f14;fill-rule: evenodd"/>
        <polygon points="26.49 112.01 26.49 122.28 0 122.28 7.46 118.89 14.92 115.5 7.46 112.11 7.24 112.01 26.49 112.01" style="fill: #73ae0e;fill-rule: evenodd"/>
      </g>
    </g>
  </g>
</svg>
