<svg xmlns="http://www.w3.org/2000/svg" viewBox="0 0 186.46 112.51">
  <title>garlic_produce</title>
  <g id="Layer_2" data-name="Layer 2">
    <g id="Layer_1-2" data-name="Layer 1">
      <g>
        <path d="M111.05,94.49c41.65,0,75.41-19.2,75.41-42.89,0-16.67-16.71-31.11-41.12-38.21C126.32,7.86,123,7.09,122.4,0H111.05Z" style="fill: #7464af;fill-rule: evenodd"/>
        <path d="M111.05,101.33c30.47,0,55.18-20.59,55.18-46,0-17.87-12.23-33.36-30.09-41C122.23,8.43,119.76,7.6,119.35,0h-8.3Z" style="fill: #c1abd7;fill-rule: evenodd"/>
        <path d="M111.05,107.81c17.55,0,31.78-21.91,31.78-48.94,0-19-7-35.49-17.33-43.6-8-6.31-9.43-7.19-9.67-15.27h-4.78Z" style="fill: #cec8e6;fill-rule: evenodd"/>
        <path d="M111.05,94.49c-41.65,0-75.41-19.2-75.41-42.9,0-16.66,16.71-31.11,41.12-38.21C95.78,7.86,99.14,7.09,99.71,0h11.35Z" style="fill: #cec8e6;fill-rule: evenodd"/>
        <path d="M111.05,101.33c-30.47,0-55.18-20.59-55.18-46C55.87,37.46,68.1,22,86,14.36,99.88,8.43,102.34,7.6,102.75,0h8.3Z" style="fill: #c1abd7;fill-rule: evenodd"/>
        <path d="M111.05,107.81c-17.55,0-31.78-21.91-31.78-48.94,0-19,7-35.49,17.33-43.59C104.62,9,106,8.09,106.27,0h4.78Z" style="fill: #c2bbe0;fill-rule: evenodd"/>
        <path d="M111.05,107.81c8.77,0,15.89-21.91,15.89-48.94,0-19-3.52-35.49-8.66-43.59-4-6.33-4.72-7.19-4.83-15.27h-4.78c-.12,8.09-.83,9-4.83,15.27-5.14,8.1-8.66,24.58-8.66,43.59C95.17,85.9,102.28,107.81,111.05,107.81Z" style="fill: #e3e2f3;fill-rule: evenodd"/>
        <path d="M0,68.17c.58,24.59,19.55,44.34,42.88,44.34,16.66,0,31.11-10.08,38.21-24.81,5.53-11.47,6.3-13.5,13.39-13.84V67H82.15c-12.08,5.06-26.73,8-42.53,8A112.91,112.91,0,0,1,0,68.17Z" style="fill: #fbce79;fill-rule: evenodd"/>
        <path d="M0,68.17v.44C8.5,82.1,24.25,91.17,42.27,91.17c18.72,0,35-9.79,43.21-24.16H82.15c-12.08,5.06-26.73,8-42.53,8A112.91,112.91,0,0,1,0,68.17Z" style="fill: #f4dba9;fill-rule: evenodd"/>
      </g>
    </g>
  </g>
</svg>
