<svg xmlns="http://www.w3.org/2000/svg" viewBox="0 0 360.38 285.68">
  <title>lemon_produce</title>
  <g id="Layer_2" data-name="Layer 2">
    <g id="Layer_1-2" data-name="Layer 1">
      <g>
        <path d="M127,21.51c51.41,9.79,90.57,60.28,90.57,121.12,0,67.84-48.71,122.84-108.79,122.84S0,210.47,0,142.62C0,81.79,39.16,31.3,90.57,21.51V18.22A18.27,18.27,0,0,1,108.79,0h0A18.27,18.27,0,0,1,127,18.22Z" style="fill: #fce300;fill-rule: evenodd"/>
        <path d="M127,21.51c51.41,9.79,90.57,60.28,90.57,121.12,0,67.84-48.71,122.84-108.79,122.84V0h0A18.27,18.27,0,0,1,127,18.22Z" style="fill: #edcf00;fill-rule: evenodd"/>
        <rect x="68.7" y="60.12" width="9.89" height="9.89" transform="translate(-24.44 71.14) rotate(-45)" style="fill: #e9d200"/>
        <rect x="68.7" y="89.27" width="9.89" height="9.89" transform="translate(-45.05 79.66) rotate(-45)" style="fill: #e9d200"/>
        <rect x="39.56" y="89.27" width="9.89" height="9.89" transform="translate(-53.58 59.06) rotate(-45)" style="fill: #e9d200"/>
        <rect x="68.7" y="204.57" width="9.89" height="9.89" transform="translate(-126.57 113.43) rotate(-45)" style="fill: #e9d200"/>
        <rect x="92.12" y="204.57" width="9.89" height="9.89" transform="translate(-119.72 130) rotate(-45)" style="fill: #e9d200"/>
      </g>
      <g>
        <path d="M198,275.68a115.43,115.43,0,0,1-68.48-107.95v2.51H360.38A115.45,115.45,0,0,1,198,275.68Z" style="fill: #fce100;fill-rule: evenodd"/>
        <path d="M245,170.25H360.38A115.5,115.5,0,0,1,245,285.67Z" style="fill: #edcf00;fill-rule: evenodd"/>
        <path d="M274.94,265.58A99.53,99.53,0,0,1,210,263.9l34.49-77.5Z" style="fill: #f5e951;fill-rule: evenodd"/>
        <path d="M333.57,216.45a99.53,99.53,0,0,1-47.09,44.69L256.07,182Z" style="fill: #f5e951;fill-rule: evenodd"/>
        <path d="M344.92,170.25a99.47,99.47,0,0,1-6.32,34.91L261.1,170.67l1.09-.42Z" style="fill: #f5e951;fill-rule: evenodd"/>
        <path d="M149.61,200.24a100,100,0,0,1-4.63-30H227.7Z" style="fill: #f0e751;fill-rule: evenodd"/>
        <path d="M198.74,258.87A99.51,99.51,0,0,1,154,211.78l79.19-30.41Z" style="fill: #f0e751;fill-rule: evenodd"/>
        <path d="M293.47,211.38l-4.53,4.53a6.42,6.42,0,0,1-9.05,0l-12.33-12.33,4.53-4.53a6.42,6.42,0,0,1,9.05,0Z" style="fill: #f8f3c7;fill-rule: evenodd"/>
        <path d="M251.36,231.86H245a6.42,6.42,0,0,1-6.4-6.4V208H245a6.42,6.42,0,0,1,6.4,6.4Z" style="fill: #f8f3c7;fill-rule: evenodd"/>
        <path d="M191.34,211.38l4.53,4.53a6.42,6.42,0,0,0,9.05,0l12.33-12.33L212.72,199a6.42,6.42,0,0,0-9.06,0Z" style="fill: #f8f3c7;fill-rule: evenodd"/>
      </g>
    </g>
  </g>
</svg>
