<svg xmlns="http://www.w3.org/2000/svg" viewBox="0 0 196.84 287.37">
  <title>peas_produce</title>
  <g id="Layer_2" data-name="Layer 2">
    <g id="Layer_1-2" data-name="Layer 1">
      <g>
        <path d="M8.07,22.77H28a28,28,0,0,1,28,28V239.2a2.44,2.44,0,0,1-2.43,2.43H28a28,28,0,0,1-28-28V16.73A16.69,16.69,0,0,1,4.92,4.93h0A16.7,16.7,0,0,1,16.74,0V8.07a8.61,8.61,0,0,0-6.11,2.54h0a8.61,8.61,0,0,0-2.53,6.11Z" style="fill: #8fbc01;fill-rule: evenodd"/>
        <path d="M8.07,22.77h11a28,28,0,0,1,28,28V239.2a2.44,2.44,0,0,1-2.37,2.43H28a28,28,0,0,1-28-28V22.77Z" style="fill: #7fbc0a;fill-rule: evenodd"/>
        <path d="M0,22.77v-6A16.69,16.69,0,0,1,4.92,4.93h0A16.7,16.7,0,0,1,16.74,0V8.07a8.61,8.61,0,0,0-6.11,2.54h0a8.61,8.61,0,0,0-2.53,6.11v6Z" style="fill: #7fbc0a;fill-rule: evenodd"/>
        <path d="M12.79,40.39h0a2.45,2.45,0,0,1,2.44,2.44V218.51A2.45,2.45,0,0,1,12.79,221h0a2.45,2.45,0,0,1-2.44-2.44V42.84A2.45,2.45,0,0,1,12.79,40.39Z" style="fill: #a3c600;fill-rule: evenodd"/>
        <path d="M76.92,29.36h25.54a28,28,0,0,1,28,28V254.22A16.69,16.69,0,0,1,125.51,266h0A16.72,16.72,0,0,1,113.68,271v-8.07a8.63,8.63,0,0,0,6.12-2.53h0a8.63,8.63,0,0,0,2.54-6.12v-6H102.46a28,28,0,0,1-28-28V31.79A2.44,2.44,0,0,1,76.92,29.36Z" style="fill: #7fbc0a;fill-rule: evenodd"/>
        <path d="M118.87,248.22H102.46a28,28,0,0,1-28-28V43.34H90.9a28,28,0,0,1,28,28Z" style="fill: #5d9f14;fill-rule: evenodd"/>
        <g>
          <path d="M97,86.51A16.41,16.41,0,1,0,80.58,70.09,16.44,16.44,0,0,0,97,86.51Z" style="fill: #a3c600;fill-rule: evenodd"/>
          <circle cx="91.52" cy="66.44" r="8.78" style="fill: #c6d40f"/>
        </g>
        <g>
          <path d="M97,124.19a16.41,16.41,0,1,0-16.41-16.41A16.45,16.45,0,0,0,97,124.19Z" style="fill: #a3c600;fill-rule: evenodd"/>
          <circle cx="91.52" cy="104.12" r="8.78" style="fill: #c6d40f"/>
        </g>
        <g>
          <path d="M97,161.88a16.41,16.41,0,1,0-16.41-16.41A16.44,16.44,0,0,0,97,161.88Z" style="fill: #a3c600;fill-rule: evenodd"/>
          <circle cx="91.52" cy="141.81" r="8.78" style="fill: #c6d40f"/>
        </g>
        <g>
          <path d="M97,199.56a16.41,16.41,0,1,0-16.41-16.41A16.44,16.44,0,0,0,97,199.56Z" style="fill: #a3c600;fill-rule: evenodd"/>
          <circle cx="91.52" cy="179.5" r="8.78" style="fill: #c6d40f"/>
        </g>
        <g>
          <path d="M97,237.25a16.41,16.41,0,1,0-16.41-16.41A16.45,16.45,0,0,0,97,237.25Z" style="fill: #a3c600;fill-rule: evenodd"/>
          <circle cx="91.52" cy="217.18" r="8.78" style="fill: #c6d40f"/>
        </g>
        <g>
          <path d="M69.62,287.37A16.41,16.41,0,1,0,53.21,271,16.44,16.44,0,0,0,69.62,287.37Z" style="fill: #a3c600;fill-rule: evenodd"/>
          <circle cx="64.15" cy="267.31" r="8.78" style="fill: #c6d40f"/>
        </g>
        <g>
          <path d="M23,287.37A16.41,16.41,0,1,0,6.54,271,16.44,16.44,0,0,0,23,287.37Z" style="fill: #a3c600;fill-rule: evenodd"/>
          <circle cx="17.49" cy="267.31" r="8.78" style="fill: #c6d40f"/>
        </g>
        <g>
          <path d="M180.43,127.44A16.41,16.41,0,1,0,164,111,16.44,16.44,0,0,0,180.43,127.44Z" style="fill: #a3c600;fill-rule: evenodd"/>
          <circle cx="174.96" cy="107.37" r="8.78" style="fill: #c6d40f"/>
        </g>
      </g>
    </g>
  </g>
</svg>
