<svg xmlns="http://www.w3.org/2000/svg" viewBox="0 0 218.71 124.44">
  <title>pepper_produce</title>
  <g id="Layer_2" data-name="Layer 2">
    <g id="Layer_1-2" data-name="Layer 1">
      <g>
        <path d="M47.93,102l-27.65.12A20.13,20.13,0,0,1,6,96.23H6A20.15,20.15,0,0,1,0,82l9.74,0a10.42,10.42,0,0,0,3.09,7.37l0,0a10.4,10.4,0,0,0,7.39,3l27.69-.12Z" style="fill: #66aa13;fill-rule: evenodd"/>
        <g>
          <path d="M218.71,6.08a128.74,128.74,0,0,1-10.8,42A129,129,0,0,1,101,124c-8.78.75-33.43.82-41.52-2.79A25.52,25.52,0,0,1,70.79,72.42c61.57,2.23,109.77-7.13,139.44-68.14.86-1.58,2.88-4.67,5.24-4.25,3.17.57,3.22,6,3.22,6Z" style="fill: #c80004;fill-rule: evenodd"/>
          <path d="M45.1,91.8A25.55,25.55,0,0,1,70.79,72.42c61.57,2.23,109.77-7.13,139.44-68.14C211.07,2.73,213-.28,215.35,0A129.24,129.24,0,0,1,206,30.6a129,129,0,0,1-106.91,76c-8.78.76-33.43.83-41.52-2.79A25.41,25.41,0,0,1,45.1,91.8Z" style="fill: #e41200;fill-rule: evenodd"/>
        </g>
        <path d="M60.31,121.82a15.86,15.86,0,0,1-1.56-.59A25.52,25.52,0,0,1,60.32,74c3.06,6,5,14.47,5,23.91S63.38,115.86,60.31,121.82Z" style="fill: #569211;fill-rule: evenodd"/>
        <path d="M44,102.18A25.51,25.51,0,0,1,60.32,74c3.06,6,5,14.47,5,23.91a62.52,62.52,0,0,1-1.84,15.39C54.78,110.74,48.13,106.8,44,102.18Z" style="fill: #66aa13;fill-rule: evenodd"/>
      </g>
    </g>
  </g>
</svg>
