<svg xmlns="http://www.w3.org/2000/svg" viewBox="0 0 141.74 236.93">
  <title>radish_produce</title>
  <g id="Layer_2" data-name="Layer 2">
    <g id="Layer_1-2" data-name="Layer 1">
      <g>
        <path d="M70.92,106.28c33.07,0,59.89,24.22,59.89,54.1C130.81,207.61,81,205,75,235.07c0,0-1,1.85-4.11,1.86s-4.11-1.86-4.11-1.86C60.86,205,11,207.6,11,160.37,11,130.5,37.84,106.28,70.92,106.28Z" style="fill: #e4007d;fill-rule: evenodd"/>
        <path d="M34.68,202.77c9.7-6,22.37-9.56,36.23-9.56s26.53,3.61,36.23,9.56c-13.76,9.73-29,16.51-32.11,32.3,0,0-1,1.85-4.11,1.86s-4.11-1.86-4.11-1.86C63.68,219.28,48.45,212.5,34.68,202.77Z" style="fill: #e9398a;fill-rule: evenodd"/>
        <path d="M70.6,0c23.56,0,42.67,14.63,42.67,32.68,0,11.26-7.43,21.19-18.75,27.07a15,15,0,0,1,1.08,5.57c0,7.21-5.2,13.5-12.9,16.76a7.5,7.5,0,0,1,.39,2.38c0,5.28-5.59,9.57-12.49,9.57s-12.48-4.28-12.48-9.57a7.3,7.3,0,0,1,.39-2.38c-7.69-3.26-12.9-9.54-12.9-16.76a14.93,14.93,0,0,1,1.08-5.57C35.37,53.87,27.94,43.94,27.94,32.68,27.94,14.63,47,0,70.6,0Z" style="fill: #a3c600;fill-rule: evenodd"/>
        <path d="M70.6,94c-6.9,0-12.48-4.28-12.48-9.57a7.3,7.3,0,0,1,.39-2.38c-7.69-3.26-12.9-9.54-12.9-16.76a14.93,14.93,0,0,1,1.08-5.57C35.37,53.87,27.94,43.94,27.94,32.68,27.94,14.63,47,0,70.6,0Z" style="fill: #c6d40f;fill-rule: evenodd"/>
        <path d="M54.1,101.13c-4.55,2.63-9.85,1.92-11.87-1.55a5.92,5.92,0,0,1-.65-1.72c-6.31.77-12.13-1.39-14.88-6.14a11.48,11.48,0,0,1-1.41-4.08c-9.7.43-18.37-3.28-22.66-10.71C-4.23,65,2.79,48.12,18.32,39.15Z" style="fill: #c6d40f;fill-rule: evenodd"/>
        <path d="M87.64,101.13c4.55,2.63,9.86,1.92,11.87-1.55a5.81,5.81,0,0,0,.66-1.72c6.31.77,12.13-1.39,14.88-6.14a11.52,11.52,0,0,0,1.41-4.08c9.69.43,18.37-3.28,22.66-10.71,6.87-11.9-.16-28.81-15.68-37.77Z" style="fill: #a3c600;fill-rule: evenodd"/>
        <rect x="35.82" y="122.46" width="27.13" height="17.8" rx="8.9" ry="8.9" style="fill: #fff"/>
        <path d="M30.56,145.05h5.28a5.06,5.06,0,0,1,5,5h0a5.06,5.06,0,0,1-5,5H30.56a5.06,5.06,0,0,1-5-5h0A5.06,5.06,0,0,1,30.56,145.05Z" style="fill: #fff;fill-rule: evenodd"/>
      </g>
    </g>
  </g>
</svg>
