<svg xmlns="http://www.w3.org/2000/svg" viewBox="0 0 337.93 258.28">
  <title>red_onion_produce</title>
  <g id="Layer_2" data-name="Layer 2">
    <g id="Layer_1-2" data-name="Layer 1">
      <g>
        <g>
          <path d="M118.95,246.84c65.7,0,119-45.58,119-101.82,0-39.56-26.36-73.84-64.86-90.7-30.1-13.17-35.31-15-36.16-31.77H118.95Z" style="fill: #651151;fill-rule: evenodd"/>
          <path d="M118.95,246.84C53.25,246.84,0,201.25,0,145c0-39.56,26.36-73.84,64.86-90.7,30-13.12,35.3-15,36.19-31.77h17.9Z" style="fill: #980052;fill-rule: evenodd"/>
          <path d="M118.95,246.84c48.07,0,87-45.58,87-101.82,0-39.56-19.29-73.84-47.46-90.7-22-13.17-25.84-15-26.46-31.77H118.95Z" style="fill: #c076b3;fill-rule: evenodd"/>
          <path d="M118.95,246.84c-48.07,0-87-45.58-87-101.82,0-39.56,19.29-73.84,47.46-90.7,21.95-13.12,25.83-15,26.48-31.77h13.09Z" style="fill: #c080b5;fill-rule: evenodd"/>
          <path d="M118.95,246.84c27.69,0,50.13-45.58,50.13-101.82,0-39.56-11.11-73.84-27.33-90.7-12.68-13.17-14.88-15-15.24-31.77h-7.56Z" style="fill: #651151;fill-rule: evenodd"/>
          <path d="M118.95,246.84c-27.68,0-50.12-45.58-50.12-101.82,0-39.56,11.11-73.84,27.33-90.7,12.64-13.12,14.87-15,15.25-31.77h7.54Z" style="fill: #980052;fill-rule: evenodd"/>
          <path d="M118.95,246.84C132.78,246.84,144,201.25,144,145c0-39.56-5.55-73.84-13.66-90.7-6.34-13.17-7.44-15-7.62-31.77h-7.55c-.19,16.82-1.31,18.65-7.63,31.77C99.45,71.18,93.89,105.46,93.89,145,93.89,201.25,105.11,246.84,118.95,246.84Z" style="fill: #c080b5;fill-rule: evenodd"/>
          <path d="M136.88,22.55c-.72-5.29-.55-12.33-.55-22.55l-2.89,7.67-2.89,7.67-2.89-7.67L124.77,0l-2.9,7.67L119,15.34l-2.89-7.67L113.2,0,110.3,7.67l-2.89,7.67-2.89-7.67L101.63,0c0,10.21.16,17.26-.58,22.55Z" style="fill: #651151;fill-rule: evenodd"/>
          <path d="M119,15.34l-2.9-7.67L113.2,0l-2.9,7.67-2.89,7.67-2.89-7.67L101.63,0c0,10.21.16,17.26-.58,22.55H119Z" style="fill: #980052;fill-rule: evenodd"/>
        </g>
        <path d="M283.82,246.75a100.87,100.87,0,1,0-136.16-42.57A100.87,100.87,0,0,0,283.82,246.75Z" style="fill: #651151;fill-rule: evenodd"/>
        <g>
          <circle cx="228.53" cy="157.39" r="88.02" transform="translate(-46.93 123.97) rotate(-27.64)" style="fill: #c076b3"/>
          <path d="M265.23,227.47a79.11,79.11,0,1,0-106.79-33.39A79.11,79.11,0,0,0,265.23,227.47Z" style="fill: #fff;fill-rule: evenodd"/>
          <circle cx="228.53" cy="157.39" r="71.95" transform="translate(-46.93 123.98) rotate(-27.64)" style="fill: #ac347b"/>
          <circle cx="228.53" cy="157.39" r="61.32" transform="translate(-46.93 123.97) rotate(-27.64)" style="fill: #9e5aa5"/>
          <path d="M251.92,202.07a50.44,50.44,0,1,0-68.08-21.29A50.43,50.43,0,0,0,251.92,202.07Z" style="fill: #c076b3;fill-rule: evenodd"/>
          <circle cx="228.53" cy="157.39" r="40.79" transform="translate(-46.93 123.97) rotate(-27.64)" style="fill: #fff"/>
          <path d="M244.47,187.83a34.37,34.37,0,1,0-46.38-14.5A34.36,34.36,0,0,0,244.47,187.83Z" style="fill: #e4bedd;fill-rule: evenodd"/>
        </g>
      </g>
    </g>
  </g>
</svg>
