<svg xmlns="http://www.w3.org/2000/svg" viewBox="0 0 1024.6 85.09">
  <title>wheat_produce</title>
  <g id="Layer_2" data-name="Layer 2">
    <g id="Layer_1-2" data-name="Layer 1">
      <g>
        <path d="M937,42.54h0a4.67,4.67,0,0,1-4.65,4.65H0V37.88H932.36A4.67,4.67,0,0,1,937,42.54Z" style="fill: #fbca6e;fill-rule: evenodd"/>
        <path d="M923.38,0V16.31a16.35,16.35,0,0,1-16.31,16.31H889V16.31A16.35,16.35,0,0,1,905.31,0Z" style="fill: #fbca6e;fill-rule: evenodd"/>
        <path d="M882.72,0V16.31a16.35,16.35,0,0,1-16.31,16.31H848.34V16.31A16.35,16.35,0,0,1,864.65,0Z" style="fill: #fbca6e;fill-rule: evenodd"/>
        <path d="M842.06,0V16.31a16.35,16.35,0,0,1-16.31,16.31H807.69V16.31A16.35,16.35,0,0,1,824,0Z" style="fill: #fbca6e;fill-rule: evenodd"/>
        <path d="M801.4,0V16.31a16.35,16.35,0,0,1-16.31,16.31H767V16.31A16.35,16.35,0,0,1,783.33,0Z" style="fill: #fbca6e;fill-rule: evenodd"/>
        <path d="M760.74,0V16.31a16.35,16.35,0,0,1-16.31,16.31H726.37V16.31A16.35,16.35,0,0,1,742.68,0Z" style="fill: #fbca6e;fill-rule: evenodd"/>
        <path d="M720.08,0V16.31a16.35,16.35,0,0,1-16.31,16.31H685.71V16.31A16.35,16.35,0,0,1,702,0Z" style="fill: #fbca6e;fill-rule: evenodd"/>
        <path d="M923.38,85.09V68.77a16.36,16.36,0,0,0-16.31-16.31H889V68.78a16.35,16.35,0,0,0,16.31,16.31Z" style="fill: #fcbd4d;fill-rule: evenodd"/>
        <path d="M882.72,85.09V68.77a16.36,16.36,0,0,0-16.31-16.31H848.34V68.78a16.35,16.35,0,0,0,16.31,16.31Z" style="fill: #fcbd4d;fill-rule: evenodd"/>
        <path d="M842.06,85.09V68.77a16.36,16.36,0,0,0-16.31-16.31H807.69V68.78A16.35,16.35,0,0,0,824,85.09Z" style="fill: #fcbd4d;fill-rule: evenodd"/>
        <path d="M801.4,85.09V68.77a16.36,16.36,0,0,0-16.31-16.31H767V68.78a16.35,16.35,0,0,0,16.31,16.31Z" style="fill: #eda934;fill-rule: evenodd"/>
        <path d="M760.74,85.09V68.77a16.35,16.35,0,0,0-16.31-16.31H726.37V68.78a16.35,16.35,0,0,0,16.31,16.31Z" style="fill: #eda934;fill-rule: evenodd"/>
        <path d="M720.08,85.09V68.77a16.35,16.35,0,0,0-16.31-16.31H685.71V68.78A16.35,16.35,0,0,0,702,85.09Z" style="fill: #eda934;fill-rule: evenodd"/>
        <g>
          <rect x="944.44" y="25.1" width="80.16" height="7.81" style="fill: #fbca6e"/>
          <rect x="944.44" y="38.64" width="80.16" height="7.81" style="fill: #fbca6e"/>
          <rect x="944.44" y="52.17" width="80.16" height="7.81" style="fill: #fbca6e"/>
        </g>
      </g>
    </g>
  </g>
</svg>
