<svg xmlns="http://www.w3.org/2000/svg" viewBox="0 0 492 492"><defs><style>.cls-1{fill:#acce89;stroke:#fff;stroke-miterlimit:10;stroke-width:4px;}</style></defs><title>single_plot</title><g id="Layer_2" data-name="Layer 2"><g id="Layer_2-2" data-name="Layer 2"><rect class="cls-1" x="2" y="2" width="122" height="122"/><rect class="cls-1" x="124" y="2" width="122" height="122"/><rect class="cls-1" x="246" y="2" width="122" height="122"/><rect class="cls-1" x="368" y="2" width="122" height="122"/><rect class="cls-1" x="2" y="124" width="122" height="122"/><rect class="cls-1" x="124" y="124" width="122" height="122"/><rect class="cls-1" x="246" y="124" width="122" height="122"/><rect class="cls-1" x="368" y="124" width="122" height="122"/><rect class="cls-1" x="2" y="246" width="122" height="122"/><rect class="cls-1" x="124" y="246" width="122" height="122"/><rect class="cls-1" x="246" y="246" width="122" height="122"/><rect class="cls-1" x="368" y="246" width="122" height="122"/><rect class="cls-1" x="2" y="368" width="122" height="122"/><rect class="cls-1" x="124" y="368" width="122" height="122"/><rect class="cls-1" x="246" y="368" width="122" height="122"/><rect class="cls-1" x="368" y="368" width="122" height="122"/></g></g></svg>