<svg xmlns="http://www.w3.org/2000/svg" viewBox="0 0 100 100"><defs><style>.cls-1{fill:#acce89;}.cls-2{fill:#fff;}</style></defs><title>artichoke_icon</title><g id="Layer_2" data-name="Layer 2"><g id="Layer_2-2" data-name="Layer 2"><rect class="cls-1" width="100" height="100"/><path class="cls-2" d="M40,64.56C31.38,62.19,29.89,56,29.82,55.72a1.35,1.35,0,0,0-2.64.57c.07.33,1.82,8.06,12.14,10.88a1.33,1.33,0,0,0,.36,0A1.35,1.35,0,0,0,40,64.56Z"/><path class="cls-2" d="M79.26,46.37A1.7,1.7,0,0,0,78.16,45c-.05,0-.55-.19-1.37-.41a32,32,0,0,0-6.68-19.5,1.69,1.69,0,0,0-1.7-.55,17.7,17.7,0,0,0-1.88.62,31.17,31.17,0,0,0-6.77-7.67,1.7,1.7,0,0,0-1.89-.11c-.08,0-.62.37-1.41,1A23,23,0,0,0,51,13.75a1.7,1.7,0,0,0-1.65,0,22.83,22.83,0,0,0-5.51,4.63c-.8-.58-1.35-.91-1.43-1a1.7,1.7,0,0,0-1.91.13,31.94,31.94,0,0,0-6.61,7.65A17.6,17.6,0,0,0,32,24.58a1.7,1.7,0,0,0-1.69.53c-.26.3-6.29,7.4-6.64,19.41a18.52,18.52,0,0,0-1.8.52,1.7,1.7,0,0,0-1.1,1.32c-.09.56-2.17,13.86,7.64,21.75,6.5,5.23,16.18,6,20,6.07.48,4.71,2.26,10.93,8,14.07a1.7,1.7,0,0,0,1.63-3c-4.27-2.34-5.73-7.21-6.19-11.1,4-.11,13.4-.95,19.76-6.06C81.42,60.23,79.35,46.93,79.26,46.37ZM73.4,44a27.37,27.37,0,0,0-3.48-.23,23.14,23.14,0,0,0-7.42,1.19,20.8,20.8,0,0,0-3.92-9.77A20.65,20.65,0,0,1,66.24,29a1.69,1.69,0,0,0,.41-.15l.16-.11c.52-.23,1-.42,1.36-.55A29.15,29.15,0,0,1,73.4,44ZM50.13,31.69c2.3,1.56,8.57,6.56,9.07,14.7a20.12,20.12,0,0,0-3.3,2.24A20.33,20.33,0,0,0,50,58.17a20.33,20.33,0,0,0-5.9-9.54,20.2,20.2,0,0,0-3-2.11C41.49,38.31,47.83,33.26,50.13,31.69Zm13.28-5a23.73,23.73,0,0,0-7.06,5.87,27.15,27.15,0,0,0-4.21-3.57C53.57,25,56.93,22.22,58.6,21A29,29,0,0,1,63.41,26.65Zm-13.28-9.4a20.89,20.89,0,0,1,3.72,3.31,21.28,21.28,0,0,0-3.71,4.69,21.21,21.21,0,0,0-3.73-4.69A20.94,20.94,0,0,1,50.13,17.25ZM41.65,21c1.69,1.21,5,4,6.47,7.92A26.89,26.89,0,0,0,44,32.45a23.75,23.75,0,0,0-7-5.8A30.17,30.17,0,0,1,41.65,21Zm-9.46,7.19c.37.13.82.31,1.33.53l.2.13a1.7,1.7,0,0,0,.45.16,20.56,20.56,0,0,1,7.56,6.06,20.8,20.8,0,0,0-4,9.93,23.09,23.09,0,0,0-7.68-1.27,27.25,27.25,0,0,0-3,.17A30.57,30.57,0,0,1,32.19,28.21ZM24,47.95a24.19,24.19,0,0,1,6.09-.79,17.87,17.87,0,0,1,11.84,4.07c5.25,4.41,6.21,13.46,6.38,16.86,0,.8,0,1.31,0,1.41V70c0,.25,0,.52,0,.81-5.73-.15-13.13-1.6-17.75-5.31C23.7,60,23.76,51,24,47.95ZM69.48,65.46c-4.63,3.72-12,5.17-17.78,5.31l0-1.29s0-.19,0-.39c0-.37.05-.59.05-.61a1.7,1.7,0,0,0-.06-.71c.22-3.62,1.27-12.27,6.37-16.55a17.87,17.87,0,0,1,11.83-4.07,24.36,24.36,0,0,1,6.09.79C76.24,51,76.29,60,69.48,65.46Z"/><path class="cls-2" d="M71.78,54.69a1.35,1.35,0,0,0-1.61,1c-.06.26-1.54,6.47-10.22,8.84a1.35,1.35,0,0,0,.36,2.65,1.33,1.33,0,0,0,.36,0C71,64.34,72.75,56.61,72.82,56.28A1.35,1.35,0,0,0,71.78,54.69Z"/></g></g></svg>