<svg xmlns="http://www.w3.org/2000/svg" viewBox="0 0 100 100"><defs><style>.cls-1{fill:#acce89;}.cls-2{fill:#fff;}</style></defs><title>asparagus_icon</title><g id="Layer_2" data-name="Layer 2"><g id="Layer_2-2" data-name="Layer 2"><rect class="cls-1" width="100" height="100" rx="0.83" ry="0.83"/><path class="cls-2" d="M81.49,29.12a8.33,8.33,0,0,0-1.16-1.06,10.82,10.82,0,0,0,.38-8,1.46,1.46,0,0,0-.79-.79,10.74,10.74,0,0,0-8,.38,8.28,8.28,0,0,0-1.06-1.15,1.46,1.46,0,0,0-1.28-.31,15,15,0,0,0-7.44,4.7,8.74,8.74,0,0,0-1.22-.61,1.45,1.45,0,0,0-1.33.15c-3.63,2.44-9.38,8.56-6.47,15L18.51,72.1a6,6,0,0,0-1.59,3.64,1.83,1.83,0,0,0-.07.37c-.1,1,.63,2.26,2.44,4.07l.53.53c1.7,1.7,2.88,2.45,3.89,2.45h.18a1.9,1.9,0,0,0,.37-.07,6,6,0,0,0,3.65-1.59L62.53,46.87c6.47,2.91,12.6-2.84,15-6.47a1.46,1.46,0,0,0,.15-1.33,8.8,8.8,0,0,0-.61-1.22,15,15,0,0,0,4.7-7.45A1.46,1.46,0,0,0,81.49,29.12ZM78.2,21.79a8.13,8.13,0,0,1-.42,4.81A9.39,9.39,0,0,0,74,26a9.42,9.42,0,0,0-.65-3.75A8.09,8.09,0,0,1,78.2,21.79ZM65.71,29.54a7.64,7.64,0,0,1,.85-.37,8.29,8.29,0,0,1,2.84-.51,7.7,7.7,0,0,1,1.74.19,8.12,8.12,0,0,1-.32,4.58,9,9,0,0,1-.38.88,10.76,10.76,0,0,1-2.08,2.85l-.5.47a7.48,7.48,0,0,1-5,2.17h0a5.71,5.71,0,0,1-2.24-.45c-.42-.94-1.31-3.84,1.73-7.22l.48-.5A10.83,10.83,0,0,1,65.71,29.54Zm3.8-8.26a7.28,7.28,0,0,1,.69,1,6.58,6.58,0,0,1,.94,3.62,10.88,10.88,0,0,0-1.73-.14,11.19,11.19,0,0,0-3.67.63,9.37,9.37,0,0,0-1.29-1.68A11.93,11.93,0,0,1,69.5,21.28Zm1.67,21.58c-2.91,2.14-5.66,2.46-8.18,1a1.46,1.46,0,0,0-1.77.22L43.9,61.36a7.81,7.81,0,0,0-6,.14,1.16,1.16,0,1,0,1,2.1A5.19,5.19,0,0,1,42,63.24L25.84,79.43a3,3,0,0,1-1.83.74,1.33,1.33,0,0,0-.31,0,9.42,9.42,0,0,1-1.83-1.54l-.53-.53a9.45,9.45,0,0,1-1.53-1.82,1.49,1.49,0,0,0,0-.31,3.06,3.06,0,0,1,.74-1.83L48.34,46.39a5.86,5.86,0,0,1-.45,3.15,1.16,1.16,0,1,0,2.13.9,7.84,7.84,0,0,0,.2-5.93l5.72-5.72A1.46,1.46,0,0,0,56.17,37c-3.09-5.23,2.41-10.13,4.39-11.66a8.43,8.43,0,0,1,1,.7,7,7,0,0,1,1.5,1.64,14.44,14.44,0,0,0-2.33,1.89q-.3.3-.58.61c-5.15,5.73-2,10.83-1.87,11a1.46,1.46,0,0,0,.45.45,8.1,8.1,0,0,0,4.09,1h0a10.3,10.3,0,0,0,6.94-2.92c.2-.18.41-.38.61-.58a14.37,14.37,0,0,0,1.89-2.33A7,7,0,0,1,74,38.39a8.41,8.41,0,0,1,.7,1A18.67,18.67,0,0,1,71.17,42.86Zm4.13-7.3a9.37,9.37,0,0,0-1.69-1.29,11.09,11.09,0,0,0,.49-5.4,6.55,6.55,0,0,1,3.63.94,7.35,7.35,0,0,1,1,.69A11.79,11.79,0,0,1,75.3,35.56Z"/></g></g></svg>