<svg xmlns="http://www.w3.org/2000/svg" viewBox="0 0 100 100"><defs><style>.cls-1{fill:#b7586c;}.cls-2{fill:#fff;}</style></defs><title>Asset 28_icon</title><g id="Layer_2" data-name="Layer 2"><g id="Layer_2-2" data-name="Layer 2"><rect class="cls-1" width="100" height="100"/><path class="cls-2" d="M66.46,21.85c-10.57-3.39-20.17-1.43-26.55,5.3-5.25,5.53-8,14-7.49,23.22,1,18.81,14.47,31.44,33.52,31.44a1.7,1.7,0,0,0,1.7-1.7V23.47A1.7,1.7,0,0,0,66.46,21.85ZM64.24,70.23c-1.67-.2-3-.47-3-.47C49.91,67,44.47,60.82,43.64,49.59c-.51-7,1.33-12.47,5.21-15.52,3.63-2.86,8.93-3.42,15.39-1.62Zm-28.42-20c-.44-8.3,1.95-15.84,6.56-20.7a19,19,0,0,1,14.18-5.9,28.38,28.38,0,0,1,7.69,1.14v4.93c-8.75-2.25-14.08-.06-17.06,2.29-4.6,3.63-6.81,10-6.23,17.84.92,12.42,7.17,19.6,19.72,22.61.08,0,1.62.33,3.57.55v5.43C47.78,77.67,36.7,66.76,35.81,50.19ZM53,38.58a2.83,2.83,0,0,0-.44,3c1.1,2.3,5.58,2.72,6.93,2.8h.08a1.22,1.22,0,0,0,1.26-1.25,1.25,1.25,0,0,0-.2-.68C60,41,58.08,37.11,55.5,37.11A3,3,0,0,0,53,38.58Zm4.36,3a4.54,4.54,0,0,1-2.55-1.08s0-.19.22-.48.4-.42.46-.42C55.91,39.61,56.66,40.45,57.37,41.59Zm2.48,12.49c-1.37,0-5.94.17-7.14,2.39a2.77,2.77,0,0,0,.29,3A3,3,0,0,0,55.53,61h0c2.82,0,5.57-4.89,5.57-5.67a1.25,1.25,0,0,0-1.25-1.25ZM55.53,58.5c-.1,0-.27-.16-.44-.42a1.05,1.05,0,0,1-.19-.43c.15-.33,1.19-.69,2.6-.91C56.73,57.78,56,58.5,55.53,58.5Zm2.59-8a1.25,1.25,0,0,0,.09-2.11c-.34-.24-3.39-2.29-5.71-2.29a2.86,2.86,0,0,0-3,3,3.07,3.07,0,0,0,.75,2.36,3,3,0,0,0,2.26.85C54.79,52.38,57.79,50.72,58.12,50.53ZM52,49.28c0-.66.17-.66.49-.66a6.13,6.13,0,0,1,2.3.71,7,7,0,0,1-2.28.55.83.83,0,0,1-.45-.08A.89.89,0,0,1,52,49.28Z"/></g></g></svg>