<svg xmlns="http://www.w3.org/2000/svg" viewBox="0 0 100 100"><defs><style>.cls-1{fill:#acce89;}.cls-2{fill:#fff;}</style></defs><title>avocado_icon</title><g id="Layer_2" data-name="Layer 2"><g id="Layer_2-2" data-name="Layer 2"><rect class="cls-1" width="100" height="100"/><path class="cls-2" d="M50,12.5c-16.19,0-28.52,31-28.52,46.48a28.52,28.52,0,1,0,57,0C78.52,43.47,66.19,12.5,50,12.5Zm0,71.57A25.12,25.12,0,0,1,24.9,59c0-14.18,11.62-43,25.1-43S75.1,44.8,75.1,59A25.12,25.12,0,0,1,50,84.07Zm0-39.6c-7,0-12.55,8.28-12.55,15.14a12.55,12.55,0,1,0,25.11,0C62.55,52.75,57,44.47,50,44.47Zm0,24.27a9.14,9.14,0,0,1-9.13-9.13c0-5.16,4.3-11.71,9.13-11.71s9.13,6.55,9.13,11.71A9.14,9.14,0,0,1,50,68.73ZM65.24,34.42c-2.84-5.58-8.62-14.94-15.31-14.94S37.46,28.84,34.62,34.42c-4.14,8.13-6.93,17.68-6.93,23.77,0,12.62,10,22.88,22.24,22.88S72.17,70.81,72.17,58.19C72.17,52.1,69.39,42.55,65.24,34.42ZM49.93,78.51c-10.85,0-19.68-9.12-19.68-20.32,0-11.64,11-36.14,19.68-36.14s19.69,24.5,19.69,36.14C69.61,69.39,60.78,78.51,49.93,78.51Z"/></g></g></svg>