<svg xmlns="http://www.w3.org/2000/svg" viewBox="0 0 100 100"><defs><style>.cls-1{fill:#f4e07d;}.cls-2{fill:#fff;}</style></defs><title>banana_icon</title><g id="Layer_2" data-name="Layer 2"><g id="Layer_2-2" data-name="Layer 2"><rect class="cls-1" width="100" height="100"/><path class="cls-2" d="M78,41.44a32.17,32.17,0,0,0-3.67-8.57L72.71,17a1.72,1.72,0,0,0-1.33-1.5A17.49,17.49,0,0,0,67.51,15c-5.5,0-8,3-8.22,3.36a1.72,1.72,0,0,0-.29,1.5l3.46,12.78a1.73,1.73,0,0,0-.24.43c-1.5,4.2-15.55,19-41,16.39-1.09-.11-2.54,1.17-2.55,1.19a5.79,5.79,0,0,0-2,4.2c-.08,1.74,3.93,8.44,13.14,12.77-1.59.61-3.24,1.17-5,1.66-1,.34-1.95,2.16-2,2.18a6.88,6.88,0,0,0-.28,5.39c.66,2,8.17,8.14,20.76,8.14a43,43,0,0,0,11.78-1.72C72.91,78.23,82.93,59.86,78,41.44Zm-10.54-23a13.08,13.08,0,0,1,1.91.15l1.48,14.15a15.32,15.32,0,0,1-4.67.65L62.58,19.93A7.82,7.82,0,0,1,67.51,18.45ZM21.38,52.94l.7.05a4.65,4.65,0,0,1-1.29,2.89,7,7,0,0,1-.6-1.08A2.32,2.32,0,0,1,21.38,52.94Zm1,5a7.06,7.06,0,0,0,2.29-4.77c18,.75,30.21-6.74,36.33-12.83a59.52,59.52,0,0,1-13,16.28,25.35,25.35,0,0,1-15,1A1.29,1.29,0,0,0,32.17,60a22.73,22.73,0,0,0,6.45.82A29.14,29.14,0,0,0,43,60.52a59,59,0,0,1-8.75,5.2A28.62,28.62,0,0,1,22.35,57.92Zm4,14.53,1-.3a6.25,6.25,0,0,1-.1,4.66,8.35,8.35,0,0,1-1.36-1.19A3.35,3.35,0,0,1,26.38,72.44ZM54.27,80a39.62,39.62,0,0,1-10.84,1.59,28.8,28.8,0,0,1-14-3.37,8.62,8.62,0,0,0,.38-6.85q2.64-.95,5.1-2.09a1.64,1.64,0,0,0,.23-.1c15.55-7.28,25.72-19.89,30-29.63A19.37,19.37,0,0,0,66.39,36h.17a17.87,17.87,0,0,0,5.18-.79,29.31,29.31,0,0,1,3,7.14C79.11,58.91,70.14,75.44,54.27,80Zm16.8-31.69c-2,19.26-19.83,28.21-31.31,28.21H39.7a1.29,1.29,0,0,1,0-2.57h.06c10.54,0,26.93-8.22,28.75-25.9a1.29,1.29,0,0,1,2.56.26Z"/></g></g></svg>