<svg xmlns="http://www.w3.org/2000/svg" viewBox="0 0 100 100"><defs><style>.cls-1{fill:#db8ab3;}.cls-2{fill:#fff;}</style></defs><title>beet_icon</title><g id="Layer_2" data-name="Layer 2"><g id="Layer_2-2" data-name="Layer 2"><rect class="cls-1" width="100" height="100"/><path class="cls-2" d="M50,55.52a27.38,27.38,0,0,1,5.15,7.69,1.06,1.06,0,1,1-1.94.84,25.49,25.49,0,0,0-4.7-7A1.06,1.06,0,1,1,50,55.52ZM33.63,49.6a1.06,1.06,0,0,0-.89,1.91,20.68,20.68,0,0,1,6.07,4.66,1.05,1.05,0,1,0,1.6-1.38A22.48,22.48,0,0,0,33.63,49.6Zm9.71,18.32a1.05,1.05,0,1,0-1.49,1.49,18.24,18.24,0,0,1,3.36,5,1.05,1.05,0,1,0,1.94-.84A20.22,20.22,0,0,0,43.35,67.92Zm4.76-14.33a1.1,1.1,0,0,0-1.49,0,1.07,1.07,0,0,0-.31.74,1.06,1.06,0,0,0,.31.75,1.05,1.05,0,0,0,1.8-.75A1.06,1.06,0,0,0,48.11,53.59ZM28.6,59a1.09,1.09,0,0,0-.31.75,1.06,1.06,0,1,0,2.11,0,1.08,1.08,0,0,0-.3-.75A1.1,1.1,0,0,0,28.6,59ZM83.82,41.2a7.2,7.2,0,0,1-3.87,3.19A6.19,6.19,0,0,1,80,47.65c-.39,1.53-1.59,3.61-5,4.8a8.71,8.71,0,0,1-2.86.46c-6.15,0-13.14-5.5-15.56-7.58l-1.92,1.92a23,23,0,0,1,6.19,13.31A17.8,17.8,0,0,1,55.41,75a22.71,22.71,0,0,1-4.61,3.51,20.64,20.64,0,0,1-19.56.19c-2.25-1.16-3.62-1.15-5.45,0-.18.11-.44.31-.77.55C23.21,80.62,21.36,82,19.93,82a1.8,1.8,0,0,1-1.32-.54c-1.39-1.39.08-3.86,2.15-6.93l.32-.47c1.22-1.89,1.25-3.19.14-5.35a20.62,20.62,0,0,1,.19-19.56,22.72,22.72,0,0,1,3.51-4.61,17.79,17.79,0,0,1,14.47-5.44,23.06,23.06,0,0,1,13.42,6.29l1.91-1.91C52.33,40.71,45.2,31.68,47.52,25c1.19-3.43,3.27-4.63,4.8-5a6.17,6.17,0,0,1,3.26.07A7.32,7.32,0,0,1,65,15.6a6.92,6.92,0,0,1,3.46,2.91,7,7,0,0,1,5.33-.06,5.38,5.38,0,0,1,3.24,4.43,5.39,5.39,0,0,1,4.43,3.24,7,7,0,0,1-.06,5.33,6.91,6.91,0,0,1,2.91,3.46A7.24,7.24,0,0,1,83.82,41.2Zm-10.46-9a1.33,1.33,0,0,1,.44-1,6.31,6.31,0,0,0,2-3.76,3,3,0,0,0-1-2.25,3,3,0,0,0-2.24-1,6.27,6.27,0,0,0-3.75,2,1.33,1.33,0,0,1-1,.44,1.37,1.37,0,0,1-1-.39c-1.14-1.14-2.29-1.49-3.25-1a2.42,2.42,0,0,0-1.24,2.45,1.33,1.33,0,0,1-2.25,1.16c-1.57-1.57-2.69-.87-3-.62L57,28.4c-2.71,1.74-.92,9.78.54,14l0,0,.05.06c4.21,1.46,12.25,3.26,14,.55l.13-.17c.24-.29.94-1.41-.63-3a1.33,1.33,0,0,1,1.16-2.25,2.41,2.41,0,0,0,2.45-1.24c.49-1,.14-2.11-1-3.25A1.33,1.33,0,0,1,73.36,32.18Zm-19.9,5.26c-.81-4.19-1-9.19,2-11.21a4.43,4.43,0,0,1,4.57-.58,5.08,5.08,0,0,1,2.38-2.7,5,5,0,0,1,5.36.64,8.06,8.06,0,0,1,4.69-2,5.25,5.25,0,0,1,1.36.14,2.62,2.62,0,0,0-1-.78,4.5,4.5,0,0,0-4.21.54,1.33,1.33,0,0,1-2-.71A4.17,4.17,0,0,0,64,18.06a4.61,4.61,0,0,0-3.92.39,4.71,4.71,0,0,0-2.3,3.67,1.33,1.33,0,0,1-2.21.82A3.21,3.21,0,0,0,53,22.53c-1.29.33-2.32,1.48-3,3.32C48.88,29.17,51.05,33.8,53.45,37.44ZM58.2,60.78a20.75,20.75,0,0,0-6.34-12.62l-.05-.06-.05-.05a20.75,20.75,0,0,0-12.62-6.34c-.46,0-.92-.06-1.37-.06a15.29,15.29,0,0,0-11,4.73,20,20,0,0,0-3.08,4.06,16.23,16.23,0,0,0-1.46,3.42,19.63,19.63,0,0,1,5.54,3.32,1.06,1.06,0,1,1-1.38,1.59,17.59,17.59,0,0,0-4.64-2.84,18.49,18.49,0,0,0,1.82,11.51c1.54,3,1.46,5.31-.27,8L23,76c-.8,1.19-1.32,2-1.66,2.66.82-.51,1.74-1.19,2.16-1.49s.7-.51.9-.64c2.62-1.69,5-1.73,8.11-.16a18,18,0,0,0,17-.13,20,20,0,0,0,4.05-3.08A15.23,15.23,0,0,0,58.2,60.78ZM81.91,35.95a4.17,4.17,0,0,0-2.7-2.57,1.33,1.33,0,0,1-.71-2,4.49,4.49,0,0,0,.54-4.21,2.61,2.61,0,0,0-.72-1,5.36,5.36,0,0,1,.14,1.37,8.11,8.11,0,0,1-2,4.71,5,5,0,0,1,.64,5.37A5.07,5.07,0,0,1,74.41,40a4.43,4.43,0,0,1-.58,4.57c-1.28,1.91-3.75,2.54-6.45,2.54a25.41,25.41,0,0,1-4.7-.5c3.62,2.36,8.18,4.47,11.46,3.33,1.84-.64,3-1.66,3.32-3A3.21,3.21,0,0,0,77,44.38a1.33,1.33,0,0,1,.82-2.21,4.71,4.71,0,0,0,3.67-2.31A4.6,4.6,0,0,0,81.91,35.95Z"/></g></g></svg>