<svg xmlns="http://www.w3.org/2000/svg" viewBox="0 0 100 100"><defs><style>.cls-1{fill:#897099;}.cls-2{fill:#fff;}</style></defs><title>blackberries_icon</title><g id="Layer_2" data-name="Layer 2"><g id="Layer_2-2" data-name="Layer 2"><rect class="cls-1" width="100" height="100"/><path class="cls-2" d="M77.57,60.4a10.87,10.87,0,0,0-9-10.68,10.76,10.76,0,0,0,.61-3.59,10.88,10.88,0,0,0-8-10.49,11.85,11.85,0,0,0,2-3.06c3.22-7.19-2-15-2.21-15.34a1.86,1.86,0,0,0-1.8-.81A20.9,20.9,0,0,0,50,20.32a20.87,20.87,0,0,0-9.19-3.87,1.86,1.86,0,0,0-1.8.81c-.22.33-5.43,8.15-2.21,15.34a11.86,11.86,0,0,0,2,3.06,10.88,10.88,0,0,0-8,10.49,10.76,10.76,0,0,0,.61,3.59,10.85,10.85,0,0,0,0,21.38A10.86,10.86,0,0,0,50,81.66,10.86,10.86,0,0,0,68.59,71.1,10.88,10.88,0,0,0,77.57,60.4ZM65.46,46.14a7.21,7.21,0,0,1-1.88,4.8l-.11.11c-.13.13-.26.26-.39.39l-.16.13c-.13.11-.25.21-.39.31l-.21.14-.38.25-.24.13-.38.2L61,52.7l-.37.15-.33.1L60,53l-.37.07-.31.06-.1-.12L59,52.78c-.21-.24-.42-.47-.64-.69L58,51.82c-.24-.23-.5-.44-.76-.65L57.06,51a11.66,11.66,0,0,0-1-.7l-.24-.13c-.29-.16-.58-.31-.88-.45l-.35-.15c-.29-.12-.59-.23-.89-.33l-.31-.1a11.5,11.5,0,0,0-1.18-.29c0-.07,0-.15,0-.22.07-.29.13-.59.17-.89,0-.12,0-.24.05-.36a10.9,10.9,0,0,0,.08-1.23c0-.32,0-.63,0-.94,0-.1,0-.2,0-.3s-.05-.43-.09-.64l-.06-.33c0-.21-.09-.41-.15-.62s0-.2-.08-.29l0-.11a7.11,7.11,0,0,1,13.45,3.23Zm-15,22.28-.21,0a1.48,1.48,0,0,1-.23,0,1.86,1.86,0,0,1-.25,0l-.2,0a7.94,7.94,0,0,1-6.32-3.7l-.06-.1a4.41,4.41,0,0,1-.38-.67A7.89,7.89,0,0,1,42,60.4a7.7,7.7,0,0,1,.88-3.6,4.85,4.85,0,0,1,.38-.69,7.94,7.94,0,0,1,6.34-3.71l.21,0h.45l.22,0a8,8,0,0,1,6.37,3.73,5.59,5.59,0,0,1,.4.72,8,8,0,0,1,0,7.09l-.05.11a4.44,4.44,0,0,1-.38.66,8,8,0,0,1-1.94,2.11A7.88,7.88,0,0,1,50.44,68.42Zm9.33-37.37c-1.25,2.8-4,4.41-6.26,5.31,1.15-3,2-7.28.21-11.37a11.68,11.68,0,0,0-1.13-1.94,16.83,16.83,0,0,1,5.9-2.65C59.58,22.44,61.56,27.06,59.77,31.05ZM41.5,20.4a15.16,15.16,0,0,1,7.16,3.75l0,0h0a8.35,8.35,0,0,1,1.61,2.35c1.79,4-.2,8.62-1.28,10.65a19.1,19.1,0,0,1-2.62-.83c-.26-.13-.53-.24-.81-.35A10.44,10.44,0,0,1,40.22,31C38.43,27.06,40.42,22.43,41.5,20.4ZM41.65,39a7.12,7.12,0,0,1,7.11,7.12c0,.22,0,.44,0,.67s0,.16,0,.24,0,.28-.06.42,0,.17-.06.26-.06.27-.1.4-.06.18-.09.26-.08.26-.13.38l-.2,0-.43.08c-.28.06-.55.12-.83.2l-.45.13c-.27.09-.53.19-.8.3l-.4.16c-.36.16-.72.34-1.06.54l-.34.22c-.24.15-.49.31-.72.48l-.45.36-.51.44-.43.42c-.16.17-.32.34-.47.51s-.25.28-.36.42l-.09.1A6.76,6.76,0,0,1,40,53,7.06,7.06,0,0,1,36,50.37a7,7,0,0,1-1.42-4.24A7.12,7.12,0,0,1,41.65,39ZM26.18,60.4a7.11,7.11,0,0,1,7.11-7.1h.21l.09.1.19.2q.25.27.52.52l.22.2c.23.2.47.4.71.58l0,0c.26.19.53.36.8.53l.25.14.63.33.25.12c.29.13.58.25.88.36l.1,0,.64.19c-.12.33-.21.67-.29,1,0,.08,0,.15,0,.23-.07.32-.13.65-.17,1,0,.11,0,.22,0,.33a11.88,11.88,0,0,0-.07,1.23,12.05,12.05,0,0,0,.07,1.22c0,.11,0,.22,0,.33,0,.32.1.63.16.95,0,.09,0,.18.06.27.08.35.18.7.3,1l-.19.07a10.35,10.35,0,0,0-1.13.39l-.26.1a11,11,0,0,0-1.25.65l-.22.14a11.07,11.07,0,0,0-1,.73l-.2.16a10.79,10.79,0,0,0-1,1l-.05.05h-.23A7.12,7.12,0,0,1,26.18,60.4ZM41.65,81.82a7.11,7.11,0,0,1-7.11-7.11A7,7,0,0,1,36,70.43c.14-.19.29-.37.45-.54h0a7.06,7.06,0,0,1,4.28-2.22l.11.13.28.32q.28.33.58.63l.33.31c.21.2.43.38.66.56l.32.25q.47.35,1,.65l.08.05a11.61,11.61,0,0,0,1.12.57l.35.14c.28.11.55.22.84.31l.43.13c.27.08.55.14.83.2L48,72l.2,0,0,.05a7.11,7.11,0,0,1-6.61,9.72Zm16.71,0A7.05,7.05,0,0,1,52,77.94l0-.11c0-.09,0-.18.07-.27s.11-.43.15-.64l.06-.32c0-.21.07-.43.09-.65s0-.19,0-.29c0-.31,0-.63,0-.94a10.88,10.88,0,0,0-.08-1.24c0-.12,0-.24,0-.36,0-.31-.1-.61-.17-.91,0-.07,0-.14,0-.21a11.64,11.64,0,0,0,1.19-.29l.34-.11c.29-.09.57-.2.85-.31l.39-.17c.27-.12.53-.26.79-.4l.33-.18c.34-.2.67-.43,1-.66l.34-.27c.21-.17.41-.34.61-.52l.38-.37c.18-.18.35-.37.52-.56l.32-.37.09-.1h0a6.73,6.73,0,0,1,.69.12,7.08,7.08,0,0,1,4,2.67,7,7,0,0,1,1.43,4.26A7.11,7.11,0,0,1,58.36,81.82Zm8.34-14.3h-.22l-.09-.1-.18-.19c-.17-.18-.35-.35-.53-.52l-.21-.19c-.24-.21-.48-.41-.74-.6h0c-.26-.19-.53-.36-.81-.53l-.24-.14L63,64.91l-.24-.12c-.29-.13-.59-.25-.89-.36l-.09,0-.65-.2c.12-.34.21-.68.3-1,0-.09,0-.18.06-.27.07-.31.12-.62.16-.94,0-.11,0-.23,0-.34,0-.4.07-.81.07-1.22a12.16,12.16,0,0,0-.07-1.23c0-.11,0-.22,0-.33,0-.32-.1-.64-.16-1,0-.08,0-.17-.05-.25-.08-.34-.18-.68-.29-1l.57-.17.16-.05c.3-.1.59-.22.88-.35l.27-.13.61-.31.29-.16c.24-.14.47-.29.69-.45l.18-.13q.34-.25.65-.53l.26-.23.47-.46.22-.24.08-.09a7.11,7.11,0,1,1,.2,14.22ZM58.35,40.84a1.4,1.4,0,1,1,0,2.8,2.49,2.49,0,0,0-2.49,2.49,1.4,1.4,0,0,1-2.8,0A5.3,5.3,0,0,1,58.35,40.84ZM33.29,57.92a2.49,2.49,0,0,0-2.49,2.49,1.4,1.4,0,1,1-2.8,0,5.3,5.3,0,0,1,5.29-5.29,1.4,1.4,0,0,1,0,2.8Zm3.06-11.79a5.3,5.3,0,0,1,5.29-5.29,1.4,1.4,0,0,1,0,2.8,2.5,2.5,0,0,0-2.49,2.49,1.4,1.4,0,1,1-2.8,0Zm15,10a1.4,1.4,0,0,1-1.4,1.4,2.9,2.9,0,0,0-2.89,2.89,1.4,1.4,0,1,1-2.8,0A5.7,5.7,0,0,1,50,54.72,1.4,1.4,0,0,1,51.4,56.12Z"/></g></g></svg>