<svg xmlns="http://www.w3.org/2000/svg" viewBox="0 0 100 100"><defs><style>.cls-1{fill:#4b759b;}.cls-2{fill:#fff;}</style></defs><title>blueberries_icon</title><g id="Layer_2" data-name="Layer 2"><g id="Layer_2-2" data-name="Layer 2"><rect class="cls-1" width="100" height="100"/><path class="cls-2" d="M80.23,56.63A16.14,16.14,0,0,0,50,48.69a16.16,16.16,0,1,0-15.92,24,16.15,16.15,0,0,0,32.24,0,16.15,16.15,0,0,0,13.9-16Zm-56.71,0a12.41,12.41,0,0,1,24.63-2.1c.06.37.1.74.13,1.11,0,0,0,0,0,0h-.06l-.36.06c-.36.05-.71.11-1.06.18l-.52.13c-.29.07-.59.15-.87.24l-.55.19c-.27.09-.54.19-.8.3l-.55.24-.76.37-.52.28c-.26.15-.5.3-.75.46l-.47.31c-.26.18-.52.38-.78.58l-.38.29c-.37.31-.73.63-1.08,1s-.64.67-.93,1l-.28.35c-.19.24-.38.49-.56.74l-.29.43q-.24.36-.46.74L36,64c-.14.26-.28.53-.4.8s-.14.28-.2.43c-.15.34-.28.68-.41,1l-.09.23c-.15.43-.27.86-.38,1.3,0,.13-.06.26-.08.39s-.11.48-.15.73A12.43,12.43,0,0,1,23.52,56.63ZM59,80.48a12.4,12.4,0,1,1-9.11-21.16h.23a.33.33,0,0,1,.12,0A12.31,12.31,0,0,1,59,62.94q.41.4.77.84A12.43,12.43,0,0,1,59,80.48Zm7.13-11.61c0-.23-.1-.45-.14-.67s-.06-.28-.09-.42c-.11-.44-.23-.87-.38-1.3l0-.12q-.2-.58-.45-1.14c-.06-.14-.13-.28-.2-.42s-.26-.54-.4-.8l-.26-.46c-.15-.25-.29-.49-.45-.72l-.29-.44c-.18-.25-.36-.49-.55-.73l-.28-.36c-.29-.35-.6-.69-.93-1s-.73-.69-1.11-1l-.39-.3c-.26-.21-.53-.41-.8-.59l-.48-.31-.78-.47-.52-.28c-.27-.14-.54-.26-.82-.39l-.53-.23c-.3-.12-.6-.22-.91-.33l-.48-.16c-.47-.14-.94-.26-1.42-.35l-.22,0c-.37-.07-.75-.13-1.12-.17,0-.06,0-.13,0-.2,0-.25,0-.5-.08-.75s0-.32,0-.48a12.39,12.39,0,1,1,14.2,14.64ZM49.9,41.23l.25,0h.11l.25,0c.38-.05,9.43-1.35,14.25-9s2-16.4,1.92-16.77a1.88,1.88,0,0,0-2-1.27c-.38.05-9.43,1.35-14.25,9-.07.1-.12.22-.19.33-.06-.11-.12-.22-.18-.33-4.82-7.69-13.87-9-14.25-9a1.87,1.87,0,0,0-2,1.27c-.12.37-2.9,9.07,1.92,16.77S49.52,41.17,49.9,41.23ZM52.4,27.5a13.81,13.81,0,0,1,1.17-2.33c2.76-4.41,7.46-6.25,9.93-6.94.46,2.52.86,7.52-1.92,12a16.72,16.72,0,0,1-9,6.65A22.1,22.1,0,0,0,52.11,28,1.79,1.79,0,0,0,52.4,27.5ZM36.92,18.24c2.48.69,7.16,2.53,9.92,6.94s2.37,9.43,1.91,12c-2.47-.68-7.14-2.51-9.92-6.94S36.47,20.77,36.92,18.24ZM72.51,51.56a1.65,1.65,0,0,1-2.94,1.5A5.19,5.19,0,0,0,68.73,52a5.1,5.1,0,0,0-1.1-.84,1.65,1.65,0,0,1,1.51-2.94,8.51,8.51,0,0,1,3.37,3.36ZM34.56,50.22a1.65,1.65,0,0,1-1-3.14,8.48,8.48,0,0,1,4.76,0,1.65,1.65,0,1,1-1,3.14A5.16,5.16,0,0,0,35.93,50,5.07,5.07,0,0,0,34.56,50.22ZM47.35,64a1.65,1.65,0,0,1-.72,2.22,5.14,5.14,0,0,0-1.08.83,5.2,5.2,0,0,0-.85,1.1,1.66,1.66,0,0,1-1.47.88,1.65,1.65,0,0,1-1.47-2.39,8.26,8.26,0,0,1,1.44-1.92,8.13,8.13,0,0,1,1.92-1.44A1.65,1.65,0,0,1,47.35,64Z"/></g></g></svg>