<svg xmlns="http://www.w3.org/2000/svg" viewBox="0 0 100 100"><defs><style>.cls-1{fill:#acce89;}.cls-2{fill:#fff;}</style></defs><title>broccoli_icon</title><g id="Layer_2" data-name="Layer 2"><g id="Layer_2-2" data-name="Layer 2"><rect class="cls-1" width="100" height="100"/><path class="cls-2" d="M79.08,39.29a15,15,0,0,0,.12-1.88A15.69,15.69,0,0,0,63.53,21.73h-.24A15.66,15.66,0,0,0,50,14.43H50a15.66,15.66,0,0,0-13.25,7.3h-.24A15.69,15.69,0,0,0,20.8,37.41a15.1,15.1,0,0,0,.12,1.88A15.65,15.65,0,0,0,24,64.22a15.47,15.47,0,0,0,3.54,1.49,15.69,15.69,0,0,0,7.54,7l.07,0,.74.3.2.08.64.21.33.1.55.15.44.11.48.1.45.08.57,6.22c0,.91.75,5.45,10.5,5.45S60.46,81,60.49,80.19l.57-6.29.45-.08.47-.1.45-.11.54-.14.34-.1.63-.21.21-.08.73-.3.07,0a15.69,15.69,0,0,0,7.53-7,15.54,15.54,0,0,0,5.62-2.92l.18-.16c.26-.22.51-.44.76-.67a15.61,15.61,0,0,0,0-22.67ZM23.83,41.24a1.7,1.7,0,0,0,.58-1.61,12.23,12.23,0,0,1,12-14.5h.31l.6,0h.22a1.69,1.69,0,0,0,1.6-.89,12.27,12.27,0,0,1,10.77-6.45h.16a12.27,12.27,0,0,1,10.77,6.45,1.7,1.7,0,0,0,1.6.89h.22l.56,0h.31a12.23,12.23,0,0,1,12.06,14.5,1.7,1.7,0,0,0,.58,1.6,12.26,12.26,0,0,1-5.23,21.36,1.7,1.7,0,0,0-1.18.95A12.37,12.37,0,0,1,69,65c-.2.32-.44.62-.67.92-.09.12-.17.25-.27.37a12.36,12.36,0,0,1-.9.95l-.19.2a12.42,12.42,0,0,1-1,.8l-.26.21c-.31.22-.63.41-1,.6l-.41.25c-.28.15-.58.28-.88.4s-.39.18-.6.26-.52.17-.79.25-.47.15-.72.2L62,63.63c.17.1.34.22.52.31a1.7,1.7,0,0,0,1.6-3c-.3-.16-.6-.33-.81-.48l-.06,0-.06,0a9.45,9.45,0,0,1-2.62-2.57,11.76,11.76,0,0,0,1.64-1.88A1.7,1.7,0,1,0,59.4,54c-1.83,2.7-5.42,4.38-9.31,4.38H50c-3.95,0-7.53-1.68-9.36-4.37a1.7,1.7,0,1,0-2.81,1.91,11.65,11.65,0,0,0,1.64,1.88,9.44,9.44,0,0,1-2.62,2.57l-.05,0c-.29.19-.58.37-.89.53a1.7,1.7,0,0,0,.8,3.2,1.68,1.68,0,0,0,.8-.2l.53-.3.61,6.73c-.24-.06-.47-.13-.71-.2s-.54-.15-.8-.25-.39-.17-.58-.25-.6-.26-.89-.41c-.14-.07-.26-.16-.4-.24-.33-.19-.66-.38-1-.61l-.25-.2a12.42,12.42,0,0,1-1-.81l-.19-.19a12.38,12.38,0,0,1-.9-1c-.09-.11-.17-.24-.26-.35-.24-.31-.47-.61-.68-.94a12.24,12.24,0,0,1-.69-1.26l-.09-.16a1.66,1.66,0,0,0-.18-.3l0,0a1.69,1.69,0,0,0-1-.61,12.26,12.26,0,0,1-5.23-21.36ZM50,82.17c-5.75,0-7.08-1.77-7.1-2.28L41.18,61.07a12,12,0,0,0,1-1.26,15.4,15.4,0,0,0,3.33,1.35l.67,8.75a1.35,1.35,0,0,0,1.35,1.25h.1a1.35,1.35,0,0,0,1.24-1.45l-.61-8a17.16,17.16,0,0,0,1.76.1,16.13,16.13,0,0,0,7.78-2,12,12,0,0,0,1,1.26L57.1,80C57.08,80.4,55.75,82.17,50,82.17Z"/></g></g></svg>