<svg xmlns="http://www.w3.org/2000/svg" viewBox="0 0 100 100"><defs><style>.cls-1{fill:#6cad73;}.cls-2{fill:#fff;}</style></defs><title>brussle_sprouts_icon</title><g id="Layer_2" data-name="Layer 2"><g id="Layer_2-2" data-name="Layer 2"><rect class="cls-1" width="100" height="100"/><path class="cls-2" d="M51.17,24.79l-.68,0H49A25.24,25.24,0,0,0,25.92,57.57l0,.09A25.24,25.24,0,0,0,74,57.7l0-.09c.15-.44.29-.92.43-1.51A24.94,24.94,0,0,0,75.24,50,25.2,25.2,0,0,0,51.17,24.79Zm-2,3.39h1.34l.54,0a22,22,0,0,1,2.8.33A26.83,26.83,0,0,0,38,37.21h-3a1.35,1.35,0,1,0,0,2.7H36a26.48,26.48,0,0,0-2.79,5.67,1.35,1.35,0,0,0,.82,1.72,1.33,1.33,0,0,0,.45.08,1.35,1.35,0,0,0,1.27-.9,22.4,22.4,0,0,1,8.16-11A17.92,17.92,0,0,1,46,39.85a1.35,1.35,0,0,0,1.31,1,1.32,1.32,0,0,0,.33,0,1.35,1.35,0,0,0,1-1.64,20.33,20.33,0,0,0-2.42-5.12,25.34,25.34,0,0,1,11.5-3.18,7.74,7.74,0,0,0-1.52,1.3c-3.12,3.46-3.13,7-3.14,9.57,0,2.12-.08,3-.84,3.48s-1.74.54-3.14.36a6.37,6.37,0,0,0-7.93,4.65l0,.1a5.91,5.91,0,0,1-5.9,4.49,7.62,7.62,0,0,1-7-3.87c0-.32,0-.64,0-1A21.78,21.78,0,0,1,49.15,28.18ZM29.22,56.72l0-.12v0h0c0-.14-.08-.29-.12-.43a11.12,11.12,0,0,0,6.17,1.7,8.76,8.76,0,0,0,5.32-1.64c-.15,7.31-3.22,9.67-4.79,10.38A21.76,21.76,0,0,1,29.22,56.72Zm42-1.44c-.11.43-.23.87-.37,1.29l0,.06h0a21.84,21.84,0,0,1-28,14,30.3,30.3,0,0,0,11.36-5,1.34,1.34,0,0,0,.4-.21,1.31,1.31,0,0,0,.17-.19,32.11,32.11,0,0,0,8.7-10,9.7,9.7,0,0,0,1.9.2A6.33,6.33,0,0,0,68,54.92a1.35,1.35,0,1,0-1.14-2.45,4.25,4.25,0,0,1-2.12.25,43.4,43.4,0,0,0,2.4-6.31,1.35,1.35,0,0,0-2.59-.77C62.17,53.71,58.21,59,54,62.43a12.82,12.82,0,0,1-1.77-4.67,1.35,1.35,0,0,0-2.68.3,15.33,15.33,0,0,0,2.28,6,25.33,25.33,0,0,1-13.35,4.42c2.37-1.69,5.19-5.36,5.07-13.23,0-3.06.55-5.23,1.67-6.11s2-.74,3.47-.54a6.89,6.89,0,0,0,5.21-.85c2.14-1.45,2.15-3.74,2.15-6,0-2.44,0-5,2.37-7.56,1.48-1.64,3.13-1.66,5.53-1A21.76,21.76,0,0,1,71.84,50,21.49,21.49,0,0,1,71.19,55.28Z"/></g></g></svg>