<svg xmlns="http://www.w3.org/2000/svg" viewBox="0 0 100 100"><defs><style>.cls-1{fill:#ffb95a;}.cls-2{fill:#fff;}</style></defs><title>butter_nut_squash_icon</title><g id="Layer_2" data-name="Layer 2"><g id="Layer_2-2" data-name="Layer 2"><rect class="cls-1" width="100" height="100"/><path class="cls-2" d="M71.9,69.08a61,61,0,0,0-2.61-11.86c-.65-2.23-1.32-4.53-1.8-6.79a101.93,101.93,0,0,1-1.8-15.49c-.1-1.56-.2-3.15-.33-4.8C65,25.85,64,19.75,58.9,16.19A10.56,10.56,0,0,0,56,14.8a7.36,7.36,0,0,0-1-2.52C54,10.77,52.33,10,50,10s-4,.77-5,2.28a7.33,7.33,0,0,0-1,2.52,10.56,10.56,0,0,0-2.94,1.39C36,19.75,35,25.85,34.65,30.13c-.13,1.65-.23,3.24-.33,4.8a101.94,101.94,0,0,1-1.8,15.49c-.49,2.26-1.16,4.56-1.8,6.79A60.8,60.8,0,0,0,28.1,69.08,19.76,19.76,0,0,0,33,84.13c4.12,4.49,10.3,6.56,17,5.66a23.48,23.48,0,0,0,3.09.21A18.59,18.59,0,0,0,67,84.13,19.77,19.77,0,0,0,71.9,69.08ZM47.53,13.92c.16-.25.59-.91,2.47-.91s2.31.66,2.47.91a2.4,2.4,0,0,1,.12.22A26,26,0,0,0,50,14a25.65,25.65,0,0,0-2.58.13ZM64.78,82.09c-3.49,3.8-8.79,5.51-14.56,4.69l-.21,0-.21,0c-5.77.82-11.07-.89-14.56-4.69a16.75,16.75,0,0,1-4.12-12.76,58.59,58.59,0,0,1,2.5-11.27c.66-2.28,1.35-4.63,1.86-7a104.35,104.35,0,0,0,1.87-15.93c.1-1.55.2-3.13.33-4.76.45-5.83,2.09-9.56,5.17-11.71C44.35,17.59,46.83,17,50,17s5.64.56,7.16,1.63c3.08,2.15,4.72,5.87,5.17,11.71.13,1.63.23,3.21.33,4.76a104.25,104.25,0,0,0,1.87,15.94c.51,2.36,1.19,4.72,1.86,7a58.6,58.6,0,0,1,2.5,11.27A16.75,16.75,0,0,1,64.78,82.09ZM50,55.58c-7.13,0-12.46,7.42-12.46,14.06S42.78,81.14,50,81.14s12.46-4.83,12.46-11.5S57.13,55.58,50,55.58Zm0,23.16c-5.93,0-10.07-3.74-10.07-9.1S44.24,58,50,58s10.07,6.16,10.07,11.66S55.93,78.74,50,78.74Zm-5.24-8.58H43.64a1.2,1.2,0,0,1,0-2.39h1.12a1.2,1.2,0,1,1,0,2.39Zm3.66-6.06a1.2,1.2,0,0,1-1.8,1.58l-.78-.89a1.2,1.2,0,1,1,1.8-1.58Zm-.13,8a1.2,1.2,0,0,1,.15,1.69l-.78.93a1.2,1.2,0,0,1-1.84-1.53l.78-.93A1.19,1.19,0,0,1,48.28,72.08Zm8.08-4.31a1.2,1.2,0,0,1,0,2.39H55.24a1.2,1.2,0,0,1,0-2.39Zm-4.66-2a1.2,1.2,0,0,1-.11-1.69l.78-.89a1.2,1.2,0,0,1,1.8,1.58l-.78.89a1.2,1.2,0,0,1-1.69.11Zm2.48,7.36a1.2,1.2,0,1,1-1.84,1.53l-.78-.93a1.2,1.2,0,1,1,1.84-1.53Z"/></g></g></svg>