<svg xmlns="http://www.w3.org/2000/svg" viewBox="0 0 100 100"><defs><style>.cls-1{fill:#acce89;}.cls-2{fill:#fff;}</style></defs><title>cabbage_icon</title><g id="Layer_2" data-name="Layer 2"><g id="Layer_2-2" data-name="Layer 2"><rect class="cls-1" width="100" height="100"/><path class="cls-2" d="M90,54.87a7.63,7.63,0,0,0-3.07-6c1.16-4,1.35-9.57-.83-13.61a9.81,9.81,0,0,0-6.61-5q-.41-.09-.83-.16c-1-6.33-4.46-9-6.52-10.11a9.78,9.78,0,0,0-7-.85c-3.23-5-9.32-6.61-13.52-5.2a10.28,10.28,0,0,0-1.66.75,10.32,10.32,0,0,0-1.7-.75c-4.21-1.42-10.31.23-13.53,5.21a9.63,9.63,0,0,0-6.71.92c-2.14,1.1-5.76,3.87-6.82,10.21a9.9,9.9,0,0,0-6.65,5.1A19.26,19.26,0,0,0,13.1,48.9a7.63,7.63,0,0,0-3.08,6,12.27,12.27,0,0,0,4.41,9.74,8.25,8.25,0,0,0,.5,5.9C17,75.62,22.15,81,30,84.48a1.55,1.55,0,0,0,.28.13A48.73,48.73,0,0,0,50,88.52c19.11,0,31.58-9.34,35.08-18a8.24,8.24,0,0,0,.5-5.9A12.27,12.27,0,0,0,90,54.87ZM63.07,21.76a1.53,1.53,0,0,0,2.12.65,6.23,6.23,0,0,1,5.54.31c2.52,1.3,4.2,3.92,4.82,7.44-2.47.47-5.13,2.08-7.57,5.81-.36-.66-.8-1.41-1.3-2.2a12.12,12.12,0,0,0,2.69-5.15,1.22,1.22,0,0,0-2.4-.45,9.64,9.64,0,0,1-1.72,3.49,27,27,0,0,0-4.9-5.29,1.22,1.22,0,1,0-1.52,1.91c3.83,3,6.61,8,7.7,10.22-.45.9-.9,1.89-1.32,3a9.27,9.27,0,0,0-6.34-.4,10.59,10.59,0,0,0-1.12-5.95,9.85,9.85,0,0,0-4.22-4.06,27.09,27.09,0,0,0,1.31-7.47,10.47,10.47,0,0,0-2.28-6.74A9.24,9.24,0,0,1,63.07,21.76ZM29.39,22.81a5.85,5.85,0,0,1,5.23-.4,1.54,1.54,0,0,0,2.12-.65,9.24,9.24,0,0,1,10.51-4.9c2.89,1,4.49,3.37,4.53,6.77a25.66,25.66,0,0,1-1.28,6.92l-.27,1a1.53,1.53,0,0,0,1.07,1.87A7,7,0,0,1,55,36.58c1,1.9,1.06,4.38.14,7.37a16.72,16.72,0,0,0-2.67,6.31,11.18,11.18,0,0,0-2.61-.56,8,8,0,0,0-2,.09,16.46,16.46,0,0,0-3.76-6.71,14.66,14.66,0,0,0,4.44-1.71,1.22,1.22,0,0,0-1.29-2.07,15.35,15.35,0,0,1-6.11,1.81,7.45,7.45,0,0,0-2.87-.43c.58-3.55,2.29-11.32,6.77-17.53a1.22,1.22,0,1,0-2-1.42,39.38,39.38,0,0,0-5.22,10.5,21.64,21.64,0,0,1-3-3.82,1.22,1.22,0,1,0-2.06,1.3,23.44,23.44,0,0,0,4.32,5.11,51.07,51.07,0,0,0-1.32,6.3c-.36.11-.7.23-1,.35-1.66-4.54-4.51-10.81-10.48-11.38C25.3,25.58,27.85,23.61,29.39,22.81ZM17.77,69.36c-.86-2.13-.73-3.57-.22-4.06a1.53,1.53,0,0,0-.27-2.42A9.15,9.15,0,0,1,13.08,55a4.46,4.46,0,0,1,2.5-4,1.53,1.53,0,0,0,.78-1.92,16.1,16.1,0,0,1,.83-12.17,6.82,6.82,0,0,1,4.71-3.62c5.28-1.05,8,3.36,10.58,10.82a1.54,1.54,0,0,0,2.25.8s3.55-2.13,6.08-.59,3.77,4.93,4.26,6.65a7.6,7.6,0,0,0-1.17,1c-2.26,2.34-3.38,6.37-2.91,10.52a33.42,33.42,0,0,1-.41,11.91A46.34,46.34,0,0,1,28.94,59.48a14.85,14.85,0,0,0,3.34-6.57,1.22,1.22,0,1,0-2.38-.54A12.63,12.63,0,0,1,27.79,57a49.19,49.19,0,0,1-3.31-9.9,1.22,1.22,0,0,0-2.4.43A54.13,54.13,0,0,0,31.9,68.84a14.47,14.47,0,0,1-6.73,0,1.22,1.22,0,1,0-.51,2.38,18.86,18.86,0,0,0,4,.43,14.32,14.32,0,0,0,4.93-.81,44.57,44.57,0,0,0,6.17,5.92,9.17,9.17,0,0,1-1.57,2.38c-1.67,1.78-4,2.58-7.12,2.46C23.31,78.06,19.14,72.77,17.77,69.36Zm65-6.48a1.53,1.53,0,0,0-.27,2.42c.51.49.63,1.93-.22,4.06C80,74.92,70.37,85.45,50,85.45A53.39,53.39,0,0,1,42.75,85a42.23,42.23,0,0,0,15.59-6.79,1.2,1.2,0,0,0,.41-.24,1.14,1.14,0,0,0,.07-.1,44.12,44.12,0,0,0,7.54-7,14.06,14.06,0,0,0,5,.84,19.07,19.07,0,0,0,4-.43,1.22,1.22,0,0,0-.51-2.38,14.51,14.51,0,0,1-6.82,0,53.63,53.63,0,0,0,5.41-8.71l0,0a1.18,1.18,0,0,0,.26-.57,52.61,52.61,0,0,0,4.2-11.92,1.22,1.22,0,1,0-2.4-.43A48.77,48.77,0,0,1,72.2,57a12.64,12.64,0,0,1-2.11-4.65,1.22,1.22,0,1,0-2.38.54A14.85,14.85,0,0,0,71,59.45,46.12,46.12,0,0,1,58.11,75.31a20.67,20.67,0,0,1-3.81-10,1.22,1.22,0,1,0-2.43.23,23,23,0,0,0,4.26,11.2,41.08,41.08,0,0,1-18.47,6.6,10.36,10.36,0,0,0,2.71-2.06C43.83,77.6,45.06,71.15,44,62.1c-.36-3.21.45-6.36,2.06-8a4.27,4.27,0,0,1,3.56-1.32,8.5,8.5,0,0,1,3.27,1,1.54,1.54,0,0,0,2.31-1.19,14.9,14.9,0,0,1,2.54-7l.06-.07a5.34,5.34,0,0,1,1.35-1.21c2.53-1.53,6,.57,6.08.59a1.53,1.53,0,0,0,2.26-.8c2-5.67,5.55-12.14,11.28-10.83a6.72,6.72,0,0,1,4.59,3.5c1.87,3.47,1.54,8.82.25,12.31A1.53,1.53,0,0,0,84.42,51a4.46,4.46,0,0,1,2.5,4A9.15,9.15,0,0,1,82.73,62.88Z"/></g></g></svg>