<svg xmlns="http://www.w3.org/2000/svg" viewBox="0 0 100 100"><defs><style>.cls-1{fill:#ffb95a;}.cls-2{fill:#fff;}</style></defs><title>carrot_icon</title><g id="Layer_2" data-name="Layer 2"><g id="Layer_2-2" data-name="Layer 2"><rect class="cls-1" width="100" height="100"/><path class="cls-2" d="M50.1,64.76a1.13,1.13,0,1,1-2,1A15,15,0,0,0,44,60.94,1.13,1.13,0,1,1,45.22,59,17,17,0,0,1,50.1,64.76ZM82,28.33a4.85,4.85,0,0,1,.5,5.06,5.11,5.11,0,0,1-2.58,2.37,4.41,4.41,0,0,1-.67,4.34c-1.31,1.92-3.82,2.54-6.52,2.54a33.8,33.8,0,0,1-9.62-1.78l-2.55,2.55c4.47,4.89,7,11.32-3.2,21.52-9,9-27.81,18.17-34.73,18.17a3.79,3.79,0,0,1-2.81-.92c-2.56-2.56,1-11.46,3.38-16.53,3.9-8.36,9.08-16.22,13.88-21s9-7.09,13-7.09c3.53,0,6.25,1.81,8.46,3.84l2.56-2.56c-1-3.15-3.78-13,.78-16.1a4.41,4.41,0,0,1,4.34-.67,5.1,5.1,0,0,1,2.37-2.58,4.85,4.85,0,0,1,5.06.5A7.82,7.82,0,0,1,78.21,18a5.38,5.38,0,0,1,4,1.69,5.4,5.4,0,0,1,1.69,4A7.85,7.85,0,0,1,82,28.33ZM57.58,44.42c-2.09-2.09-4.44-4-7.5-4-2.35,0-5,1.17-7.92,3.48a25.42,25.42,0,0,1,6.19,4.66,1.13,1.13,0,1,1-1.59,1.59,22,22,0,0,0-6.45-4.65c-.4.37-.81.76-1.22,1.17a65,65,0,0,0-10.15,14,21,21,0,0,1,4.39,2.74,1.13,1.13,0,0,1-1.41,1.76,18.55,18.55,0,0,0-4.06-2.52c-4.34,8.24-6.81,16-6,17.53a2.34,2.34,0,0,0,.8.1c5.79,0,23.78-8.4,32.72-17.34C64.91,53.36,61.69,48.54,57.58,44.42Zm21.1-16.19a1.42,1.42,0,0,1,.47-1,6,6,0,0,0,1.94-3.55,2.58,2.58,0,0,0-.86-1.92,2.62,2.62,0,0,0-1.92-.86,6,6,0,0,0-3.54,2,1.42,1.42,0,0,1-2.06.06c-1-1-2-1.29-2.83-.86a2.26,2.26,0,0,0-1.19,2.22,1.42,1.42,0,0,1-2.41,1.22c-1.46-1.46-2.48-.62-2.59-.52l-.17.13c-2.53,1.65-1,9.12.34,13.06,3.94,1.31,11.41,2.87,13.06.34l.13-.17c.27-.33.79-1.28-.52-2.59a1.42,1.42,0,0,1,1.22-2.41A2.26,2.26,0,0,0,80,32.11c.43-.84.12-1.85-.86-2.83A1.42,1.42,0,0,1,78.68,28.23Z"/></g></g></svg>