<svg xmlns="http://www.w3.org/2000/svg" viewBox="0 0 100 100"><defs><style>.cls-1{fill:#ecddaa;}.cls-2{fill:#fff;}</style></defs><title>cauliflour_icon</title><g id="Layer_2" data-name="Layer 2"><g id="Layer_2-2" data-name="Layer 2"><rect class="cls-1" width="100" height="100"/><path class="cls-2" d="M90,55.06a7.63,7.63,0,0,0-3.07-6c1.16-4,1.35-9.57-.83-13.61a9.8,9.8,0,0,0-6.61-5,10.16,10.16,0,0,0-1.79-.25,11.11,11.11,0,0,0-4.19-8.59,9.71,9.71,0,0,0-7.84-2,9.64,9.64,0,0,0-6.38-5.92A11,11,0,0,0,50,15.44a11,11,0,0,0-9.34-1.76,9.64,9.64,0,0,0-6.38,5.92,9.71,9.71,0,0,0-7.84,2,11.12,11.12,0,0,0-4.19,8.69c-.29,0-.59.08-.9.14a9.89,9.89,0,0,0-6.79,5.13A19.25,19.25,0,0,0,13.1,49.09a7.63,7.63,0,0,0-3.08,6,12.27,12.27,0,0,0,4.41,9.74,8.25,8.25,0,0,0,.5,5.9c2.06,5.11,7.23,10.44,15,14a1.57,1.57,0,0,0,.29.13A48.71,48.71,0,0,0,50,88.7c19.11,0,31.58-9.34,35.08-18a8.25,8.25,0,0,0,.5-5.9A12.27,12.27,0,0,0,90,55.06ZM28.29,24a6.54,6.54,0,0,1,6.39-1.13,1.54,1.54,0,0,0,2-1c.94-3.48,3.1-4.76,4.75-5.23a7.91,7.91,0,0,1,7.4,1.88,1.53,1.53,0,0,0,1,.41H50a1.53,1.53,0,0,0,1-.41,7.91,7.91,0,0,1,7.4-1.88c1.65.47,3.81,1.76,4.75,5.23a1.53,1.53,0,0,0,2,1A6.54,6.54,0,0,1,71.61,24a8.11,8.11,0,0,1,3,6.55c-3.2,1-6.63,4-9.42,11.08-1.84-.73-4.9-1.45-7.62.2-3.2,1.94-4.55,6.07-5.08,8.58a11.12,11.12,0,0,0-2.61-.56,8,8,0,0,0-2,.09c-.67-2.22-2.27-6.14-5.53-8.12-2.71-1.64-5.76-.93-7.6-.21-1.57-4.29-4.2-10.14-9.54-11.24A8.09,8.09,0,0,1,28.29,24ZM17.77,69.55c-.86-2.13-.73-3.57-.22-4.06a1.53,1.53,0,0,0-.27-2.42,9.15,9.15,0,0,1-4.19-7.86,4.46,4.46,0,0,1,2.5-4,1.53,1.53,0,0,0,.78-1.92,16.1,16.1,0,0,1,.83-12.17,6.82,6.82,0,0,1,4.71-3.62,7.43,7.43,0,0,1,1.62-.14,1.53,1.53,0,0,0,.45,0c4,.37,6.27,4.52,8.52,10.94a1.54,1.54,0,0,0,2.25.8s3.55-2.13,6.08-.6,3.77,4.93,4.26,6.65a7.64,7.64,0,0,0-1.17,1C41.64,54.47,40.52,58.5,41,62.64a32.93,32.93,0,0,1-.46,12.12,48.87,48.87,0,0,1-9.82-11.65,24.08,24.08,0,0,0,4.86-7.23,1.22,1.22,0,0,0-2.25-.95,22.71,22.71,0,0,1-3.87,6,46.19,46.19,0,0,1-3.92-9.21,1.22,1.22,0,1,0-2.34.68,47.87,47.87,0,0,0,3.76,9,23.8,23.8,0,0,1-4.56-.95,1.22,1.22,0,1,0-.8,2.3A30.82,30.82,0,0,0,28.42,64a52.54,52.54,0,0,0,9,11.18,36.67,36.67,0,0,1-8-1,1.22,1.22,0,0,0-.56,2.37,38.72,38.72,0,0,0,8.75,1.11c.73,0,1.33,0,1.81-.07a8.74,8.74,0,0,1-1.27,1.77c-1.68,1.78-4,2.58-7.12,2.46C23.31,78.24,19.14,73,17.77,69.55Zm65-6.48a1.53,1.53,0,0,0-.27,2.42c.51.49.63,1.93-.22,4.06C80,75.11,70.37,85.63,50,85.63a53.88,53.88,0,0,1-6.28-.36,39.44,39.44,0,0,0,16.19-7.76,20.12,20.12,0,0,0,2.49.14,38.73,38.73,0,0,0,8.75-1.11,1.22,1.22,0,0,0-.56-2.37,36.66,36.66,0,0,1-8,1A51.93,51.93,0,0,0,71.6,64a30.75,30.75,0,0,0,6.81-1.24,1.22,1.22,0,1,0-.8-2.3,23.74,23.74,0,0,1-4.54.94,48,48,0,0,0,3.74-9,1.22,1.22,0,1,0-2.34-.68,46.4,46.4,0,0,1-3.91,9.22,22.81,22.81,0,0,1-3.89-6,1.22,1.22,0,0,0-2.25.95,24.06,24.06,0,0,0,4.87,7.25,48.44,48.44,0,0,1-9.53,11.34,45.48,45.48,0,0,1-4.72-9.11,1.22,1.22,0,0,0-2.29.85A46.75,46.75,0,0,0,57.88,76a36.76,36.76,0,0,1-20.52,7.69,10.38,10.38,0,0,0,3-2.23c3.45-3.67,4.69-10.12,3.66-19.16-.36-3.21.45-6.36,2.07-8a4.26,4.26,0,0,1,3.56-1.32,8.48,8.48,0,0,1,3.27,1,1.54,1.54,0,0,0,2.31-1.19c.15-1.73,1.15-6.6,3.94-8.3,2.53-1.53,6,.57,6.08.59a1.53,1.53,0,0,0,2.26-.8c2-5.67,5.55-12.14,11.28-10.83a6.72,6.72,0,0,1,4.59,3.5c1.87,3.47,1.54,8.82.25,12.31a1.53,1.53,0,0,0,.78,1.92,4.46,4.46,0,0,1,2.5,4A9.15,9.15,0,0,1,82.73,63.07ZM36.92,30.26a4.48,4.48,0,0,1,2.45-3.19,5,5,0,0,1,4.4-.09,1.22,1.22,0,0,1-1.07,2.19,2.55,2.55,0,0,0-2.23.07,2.07,2.07,0,0,0-1.15,1.44,1.22,1.22,0,0,1-1.2,1l-.22,0A1.22,1.22,0,0,1,36.92,30.26ZM55.3,26.43a1.22,1.22,0,0,1,.56-1.63,5,5,0,0,1,4.4.09,4.47,4.47,0,0,1,2.45,3.19,1.22,1.22,0,0,1-1,1.41l-.22,0a1.22,1.22,0,0,1-1.2-1,2.07,2.07,0,0,0-1.15-1.44A2.56,2.56,0,0,0,56.93,27,1.22,1.22,0,0,1,55.3,26.43Zm-7.62,9.28a4.47,4.47,0,0,1,3.46-2,5,5,0,0,1,4.12,1.57,1.22,1.22,0,0,1-1.81,1.63,2.55,2.55,0,0,0-2.1-.77,2.07,2.07,0,0,0-1.61.91,1.22,1.22,0,0,1-2.06-1.3Z"/></g></g></svg>