<svg xmlns="http://www.w3.org/2000/svg" viewBox="0 0 100 100"><defs><style>.cls-1{fill:#7fd18f;}.cls-2{fill:#fff;}</style></defs><title>cellary_icon</title><g id="Layer_2" data-name="Layer 2"><g id="Layer_2-2" data-name="Layer 2"><rect class="cls-1" width="100" height="100"/><path class="cls-2" d="M52.93,44.69c.93-1.21,1.75-2.39,2.49-3.55l-2.35-3.32A1.06,1.06,0,0,1,54.8,36.6l1.82,2.57a44.62,44.62,0,0,0,2.74-5.66L57.52,31a1.06,1.06,0,0,1,1.71-1.25l1,1.36a25.82,25.82,0,0,0,1.17-4.91,1.06,1.06,0,0,1,2.11.19,27.69,27.69,0,0,1-1.41,5.88l1.29,0a1,1,0,0,1,1.08,1,1.06,1.06,0,0,1-1,1.08l-2.11,0a46.05,46.05,0,0,1-2.55,5.3l1.45-.23a1.06,1.06,0,1,1,.33,2.09l-3.19.51c-.8,1.26-1.71,2.57-2.73,3.9a1.06,1.06,0,1,1-1.68-1.29ZM84.16,52.9a16.48,16.48,0,0,1-2.42,1.15,4.72,4.72,0,0,1-1.79,4.14,7.75,7.75,0,0,1-7.15.93,4.71,4.71,0,0,1-1.4,2.75c-1.5,1.42-3.94,1.76-6.85,1l-2-.57a25.64,25.64,0,0,0-7.2-1.43h-.24c-2.8,0-5.27,2.67-7.07,4.6-1.56,1.66-3.09,3.41-4.57,5.11a118.83,118.83,0,0,1-8.39,8.94c-1.77,1.64-4.37,3.62-6.74,3.76h-.26c-2.63,0-5.54-2.2-6.74-3.4a1.35,1.35,0,0,1-.13-.16l-.16-.13c-1.24-1.24-3.55-4.3-3.39-7,.14-2.37,2.12-5,3.76-6.74a118.59,118.59,0,0,1,8.94-8.39c1.69-1.48,3.45-3,5.11-4.57,1.92-1.79,4.54-4.25,4.6-7a23.7,23.7,0,0,0-.71-4c-.26-1.08-.59-2.18-.9-3.25-.15-.52-.31-1-.46-1.57-1.05-3.73-.09-5.72.9-6.74A4.38,4.38,0,0,1,41.49,29a7.43,7.43,0,0,1,.92-7,4.42,4.42,0,0,1,4-1.58,19.4,19.4,0,0,1,.92-2.13,6.48,6.48,0,0,1,6.44-3.22A7,7,0,0,1,59,18.72a6.51,6.51,0,0,1,1.08-.48,7,7,0,0,1,6,1c4.54,2.82,4.48,7.53,3.6,10.46a4.94,4.94,0,0,1,2.27,4A5.42,5.42,0,0,1,71,37a5,5,0,0,1,2.26-.1,5.46,5.46,0,0,1,3.83,2.87C83.69,39,87,42.85,87.54,45.6A7,7,0,0,1,84.16,52.9Zm.76-6.78c-.38-1.91-3-4.57-8.45-3.61a1.33,1.33,0,0,1-1.52-1,2.87,2.87,0,0,0-2.17-2.07,2.74,2.74,0,0,0-2.54,1,6.09,6.09,0,0,1,0,1.33c-.16,2-2.3,4.64-5.1,6.22l-.33,1c1.9-.71,3.69-1.25,5.31-1.68L70.82,45a1.06,1.06,0,1,1,2,.57l-.35,1.26a37.14,37.14,0,0,1,6.76-.89h0a1.06,1.06,0,0,1,0,2.12,36.3,36.3,0,0,0-6.23.84l1.18,1.41a1.06,1.06,0,0,1-1.62,1.36l-1.87-2.23A54,54,0,0,0,65,51.25l2,2.47A1.06,1.06,0,0,1,65.36,55l-2.37-3c-.85.36-1.71.75-2.59,1.19a1.06,1.06,0,1,1-.93-1.9c1-.47,1.88-.89,2.79-1.28l.25-.73-2.08.88a37.06,37.06,0,0,0-6.16,3,29.3,29.3,0,0,0-5.21,4.35c-.09.09-9.17,9.18-17,17.36a1.33,1.33,0,0,1-1.93-1.84c7.79-8.17,16.92-17.31,17-17.4A32,32,0,0,1,52.73,51a38.46,38.46,0,0,1,6.67-3.26c1.68-.7,3.28-1.37,4.38-2,2.36-1.31,3.76-3.29,3.83-4.16a2.22,2.22,0,0,0-.92-2.27A1.36,1.36,0,0,1,66,38.1a1.33,1.33,0,0,1,.82-1.17c1.62-.64,2.55-1.82,2.49-3.13a2.29,2.29,0,0,0-1.66-2.13,1.34,1.34,0,0,1-.84-1.84c.1-.22,2.44-5.49-2.11-8.32a4.43,4.43,0,0,0-3.79-.73c-2.45.79-3.81,4-3.82,4.08a1.34,1.34,0,0,1-1.81.7c-1.36-.65-2.31-.62-2.84.1-.82,1.12-.64,3.63.82,5.2h0a1.33,1.33,0,0,1-1.91,1.86,3.53,3.53,0,0,0-1.66-.12c-.63.19-1,.95-1.23,1.54-.63,1.79-.23,3.9.2,6.13A16.57,16.57,0,0,1,49,46.76c-.93,4.42-4.5,8.05-7.38,11l-.56.57C39,60.48,28.74,70.47,28.3,70.89A1.33,1.33,0,0,1,26.44,69c.11-.1,10.63-10.39,12.75-12.55l.57-.58c2.77-2.81,5.9-6,6.67-9.64A14.46,14.46,0,0,0,46,40.77c-.48-2.49-1-5.05-.1-7.52a4.73,4.73,0,0,1,3-3.21,4.07,4.07,0,0,1,.77-.13,6.56,6.56,0,0,1,.6-5.84,4.27,4.27,0,0,1,4.92-1.4,12.43,12.43,0,0,1,1.67-2.28,4.41,4.41,0,0,0-3.45-2.61,3.8,3.8,0,0,0-3.82,1.92c-.15.28-.79,1.88-.94,2.42a1.34,1.34,0,0,1-1.79,1.2,2,2,0,0,0-2.39.45c-.93,1.11-1.14,3.61.29,6.05a1.33,1.33,0,0,1-1.48,2,2.58,2.58,0,0,0-2.44.37c-.7.71-.78,2.22-.24,4.14.15.51.3,1,.45,1.53.32,1.1.66,2.23.94,3.38a25.79,25.79,0,0,1,.78,4.49s0,.06,0,.09c0,3.93-3.29,7-5.44,9-1.7,1.59-3.47,3.14-5.17,4.63a116.53,116.53,0,0,0-8.74,8.2c-1.84,2-3,3.88-3.05,5.08-.08,1.37,1.3,3.64,2.62,5a1.35,1.35,0,0,1,.13.16l.16.13c1.32,1.32,3.56,2.71,5,2.62,1.2-.07,3.1-1.21,5.08-3.05a116.45,116.45,0,0,0,8.2-8.74c1.5-1.71,3-3.48,4.63-5.17,2-2.12,5-5.31,8.83-5.44h.15a27,27,0,0,1,8.22,1.53l1.92.56c2,.54,3.52.42,4.31-.32a2.81,2.81,0,0,0,.53-2.62,1.33,1.33,0,0,1,2-1.43c2.44,1.45,5,1.21,6.2.22a2.18,2.18,0,0,0,.65-2.59,1.33,1.33,0,0,1,1.21-1.74,10.78,10.78,0,0,0,2.57-1.11A4.35,4.35,0,0,0,84.92,46.12Z"/></g></g></svg>