<svg xmlns="http://www.w3.org/2000/svg" viewBox="0 0 100 100"><defs><style>.cls-1{fill:#f34e55;}.cls-2{fill:#fff;}</style></defs><title>cherries_icon</title><g id="Layer_2" data-name="Layer 2"><g id="Layer_2-2" data-name="Layer 2"><rect class="cls-1" width="100" height="100"/><path class="cls-2" d="M38.13,64.32A1.18,1.18,0,0,1,37,65.58c-1.43.1-2.64,1.45-3.16,3.52a6.34,6.34,0,0,0-.12,2.52,1.18,1.18,0,0,1-1,1.35l-.19,0a1.18,1.18,0,0,1-1.17-1,8.75,8.75,0,0,1,.17-3.46c.78-3.11,2.81-5.14,5.29-5.3A1.17,1.17,0,0,1,38.13,64.32ZM62.3,85.66a15.54,15.54,0,0,1-3.2.34A13.23,13.23,0,0,1,49,81.4a13,13,0,0,1-8.42,3.08A15,15,0,0,1,36,83.7h0C27.7,81,25.15,73.14,26.9,66.78c1.19-4.35,4.32-7.6,8.15-8.49a9.07,9.07,0,0,1,7.57,1.64A42.55,42.55,0,0,0,47.74,37a1.58,1.58,0,0,1,2.84-1,48.63,48.63,0,0,1,8.58,24.81A9,9,0,0,1,62.94,60c5,0,9.28,4.14,10.2,9.84C74.18,76.33,70.8,83.86,62.3,85.66Zm-16.45-25a9,9,0,0,1,4.85,2.09,9.21,9.21,0,0,1,5.32-1,47.07,47.07,0,0,0-5.18-19.18A44.29,44.29,0,0,1,45.85,60.66Zm1.39,18.12A14.92,14.92,0,0,1,46,75.55a11.78,11.78,0,0,1,1.76-10.28c.13-.17.27-.34.42-.5a6.17,6.17,0,0,0-4.86-.84h0a1.61,1.61,0,0,1-.37,0h-.06a1.62,1.62,0,0,1-.3-.06l-.12,0-.23-.11L42,63.67l0,0a1.56,1.56,0,0,1-.24-.22h0a6,6,0,0,0-6-2.05c-2.7.62-4.93,3-5.81,6.24-1.31,4.77.32,10.89,7,13.08h0A10.11,10.11,0,0,0,47.24,78.78ZM70,70.31c-.68-4.22-3.59-7.17-7.07-7.17a6.22,6.22,0,0,0-4.21,1.73,1.59,1.59,0,0,1-1.57.33A6.9,6.9,0,0,0,55,64.83a5.88,5.88,0,0,0-4.73,2.37A8.65,8.65,0,0,0,49,74.75a10.33,10.33,0,0,0,10.06,8.09,12.38,12.38,0,0,0,2.55-.27C68.51,81.11,70.79,75.19,70,70.31Zm-15.86-.88a1.18,1.18,0,1,0-1.32-2c-2.06,1.39-2.8,4.16-1.92,7.24A8.83,8.83,0,0,0,52.5,77.8a1.18,1.18,0,1,0,1.84-1.49,6.46,6.46,0,0,1-1.16-2.25C52.59,72,53,70.23,54.15,69.44ZM29.21,28.7a1.58,1.58,0,0,1,.61-1.55,13.81,13.81,0,0,1,7.38-2.57,8.47,8.47,0,0,1,3.12.58c5.08,2,6.28,8.35,6.33,8.62A1.58,1.58,0,0,1,46,35.33a13.83,13.83,0,0,1-7.39,2.58,8.45,8.45,0,0,1-3.11-.58C30.46,35.33,29.26,29,29.21,28.7Zm3.38.44c.47,1.5,1.65,4.27,4.1,5.24a5.31,5.31,0,0,0,2,.35,9.9,9.9,0,0,0,4.62-1.4c-.47-1.5-1.65-4.27-4.1-5.24a5.31,5.31,0,0,0-2-.36A9.88,9.88,0,0,0,32.59,29.14ZM49,32.85c-.16-.22-4-5.43-2-10.51s8.36-6.27,8.63-6.32a1.58,1.58,0,0,1,1.55.61c.16.22,4,5.43,2,10.5s-8.35,6.28-8.62,6.32l-.28,0A1.58,1.58,0,0,1,49,32.85Zm2-2.77c1.5-.47,4.27-1.65,5.24-4.1s-.26-5.2-1-6.57c-1.5.47-4.27,1.65-5.24,4.1S50.18,28.71,51,30.08Z"/></g></g></svg>