<svg xmlns="http://www.w3.org/2000/svg" viewBox="0 0 100 100"><defs><style>.cls-1{fill:#f4e07d;}.cls-2{fill:#fff;}</style></defs><title>corn_icon</title><g id="Layer_2" data-name="Layer 2"><g id="Layer_2-2" data-name="Layer 2"><rect class="cls-1" width="100" height="100" rx="1.3" ry="1.3"/><path class="cls-2" d="M60.48,41.28A1.11,1.11,0,0,1,62,40.8q1.08.56,2.21,1.19a1.11,1.11,0,0,1-.54,2.08,1.1,1.1,0,0,1-.54-.14Q62,43.32,61,42.78A1.11,1.11,0,0,1,60.48,41.28Zm-3-2.62q-1.21-.52-2.33-.95a1.11,1.11,0,0,0-.79,2.07q1.08.41,2.25.91a1.1,1.1,0,0,0,.44.09,1.11,1.11,0,0,0,.44-2.13Zm-.72,10.94q-1.13-.63-2.2-1.19a1.11,1.11,0,1,0-1,2q1,.54,2.14,1.15a1.11,1.11,0,1,0,1.09-1.94ZM50,46.25q-1.21-.52-2.33-.95a1.11,1.11,0,1,0-.8,2.07q1.08.41,2.25.92a1.11,1.11,0,0,0,.88-2ZM43,54.58q-1.2-.54-2.31-1a1.11,1.11,0,1,0-.83,2.06q1.07.43,2.23,1a1.11,1.11,0,0,0,.91-2Zm27.09-19q1,.56,2.12,1.19a1.11,1.11,0,1,0,1.12-1.92q-1.11-.65-2.18-1.23a1.11,1.11,0,1,0-1.06,2Zm-6.58-3.14q1.07.44,2.23,1a1.11,1.11,0,0,0,.92-2q-1.19-.54-2.3-1a1.11,1.11,0,0,0-.85,2.06Zm7.61,28.52A219.74,219.74,0,0,1,53.93,75.4c-8.26,5.67-16.7,7.93-23.31,6.27a12.23,12.23,0,0,1-5.85,1.82,6.09,6.09,0,0,1-4.46-1.82c-3.55-3.55-1-8.67,0-10.34-2-9.39,3-18.58,6.26-23.27A220,220,0,0,1,41.07,30.84C52.65,18.12,53.89,18.36,54.79,18.54A1.56,1.56,0,0,1,56,19.77c.44,2-.84,6.2-2.18,9.79,6.19-4.65,11.32-6.94,15.52-6.94a9.7,9.7,0,0,1,7.09,2.91c6.35,6.35,1.73,15.25-3.91,22.57,3.57-1.33,7.68-2.57,9.68-2.14a1.57,1.57,0,0,1,1.23,1.24C83.64,48.11,83.88,49.35,71.17,60.93ZM69.37,25.42c-2.59,0-5.74,1.13-9.42,3.36a1.11,1.11,0,0,1-.94,2c-.49-.15-1-.28-1.46-.41a80.05,80.05,0,0,0-7.26,5.76h0a1.11,1.11,0,1,1-.6,2.14L48.3,37.9c-1.46,1.35-3,2.79-4.54,4.36-.44.44-.86.89-1.3,1.34l.41.11a1.11,1.11,0,1,1-.6,2.14c-.56-.16-1.12-.3-1.66-.43a49,49,0,0,0-5.25,6.31l.62.18A1.11,1.11,0,1,1,35.34,54c-.43-.13-.83-.23-1.25-.34A31.11,31.11,0,0,0,31,60.33l1,.37a1.11,1.11,0,1,1-.79,2.08l-.84-.3a16.66,16.66,0,0,0-.15,7.58c2.09-1.58,4.43-3.14,6.88-4.67-.48-.24-1-.49-1.43-.71a1.11,1.11,0,1,1,1-2q1.09.52,2.25,1.11a1.08,1.08,0,0,1,.36.31c2.76-1.64,5.6-3.22,8.39-4.68l-1.19-.66a1.11,1.11,0,1,1,1.05-2q1.07.57,2.19,1.22a1.09,1.09,0,0,1,.24.21c3.45-1.76,6.71-3.33,9.47-4.61a1.1,1.1,0,0,1,0-1.12A1.11,1.11,0,0,1,61,52.17l.66.44c2.79-1.26,4.82-2.13,5.59-2.45.71-.83,1.37-1.63,2-2.41q-1-.68-2-1.31a1.11,1.11,0,1,1,1.2-1.87q1,.66,2.09,1.38l.07.07c6.55-8.65,7.77-14.58,3.86-18.49A6.89,6.89,0,0,0,69.37,25.42ZM79.5,48.89a63.68,63.68,0,0,0-10.77,3.78,1.39,1.39,0,0,1-.5.11C65,54.17,42.48,63.87,30.65,73.32a1.4,1.4,0,0,1-1.86-.1C26.67,71.1,23.9,58.16,39.17,42.89a1.4,1.4,0,0,1,.28-.22c.77-.81,1.55-1.61,2.33-2.4,2.67-2.67,5.19-5,7.57-7.07a62.92,62.92,0,0,0,3.76-10.72c-5.28,4.67-20,21.07-24.21,27.16-3,4.41-7.79,13.08-5.71,21.62A1.4,1.4,0,0,1,23,72.4s-3.24,4.76-.69,7.3S29.55,79,29.6,79a1.4,1.4,0,0,1,1.2-.19c5.88,1.73,13.73-.36,21.55-5.73C58.44,68.91,74.82,54.17,79.5,48.89Z"/></g></g></svg>