<svg xmlns="http://www.w3.org/2000/svg" viewBox="0 0 100 100"><defs><style>.cls-1{fill:#6cad73;}.cls-2{fill:#fff;}</style></defs><title>cucumber_icon</title><g id="Layer_2" data-name="Layer 2"><g id="Layer_2-2" data-name="Layer 2"><rect class="cls-1" width="100" height="100"/><path class="cls-2" d="M67.66,63.06c0-20.78-.88-39.87-11.26-45.38a6.74,6.74,0,0,0-13,0C33,23.19,32.17,42.28,32.17,63.06c0,3.76,0,6.65.12,9.37,0,.07,0,.13,0,.19.19,8.2,8,14.83,17.61,14.83s17.48-6.68,17.6-14.92c0,0,0-.06,0-.09C67.62,69.74,67.66,66.85,67.66,63.06ZM45.59,20.39a1.69,1.69,0,0,0,1-1.31,3.36,3.36,0,0,1,6.66,0,1.7,1.7,0,0,0,1,1.32c9.26,4.11,10,24.18,10,42.66,0,.18,0,.35,0,.53a17.07,17.07,0,0,0-6.3-4.7,259.89,259.89,0,0,0-1.7-26.42,1.35,1.35,0,0,0-2.67.4c.54,3.58,1.37,13.5,1.65,25.06a20.65,20.65,0,0,0-10.72,0c.3-11.5,1.15-21.44,1.69-25.07a1.35,1.35,0,0,0-2.67-.4,263,263,0,0,0-1.75,26.44,17.09,17.09,0,0,0-6.26,4.68c0-.18,0-.35,0-.53C35.55,44.57,36.33,24.51,45.59,20.39ZM49.92,84c-7.85,0-14.23-5.26-14.23-11.72,0-4.47,3.17-8.61,8.07-10.56a17,17,0,0,1,12.26,0c4.93,1.94,8.11,6.1,8.11,10.58C64.14,78.79,57.76,84,49.92,84Zm1.35-16.62v1.42a1.35,1.35,0,0,1-2.7,0V67.43a1.35,1.35,0,0,1,2.7,0Zm0,8.38v1.36a1.35,1.35,0,0,1-2.7,0V75.81a1.35,1.35,0,1,1,2.7,0Zm-3.65-4.9a1.35,1.35,0,0,1-1.79.66l-1.35-.62a1.35,1.35,0,0,1,1.13-2.45l1.35.63A1.35,1.35,0,0,1,47.61,70.91Zm0,2.84a1.35,1.35,0,0,1-.67,1.79l-1.42.64a1.35,1.35,0,1,1-1.11-2.46l1.42-.64A1.35,1.35,0,0,1,47.62,73.75Zm4.6-2.84a1.35,1.35,0,0,1,.66-1.79l1.35-.62a1.35,1.35,0,1,1,1.13,2.45L54,71.57a1.35,1.35,0,0,1-1.79-.66Zm3.88,4.6a1.35,1.35,0,0,1-1.79.67l-1.42-.64A1.35,1.35,0,0,1,54,73.08l1.42.64A1.35,1.35,0,0,1,56.1,75.51Z"/></g></g></svg>