<svg xmlns="http://www.w3.org/2000/svg" viewBox="0 0 100 100"><defs><style>.cls-1{fill:#897099;}.cls-2{fill:#fff;}</style></defs><title>eggplant_icon</title><g id="Layer_2" data-name="Layer 2"><g id="Layer_2-2" data-name="Layer 2"><rect class="cls-1" width="100" height="100"/><path class="cls-2" d="M65.76,52a62.65,62.65,0,0,1-3.91-5c-4.44-6.47-5.79-9-7.56-15.92-.26-1-.53-2-.83-2.82a1.33,1.33,0,0,0,.84-1.93,18.86,18.86,0,0,0-4.71-7.15A11.93,11.93,0,0,0,43,16.34h0A3.94,3.94,0,0,0,40,15a4.55,4.55,0,0,0-.85.08,4.14,4.14,0,0,0-3.12,2.31,14.61,14.61,0,0,0-6.36,5.17,21.32,21.32,0,0,0-3.05,8.54,1.34,1.34,0,0,0,1.55,1.48l.21,0c-.16,1-.27,2-.34,2.77a78.86,78.86,0,0,0,.52,18.53c1.42,9.24,4.68,16.93,9.7,22.84A23.76,23.76,0,0,0,55.89,85a17.53,17.53,0,0,0,12.78-5.28,16.8,16.8,0,0,0,4.68-12.41C73.1,60.65,69.36,56.25,65.76,52ZM31.9,24.09a11.86,11.86,0,0,1,5.49-4.35,1.88,1.88,0,0,0,1-1,1.53,1.53,0,0,1,1.29-1,1.33,1.33,0,0,1,1.38.53A2.09,2.09,0,0,0,42.5,19a9.18,9.18,0,0,1,5.35,2.26A13.86,13.86,0,0,1,51,25.46a18,18,0,0,1-4.46-1.39,1.34,1.34,0,0,0-1.93,1.07c-.33,3.59-1.55,5.36-2.2,6.06-4.22-1.54-4.76-4.46-4.78-4.58a1.34,1.34,0,0,0-.93-1.09,1.32,1.32,0,0,0-.39-.06,1.34,1.34,0,0,0-1,.44,14.82,14.82,0,0,1-5.59,3.52h0A16.17,16.17,0,0,1,31.9,24.09ZM66.74,77.86a14.88,14.88,0,0,1-10.85,4.47,21,21,0,0,1-15.55-7.39c-4.7-5.53-7.76-12.77-9.1-21.52a76,76,0,0,1-.5-17.87,36.39,36.39,0,0,1,.55-3.85,17.71,17.71,0,0,0,4.44-2.58A10.55,10.55,0,0,0,42.3,34a1.33,1.33,0,0,0,1.08-.14c.3-.18,2.72-1.8,3.62-6.69a20.71,20.71,0,0,0,3.46.92,17.25,17.25,0,0,1,1.24,3.69c1.86,7.25,3.37,10.09,7.95,16.76a64.48,64.48,0,0,0,4.08,5.17c3.47,4.09,6.74,8,7,13.69A14.15,14.15,0,0,1,66.74,77.86ZM55.18,79a1.06,1.06,0,0,1-1.05.95H54a19.1,19.1,0,0,1-12.3-7.16,33.12,33.12,0,0,1-4.36-7.12,1.06,1.06,0,0,1,1.93-.88,31,31,0,0,0,4.08,6.66,16.94,16.94,0,0,0,10.87,6.39A1.06,1.06,0,0,1,55.18,79ZM37.88,62.83a1.05,1.05,0,0,1-.75.31,1,1,0,0,1-1.06-1.05,1.07,1.07,0,0,1,.31-.75,1.1,1.1,0,0,1,1.5,0,1,1,0,0,1,.31.75A1,1,0,0,1,37.88,62.83Z"/></g></g></svg>