<svg xmlns="http://www.w3.org/2000/svg" viewBox="0 0 100 100"><defs><style>.cls-1{fill:#ecddaa;}.cls-2{fill:#fff;}</style></defs><title>garlic_icon</title><g id="Layer_2" data-name="Layer 2"><g id="Layer_2-2" data-name="Layer 2"><rect class="cls-1" width="100" height="100"/><path class="cls-2" d="M66.27,41.47c-.74-.56-1.45-1.1-2.1-1.62-5.9-4.69-7.6-9.27-8-10.89-.19-.84-.36-1.68-.55-2.61-.14-.68-.28-1.41-.46-2.22-.05-.24-.1-.51-.15-.78-.37-2.06-1-5.89-5-5.89s-4.6,3.82-5,5.87c0,.28-.1.55-.15.8-.15.73-.29,1.39-.42,2-.21,1-.4,1.93-.6,2.84-.45,1.63-2.17,6.19-8,10.87-.65.51-1.35,1.05-2.1,1.62-5.78,4.39-14.51,11-13.17,21.72A18.09,18.09,0,0,0,40.38,78.81h0l.68.38-.66,1.52a1.5,1.5,0,1,0,2.75,1.19l.68-1.57a18.74,18.74,0,0,0,2,.5l-.21,1.83A1.5,1.5,0,0,0,47,84.32h.17A1.5,1.5,0,0,0,48.66,83l.21-1.82c.37,0,.73,0,1.11,0h0c.38,0,.74,0,1.11,0L51.34,83a1.5,1.5,0,0,0,1.49,1.33H53a1.5,1.5,0,0,0,1.32-1.66l-.21-1.83a18.74,18.74,0,0,0,2-.5l.68,1.57a1.5,1.5,0,1,0,2.75-1.19l-.66-1.52.68-.38h0A18.09,18.09,0,0,0,79.44,63.18C80.78,52.49,72,45.86,66.27,41.47ZM23.93,62.76C22.84,54,30,48.56,35.79,44.17c.76-.58,1.49-1.13,2.15-1.66s1.19-1,1.73-1.47c-.5,1.07-1,2.13-1.51,3.17C35.32,50,32.4,56,32.41,63.11a23.12,23.12,0,0,0,2.47,9.84,14.13,14.13,0,0,0,1.53,2.39A14.68,14.68,0,0,1,23.93,62.76ZM50,77.81c-5.62,0-10-2.33-12.07-6.39a19.56,19.56,0,0,1-2.1-8.31c0-6.29,2.62-11.69,5.4-17.41a79.3,79.3,0,0,0,4.3-10c.81-2.47,1.27-4.21,1.66-5.9a9.25,9.25,0,0,0,.21-.93c.14-.66.28-1.33.43-2s.26-1.27.41-2c.06-.28.11-.59.17-.91.45-2.59.82-3.05,1.61-3.05s1.18.47,1.64,3.08c.06.31.11.61.17.89.17.8.31,1.52.45,2.19s.25,1.26.38,1.85c0,.14.08.44.19.87a60.48,60.48,0,0,0,1.66,6,79.2,79.2,0,0,0,4.3,10c2.78,5.72,5.41,11.12,5.4,17.41a19.56,19.56,0,0,1-2.1,8.32c-2,4.06-6.44,6.39-12.07,6.39h0ZM76.07,62.76A14.68,14.68,0,0,1,63.6,75.34a14,14,0,0,0,1.53-2.39,23.14,23.14,0,0,0,2.47-9.84c0-7.08-2.92-13.09-5.75-18.9-.51-1-1-2.1-1.51-3.17.54.49,1.11,1,1.73,1.47s1.39,1.08,2.16,1.66C70,48.56,77.16,54,76.07,62.76ZM50.89,73.43a1.35,1.35,0,0,1-1.35,1.35c-5.57,0-9.64-3.89-10.37-9.92a19.32,19.32,0,0,1,.72-7.33,1.35,1.35,0,1,1,2.6.74,16.79,16.79,0,0,0-.63,6.27c.56,4.65,3.51,7.54,7.69,7.54A1.35,1.35,0,0,1,50.89,73.43Z"/></g></g></svg>