<svg xmlns="http://www.w3.org/2000/svg" viewBox="0 0 100 100"><defs><style>.cls-1{fill:#7d648b;}.cls-2{fill:#fff;}</style></defs><title>gooseberry_icon</title><g id="Layer_2" data-name="Layer 2"><g id="Layer_2-2" data-name="Layer 2"><rect class="cls-1" width="100" height="100"/><path class="cls-2" d="M52.35,19.41l2-4.32a1.4,1.4,0,0,0-2.54-1.17L50,17.83l-1.81-3.91a1.4,1.4,0,0,0-2.54,1.17l2,4.32C33.23,20.71,21.86,33.87,21.86,49.87c0,9.79,5.15,22.69,16.45,27.91a23.2,23.2,0,0,0,2.48.93,8.79,8.79,0,0,1,3.68,1.84,11.83,11.83,0,0,1,.93,1.89c.95,2.2,2.13,4.93,4.61,4.93s3.66-2.73,4.6-4.93a11.77,11.77,0,0,1,.93-1.89,8.76,8.76,0,0,1,3.68-1.85,23.58,23.58,0,0,0,2.48-.93C73,72.56,78.14,59.65,78.14,49.87,78.14,33.87,66.77,20.71,52.35,19.41Zm7.77,55a20.38,20.38,0,0,1-2.09.77A11.83,11.83,0,0,0,52.81,78a10.4,10.4,0,0,0-1.65,3A18.37,18.37,0,0,1,50,83.33,18.42,18.42,0,0,1,48.84,81a10.4,10.4,0,0,0-1.64-3A11.82,11.82,0,0,0,42,75.15a20.23,20.23,0,0,1-2.09-.77c-9.8-4.52-14.27-15.87-14.27-24.5C25.61,35.07,36.55,23,50,23s24.39,12,24.39,26.83C74.39,58.5,69.93,69.85,60.13,74.37ZM49.94,27.55c-10.94,0-19.83,10.1-19.83,22.51S39,72.58,49.94,72.58s19.83-10.1,19.83-22.51S60.88,27.55,49.94,27.55Zm0,42.22c-9.39,0-17-8.84-17-19.71s7.64-19.71,17-19.71S67,39.2,67,50.06,59.33,69.77,49.94,69.77Zm1.5-21.21a2.13,2.13,0,0,1,.63,1.5,2.13,2.13,0,1,1-3.63-1.5A2.19,2.19,0,0,1,51.44,48.56Zm0-11.28a2.15,2.15,0,0,1,.63,1.51,2.13,2.13,0,1,1-3.63-1.51A2.19,2.19,0,0,1,51.44,37.28Zm0,22.56a2.12,2.12,0,1,1-3,0A2.19,2.19,0,0,1,51.44,59.84Zm9.85-9.77a2.13,2.13,0,1,1-3.63-1.51,2.21,2.21,0,0,1,3,0A2.17,2.17,0,0,1,61.29,50.07Zm-19.07,1.5a2.14,2.14,0,0,1-3,0,2.14,2.14,0,0,1,0-3,2.21,2.21,0,0,1,3,0,2.14,2.14,0,0,1,0,3Zm12.74-8a2.12,2.12,0,0,1,0-3,2.21,2.21,0,0,1,3,0,2.12,2.12,0,0,1,0,3,2.11,2.11,0,0,1-3,0Zm-10,13a2.13,2.13,0,1,1-3,0A2.17,2.17,0,0,1,44.92,56.54Zm13.05,0a2.12,2.12,0,0,1,0,3,2.12,2.12,0,1,1-3-3A2.21,2.21,0,0,1,58,56.54Zm-13.05-16a2.13,2.13,0,1,1-3,0A2.19,2.19,0,0,1,44.92,40.59Z"/></g></g></svg>