<svg xmlns="http://www.w3.org/2000/svg" viewBox="0 0 100 100"><defs><style>.cls-1{fill:#7fd18f;}.cls-2{fill:#fff;}</style></defs><title>kiwi_icon</title><g id="Layer_2" data-name="Layer 2"><g id="Layer_2-2" data-name="Layer 2"><rect class="cls-1" width="100" height="100"/><path class="cls-2" d="M50,18.76c-17.87,0-32.41,14-32.41,31.24S32.13,81.24,50,81.24,82.41,67.23,82.41,50,67.87,18.76,50,18.76Zm0,58.74C34.2,77.49,21.34,65.16,21.34,50S34.2,22.51,50,22.51,78.66,34.84,78.66,50,65.8,77.49,50,77.49Zm0-51.79c-13.9,0-25.2,10.9-25.2,24.29S36.11,74.29,50,74.29,75.21,63.4,75.21,50,63.91,25.71,50,25.71Zm0,45.79c-12.35,0-22.4-9.64-22.4-21.5s10-21.49,22.4-21.49S72.41,38.15,72.41,50,62.36,71.49,50,71.49Zm1.4-7.68v1.06a1.4,1.4,0,1,1-2.8,0V63.81a1.4,1.4,0,1,1,2.8,0Zm-2.8-27.63V35.12a1.4,1.4,0,1,1,2.8,0v1.07a1.4,1.4,0,1,1-2.8,0ZM34.54,51.4a1.4,1.4,0,0,1,0-2.8h1.1a1.4,1.4,0,0,1,0,2.8ZM66.88,50a1.4,1.4,0,0,1-1.4,1.4H64.38a1.4,1.4,0,0,1,0-2.8h1.11A1.4,1.4,0,0,1,66.88,50Zm-26,8.79a1.4,1.4,0,0,1,0,2l-.78.76a1.4,1.4,0,1,1-1.95-2l.78-.76A1.4,1.4,0,0,1,40.86,58.79Zm18.3-17.59a1.4,1.4,0,0,1,0-2l.78-.76a1.4,1.4,0,0,1,1.94,2l-.78.76a1.4,1.4,0,0,1-2,0ZM38.1,40.48a1.4,1.4,0,1,1,1.95-2l.78.76a1.4,1.4,0,1,1-1.95,2Zm23.82,19a1.4,1.4,0,1,1-1.94,2l-.78-.76a1.4,1.4,0,1,1,1.94-2ZM45.8,63.32l-.42,1a1.4,1.4,0,1,1-2.57-1.11l.42-1a1.4,1.4,0,0,1,2.57,1.11Zm8.42-26.64.42-1a1.4,1.4,0,1,1,2.57,1.11l-.42,1a1.4,1.4,0,1,1-2.57-1.11Zm-19.8,7.11A1.4,1.4,0,0,1,36.24,43l1,.41a1.4,1.4,0,0,1-.52,2.7,1.38,1.38,0,0,1-.52-.1l-1-.41A1.4,1.4,0,0,1,34.42,43.79ZM65.61,56.21a1.4,1.4,0,0,1-1.82.78l-1-.41a1.4,1.4,0,1,1,1-2.6l1,.41A1.4,1.4,0,0,1,65.61,56.21Zm-28.34.37-1,.41a1.4,1.4,0,1,1-1-2.59l1-.41a1.4,1.4,0,1,1,1,2.59ZM62.76,43.42l1-.41a1.4,1.4,0,1,1,1,2.59l-1,.41a1.4,1.4,0,1,1-1-2.59Zm-20-6.61a1.4,1.4,0,0,1,2.57-1.11l.42,1a1.4,1.4,0,1,1-2.57,1.11ZM57.22,63.19a1.4,1.4,0,1,1-2.57,1.1l-.42-1a1.4,1.4,0,1,1,2.57-1.11Zm2.6-7.87a2.4,2.4,0,0,0-.45-2.62.38.38,0,0,1-.1-.29c0-.06.1-.16.28-.24a2.24,2.24,0,0,0,0-4.36c-.18-.08-.26-.17-.28-.24a.39.39,0,0,1,.11-.29,2.25,2.25,0,0,0-2.19-3.78h-.1a.44.44,0,0,1-.33-.11.4.4,0,0,1-.06-.3A2.61,2.61,0,0,0,56.14,41a2.37,2.37,0,0,0-3.23-.06c-.29.2-.55.16-.7-.15a2.29,2.29,0,0,0-4.39,0,.41.41,0,0,1-.69.16,2.38,2.38,0,0,0-3.24.06,2.61,2.61,0,0,0-.56,2.13.4.4,0,0,1-.06.3.45.45,0,0,1-.33.11h-.1a2.25,2.25,0,0,0-2.18,3.78.39.39,0,0,1,.11.29c0,.06-.1.16-.28.24a2.24,2.24,0,0,0,0,4.36c.18.08.26.17.28.24a.38.38,0,0,1-.11.29,2.39,2.39,0,0,0-.45,2.62,2.28,2.28,0,0,0,2.2,1.19l.53,0a.45.45,0,0,1,.33.11.4.4,0,0,1,.06.3A2.61,2.61,0,0,0,43.88,59a2.38,2.38,0,0,0,3.24.06c.29-.2.55-.16.69.15a2.29,2.29,0,0,0,4.39,0,.42.42,0,0,1,.69-.15A2.37,2.37,0,0,0,56.14,59a2.61,2.61,0,0,0,.56-2.13.4.4,0,0,1,.06-.3c.06-.07.17-.1.43-.1A2.39,2.39,0,0,0,59.83,55.32ZM56.57,51.7a3,3,0,0,0,.17,2,3.14,3.14,0,0,0-2.06,1,3.05,3.05,0,0,0-.76,1.72,3.23,3.23,0,0,0-3.9,1,3.14,3.14,0,0,0-2.55-1.31,3.31,3.31,0,0,0-1.35.29,3.06,3.06,0,0,0-.76-1.72,3.14,3.14,0,0,0-2.06-1,3,3,0,0,0,.17-2A3.08,3.08,0,0,0,42.27,50a3.09,3.09,0,0,0,1.19-1.7,3,3,0,0,0-.17-2,3.15,3.15,0,0,0,2.06-1,3.06,3.06,0,0,0,.76-1.72,3.22,3.22,0,0,0,3.9-1,3.22,3.22,0,0,0,3.9,1,3.06,3.06,0,0,0,.76,1.72,3.13,3.13,0,0,0,2.06,1,3,3,0,0,0-.17,2A3.08,3.08,0,0,0,57.75,50,3.09,3.09,0,0,0,56.57,51.7Z"/></g></g></svg>