<svg xmlns="http://www.w3.org/2000/svg" viewBox="0 0 100 100"><defs><style>.cls-1{fill:#acce89;}.cls-2{fill:#fff;}</style></defs><title>leek_icon</title><g id="Layer_2" data-name="Layer 2"><g id="Layer_2-2" data-name="Layer 2"><rect class="cls-1" width="100" height="100"/><path class="cls-2" d="M83.87,33.41l-5.63-8.23a1.16,1.16,0,0,0-1.62-.3l-1.7,1.19,1.18-1.74a1.16,1.16,0,0,0-.31-1.61l-8.23-5.63a1.16,1.16,0,0,0-1.63.32L64.1,20.21l-5.42-2.64a1.32,1.32,0,0,0-1.76.6L41.33,49.94h0L28.87,62.4a15.58,15.58,0,0,1-4.17,3.19l-.77.39a14.66,14.66,0,0,0-4.25,2.85,8.44,8.44,0,0,0-2.25,8l-.74.34a1,1,0,1,0,.87,1.9l.6-.27c.08.16.17.32.27.48l-.74.61A1,1,0,0,0,19,81.5l.67-.55.19.21.21.19-.55.67a1,1,0,1,0,1.62,1.33l.61-.74.48.27-.27.6a1,1,0,1,0,1.9.87l.34-.74a8.65,8.65,0,0,0,2,.25,8.42,8.42,0,0,0,6-2.5,14.61,14.61,0,0,0,2.84-4.23l.4-.78a15.58,15.58,0,0,1,3.18-4.17L51,59.77,82.88,44.14a1.32,1.32,0,0,0,.6-1.76l-2.66-5.46L83.57,35A1.17,1.17,0,0,0,83.87,33.41ZM67.22,19.68,73.52,24l-4,5.95a1.13,1.13,0,0,0-.12.17l-6.09,9-2.45,1.21,8-16.3a1.32,1.32,0,0,0-.61-1.77l-2-1Zm-8.51.83L65.87,24,56.93,42.19l-2.29,1.13,8.24-17.53a.77.77,0,1,0-1.4-.66l-9.07,19.3L45.23,48ZM36.77,70.31a18.07,18.07,0,0,0-3.66,4.82l-.41.81a12.17,12.17,0,0,1-2.35,3.56,6,6,0,0,1-8.61-.2,6,6,0,0,1-.2-8.61,12.23,12.23,0,0,1,3.57-2.36l.79-.4a18.08,18.08,0,0,0,4.82-3.66l6.12-6.12,6,6ZM49.55,57.56a1.32,1.32,0,0,0-.56.52l-5,5-6-6,5-5,.19-.11,34-16.8,3.49,7.17ZM79.8,34.8l-1-2a1.32,1.32,0,0,0-1.77-.6L67.5,37l3.73-5.48,5.75-4,4.32,6.31Zm-2.28,6.12a.77.77,0,0,1-.36,1l-27,13a.77.77,0,1,1-.67-1.4l27-13A.78.78,0,0,1,77.52,40.93ZM39.76,64.85,34.58,70a.77.77,0,0,1-1.1-1.1l5.18-5.18a.77.77,0,1,1,1.1,1.1Z"/></g></g></svg>