<svg xmlns="http://www.w3.org/2000/svg" viewBox="0 0 100 100"><defs><style>.cls-1{fill:#f4e07d;}.cls-2{fill:#fff;}</style></defs><title>lemon_icon</title><g id="Layer_2" data-name="Layer 2"><g id="Layer_2-2" data-name="Layer 2"><rect class="cls-1" width="100" height="100"/><path class="cls-2" d="M39.57,34.75a1.86,1.86,0,0,1,.55,1.32,1.88,1.88,0,0,1-.55,1.33,1.86,1.86,0,0,1-1.32.55,1.87,1.87,0,0,1-1.33-3.2A1.93,1.93,0,0,1,39.57,34.75Zm-6.31,7.78a1.88,1.88,0,1,0,2.65,0A1.94,1.94,0,0,0,33.26,42.53Zm8-.37a1.88,1.88,0,0,0-.55,1.33,1.88,1.88,0,0,0,1.87,1.87,1.87,1.87,0,0,0,1.33-3.2A1.93,1.93,0,0,0,41.29,42.16Zm35.28,8.18c0,15.41-7.13,26.33-19.1,29.47-1.44,5.28-5.07,6.44-8,6.44-4.13,0-6.93-2.28-8-6.44-12-3.15-19.06-14.07-19.07-29.46S29.56,24,41.53,20.87c1.44-5.28,5.07-6.44,8-6.44,4.13,0,6.93,2.28,8,6.44C69.45,24,76.55,34.95,76.57,50.34Zm-3.75,0c0-14.22-6.33-23.72-17.31-26.08a1.88,1.88,0,0,1-1.46-1.53c-.64-4-2.66-4.54-4.55-4.54s-3.8.56-4.56,4.59a1.87,1.87,0,0,1-1.45,1.49c-11,2.36-17.3,11.87-17.31,26.09s6.33,23.72,17.31,26.08A1.88,1.88,0,0,1,44.95,78c.65,4,2.66,4.54,4.55,4.54s3.8-.56,4.56-4.59a1.87,1.87,0,0,1,1.45-1.49C66.5,74.07,72.81,64.56,72.82,50.34Z"/></g></g></svg>