<svg xmlns="http://www.w3.org/2000/svg" viewBox="0 0 100 100"><defs><style>.cls-1{fill:#6cad73;}.cls-2,.cls-3{fill:#fff;}.cls-2{stroke:#1d1d1b;stroke-linecap:round;stroke-linejoin:round;stroke-width:3.4px;}</style></defs><title>lettuce_icon</title><g id="Layer_2" data-name="Layer 2"><g id="Layer_2-2" data-name="Layer 2"><rect class="cls-1" width="100" height="100"/><path class="cls-2" d="M55.59,90.66"/><path class="cls-2" d="M44.41,90.66"/><path class="cls-3" d="M78.38,37.57a6.22,6.22,0,0,0-2.82-2.17c1.24-2.92,3-8.6-.1-12.25a7.52,7.52,0,0,0-7.82-2.54,9.92,9.92,0,0,0-.73-2.08c-1-2-3.1-4.47-7.6-4.54a7.26,7.26,0,0,0-1,.05c-.72-1.41-2.86-4.41-7.93-4.41a8.34,8.34,0,0,0-7.91,4.54,7.26,7.26,0,0,0-1.8-.18c-4.5.07-6.62,2.51-7.6,4.54a10,10,0,0,0-.73,2.08,7.51,7.51,0,0,0-7.82,2.54c-3.08,3.65-1.33,9.32-.1,12.24a6.21,6.21,0,0,0-2.82,2.17c-1.7,2.33-2.09,6-1.05,10,6.36,25,15.2,38.15,15.57,38.7a1.58,1.58,0,0,0,.18.21c.36.37,3.74,3.51,13.21,3.68l.16,0h.63l.16,0c9.47-.17,12.85-3.31,13.21-3.68a1.59,1.59,0,0,0,.18-.22c.37-.55,9.21-13.75,15.57-38.7C80.46,43.56,80.08,39.91,78.38,37.57Zm-28-24.79c3,0,4.36,1.43,4.93,2.32a8.92,8.92,0,0,0-3,3.28,10.17,10.17,0,0,0-4.13.84,10,10,0,0,0-2.84-3.69C45.75,14.67,47.08,12.78,50.41,12.78ZM24.16,39.42a3.31,3.31,0,0,1,2.64-1.34,1.57,1.57,0,0,0,1.28-2.33c-1.11-2-3.47-7.81-1.14-10.57a4.66,4.66,0,0,1,5.93-1,1.57,1.57,0,0,0,2.36-1.37c0-.57.12-5.56,5.51-5.64,3.77-.07,5,4.42,5,4.61a1.57,1.57,0,0,0,2.26,1c2.17-1.16,3.68-1.4,4.8-1.17l.11,0a4,4,0,0,1,2.2,1.49c1.94,2.37.31,8.65-.41,10.66A1.57,1.57,0,0,0,57,35.64a3.74,3.74,0,0,1,3.94.12,3.4,3.4,0,0,1,1.42,3.56,53.75,53.75,0,0,1-1.48,5.4c-1.83,6-4.67,15.46-5.66,25.71-1.53,0-3.21-.08-5-.08-2.6,0-4.89.06-6.91.15-.53-2.4-1-4.81-1.28-7.22,1.54-.58,4.42-1.85,6-3.79a1.25,1.25,0,0,0-1.91-1.59,12,12,0,0,1-4.44,2.83c-.36-3.25-.56-6.43-.65-9.44a22.81,22.81,0,0,0,9.13-4.45,1.25,1.25,0,1,0-1.59-1.92A20.39,20.39,0,0,1,41,48.74c0-3.49.06-6.68.21-9.4a16.88,16.88,0,0,0,5.26-3.18,1.25,1.25,0,1,0-1.64-1.87,15,15,0,0,1-3.44,2.27c.29-3.82.63-6.19.65-6.27a1.25,1.25,0,1,0-2.46-.37c-.05.34-.41,2.84-.71,6.73a6.32,6.32,0,0,1-2.57-2.36,1.25,1.25,0,0,0-2.16,1.24,9.19,9.19,0,0,0,4.55,3.78c-.16,2.71-.26,5.86-.23,9.32a14.81,14.81,0,0,1-6.11-3.55,1.25,1.25,0,0,0-1.82,1.7,17.9,17.9,0,0,0,8,4.47c.09,3,.28,6.09.62,9.3a11.42,11.42,0,0,1-3.61-2.46,1.25,1.25,0,0,0-1.83,1.69,15.09,15.09,0,0,0,5.78,3.59c.33,2.41.75,4.84,1.29,7.26a60,60,0,0,0-8.64,1.11,160.74,160.74,0,0,1-8.48-24.93C22.83,43.79,23,41,24.16,39.42Zm8.71,34.07a62.39,62.39,0,0,1,8.29-1,65.59,65.59,0,0,0,3.32,10.14,1.25,1.25,0,0,0,2.29-1,61.83,61.83,0,0,1-3.06-9.3c1.91-.08,4.05-.14,6.48-.14,1.76,0,3.38,0,4.87.07a61.67,61.67,0,0,0,.52,14.33,31.93,31.93,0,0,1-5.56.49C42.27,87,39.15,84.81,38.64,84.4A88.57,88.57,0,0,1,32.86,73.49ZM61.37,84.4a9.8,9.8,0,0,1-2.75,1.4,58.94,58.94,0,0,1-.44-13.39,66.22,66.22,0,0,1,9,1A89.24,89.24,0,0,1,61.37,84.4Zm15-37.56a160.75,160.75,0,0,1-8.46,24.87,64.51,64.51,0,0,0-9.58-1.14c.23-2.35.56-4.66,1-6.89l.1,0a1.26,1.26,0,0,0,.33,0,15.72,15.72,0,0,0,6.61-3.86,1.25,1.25,0,1,0-1.83-1.69,12.54,12.54,0,0,1-4.7,2.9c.74-3.61,1.61-7,2.45-9.93a16.61,16.61,0,0,0,7.25-4.28,1.25,1.25,0,0,0-1.82-1.7,13.15,13.15,0,0,1-4.57,3l.75-2.5a52.34,52.34,0,0,0,1.58-5.85A7.08,7.08,0,0,0,65,36a9.14,9.14,0,0,0,2.12-2,1.24,1.24,0,1,0-1.93-1.57,6.7,6.7,0,0,1-1.59,1.52,6.52,6.52,0,0,0-.94-.77A6.86,6.86,0,0,0,58.49,32c.75-3.13,1.39-8-.94-10.88a7.84,7.84,0,0,0-2.12-1.84,4.53,4.53,0,0,1,3.84-2.14c5.39.08,5.52,5.07,5.51,5.63a1.57,1.57,0,0,0,2.36,1.38,4.67,4.67,0,0,1,5.93,1c2.33,2.76,0,8.57-1.14,10.57a1.57,1.57,0,0,0,1.28,2.33,3.31,3.31,0,0,1,2.64,1.34C77,41,77.17,43.79,76.39,46.84Z"/><path class="cls-2" d="M55.76,90.66"/></g></g></svg>