<svg xmlns="http://www.w3.org/2000/svg" viewBox="0 0 100 100"><defs><style>.cls-1{fill:#6cad73;}.cls-2{fill:#fff;}</style></defs><title>lime_icon</title><g id="Layer_2" data-name="Layer 2"><g id="Layer_2-2" data-name="Layer 2"><rect class="cls-1" width="100" height="100"/><path class="cls-2" d="M78.43,47.66c-1-15.78-8.59-26.47-20.9-29.43l-.15-.16A8.85,8.85,0,0,0,50,14.82a9,9,0,0,0-7.41,3.29l-.11.12c-12.31,3-19.92,13.65-20.9,29.43-.08,1.18-.11,2.4-.11,3.62s0,2.46.13,3.63C22.88,73.29,34,85.18,50,85.18S77.12,73.29,78.41,54.91c.08-1.17.13-2.39.13-3.63S78.5,48.85,78.43,47.66Zm-3.76,7C73.51,71.16,64.06,81.43,50,81.43S26.49,71.16,25.33,54.64c-.08-1.08-.12-2.21-.12-3.36s0-2.28.11-3.38c.9-14.43,7.48-23.71,18.52-26.13a1.88,1.88,0,0,0,.92-.5l.53-.55A5.36,5.36,0,0,1,50,18.57c2.64,0,3.36.75,4.67,2.11l.57.58a1.87,1.87,0,0,0,.92.51c11,2.42,17.62,11.7,18.52,26.13.07,1.11.11,2.24.11,3.38S74.75,53.56,74.67,54.64ZM46.4,42.35l-1.46,1.05A1.65,1.65,0,0,1,43,40.73l1.46-1.05a1.65,1.65,0,1,1,1.93,2.68Zm-9.64,4.92a1.65,1.65,0,0,1-.37,2.3l-1.46,1.06A1.65,1.65,0,0,1,33,48l1.46-1.06A1.65,1.65,0,0,1,36.76,47.28Zm7.69-16.09a1.65,1.65,0,0,1,.37-2.3l1.46-1.05a1.65,1.65,0,1,1,1.93,2.68l-1.46,1.05a1.65,1.65,0,0,1-2.3-.37Zm-5.87,4.24a1.65,1.65,0,0,1-.37,2.3l-1.46,1.05a1.65,1.65,0,0,1-1.93-2.68l1.46-1.05A1.65,1.65,0,0,1,38.57,35.43ZM54.4,76.1a1.65,1.65,0,0,1-1.65,1.65H48.17a1.65,1.65,0,1,1,0-3.3h4.58A1.65,1.65,0,0,1,54.4,76.1Z"/></g></g></svg>