<svg xmlns="http://www.w3.org/2000/svg" viewBox="0 0 100 100"><defs><style>.cls-1{fill:#ffb95a;}.cls-2{fill:#fff;}</style></defs><title>mango_icon</title><g id="Layer_2" data-name="Layer 2"><g id="Layer_2-2" data-name="Layer 2"><rect class="cls-1" width="100" height="100"/><path class="cls-2" d="M72.68,33.08a1.56,1.56,0,0,0-1.54-1.56A1.52,1.52,0,0,0,69.6,33s-.21,2.47-4.35,5.24a19.6,19.6,0,0,0-8.17-8,21.19,21.19,0,0,0-10-2.42,22.8,22.8,0,0,0-12.74,3.8c-3.08,2.09-5.9,5.28-8.63,8.37-1.27,1.43-2.58,2.91-3.89,4.26-.95,1-1.95,1.85-2.92,2.71-3.74,3.29-8,7-3.33,13.45,4,5.54,13.58,10.21,23.27,11.35a37,37,0,0,0,4.33.26,26.22,26.22,0,0,0,15.57-4.62,22.94,22.94,0,0,0,7.88-26.4C72.49,37.29,72.68,33.52,72.68,33.08ZM63.42,56.67A19.37,19.37,0,0,1,56.91,65a23.19,23.19,0,0,1-13.76,4,33.94,33.94,0,0,1-4-.24c-8.76-1-17.66-5.28-21.14-10.1-2.89-4-1.31-5.65,2.87-9.33,1-.89,2.06-1.81,3.09-2.87,1.37-1.4,2.7-2.91,4-4.36,2.73-3.08,5.3-6,8.06-7.86a19.71,19.71,0,0,1,11-3.27A18.12,18.12,0,0,1,55.62,33a16.73,16.73,0,0,1,7.56,7.91A19.23,19.23,0,0,1,63.42,56.67ZM84.15,43.37C79,38.81,71.72,40.49,71.59,40.52a1.54,1.54,0,0,0-1.19,1.34c0,.31-.75,7.65,4.3,12.14a13.77,13.77,0,0,0,9.22,3.17,16.4,16.4,0,0,0,3.34-.32,1.54,1.54,0,0,0,1.19-1.34C88.49,55.21,89.2,47.87,84.15,43.37ZM76.75,51.7c-2.82-2.51-3.28-6.41-3.32-8.35,1.91-.19,5.83-.21,8.68,2.32s3.27,6.42,3.31,8.35C83.51,54.22,79.59,54.24,76.75,51.7ZM56.36,38a1.35,1.35,0,0,1-1.85.49c-4.86-2.82-10.69-2.82-14.85,0A33.07,33.07,0,0,0,34,43.88a1.35,1.35,0,0,1-2.05-1.77,35.29,35.29,0,0,1,6.23-5.83c5-3.42,12-3.47,17.73-.12A1.35,1.35,0,0,1,56.36,38Z"/></g></g></svg>