<svg xmlns="http://www.w3.org/2000/svg" viewBox="0 0 100 100"><defs><style>.cls-1{fill:#ba9873;}.cls-2{fill:#fff;}</style></defs><title>mushroom_icon</title><g id="Layer_2" data-name="Layer 2"><g id="Layer_2-2" data-name="Layer 2"><rect class="cls-1" width="100" height="100"/><path class="cls-2" d="M77.58,48.15a27.58,27.58,0,1,0-55.17,0c0,6.33,7.54,10.07,17,11.61l-.75,12.57a7,7,0,0,0,1.78,4.78c.38.39,2.61,2.32,9.56,2.32s9.18-1.93,9.56-2.32a7,7,0,0,0,1.78-4.79l-.75-12.57C70,58.22,77.58,54.48,77.58,48.15ZM50,24A24.22,24.22,0,0,1,73.46,42.28a4.72,4.72,0,0,0-1.83,2.36c-.26.64-.4,1-1.54,1.47A4.83,4.83,0,0,1,68.31,46a7.88,7.88,0,0,0-3.69,0,6.68,6.68,0,0,0-2.55,1.81,4.86,4.86,0,0,1-1.9,1.39,4.63,4.63,0,0,1-2-.49,7.45,7.45,0,0,0-3.38-.7,6.87,6.87,0,0,0-2.94,1.3,4.78,4.78,0,0,1-2.05,1,4.68,4.68,0,0,1-2-.95A6.73,6.73,0,0,0,44.89,48a7.31,7.31,0,0,0-3.36.71,4.55,4.55,0,0,1-1.92.49,4.75,4.75,0,0,1-1.86-1.38A6.55,6.55,0,0,0,35.24,46a7.75,7.75,0,0,0-3.66,0,4.78,4.78,0,0,1-1.75.12c-1.11-.48-1.24-.82-1.49-1.46a4.67,4.67,0,0,0-1.8-2.4A24.22,24.22,0,0,1,50,24Zm7.94,48.56a3.73,3.73,0,0,1-.76,2.15S55.51,76,50,76s-7.1-1.29-7.12-1.29h0a3.71,3.71,0,0,1-.82-2.21l.74-12.33a70,70,0,0,0,7.21.37,70,70,0,0,0,7.21-.37ZM50,57.17c-13.79,0-24.18-3.88-24.18-9,0-.76,0-1.51.11-2.25a4.66,4.66,0,0,0,2.83,2.71,5.79,5.79,0,0,0,3.26.06,5.74,5.74,0,0,1,2.41-.09,5,5,0,0,1,1.42,1.15,6.64,6.64,0,0,0,3.21,2.11,6.2,6.2,0,0,0,3.44-.62,5.35,5.35,0,0,1,2.11-.54,5.1,5.1,0,0,1,1.72.87,6.51,6.51,0,0,0,3.49,1.39,6.61,6.61,0,0,0,3.51-1.38,5.24,5.24,0,0,1,1.76-.88,5.63,5.63,0,0,1,2.14.54,6.29,6.29,0,0,0,3.47.61,6.75,6.75,0,0,0,3.24-2.1,5.1,5.1,0,0,1,1.46-1.16,5.86,5.86,0,0,1,2.45.1,5.89,5.89,0,0,0,3.28-.06,4.75,4.75,0,0,0,2.93-2.79c.07.77.11,1.55.11,2.34C74.18,53.29,63.79,57.17,50,57.17ZM42.11,31.53a1.7,1.7,0,0,1-.5-1.2,1.72,1.72,0,0,1,.5-1.21,1.76,1.76,0,0,1,2.4,0,1.72,1.72,0,0,1,.5,1.21,1.7,1.7,0,0,1-2.9,1.2Zm6.7-1.74a1.7,1.7,0,0,1,0-2.41,1.76,1.76,0,0,1,2.4,0A1.71,1.71,0,0,1,50,30.29,1.68,1.68,0,0,1,48.81,29.79Zm-2.22,5a1.69,1.69,0,0,1-.5-1.2,1.7,1.7,0,1,1,3.4,0,1.68,1.68,0,0,1-.49,1.2,1.72,1.72,0,0,1-1.21.5A1.7,1.7,0,0,1,46.59,34.81Z"/></g></g></svg>