<svg xmlns="http://www.w3.org/2000/svg" viewBox="0 0 100 100"><defs><style>.cls-1{fill:#acce89;}.cls-2{fill:#fff;}</style></defs><title>olives_icon</title><g id="Layer_2" data-name="Layer 2"><g id="Layer_2-2" data-name="Layer 2"><rect class="cls-1" width="100" height="100"/><path class="cls-2" d="M40.14,65.83a10.74,10.74,0,0,1-3.68,4.23,6,6,0,0,1-3.2,1,5.29,5.29,0,0,1-2.39-.58,1.16,1.16,0,1,1,1-2.08,3.21,3.21,0,0,0,3.31-.3,8.37,8.37,0,0,0,2.84-3.3,1.16,1.16,0,1,1,2.08,1Zm18.08,9.85a1.16,1.16,0,0,0,0,2.33h0c4.3,0,6.57-4.42,6.59-8.79A1.16,1.16,0,0,0,63.67,68h0A1.16,1.16,0,0,0,62.5,69.2c0,2.61-1.16,6.47-4.27,6.47ZM76.59,47.21a1.47,1.47,0,0,1-1.73,1.14A64.66,64.66,0,0,0,62.33,47c-2.66,3-2.82,7-2.71,8.89,5.79.7,9.55,5.69,9.52,12.85,0,9.61-5.51,13.91-10.9,13.91h0c-5.42,0-10.87-4.36-10.83-14,0-7,3.72-12,9.33-12.73a16.23,16.23,0,0,1,2-8.8C50,47.65,44.82,50.39,42.51,52a9.6,9.6,0,0,1,3.64,5.91A14.46,14.46,0,0,1,44.6,67c-2.68,5.35-6.92,8.54-11.34,8.54a9.75,9.75,0,0,1-4.39-1.08c-4.77-2.39-7.68-8.6-3.43-17.07,2.41-4.8,6.38-7.67,10.63-7.67a10,10,0,0,1,3.63.71c2.77-2.26,13.66-9.43,35.74-4.92A1.47,1.47,0,0,1,76.59,47.21ZM43.28,58.44a6.93,6.93,0,0,0-3.88-5,7.39,7.39,0,0,0-3.32-.83c-3.11,0-6.11,2.26-8,6.06-2.41,4.8-2.68,10.73,2.12,13.14a6.84,6.84,0,0,0,3.08.77c3.87,0,7-3.58,8.72-6.93A11.55,11.55,0,0,0,43.28,58.44Zm15,.25c-5.89,0-8,5.35-8,9.93,0,5.49,2.42,11,7.92,11.06h0c5.47,0,7.95-5.52,8-11C66.23,64.09,64.17,58.71,58.29,58.69ZM47.19,33.79c-4.42-7.06-1.87-15-1.75-15.38a1.46,1.46,0,0,1,1.59-1c.35,0,8.66,1.23,13.08,8.29.15.24.27.49.41.73.14-.24.26-.49.41-.73,4.42-7.06,12.73-8.25,13.08-8.29a1.46,1.46,0,0,1,1.59,1c.11.34,2.66,8.32-1.76,15.38S61.1,42,60.75,42.08h-.49C59.91,42,51.61,40.85,47.19,33.79ZM62,30a20.39,20.39,0,0,1,.42,8.72,16,16,0,0,0,8.95-6.45c2.74-4.37,2.22-9.35,1.77-11.64-2.26.59-7,2.3-9.71,6.67a13.25,13.25,0,0,0-1.11,2.21A1.47,1.47,0,0,1,62,30Zm-12.3,2.27c2.74,4.37,7.45,6.08,9.7,6.67.45-2.29,1-7.27-1.76-11.64s-7.45-6.08-9.71-6.67C47.45,22.88,46.93,27.86,49.67,32.23Z"/></g></g></svg>