<svg xmlns="http://www.w3.org/2000/svg" viewBox="0 0 100 100"><defs><style>.cls-1{fill:#ffbe71;}.cls-2{fill:#fff;}</style></defs><title>orange_icon</title><g id="Layer_2" data-name="Layer 2"><g id="Layer_2-2" data-name="Layer 2"><rect class="cls-1" width="100" height="100"/><path class="cls-2" d="M50,17.61A32.39,32.39,0,1,0,82.39,50,32.43,32.43,0,0,0,50,17.61Zm0,61A28.64,28.64,0,1,1,78.64,50,28.67,28.67,0,0,1,50,78.64Zm0-52.36A23.72,23.72,0,1,0,73.72,50,23.74,23.74,0,0,0,50,26.28ZM65.37,63.4l-12-12h17A20.3,20.3,0,0,1,65.37,63.4Zm-35.72-12h17l-12,12A20.31,20.31,0,0,1,29.66,51.4Zm5-14.79,12,12h-17A20.31,20.31,0,0,1,34.63,36.61Zm16.77-7a20.31,20.31,0,0,1,12,5l-12,12Zm-2.8,17-12-12a20.3,20.3,0,0,1,12-5Zm0,6.76v17a20.3,20.3,0,0,1-12-5Zm2.8,0,12,12a20.31,20.31,0,0,1-12,5Zm2-4.78,12-12a20.31,20.31,0,0,1,5,12Z"/></g></g></svg>