<svg xmlns="http://www.w3.org/2000/svg" viewBox="0 0 100 100"><defs><style>.cls-1{fill:#7fd18f;}.cls-2{fill:#fff;}</style></defs><title>other_icon</title><g id="Layer_2" data-name="Layer 2"><g id="Layer_2-2" data-name="Layer 2"><rect class="cls-1" width="100" height="100"/><path class="cls-2" d="M75.33,43.71a8.22,8.22,0,0,0-4.24-2.78,14,14,0,0,0-.37-11.59A8.22,8.22,0,0,0,64.93,25c-.92-7.52-5-17.5-13.58-17.5a11.3,11.3,0,0,0-1.69.13C41.36,8.84,38.94,18,39.36,26.21c-2.16.17-5.69.93-7.66,4-2.29,3.6-1.61,8.52-.93,11.33a12.14,12.14,0,0,0-2.91.74A8.2,8.2,0,0,0,23,47.48c-1.15,3.51-.32,8.2,2.16,12.23,4.88,8,10.46,19.84,2.69,30.11a1.7,1.7,0,0,0-.22.39h0a1.7,1.7,0,0,0,2.15,2.23C70,78.18,76.19,60,77.12,54.74,78,50.06,77.35,46.24,75.33,43.71ZM73.78,54.14C71.49,66.92,55,78.2,37.74,85.67A60,60,0,0,0,50.6,65.05a30.33,30.33,0,0,0,10.76-5.78,1.35,1.35,0,1,0-1.78-2,26.44,26.44,0,0,1-7.8,4.54,81.64,81.64,0,0,0,3.69-16.62c1.63-.76,4.92-2.54,6.67-5.22a1.35,1.35,0,0,0-2.26-1.48A12.09,12.09,0,0,1,55.76,42a48.23,48.23,0,0,0-.26-10.25,1.35,1.35,0,0,0-2.67.41A47.32,47.32,0,0,1,53,42.61a20.58,20.58,0,0,1-6.35-4.34,1.35,1.35,0,0,0-1.94,1.87,22.25,22.25,0,0,0,8,5.22,78.12,78.12,0,0,1-3.89,16.74,41.16,41.16,0,0,1-8.4-7.21,1.35,1.35,0,0,0-2,1.77,42.21,42.21,0,0,0,9.48,8c-3.06,7.72-7.6,15.2-14,20.91C37.87,74,30.71,62.25,28.08,57.93c-1.94-3.16-2.66-6.85-1.83-9.4a4.83,4.83,0,0,1,2.89-3.09,9.34,9.34,0,0,1,3.24-.6l.51,0a1.68,1.68,0,0,0,1.49-.67,1.7,1.7,0,0,0,.24-1.62c-.69-1.86-2-7.37,0-10.53,1.43-2.24,4.57-2.48,5.85-2.48.35,0,.58,0,.61,0a1.7,1.7,0,0,0,1.86-1.87c-.75-7.12.71-15.79,7.28-16.78a7.84,7.84,0,0,1,1.18-.09c6.73,0,9.91,9.68,10.33,15.79a1.77,1.77,0,0,0,1.77,1.58h0A4.72,4.72,0,0,1,67.72,31a10.65,10.65,0,0,1-.65,10.34,1.7,1.7,0,0,0,1.34,2.64,5.48,5.48,0,0,1,4.26,1.9C74,47.55,74.43,50.5,73.78,54.14Z"/></g></g></svg>