<svg xmlns="http://www.w3.org/2000/svg" viewBox="0 0 100 100"><defs><style>.cls-1{fill:#f4e07d;}.cls-2{fill:#fff;}</style></defs><title>parsnip_icon</title><g id="Layer_2" data-name="Layer 2"><g id="Layer_2-2" data-name="Layer 2"><rect class="cls-1" width="100" height="100"/><path class="cls-2" d="M50.05,60.95a1.1,1.1,0,1,1-1.85,1.21,24.89,24.89,0,0,0-4.77-5.24,1.1,1.1,0,1,1,1.41-1.69A27.11,27.11,0,0,1,50.05,60.95Zm31-32.29A5,5,0,0,1,81.68,34a5.3,5.3,0,0,1-2.77,2.49,4.54,4.54,0,0,1-.67,4.6c-1.37,2-4,2.66-6.81,2.66a35.83,35.83,0,0,1-10.23-1.9L58.7,44.33c3.71,4,4.85,8.33,3.39,12.72a18.18,18.18,0,0,1-5.65,8.1c-4.33,3.69-9.79,5.56-15.06,7.36l-.13,0a57.44,57.44,0,0,0-14.39,7.09l-.48.38c-2.06,1.63-4.16,3.15-5.8,3.15a2.07,2.07,0,0,1-1.52-.62l-.24-.24c-1.68-1.68.32-4.54,2.52-7.32l.38-.49A57.36,57.36,0,0,0,28.8,60.1l.05-.15c1.8-5.27,3.66-10.71,7.36-15a18.18,18.18,0,0,1,8.1-5.65c4.29-1.42,8.46-.37,12.42,3.12l2.52-2.52c-1.07-3.25-4-13.73.77-17a4.54,4.54,0,0,1,4.6-.67,5.3,5.3,0,0,1,2.5-2.77,5.05,5.05,0,0,1,5.31.57,8.22,8.22,0,0,1,4.83-2.09,5.59,5.59,0,0,1,4.17,1.76,5.61,5.61,0,0,1,1.76,4.17A8.36,8.36,0,0,1,81.1,28.66ZM56,45.56l-.12-.13-.13-.12c-2.6-2.6-5.18-3.89-7.82-3.89a8.8,8.8,0,0,0-2.79.47,13.84,13.84,0,0,0-2.92,1.37,24.89,24.89,0,0,1,6,4.55,1.1,1.1,0,1,1-1.56,1.56,21,21,0,0,0-6.47-4.62,18.62,18.62,0,0,0-1.94,2c-2.7,3.17-4.38,7.17-5.83,11.24a19.46,19.46,0,0,1,4.93,3.58,1.1,1.1,0,1,1-1.56,1.56,17.32,17.32,0,0,0-4.1-3l-.27.8-.05.15A60.11,60.11,0,0,1,24,76.08c-.09.12-.26.34-.48.63a18.88,18.88,0,0,0-2.4,3.54,18.85,18.85,0,0,0,3.54-2.4l.62-.48a60.18,60.18,0,0,1,15.08-7.44l.13,0c5-1.72,10.22-3.49,14.15-6.85a15.24,15.24,0,0,0,4.82-6.86C60.66,52.54,59.54,49.07,56,45.56Zm21.81-17a1.39,1.39,0,0,1,.46-1c.57-.52,2.05-2.22,2.09-3.85a2.83,2.83,0,0,0-.95-2.12,2.81,2.81,0,0,0-2.12-.94c-1.62,0-3.32,1.53-3.83,2.1a1.39,1.39,0,0,1-1,.46,1.42,1.42,0,0,1-1-.41c-1.08-1.08-2.19-1.41-3.13-.94A2.51,2.51,0,0,0,67,24.36a1.39,1.39,0,0,1-2.36,1.19c-1.62-1.62-2.78-.67-2.9-.56l-.17.13c-2.76,1.8-1.07,9.84.33,14,4.19,1.4,12.24,3.08,14,.33l.13-.17c.24-.29.95-1.4-.56-2.9A1.39,1.39,0,0,1,76.73,34a2.52,2.52,0,0,0,2.47-1.32c.48-.94.14-2.05-.94-3.13A1.38,1.38,0,0,1,77.85,28.58Z"/></g></g></svg>