<svg xmlns="http://www.w3.org/2000/svg" viewBox="0 0 100 100"><defs><style>.cls-1{fill:#f29999;}.cls-2{fill:#fff;}</style></defs><title>peach_icon</title><g id="Layer_2" data-name="Layer 2"><g id="Layer_2-2" data-name="Layer 2"><rect class="cls-1" width="100" height="100"/><path class="cls-2" d="M36,64.36a1.49,1.49,0,1,1-2.22,2c-3.28-3.68-5.3-7-5.29-12.1,0-.24,0-.5,0-.77s0-.31,0-.47a17.81,17.81,0,0,1,1.15-5.32,12.88,12.88,0,0,1,1.27-2.46,1.49,1.49,0,1,1,2.48,1.64,9.89,9.89,0,0,0-1,1.89,14.84,14.84,0,0,0-1,4.44c0,.14,0,.27,0,.4s0,.43,0,.63C31.43,58.43,33.1,61.13,36,64.36Zm36.84,6.39C68.18,76.4,63,79.56,58,82.62c-2.3,1.41-4.68,2.86-7,4.56a1.69,1.69,0,0,1-2,0c-2.35-1.7-4.72-3.15-7-4.56-5-3.06-10.17-6.22-14.81-11.87-6.45-7.86-8.1-17.8-4.41-26.59A18.14,18.14,0,0,1,36.12,33.32,18.37,18.37,0,0,1,48.33,35a18.78,18.78,0,0,1,4.44-11,1.69,1.69,0,1,1,2.61,2.15A15.45,15.45,0,0,0,51.71,35a18.34,18.34,0,0,1,12.17-1.71A18.15,18.15,0,0,1,77.23,44.16C80.92,53,79.27,62.9,72.82,70.75Zm1.3-25.29a15.09,15.09,0,0,0-20.29-7.69c-7.28,3.36-8.7,12-8.71,12.07a1.69,1.69,0,0,1-1.67,1.44l-.25,0a1.69,1.69,0,0,1-1.42-1.92,22,22,0,0,1,5.53-11,15.09,15.09,0,0,0-7.31-2,18.75,18.75,0,0,0-3.28.32,14.73,14.73,0,0,0-10.83,8.82c-3.24,7.73-1.82,16.17,3.91,23.14,4.27,5.21,9,8.08,14,11.13,2,1.25,4.14,2.53,6.25,4,2.12-1.47,4.21-2.76,6.25-4,5-3,9.69-5.92,14-11.13C75.94,61.63,77.36,53.2,74.12,45.47ZM26,17a1.69,1.69,0,0,1,.72-1.62,18,18,0,0,1,9.08-2.91,10.83,10.83,0,0,1,4.41.9c6.35,2.8,7.54,11,7.59,11.33a1.69,1.69,0,0,1-.72,1.62A18,18,0,0,1,38,29.27a10.81,10.81,0,0,1-4.4-.9C27.22,25.57,26,17.38,26,17Zm3.57.61c.49,2,1.91,6.1,5.38,7.64a7.47,7.47,0,0,0,3,.61,13.78,13.78,0,0,0,6.23-1.77c-.49-2-1.91-6.1-5.39-7.63a7.48,7.48,0,0,0-3-.61A13.86,13.86,0,0,0,29.56,17.65Z"/></g></g></svg>