<svg xmlns="http://www.w3.org/2000/svg" viewBox="0 0 100 100"><defs><style>.cls-1{fill:#7fd18f;}.cls-2{fill:#fff;}</style></defs><title>pear_icon</title><g id="Layer_2" data-name="Layer 2"><g id="Layer_2-2" data-name="Layer 2"><rect class="cls-1" width="100" height="100"/><path class="cls-2" d="M33.49,28.29A10.62,10.62,0,0,0,37.4,29a17.64,17.64,0,0,0,9.42-3.29,1.57,1.57,0,0,0,.61-1.54c-.06-.34-1.59-8.43-8-11a10.64,10.64,0,0,0-3.91-.72,17.64,17.64,0,0,0-9.42,3.28,1.57,1.57,0,0,0-.61,1.54C25.55,17.66,27.07,25.76,33.49,28.29Zm2-12.64a7.51,7.51,0,0,1,2.76.5c3.66,1.44,5.26,5.68,5.82,7.61a13.81,13.81,0,0,1-6.69,2.11,7.5,7.5,0,0,1-2.76-.5c-3.66-1.44-5.26-5.68-5.82-7.62A13.81,13.81,0,0,1,35.51,15.64ZM52.89,79.3a1.38,1.38,0,0,1-1.38,1.38,16.74,16.74,0,0,1-14.33-8,1.38,1.38,0,1,1,2.37-1.42,14,14,0,0,0,12,6.65A1.38,1.38,0,0,1,52.89,79.3ZM68.55,50A13.26,13.26,0,0,1,66,45.88c-2-8-5-13.54-13.35-14.17a11.63,11.63,0,0,1,2.17-8.44,1.57,1.57,0,0,0-2.52-1.88A14.79,14.79,0,0,0,49.52,31.7C41.13,32.29,38,37.81,36,45.88A13.26,13.26,0,0,1,33.52,50c-2.52,3.29-6,7.79-6,15.37,0,12.4,10.3,22.12,23.47,22.15h.06c13.16,0,23.47-9.74,23.47-22.15C74.53,57.77,71.08,53.27,68.55,50ZM51,84.36c-11.41,0-20.35-8.35-20.35-19,0-6.51,3-10.36,5.33-13.45,1.42-1.84,2.64-3.44,3.09-5.28C41.24,37.89,44.36,34.79,51,34.78S60.84,37.89,63,46.62c.45,1.84,1.67,3.43,3.09,5.28,2.37,3.09,5.33,6.94,5.33,13.45C71.39,76,62.45,84.35,51,84.36Z"/></g></g></svg>