<svg xmlns="http://www.w3.org/2000/svg" viewBox="0 0 100 100"><defs><style>.cls-1{fill:#6cad73;}.cls-2{fill:#fff;}</style></defs><title>peas_icon</title><g id="Layer_2" data-name="Layer 2"><g id="Layer_2-2" data-name="Layer 2"><rect class="cls-1" width="100" height="100"/><path class="cls-2" d="M75.72,21.35l0,0a1.51,1.51,0,0,0-.19-.23L75.43,21a1.48,1.48,0,0,0-.3-.2l-.09,0-.17-.07c-.38-.11-4-1-11,2.15l-.05,0a11.49,11.49,0,0,0-1.45-.1A11.31,11.31,0,0,0,51.7,30.4l-.07,0c-2.12,1.63-4.33,3.48-6.58,5.49a11.32,11.32,0,0,0-8.42,8.22,95.33,95.33,0,0,0-6.26,7.38,11.32,11.32,0,0,0-6.83,10.38c0,.23,0,.45,0,.67C20.16,70.06,20.92,74.27,21,74.44l0,0a1.5,1.5,0,0,0,.16.41v0a1.54,1.54,0,0,0,.27.33l.06,0h0C24.42,78,29,79.5,34.11,79.5c9.79,0,20.6-5.41,30.42-15.24C87.31,41.49,77,23.35,75.72,21.35Zm-3.91,2.24c-.41.61-1,1.37-1.67,2.31a11.29,11.29,0,0,0-2-1.49A18.7,18.7,0,0,1,71.81,23.59ZM62.37,25.8a8.23,8.23,0,0,1,5.92,2.49c-2.35,2.93-5.81,7-10.86,12.43A8.28,8.28,0,0,1,62.37,25.8ZM51.31,36.29a11.17,11.17,0,0,0-1.58-.43l1.38-1.15A11.16,11.16,0,0,0,51.31,36.29Zm-3.74,2.37A8.31,8.31,0,0,1,55,43.3c-1.83,1.94-3.84,4-6.05,6.3-1.72,1.76-3.32,3.37-4.84,4.87a8.29,8.29,0,0,1,3.45-15.82ZM37,50.81a11.3,11.3,0,0,0-2-.2q.72-.87,1.48-1.74A11.18,11.18,0,0,0,37,50.81Zm-2.11,2.81A8.29,8.29,0,0,1,41.53,57c-5.36,5.18-9.36,8.66-12.29,11a8.28,8.28,0,0,1,5.6-14.38Zm-8,16.24c-1.22.89-2.16,1.5-2.86,1.92a21.71,21.71,0,0,1,1-4.44A11.24,11.24,0,0,0,26.81,69.86Zm35.59-7.73C49.92,74.62,39.32,76.48,34.11,76.48a17.87,17.87,0,0,1-8.76-2.06c3.53-2.08,11.08-7.68,25.76-22.71,2.46-2.52,4.68-4.84,6.68-7l.06-.07C67.8,34.09,72.32,28.2,74.33,25.25,76.62,30.71,79.75,44.78,62.41,62.13ZM47.8,60.3A11.68,11.68,0,0,1,48.08,68a1.2,1.2,0,0,1-1.16.89,1.24,1.24,0,0,1-.31,0,1.2,1.2,0,0,1-.85-1.46,9.38,9.38,0,0,0-.12-6.08,1.2,1.2,0,0,1,2.15-1ZM60.87,46.44a13,13,0,0,1,.57,8,1.2,1.2,0,0,1-2.31-.62,10.75,10.75,0,0,0-.45-6.4,1.2,1.2,0,0,1,2.19-1ZM29.67,64.06a1.2,1.2,0,0,1-1.15-.85,5.89,5.89,0,0,1,2.7-6.81,1.2,1.2,0,0,1,1.19,2.08,3.5,3.5,0,0,0-1.61,4A1.2,1.2,0,0,1,30,64,1.23,1.23,0,0,1,29.67,64.06Zm11.4-17.48a5.9,5.9,0,0,1,3-5.1,1.2,1.2,0,0,1,1.19,2.08,3.5,3.5,0,0,0-1.61,4,1.2,1.2,0,0,1-.8,1.49,1.18,1.18,0,0,1-.35.05,1.2,1.2,0,0,1-1.15-.85A5.88,5.88,0,0,1,41.08,46.58ZM57.14,36.43A1.2,1.2,0,0,1,56,35.58a5.89,5.89,0,0,1,2.7-6.81,1.2,1.2,0,0,1,1.19,2.08,3.5,3.5,0,0,0-1.6,4,1.2,1.2,0,0,1-1.15,1.54Z"/></g></g></svg>