<svg xmlns="http://www.w3.org/2000/svg" viewBox="0 0 100 100"><defs><style>.cls-1{fill:#f4e07d;}.cls-2{fill:#fff;}</style></defs><title>pineapple_icon</title><g id="Layer_2" data-name="Layer 2"><g id="Layer_2-2" data-name="Layer 2"><rect class="cls-1" width="100" height="100"/><path class="cls-2" d="M72.69,60.1V60a35.23,35.23,0,0,0-3.43-11.94,18.47,18.47,0,0,0-3.77-5,22.8,22.8,0,0,0,7.7-12.65A1.61,1.61,0,0,0,72,28.85a19,19,0,0,0-7.68-.42,16.74,16.74,0,0,0-.35-9.52,1.61,1.61,0,0,0-1.52-1.07,15.35,15.35,0,0,0-5.9,2.45,16.05,16.05,0,0,0-5.57-10l-.11-.07-.06,0-.21-.1-.08,0-.2-.05-.12,0h-.34l-.12,0-.2.05-.08,0-.21.1-.06,0-.11.07a16.05,16.05,0,0,0-5.57,10,15.35,15.35,0,0,0-5.9-2.45,1.61,1.61,0,0,0-1.52,1.07,16.74,16.74,0,0,0-.35,9.52,19,19,0,0,0-7.68.42,1.61,1.61,0,0,0-1.21,1.56c0,.81,1.67,7.65,7.7,12.65a18.57,18.57,0,0,0-3.77,5A35.31,35.31,0,0,0,27.31,60v.07l-.07.51a34.44,34.44,0,0,0,.59,12.45l0,.13C30.49,83.8,38.52,89.92,49.89,90h.23c11.36-.08,19.39-6.21,22-16.81a1.2,1.2,0,0,0,0-.12,34.45,34.45,0,0,0,.59-12.48ZM30.75,71.34a31.42,31.42,0,0,1-.39-9.58l6,5a1.2,1.2,0,0,0,1.55,0L43.56,62l5.66,4.78a1.2,1.2,0,0,0,1.55,0L56.44,62l5.67,4.78a1.2,1.2,0,0,0,1.55,0l6-5a31.39,31.39,0,0,1-.41,9.68l-.11.06L63.3,76.41,57.48,71.5a1.23,1.23,0,0,0-1.59,0l-5.82,4.9-5.81-4.9a1.23,1.23,0,0,0-1.59,0l-5.82,4.9L31,71.5A1.17,1.17,0,0,0,30.75,71.34Zm-.31-39.71a17,17,0,0,1,7.19.51A1.61,1.61,0,0,0,39.57,30a15,15,0,0,1-.89-8.53,14.26,14.26,0,0,1,5,3.14,1.61,1.61,0,0,0,2.74-1.15A13.91,13.91,0,0,1,50,13.8a14,14,0,0,1,3.57,9.64,1.61,1.61,0,0,0,2.74,1.15,14.28,14.28,0,0,1,5-3.13A15,15,0,0,1,60.43,30a1.61,1.61,0,0,0,1.95,2.14,17,17,0,0,1,7.19-.51,20.26,20.26,0,0,1-6.72,9.43,17.51,17.51,0,0,0-1.68-.92,19.76,19.76,0,0,0-3.4-1.2L59.54,36a1.2,1.2,0,0,0-2.05-1.25l-2.23,3.68a33.79,33.79,0,0,0-4-.36V31.13a1.2,1.2,0,0,0-2.4,0v6.94a34.14,34.14,0,0,0-4,.34l-2.22-3.66A1.2,1.2,0,0,0,40.6,36l1.77,2.91A19.82,19.82,0,0,0,39.09,40a17.41,17.41,0,0,0-1.92,1A20.24,20.24,0,0,1,30.44,31.63ZM40.41,43a23.3,23.3,0,0,1,9.48-1.71h.21a23.14,23.14,0,0,1,9.69,1.79A13.88,13.88,0,0,1,66,48.85l-3.78,3.36L56.9,47.49a1.2,1.2,0,0,0-1.6,0L50,52.21l-5.3-4.72a1.2,1.2,0,0,0-1.6,0l-5.3,4.72L34,48.85A13.81,13.81,0,0,1,40.41,43Zm-7.52,8.1L37,54.72a1.2,1.2,0,0,0,1.6,0L43.89,50l5.3,4.72a1.2,1.2,0,0,0,1.6,0L56.1,50l5.31,4.72a1.2,1.2,0,0,0,1.6,0l4.1-3.65a34,34,0,0,1,2.21,8.19,1.18,1.18,0,0,0-.77.27l-5.67,4.78-5.67-4.78a1.2,1.2,0,0,0-1.55,0L50,64.31l-5.66-4.78a1.2,1.2,0,0,0-1.55,0l-5.67,4.78-5.66-4.78a1.18,1.18,0,0,0-.77-.27A34.16,34.16,0,0,1,32.89,51.07ZM50.1,86.78h-.2c-8.72-.06-15-4-17.9-11.24L36.06,79a1.23,1.23,0,0,0,1.59,0l5.82-4.9L49.28,79a1.23,1.23,0,0,0,1.59,0l5.82-4.91L62.51,79a1.23,1.23,0,0,0,1.59,0l3.83-3.23C65,82.83,58.75,86.72,50.1,86.78Z"/></g></g></svg>