<svg xmlns="http://www.w3.org/2000/svg" viewBox="0 0 100 100"><defs><style>.cls-1{fill:#897099;}.cls-2{fill:#fff;}</style></defs><title>plum_icon</title><g id="Layer_2" data-name="Layer 2"><g id="Layer_2-2" data-name="Layer 2"><rect class="cls-1" width="100" height="100"/><path class="cls-2" d="M69.94,42.64a18.86,18.86,0,0,0-13.9-6,22.59,22.59,0,0,0-6,.85,22.59,22.59,0,0,0-6-.85,18.85,18.85,0,0,0-13.9,6c-4.48,4.77-6.66,11.82-6.15,19.84C24.83,77,34.83,86,50,86s25.17-9,26.09-23.52C76.6,54.45,74.41,47.41,69.94,42.64ZM27.21,62.27c-.45-7.1,1.42-13.27,5.26-17.36A15.38,15.38,0,0,1,44,40a18.14,18.14,0,0,1,2.23.15c-4.75,3.73-8,11-8.51,19.56-.47,7.5,1.31,16.66,7.17,22.56C34.52,80.46,27.9,73.15,27.21,62.27Zm45.58,0c-.8,12.57-9.5,20.39-22.7,20.42-7.73-4.7-10-14.78-9.5-22.82.57-9.2,4.57-16.81,9.95-18.94a1.46,1.46,0,0,0,.35-.21A19.35,19.35,0,0,1,56,40,15.38,15.38,0,0,1,67.53,44.9C71.37,49,73.24,55.17,72.79,62.27ZM50.56,35.35h.18c.31,0,7.58-.89,10.28-6.49S59.87,17,59.7,16.77A1.65,1.65,0,0,0,58.12,16c-.31,0-7.58.9-10.27,6.49S49,34.31,49.16,34.58A1.65,1.65,0,0,0,50.56,35.35Zm.26-11.41c1.39-2.88,4.83-4,6.59-4.44.78,1.63,2,5,.63,7.92s-4.84,4-6.6,4.43C50.67,30.23,49.43,26.84,50.83,23.94Z"/></g></g></svg>