<svg xmlns="http://www.w3.org/2000/svg" viewBox="0 0 100 100"><defs><style>.cls-1{fill:#ba9873;}.cls-2{fill:#fff;}</style></defs><title>potato_icon</title><g id="Layer_2" data-name="Layer 2"><g id="Layer_2-2" data-name="Layer 2"><rect class="cls-1" width="100" height="100"/><path class="cls-2" d="M80.19,36.63c0-.48,0-1-.09-1.42-1.09-12-10.88-20.3-23.8-20.3C45.65,14.91,41,22.08,37,28.4c-1,1.55-1.94,3-3,4.4-1.36,1.84-2.76,3.57-4.11,5.24-1.75,2.16-3.55,4.4-5.3,6.87a25.17,25.17,0,0,0-4.82,15.37c0,15.53,13,24.8,25.59,24.8A25.92,25.92,0,0,0,58,81.82a34.76,34.76,0,0,0,8.34-6.69C75.22,65.55,80.65,50.44,80.19,36.63ZM68.56,67a15.7,15.7,0,0,1-4.17-.65,1.26,1.26,0,0,0-.94,2.35,14.17,14.17,0,0,0,3.49.72A39.57,39.57,0,0,1,64,73,31.56,31.56,0,0,1,56.45,79a22.73,22.73,0,0,1-11.08,2.86c-11,0-22.39-8.09-22.4-21.62A22.17,22.17,0,0,1,27.2,46.75c1.07-1.52,2.15-2.92,3.25-4.31a32.87,32.87,0,0,0,8.11,5.31,1.26,1.26,0,0,0,1-2.32,30.7,30.7,0,0,1-7.53-5l.33-.41c1.37-1.7,2.79-3.45,4.19-5.34,1.09-1.47,2.11-3,3.09-4.58,2.24-3.49,4.41-6.86,7.48-9.15a13,13,0,0,0,4.63,3.56,1.26,1.26,0,1,0,1.14-2.26,11.13,11.13,0,0,1-3.61-2.64,15.33,15.33,0,0,1,7-1.54c11.21,0,19.69,7.16,20.63,17.41q.06.61.08,1.23A55.37,55.37,0,0,1,68.56,67ZM51.48,70.09a1.26,1.26,0,0,1-1.23,1A1.23,1.23,0,0,1,50,71c-7.15-1.67-10.92-4.68-11.08-4.8a1.26,1.26,0,0,1,1.59-2,27.35,27.35,0,0,0,10.07,4.31A1.26,1.26,0,0,1,51.48,70.09Zm19.87-28.6a1.26,1.26,0,0,1-1.17,1.35q-.69.05-1.34,0a16.9,16.9,0,0,1-8.71-2.29,1.26,1.26,0,0,1,1.39-2.11A14.93,14.93,0,0,0,70,40.32,1.26,1.26,0,0,1,71.36,41.49ZM38,62.41a1.21,1.21,0,0,1,.37.89,1.26,1.26,0,1,1-2.53,0,1.22,1.22,0,0,1,.37-.89A1.28,1.28,0,0,1,38,62.41ZM55.91,23.85a1.27,1.27,0,0,1,.37.89A1.25,1.25,0,0,1,55,26a1.26,1.26,0,0,1-1.27-1.26,1.28,1.28,0,0,1,.37-.89A1.31,1.31,0,0,1,55.91,23.85Z"/></g></g></svg>