<svg xmlns="http://www.w3.org/2000/svg" viewBox="0 0 100 100"><defs><style>.cls-1{fill:#ffbe71;}.cls-2{fill:#fff;}</style></defs><title>pumpkin_icon</title><g id="Layer_2" data-name="Layer 2"><g id="Layer_2-2" data-name="Layer 2"><rect class="cls-1" width="100" height="100"/><path class="cls-2" d="M59.7,31.94a28.75,28.75,0,0,0-8.28,1.28c.13-2.43.69-6,2.36-7.72a3.3,3.3,0,0,1,2.5-1.06,1.4,1.4,0,1,0,0-2.79,6,6,0,0,0-4.52,1.93c-2.43,2.55-3,7.08-3.13,9.68A28.88,28.88,0,0,0,40.56,32c-14,0-23.78,11.14-23.78,27.1,0,18.19,12.73,29.49,33.22,29.49s33.22-11.3,33.22-29.49C83.22,43.12,73.54,31.94,59.7,31.94ZM59,85a41.76,41.76,0,0,1-4.39.63c2.88-3.48,5.6-10.77,5.6-24.55,0-15.48-3.49-22.72-6.75-25.54.72-.18,1.44-.34,2.15-.46,5.59.66,14.62,6.68,14.62,26.11C70.21,77.49,61.72,83.49,59,85Zm-9,.84-1,0c-2.38-1.26-7-6.94-7-24.74,0-20.62,6.29-24.83,8-24.83s8,4.21,8,24.83c0,17.81-4.61,23.48-7,24.74ZM40.85,85C38,83.5,29.79,77.83,29.79,61.2c0-19.21,8.82-25.3,14.43-26.08.77.12,1.54.28,2.32.47-3.25,2.84-6.72,10.08-6.72,25.51,0,13.78,2.72,21.07,5.6,24.55A41.56,41.56,0,0,1,40.85,85ZM19.57,59.15c0-13.48,7.66-23.13,18.88-24.21C33,38.24,27.57,45.86,27.57,61.2c0,11.58,3.8,18.27,7.38,22C25.12,79.2,19.57,70.82,19.57,59.15ZM64.65,83.36c3.68-3.77,7.78-10.56,7.78-22.16,0-15.57-5.63-23.19-11.14-26.41,11.34.84,19.13,10.61,19.13,24.36C80.42,71,74.73,79.42,64.65,83.36ZM33,18.65a3.44,3.44,0,0,0,.36,3.23,3.8,3.8,0,0,0,1.75,1.37,3.33,3.33,0,0,0,1.07,2.63,4.65,4.65,0,0,0,3.51,1.27c3.07,0,6.63-1.72,7.57-2.2a1.44,1.44,0,0,0,.75-1c.27-1.49,1.43-9-2.32-10.87a3.32,3.32,0,0,0-2.82-.26,3.81,3.81,0,0,0-1.82-1.28,3.44,3.44,0,0,0-3.2.59,5.35,5.35,0,0,0-3.11-.72,4,4,0,0,0-3.33,4.49A5.3,5.3,0,0,0,33,18.65Zm1.39-4a1,1,0,0,1,.68-.45,3.5,3.5,0,0,1,2.08.81,1.4,1.4,0,0,0,2-.25c.35-.48.71-.66,1-.55a1,1,0,0,1,.67.83,1.4,1.4,0,0,0,2.52.81c.22-.3.5-.57.85-.37l.18.1c1.26.59,1.36,4.36,1,7.21C42.76,24,39.13,25,38.2,23.94l-.12-.11c-.33-.31-.14-.65.07-.95A1.4,1.4,0,0,0,37,20.65a1.42,1.42,0,0,0-.38.05,1,1,0,0,1-1-.41c-.2-.29-.13-.68.23-1.16a1.4,1.4,0,0,0-.35-2,3.5,3.5,0,0,1-1.39-1.74A1,1,0,0,1,34.39,14.62Z"/></g></g></svg>