<svg xmlns="http://www.w3.org/2000/svg" viewBox="0 0 100 100"><defs><style>.cls-1{fill:#db8ab3;}.cls-2{fill:#fff;}</style></defs><title>radish_icon</title><g id="Layer_2" data-name="Layer 2"><g id="Layer_2-2" data-name="Layer 2"><rect class="cls-1" width="100" height="100"/><path class="cls-2" d="M33,63a.81.81,0,1,1-1.23,1.05,14.07,14.07,0,0,0-4.26-3.24.81.81,0,0,1,.67-1.47A15.48,15.48,0,0,1,33,63Zm3.39,8.86A.81.81,0,1,0,35.29,73a12.39,12.39,0,0,1,2.33,3.53.81.81,0,1,0,1.49-.63A13.93,13.93,0,0,0,36.43,71.88ZM86.22,39.67A8,8,0,0,1,81,45.89a7,7,0,0,1,.34,4.6c-.45,1.67-1.93,4.66-6.86,6a14.93,14.93,0,0,1-3.87.47c-7.15,0-15.7-4-19-6.32L45.23,57a16.27,16.27,0,0,1,4.18,9.46,13.47,13.47,0,0,1-4.16,10.7,17.34,17.34,0,0,1-3.41,2.61,15.19,15.19,0,0,1-14.38.35c-1.27-.64-2-.53-3.71.18-.52.21-2.55,1.27-3.7,1.89a1.38,1.38,0,0,1-1.9-1.79c.41-.88,1.53-3.31,1.77-3.92.79-2,.88-2.41.26-3.64a15.18,15.18,0,0,1,.35-14.38,17.31,17.31,0,0,1,2.61-3.4c5.65-5.65,13.76-5.59,20.12,0l6.33-6.34c-2.73-3.67-8.12-15.38-6-23.13,1.33-4.93,4.32-6.42,6-6.86a7,7,0,0,1,4.6.34,8,8,0,0,1,6.21-5.23,7.45,7.45,0,0,1,7.26,3.25,8.18,8.18,0,0,1,6.57-.32,6,6,0,0,1,3.73,5.36,6,6,0,0,1,5.36,3.73A8.18,8.18,0,0,1,83,32.42,7.45,7.45,0,0,1,86.22,39.67ZM73.86,33.08a1.38,1.38,0,0,1,.45-1s2.51-2.31,2.57-4.77a3.63,3.63,0,0,0-1.21-2.73A3.62,3.62,0,0,0,73,23.39c-2.45.06-4.73,2.57-4.75,2.59a1.38,1.38,0,0,1-1,.46,1.33,1.33,0,0,1-1-.4c-1.37-1.38-2.81-1.79-4-1.17a3.24,3.24,0,0,0-1.72,3.23,1.38,1.38,0,0,1-2.33,1.18c-2-2-3.56-.9-3.85-.66l-.15.12c-3.39,2.21-2.73,12.41-1.45,18.9,6.49,1.28,16.7,1.93,18.9-1.45l.13-.17c.23-.27,1.35-1.82-.67-3.83a1.38,1.38,0,0,1,1.18-2.33,3.23,3.23,0,0,0,3.23-1.72c.62-1.23.21-2.67-1.16-4A1.37,1.37,0,0,1,73.86,33.08ZM49.1,42.17c-.54-5.66-.41-13.08,3.43-15.68A5.12,5.12,0,0,1,58,25.84a6,6,0,0,1,2.94-3.42,5.78,5.78,0,0,1,6.21.79,9.75,9.75,0,0,1,5.73-2.57,6,6,0,0,1,2,.27,3.13,3.13,0,0,0-1.66-1.6,5.65,5.65,0,0,0-5.25.76,1.38,1.38,0,0,1-2-.51c-1.13-2.21-3-3.34-5.14-3s-4,2.28-4.46,4.93a1.38,1.38,0,0,1-2.33.74,3.94,3.94,0,0,0-3.73-.84c-1.89.51-3.32,2.25-4,4.92C45,31,47,37.52,49.1,42.17ZM46.66,66.65A13.87,13.87,0,0,0,42.41,58l0,0,0,0C37,52.59,29.91,52.22,25.11,57a14.49,14.49,0,0,0-2.18,2.85,11.63,11.63,0,0,0-1,2.34,13.52,13.52,0,0,1,3.53,2.16.81.81,0,1,1-1.06,1.22,11.8,11.8,0,0,0-2.86-1.79,12.61,12.61,0,0,0,1.16,7.81c1.17,2.32.7,3.75-.17,5.9L22.3,78l.42-.19A8.49,8.49,0,0,1,26,77a6,6,0,0,1,2.75.72,12.42,12.42,0,0,0,11.75-.27,14.49,14.49,0,0,0,2.85-2.18A10.79,10.79,0,0,0,46.66,66.65ZM80.48,34.12a1.38,1.38,0,0,1-.51-2,5.65,5.65,0,0,0,.76-5.25,3.11,3.11,0,0,0-1.42-1.57,6,6,0,0,1,.32,2.1,9.79,9.79,0,0,1-2.55,5.75,5.79,5.79,0,0,1,.79,6.22,6,6,0,0,1-3.42,2.94,5.13,5.13,0,0,1-.65,5.46c-1.94,2.86-6.55,3.66-11.11,3.66-1.43,0-2.85-.08-4.19-.2,4.6,2,10.8,3.78,15.24,2.59,2.67-.72,4.42-2.15,4.92-4A4,4,0,0,0,77.84,46a1.38,1.38,0,0,1,.73-2.33c2.66-.47,4.59-2.22,4.93-4.46C83.82,37.17,82.69,35.25,80.48,34.12Z"/></g></g></svg>