<svg xmlns="http://www.w3.org/2000/svg" viewBox="0 0 100 100"><defs><style>.cls-1{fill:#b7586c;}.cls-2{fill:#fff;}</style></defs><title>red_spicy_pepper_icon</title><g id="Layer_2" data-name="Layer 2"><g id="Layer_2-2" data-name="Layer 2"><rect class="cls-1" width="100" height="100"/><path class="cls-2" d="M72.6,16.85a6.83,6.83,0,0,0-5.26,1.3c-4.1,3-6.06,10.21-6.74,13.42a14.75,14.75,0,0,0-2.09-.2h-.3c-7.55,0-12.32,5.63-13.46,15.85S38.53,66.14,31.12,70.82l-.26.16c-1.64,1-3.69,2.33-4.5,4.66a5.45,5.45,0,0,0,1.78,6.22A8,8,0,0,0,33,83.25a21,21,0,0,0,3.33-.32A43.68,43.68,0,0,0,43.81,81a39.08,39.08,0,0,0,14.8-9c6.47-6.44,13.25-17.9,12.85-27.84a17.63,17.63,0,0,0-.91-4.95,11.39,11.39,0,0,0-6.83-6.82c.69-3.31,2.49-9.47,5.52-11.66A3.65,3.65,0,0,1,72.09,20a1.62,1.62,0,1,0,.52-3.19ZM67.49,40.28a14.37,14.37,0,0,1,.74,4c.36,9-5.91,19.46-11.9,25.42A35.88,35.88,0,0,1,42.73,78a40.52,40.52,0,0,1-6.94,1.77A18.14,18.14,0,0,1,33,80,4.9,4.9,0,0,1,30,79.24a2.29,2.29,0,0,1-.62-2.53c.44-1.27,1.77-2.1,3.17-3l.26-.17c8.23-5.21,13.88-14.92,15.11-26,1-8.61,4.4-13,10.25-13h.24C62,34.66,66.19,36.45,67.49,40.28ZM54.25,64.87C58.82,60.14,64,52,63.77,44.75A1.28,1.28,0,0,1,65,43.41a1.3,1.3,0,0,1,1.33,1.23c.31,8.08-5.08,16.66-10.24,22a1.28,1.28,0,1,1-1.85-1.78Z"/></g></g></svg>