<svg xmlns="http://www.w3.org/2000/svg" viewBox="0 0 100 100"><defs><style>.cls-1{fill:#f34e55;}.cls-2{fill:#fff;}</style></defs><title>red_bell_pepper_icon</title><g id="Layer_2" data-name="Layer 2"><g id="Layer_2-2" data-name="Layer 2"><rect class="cls-1" width="100" height="100"/><path class="cls-2" d="M71,34.44a14.29,14.29,0,0,0-4.19-1.18A15.87,15.87,0,0,0,70.5,27.7a1.6,1.6,0,0,0-.76-2c-.32-.16-7.29-3.63-14.26-1.27a20.66,20.66,0,0,1,1.29-7,1.62,1.62,0,0,0,.09-.64c-.11-2-1.82-3.65-4.35-4.11s-5.57.33-6.74,3a22.77,22.77,0,0,0-1.63,8.67c-7.18-2.22-13.72,1.16-14,1.32a1.6,1.6,0,0,0-.71,2.07,18.45,18.45,0,0,0,3.7,5.5A14.24,14.24,0,0,0,29,34.44c-8.94,4.24-7.9,14.39-7.22,21.11A62.65,62.65,0,0,0,23,63c.11.5.23,1,.35,1.61C25,72.14,27.72,84.7,37.84,84.7h.08a17,17,0,0,0,3.48-.37,12.1,12.1,0,0,0,8.3,3.1h.24a.88.88,0,0,0,.22,0,12.07,12.07,0,0,0,8.32-3.13,16.92,16.92,0,0,0,3.61.39h.08C72.28,84.7,75,72.13,76.63,64.62c.12-.57.24-1.11.35-1.61a62.4,62.4,0,0,0,1.25-7.46C78.92,48.83,80,38.68,71,34.44ZM45.12,28.2a1.6,1.6,0,0,0,2.29-1.61A21.67,21.67,0,0,1,48.69,17c.46-1.06,2-1.38,3.25-1.16a2.31,2.31,0,0,1,1.67.93,21.84,21.84,0,0,0-1.14,10.32,1.6,1.6,0,0,0,2.32,1.11c4.51-2.41,9.64-1.11,12.07-.23a11.73,11.73,0,0,1-6,5.48c-.25-.19-.5-.36-.76-.53-2.74-1.75-6.55-1.87-10.19-1.84s-7.47.09-10.21,1.84c-.26.17-.52.34-.76.53-.68-.23-3.6-1.45-5.9-5.52C35.42,27.05,40.33,25.84,45.12,28.2Zm29.93,27a59,59,0,0,1-1.19,7.08c-.12.51-.23,1.06-.36,1.64-1.93,8.89-4.39,17.56-11.35,17.56H62.1a15.12,15.12,0,0,1-1.79-.12c1.83-2.8,3.15-6.61,4.06-11.78a93.43,93.43,0,0,0,1.45-12.45,1.41,1.41,0,0,0-1.33-1.48A1.39,1.39,0,0,0,63,57a90.5,90.5,0,0,1-1.4,12.1C60.56,75,59,79,56.72,81.48a1.22,1.22,0,0,0-.12.19,8.82,8.82,0,0,1-6.45,2.57h-.44a8.85,8.85,0,0,1-6.44-2.55,1.33,1.33,0,0,0-.13-.21c-2.25-2.44-3.86-6.49-4.9-12.39a1.41,1.41,0,1,0-2.78.49c.92,5.19,2.24,9,4.08,11.81a14.79,14.79,0,0,1-1.65.1h-.05c-7,0-9.42-8.67-11.35-17.56-.13-.58-.25-1.13-.36-1.64a59.55,59.55,0,0,1-1.19-7.08c-.67-6.52-1.5-14.63,5.41-17.9a12.68,12.68,0,0,1,6.39-1C33.6,40.83,33.72,47,33.83,52v.33c.06,2.85.19,5.43.39,7.88a1.41,1.41,0,0,0,1.4,1.29h.12A1.41,1.41,0,0,0,37,60c-.2-2.39-.32-4.91-.38-7.71V52c-.12-5.32-.26-11.95,3.79-15.59a1.23,1.23,0,0,0,.07-.1,9.66,9.66,0,0,1,.92-.68c2-1.28,5.42-1.36,8.5-1.34s6.47.06,8.48,1.34a9.22,9.22,0,0,1,.9.67s0,.05.06.08c2.33,2.07,3.53,5.29,3.8,10.11a1.41,1.41,0,0,0,1.41,1.33h.08A1.41,1.41,0,0,0,66,46.3c-.16-2.86-.65-6.75-2.87-9.94a12.91,12.91,0,0,1,6.53,1C76.55,40.6,75.72,48.71,75.05,55.23ZM65.57,49A1.42,1.42,0,0,1,66,50a1.41,1.41,0,0,1-.41,1,1.42,1.42,0,0,1-1,.41A1.41,1.41,0,0,1,63.16,50a1.42,1.42,0,0,1,.41-1A1.45,1.45,0,0,1,65.57,49Zm-18.67-11a1.27,1.27,0,0,1-1.14,1.39c-3.94.39-3.64,8.74-3.5,12.75,0,.56,0,1.06,0,1.48A1.27,1.27,0,0,1,41.06,55h0a1.27,1.27,0,0,1-1.27-1.25c0-.41,0-.89,0-1.43-.19-5.15-.53-14.73,5.78-15.37A1.27,1.27,0,0,1,46.9,38.07Z"/></g></g></svg>