<svg xmlns="http://www.w3.org/2000/svg" viewBox="0 0 100 100"><defs><style>.cls-1{fill:#f34e55;}.cls-2{fill:#fff;}</style></defs><title>red_apple_icon</title><g id="Layer_2" data-name="Layer 2"><g id="Layer_2-2" data-name="Layer 2"><rect class="cls-1" width="100" height="100"/><path class="cls-2" d="M33.56,31.12a10.82,10.82,0,0,0,4,.74,17.91,17.91,0,0,0,9.56-3.33,1.69,1.69,0,0,0,.65-1.65c-.06-.35-1.61-8.56-8.14-11.13a10.81,10.81,0,0,0-4-.74,17.9,17.9,0,0,0-9.56,3.33A1.69,1.69,0,0,0,25.43,20C25.49,20.33,27,28.55,33.56,31.12Zm2.07-12.74a7.47,7.47,0,0,1,2.75.5c3.6,1.42,5.2,5.56,5.78,7.52a13.75,13.75,0,0,1-6.62,2.07A7.47,7.47,0,0,1,34.8,28c-3.6-1.42-5.2-5.57-5.78-7.53A13.66,13.66,0,0,1,35.63,18.38ZM78.81,55.16v-.1c0-.2,0-.4,0-.58a23.9,23.9,0,0,0-1.87-7.83,19,19,0,0,0-13-10.85,19.09,19.09,0,0,0-12.31,1.1,14.2,14.2,0,0,1,3.51-10.21,1.69,1.69,0,0,0-2.61-2.15,17.78,17.78,0,0,0-4.29,12.29,19.14,19.14,0,0,0-7.59-1.58,18.92,18.92,0,0,0-4.49.54,18,18,0,0,0-11,7.28,18.25,18.25,0,0,0-2.06,3.58,23.85,23.85,0,0,0-1.87,7.81c0,.18,0,.36,0,.54v.23c0,.36,0,.72,0,1.08C21.23,67.64,29,79.08,39.33,82.9A31.74,31.74,0,0,0,49.84,85H50c11.55-.11,22.79-7.86,26.73-18.45a31,31,0,0,0,2.1-10.26C78.84,55.94,78.83,55.58,78.81,55.16ZM73.57,65.37C70.1,74.69,60.18,81.52,50,81.62h-.14a28.66,28.66,0,0,1-9.33-1.89c-8.89-3.3-15.9-13.61-16-23.46,0-.3,0-.61,0-.94v-.18c0-.14,0-.28,0-.45A20.51,20.51,0,0,1,26.21,48,15,15,0,0,1,27.9,45a14.51,14.51,0,0,1,9-6,15.68,15.68,0,0,1,3.74-.45,16.13,16.13,0,0,1,8.21,2.28L49,41l.28.13a1.69,1.69,0,0,0,1.51,0L51,41l.13-.07a15.79,15.79,0,0,1,12-1.82,14.5,14.5,0,0,1,9,6A14.86,14.86,0,0,1,73.79,48a20.54,20.54,0,0,1,1.61,6.75c0,.17,0,.33,0,.49v.14c0,.3,0,.61,0,.93A27.5,27.5,0,0,1,73.57,65.37ZM36.21,67.59a1.49,1.49,0,1,1-2.22,2,20.06,20.06,0,0,1-5.12-13.18c0-.22,0-.45,0-.68v-.15c0-.13,0-.25,0-.38A17.08,17.08,0,0,1,30,50.06a12.47,12.47,0,0,1,1.23-2.38,1.49,1.49,0,0,1,2.48,1.64,9.44,9.44,0,0,0-.94,1.81,14.16,14.16,0,0,0-.92,4.26c0,.11,0,.21,0,.3v.1c0,.23,0,.41,0,.6A17,17,0,0,0,36.21,67.59Z"/></g></g></svg>