<svg xmlns="http://www.w3.org/2000/svg" viewBox="0 0 100 100"><defs><style>.cls-1{fill:#dd7ca8;}.cls-2{fill:#fff;}</style></defs><title>red_onion_icon</title><g id="Layer_2" data-name="Layer 2"><g id="Layer_2-2" data-name="Layer 2"><rect class="cls-1" width="100" height="100"/><path class="cls-2" d="M79.21,56.26A26.56,26.56,0,0,0,76.73,45c-2.58-5.39-6.62-9.44-10.54-13.36C62,27.47,58,23.51,55.66,18l-.16-.36c-.79-1.85-2.1-4.94-5.5-4.94s-4.71,3.09-5.5,4.94l-.16.36C42,23.51,38,27.47,33.81,31.66c-3.92,3.92-8,8-10.54,13.36a26.58,26.58,0,0,0-2.48,11.24c0,12.34,7.93,22.26,19.55,25.82L39.6,84a1.43,1.43,0,1,0,2.68,1l.86-2.22q1.26.26,2.57.43l-.26,2.51a1.43,1.43,0,0,0,1.28,1.57h.15A1.43,1.43,0,0,0,48.3,86l.26-2.57c.47,0,1,0,1.43,0s1,0,1.43,0L51.7,86a1.44,1.44,0,0,0,1.43,1.29h.15a1.43,1.43,0,0,0,1.28-1.57l-.26-2.51c.87-.11,1.73-.26,2.57-.43L57.72,85a1.43,1.43,0,1,0,2.68-1l-.73-1.9C71.28,78.52,79.21,68.6,79.21,56.26ZM50,80.24c-15,0-26-10.09-26-24a23.59,23.59,0,0,1,2.17-9.84c2.34-4.89,6-8.57,9.91-12.47,4.22-4.22,8.58-8.59,11.21-14.67l.16-.38c.87-2,1.44-3,2.51-3s1.64.91,2.51,3l.16.38c2.63,6.08,7,10.45,11.21,14.67,3.89,3.9,7.57,7.58,9.91,12.47A23.6,23.6,0,0,1,76,56.26C76,70.16,65,80.24,50,80.24Z"/><path class="cls-2" d="M44.43,31.94a1.29,1.29,0,0,0-1.76.47c-5.38,9.31-10.44,20.41-7.15,32.25a32.57,32.57,0,0,0,4.7,10.2,1.29,1.29,0,1,0,2.09-1.52A29.92,29.92,0,0,1,38,64c-3-10.91,1.78-21.42,6.9-30.26A1.29,1.29,0,0,0,44.43,31.94Z"/><path class="cls-2" d="M55.57,31.94a1.29,1.29,0,0,0-.47,1.76C60.21,42.55,65,53.06,62,64a29.9,29.9,0,0,1-4.3,9.37,1.29,1.29,0,1,0,2.09,1.52,32.54,32.54,0,0,0,4.7-10.2c3.29-11.83-1.77-22.94-7.15-32.25A1.29,1.29,0,0,0,55.57,31.94Z"/></g></g></svg>