<svg xmlns="http://www.w3.org/2000/svg" viewBox="0 0 100 100"><defs><style>.cls-1{fill:#ccc;}</style></defs><title>remove_icon</title><g id="Layer_2" data-name="Layer 2"><g id="Backgrounds"><path class="cls-1" d="M85.42,14.58A50.1,50.1,0,1,0,14.58,85.42a50.33,50.33,0,0,0,70.85,0C104.86,66,104.86,34.64,85.42,14.58ZM57.84,64.73l-8.15-8.15-8.15,8.15a4.43,4.43,0,0,1-6.27-6.27l8.15-8.15-8.15-8.15a4.43,4.43,0,0,1,6.27-6.27L49.69,44l8.15-8.15a4.43,4.43,0,1,1,6.27,6.27L56,50.31l8.15,8.15a4.19,4.19,0,0,1,0,6.27C62.85,66.61,59.72,66.61,57.84,64.73Z"/></g></g></svg>