<svg xmlns="http://www.w3.org/2000/svg" viewBox="0 0 100 100"><defs><style>.cls-1{fill:#dd7ca8;}.cls-2{fill:#fff;}</style></defs><title>rubarb_icon</title><g id="Layer_2" data-name="Layer 2"><g id="Layer_2-2" data-name="Layer 2"><rect class="cls-1" width="100" height="100"/><path class="cls-2" d="M88.8,45.8a6.86,6.86,0,0,0-2.62-4.59,10.71,10.71,0,0,0-7.42-2.13,5.44,5.44,0,0,0-3.07-3.62,5.71,5.71,0,0,0-3.66-.3,5.58,5.58,0,0,0,.56-2.8,4.86,4.86,0,0,0-2.27-3.85c1-3.05,1.2-8-3.48-10.83a7.26,7.26,0,0,0-5.6-1.06,6.71,6.71,0,0,0-5.48-3.46,7.39,7.39,0,0,0-7.07,4.28A20.56,20.56,0,0,0,47.76,20a4.94,4.94,0,0,0-4.18,2.29,8.24,8.24,0,0,0-.43,7.59,5.06,5.06,0,0,0-2.86,1.74c-1.35,1.68-1.55,4.22-.55,7.15.17.49.36,1,.57,1.6,1.45,4,3.63,9.93.42,13.14h0L19.21,75.08a1.3,1.3,0,0,0-.38.92,7.21,7.21,0,0,0,2.05,4.72A8.88,8.88,0,0,0,25.73,83h.14a1.3,1.3,0,0,0,.92-.38L48.31,61.15c3.21-3.21,9.19-1,13.15.42l1.6.57c2.93,1,5.47.8,7.15-.55A5.06,5.06,0,0,0,72,58.72a8.23,8.23,0,0,0,7.59-.43,4.94,4.94,0,0,0,2.29-4.19A17.72,17.72,0,0,0,84.57,53,7.48,7.48,0,0,0,88.8,45.8ZM42.2,38c-.7-2.05-.66-3.72.12-4.68a3,3,0,0,1,2.79-.9,1.3,1.3,0,0,0,1.22-2c-1.66-2.41-1.55-5.14-.58-6.58a2.47,2.47,0,0,1,2.79-1.05,1.3,1.3,0,0,0,1.58-1.3c.14-.59.78-2.51.92-2.83a4.83,4.83,0,0,1,4.58-2.84,4.07,4.07,0,0,1,3.25,1.94,12.29,12.29,0,0,0-3.57,4.18,5.08,5.08,0,0,0-4.19,2c-1.36,1.9-1,4.57-.59,6.2-4.87,1.43-5.4,5.08-4.68,12.16A11.6,11.6,0,0,1,45,47.87a33,33,0,0,0-2.2-8.34C42.55,39,42.36,38.45,42.2,38ZM83.31,50.75a12,12,0,0,1-2.87,1,1.12,1.12,0,0,0-.31,0,1.3,1.3,0,0,0-1,1.55,2.47,2.47,0,0,1-1,2.79c-1.44,1-4.17,1.08-6.58-.58a1.3,1.3,0,0,0-2,1.21,3,3,0,0,1-.9,2.79c-1,.78-2.63.82-4.68.12l-1.55-.55c-4.58-1.67-11.49-4.2-15.88.19l-21,21a6,6,0,0,1-2.72-1.45,4.6,4.6,0,0,1-1.23-2.4L44.31,53.66A15.45,15.45,0,0,0,48.42,42c-.82-8.06.38-9,4-9.67a1.3,1.3,0,0,0,1-1.76c-.36-.9-1.15-3.78-.17-5.16.47-.66,1.42-1,2.82-.89a1.33,1.33,0,0,0,1.26-.79s1.58-3.62,4.29-4.48a4.62,4.62,0,0,1,3.92.69c4.71,2.86,2.1,8.49,2,8.72a1.3,1.3,0,0,0,.83,1.82A2.25,2.25,0,0,1,70,32.54c.08,1.15-.61,2.69-2.79,3.6a1.31,1.31,0,0,0-.7,1.7,4.08,4.08,0,0,1,.22,1.43,1.25,1.25,0,0,0,0,.16,4.54,4.54,0,0,1-.06.51c-.27,1.6-1.4,3-3.35,4.09-1.47.84-3,1.66-4.64,2.52-2.54,1.35-5.17,2.74-7.46,4.2a12.47,12.47,0,0,0-3.36,3,1.3,1.3,0,0,0,2.07,1.58A10,10,0,0,1,52.57,53c2.25-1.43,4.83-2.8,7.33-4.13l2.83-1.52L62,48.91q-1.52.53-3.12,1.18A1,1,0,1,0,59.68,52c1-.4,2-.77,2.9-1.1l2.17,3.23A1,1,0,1,0,66.47,53l-1.85-2.75a59.67,59.67,0,0,1,6.11-1.56l1.8,2.54A1,1,0,1,0,74.21,50L73,48.27a39.75,39.75,0,0,1,7.08-.57,1,1,0,0,0,.1-2.07,40.1,40.1,0,0,0-7.34.55l.47-1.2a1,1,0,1,0-1.92-.76l-.94,2.38c-1.75.34-3.68.81-5.75,1.43l.84-1.86a1,1,0,0,0,.08-.53,8.07,8.07,0,0,0,3.64-5.29c0-.15,0-.3.06-.44,1.86-2,3.79-2.76,5.33-2.08a2.64,2.64,0,0,1,1.64,2.49,1.3,1.3,0,0,0,1.44,1.45c3.64-.43,5.72.56,6.83,1.46A4.32,4.32,0,0,1,86.21,46,4.89,4.89,0,0,1,83.31,50.75ZM52.77,46a1,1,0,0,1-.18-1.45c1-1.31,1.92-2.59,2.73-3.83l-2.39-3.44a1,1,0,1,1,1.7-1.18l1.88,2.71a49.36,49.36,0,0,0,3.11-6.17L57.75,30a1,1,0,1,1,1.67-1.21l1.08,1.5a28.3,28.3,0,0,0,1.42-5.37,1,1,0,0,1,2.05.23,29.74,29.74,0,0,1-1.64,6.21l1.38-.06a1,1,0,1,1,.08,2.07l-2.29.09a50.78,50.78,0,0,1-2.87,5.76L60.23,39a1,1,0,0,1,.37,2l-3.4.62c-.88,1.35-1.86,2.75-3,4.18a1,1,0,0,1-1.45.18Zm-8.64,11.8a.76.76,0,0,1,0,1.08L25.54,77.45a.77.77,0,1,1-1.08-1.08L43.06,57.78A.76.76,0,0,1,44.14,57.78Z"/></g></g></svg>