<svg xmlns="http://www.w3.org/2000/svg" viewBox="0 0 100 100"><defs><style>.cls-1{fill:#ffbe71;}.cls-2{fill:#fff;}</style></defs><title>squash_icon</title><g id="Layer_2" data-name="Layer 2"><g id="Layer_2-2" data-name="Layer 2"><rect class="cls-1" width="100" height="100"/><path class="cls-2" d="M71.9,69.08a60.94,60.94,0,0,0-2.61-11.86c-.65-2.23-1.32-4.53-1.8-6.79a102,102,0,0,1-1.8-15.5c-.1-1.56-.2-3.15-.33-4.79C65,25.86,64,19.75,58.9,16.19A10.53,10.53,0,0,0,56,14.8a7.33,7.33,0,0,0-1-2.52C54,10.77,52.33,10,50,10s-4,.77-5,2.28a7.34,7.34,0,0,0-1,2.52,10.57,10.57,0,0,0-2.94,1.39C36,19.75,35,25.85,34.65,30.14c-.13,1.64-.23,3.23-.33,4.79a102,102,0,0,1-1.8,15.5c-.49,2.26-1.16,4.56-1.8,6.79A60.76,60.76,0,0,0,28.1,69.08,19.76,19.76,0,0,0,33,84.13c4.12,4.49,10.3,6.56,17,5.66a23.48,23.48,0,0,0,3.09.21A18.59,18.59,0,0,0,67,84.13,19.77,19.77,0,0,0,71.9,69.08ZM47.53,13.92c.16-.25.59-.91,2.47-.91s2.31.66,2.47.91a2.4,2.4,0,0,1,.12.22A26,26,0,0,0,50,14a25.62,25.62,0,0,0-2.58.13ZM64.78,82.09c-3.49,3.8-8.79,5.51-14.56,4.69l-.21,0-.21,0c-5.77.82-11.07-.89-14.56-4.69a16.75,16.75,0,0,1-4.12-12.76,58.47,58.47,0,0,1,2.5-11.27c.66-2.28,1.35-4.63,1.86-7a104.41,104.41,0,0,0,1.87-15.94c.1-1.55.2-3.12.33-4.75.45-5.84,2.09-9.56,5.17-11.71C44.35,17.59,46.83,17,50,17s5.64.56,7.16,1.63c3.08,2.15,4.72,5.87,5.17,11.71.13,1.63.23,3.21.33,4.75a104.52,104.52,0,0,0,1.87,15.94c.51,2.37,1.19,4.72,1.86,7a58.58,58.58,0,0,1,2.5,11.27A16.74,16.74,0,0,1,64.78,82.09ZM46.57,20.37a1.2,1.2,0,0,1-.81,1.46c-.1,0-2.38,1-3.3,6.08A36.22,36.22,0,0,0,42,34.79a1.2,1.2,0,0,1-2.39,0,38.33,38.33,0,0,1,.52-7.31c1.2-6.73,4.61-7.85,5-8A1.2,1.2,0,0,1,46.57,20.37ZM46.5,83.24a1.2,1.2,0,0,1-1.19,1.11h-.09A12.45,12.45,0,0,1,36.61,80,13.78,13.78,0,0,1,33.5,69.86a1.2,1.2,0,1,1,2.39.2,11.4,11.4,0,0,0,2.55,8.43,9.94,9.94,0,0,0,7,3.47A1.2,1.2,0,0,1,46.5,83.24Z"/></g></g></svg>