<svg xmlns="http://www.w3.org/2000/svg" viewBox="0 0 100 100"><defs><style>.cls-1{fill:#f4e07d;}.cls-2{fill:#fff;}</style></defs><title>starfruit_icon</title><g id="Layer_2" data-name="Layer 2"><g id="Layer_2-2" data-name="Layer 2"><rect class="cls-1" width="100" height="100"/><path class="cls-2" d="M87.72,41.33a1.87,1.87,0,0,0-1-1.11c-.4-.18-9.81-4.37-19.74-4.37a31.25,31.25,0,0,0-4.28.29c-2-11.51-10.92-21.17-11.32-21.6a1.88,1.88,0,0,0-2.75,0c-.4.43-9.28,10.09-11.32,21.6A31.25,31.25,0,0,0,33,35.85c-9.93,0-19.34,4.19-19.74,4.37a1.88,1.88,0,0,0-.88,2.59s.12.23.35.63c1.86,3.19,8.25,13.27,16.69,17-3.92,9.12-3.55,23.13-3.53,23.77a1.88,1.88,0,0,0,1.87,1.82,1.93,1.93,0,0,0,.44-.05C28.86,85.85,43,82.39,50,75.35c7,7,21.14,10.51,21.78,10.66a1.88,1.88,0,0,0,2.31-1.77c0-.64.39-14.65-3.54-23.77,8.43-3.76,14.83-13.85,16.69-17,.23-.39.35-.62.35-.62A1.87,1.87,0,0,0,87.72,41.33ZM67.42,57.66a1.87,1.87,0,0,0-1.09,2.7c3.37,6.11,3.94,16.65,4,21.37-4.58-1.37-14.7-4.89-18.85-10.35A1.87,1.87,0,0,0,50,70.63h0a1.88,1.88,0,0,0-1.49.74c-4.16,5.46-14.28,9-18.85,10.35.07-4.72.64-15.25,4-21.37a1.87,1.87,0,0,0-1.09-2.7C25.33,55.43,19.14,46.6,16.78,42.85A49.41,49.41,0,0,1,33,39.6a25.55,25.55,0,0,1,5.47.55,1.88,1.88,0,0,0,2.27-1.64C41.63,30,47.33,22,50,18.71,52.67,22,58.36,30,59.24,38.51a1.88,1.88,0,0,0,2.27,1.64A25.55,25.55,0,0,1,67,39.6a49.55,49.55,0,0,1,16.24,3.26C80.86,46.6,74.67,55.43,67.42,57.66ZM45.24,53.47l-4.43-1.11a1.65,1.65,0,1,1,.8-3.2L46,50.27a1.65,1.65,0,0,1-.4,3.25A1.68,1.68,0,0,1,45.24,53.47Zm6.41-5.65a1.65,1.65,0,0,1-3.3,0V43.56a1.65,1.65,0,0,1,3.3,0ZM48.48,58l-2.64,3.74a1.65,1.65,0,1,1-2.7-1.9l2.64-3.74a1.65,1.65,0,0,1,2.7,1.9Zm11.91-7.67a1.65,1.65,0,0,1-1.2,2l-4.43,1.11a1.65,1.65,0,0,1-2-1.2,1.65,1.65,0,0,1,1.2-2l4.43-1.11A1.65,1.65,0,0,1,60.39,50.36Zm-3.53,9.51a1.65,1.65,0,1,1-2.7,1.9L51.52,58a1.65,1.65,0,0,1,2.7-1.9Z"/></g></g></svg>