<svg xmlns="http://www.w3.org/2000/svg" viewBox="0 0 100 100"><defs><style>.cls-1{fill:#b7586c;}.cls-2{fill:#fff;}</style></defs><title>strawberry_icon</title><g id="Layer_2" data-name="Layer 2"><g id="Layer_2-2" data-name="Layer 2"><rect class="cls-1" width="100" height="100"/><path class="cls-2" d="M39.23,50.5v1a1.88,1.88,0,0,1-3.75,0v-1a1.88,1.88,0,1,1,3.75,0ZM50,48.62A1.87,1.87,0,0,0,48.1,50.5v1a1.88,1.88,0,0,0,3.75,0v-1A1.87,1.87,0,0,0,50,48.62Zm12.62,0a1.87,1.87,0,0,0-1.87,1.88v1a1.87,1.87,0,1,0,3.75,0v-1A1.87,1.87,0,0,0,62.6,48.62ZM43.67,64a1.88,1.88,0,0,0-1.87,1.88v1a1.88,1.88,0,0,0,3.75,0v-1A1.88,1.88,0,0,0,43.67,64Zm12.62,0a1.88,1.88,0,0,0-1.87,1.88v1a1.87,1.87,0,0,0,3.75,0v-1A1.88,1.88,0,0,0,56.29,64Zm17.94-2.49c-3.26,9.52-10.46,19-17.5,23l-.11.06a13.7,13.7,0,0,1-6.48,2h-.22a13.76,13.76,0,0,1-6.56-2l-.06,0h0c-7-4-14.25-13.44-17.5-23-1.46-4.26-4.15-14.88,2.26-21.4a22.21,22.21,0,0,1,5.76-4A12.86,12.86,0,0,1,32.57,35a13.73,13.73,0,0,1-3.84-9.88,17.11,17.11,0,0,1,.53-4.29,1.87,1.87,0,0,1,1.23-1.33c.07,0,6.49-2,12,1.44a15,15,0,0,1,2.74-4.05s3.26-3.33,4.77-3.33a1.9,1.9,0,0,1,.91.24,16.63,16.63,0,0,1,6.6,7.2,14.43,14.43,0,0,1,7.62-2.07,17.14,17.14,0,0,1,4.29.53,1.87,1.87,0,0,1,1.23,1c.46,1,2.33,9-3.18,14.54a12.85,12.85,0,0,1-1.26,1.09,22.11,22.11,0,0,1,5.71,4C78.38,46.61,75.68,57.22,74.22,61.48ZM58.6,24.79a12.63,12.63,0,0,1,.07,1.37,13.75,13.75,0,0,1-2,7,32.33,32.33,0,0,1,5.14,1.1,8.77,8.77,0,0,0,3-2c3.14-3.13,2.88-7.51,2.56-9.49a14.16,14.16,0,0,0-2.26-.18A10.31,10.31,0,0,0,58.6,24.79Zm-13.3-.39h0a9,9,0,0,0-.18,1.75,10.45,10.45,0,0,0,2.55,6.67c.58,0,1.17,0,1.78,0h1.1c.62,0,1.22,0,1.82,0a10.45,10.45,0,0,0,2.55-6.67,7.71,7.71,0,0,0-.17-1.67v-.05A11.68,11.68,0,0,0,50,17.64a14.52,14.52,0,0,0-2,1.79A10.27,10.27,0,0,0,45.3,24.41ZM35.22,32.32a8.78,8.78,0,0,0,3,2,32.55,32.55,0,0,1,5.13-1.09,13.75,13.75,0,0,1-2-7,12.39,12.39,0,0,1,.08-1.41c-3.05-2.45-7-2.22-8.79-1.92a14.14,14.14,0,0,0-.18,2.26A10.06,10.06,0,0,0,35.22,32.32ZM69.29,42.71a18.56,18.56,0,0,0-5-3.43,21.34,21.34,0,0,0-2.88-1.21L61.22,38a34.32,34.32,0,0,0-10.67-1.47h-1.1c-5.65,0-10.15.9-13.76,2.74a18.55,18.55,0,0,0-5,3.43c-5,5-2.62,14-1.39,17.56,2.94,8.59,9.59,17.38,15.81,20.91h0l.06,0A10.13,10.13,0,0,0,50,82.72a10.13,10.13,0,0,0,4.81-1.51l.09,0c6.25-3.6,12.85-12.35,15.77-20.89C71.64,57.46,74.38,47.89,69.29,42.71Z"/></g></g></svg>