<svg xmlns="http://www.w3.org/2000/svg" viewBox="0 0 100 100"><defs><style>.cls-1{fill:#f34e55;}.cls-2{fill:#fff;}</style></defs><title>tomato_icon</title><g id="Layer_2" data-name="Layer 2"><g id="Layer_2-2" data-name="Layer 2"><rect class="cls-1" width="100" height="100"/><path class="cls-2" d="M77.16,26.62a23.76,23.76,0,0,0-17.69-7.42A32.54,32.54,0,0,0,50,20.69a32.58,32.58,0,0,0-9.48-1.49,23.76,23.76,0,0,0-17.69,7.42c-5.3,5.59-8.07,13.88-7.6,22.75,1,18.51,15.28,31.44,34.77,31.44S83.78,67.88,84.77,49.37C85.24,40.5,82.46,32.21,77.16,26.62Zm4.21,22.57C80.49,65.8,67.59,77.4,50,77.4S19.51,65.8,18.63,49.18c-.42-7.94,2-15.31,6.67-20.23a20.43,20.43,0,0,1,15.22-6.36,29.44,29.44,0,0,1,9,1.49,1.72,1.72,0,0,0,1,0C60.1,21,68.87,22.82,74.7,29,79.36,33.87,81.79,41.25,81.37,49.19Zm-22.07-21a22.35,22.35,0,0,0-5.94.84,1.35,1.35,0,0,0-1,1.3V65.71a5.07,5.07,0,0,0,5.09,5.37,6.14,6.14,0,0,0,1.76-.27c9.66-2.89,16-11.12,16.86-22,.51-6.18-1.15-11.71-4.69-15.55A16,16,0,0,0,59.3,28.15ZM73.4,48.58c-.82,9.89-6.27,17-14.95,19.65a3.43,3.43,0,0,1-1,.15,2.41,2.41,0,0,1-2.39-2.67V31.34c5.78-1.32,10.93,0,14.34,3.74C72.43,38.37,73.85,43.16,73.4,48.58ZM46.64,29a22.35,22.35,0,0,0-5.94-.84,16,16,0,0,0-12.1,5.11c-3.54,3.84-5.2,9.36-4.69,15.55.9,10.89,7.21,19.12,16.86,22a6.14,6.14,0,0,0,1.76.27,5.07,5.07,0,0,0,5.09-5.37V30.29A1.35,1.35,0,0,0,46.64,29ZM44.93,65.71a2.47,2.47,0,0,1-3.38,2.52c-8.68-2.6-14.13-9.76-14.95-19.65-.45-5.42,1-10.22,4-13.49A13.34,13.34,0,0,1,40.7,30.85a19.06,19.06,0,0,1,4.23.5V65.71Zm-8.65-28.2a2.9,2.9,0,0,0-2.39,1.4,2.74,2.74,0,0,0-.42,2.89c1,2.17,5.24,2.57,6.5,2.65h.09a1.25,1.25,0,0,0,1.05-1.93C40.51,41.11,38.71,37.51,36.28,37.51Zm-.55,3.23a.89.89,0,0,1,.19-.38,1,1,0,0,1,.35-.35c.3,0,.92.65,1.53,1.6A4,4,0,0,1,35.73,40.74ZM40.3,53.24c-1.28,0-5.56.16-6.7,2.26a2.68,2.68,0,0,0,.28,2.86,2.84,2.84,0,0,0,2.42,1.48c2.66,0,5.25-4.61,5.25-5.35a1.25,1.25,0,0,0-1.25-1.25Zm-4,4.1s-.16-.08-.33-.34-.16-.31-.17-.31h0a3.89,3.89,0,0,1,2.11-.75C37.26,56.76,36.63,57.34,36.3,57.34Zm2.32-7.22A1.25,1.25,0,0,0,38.71,48c-.32-.22-3.17-2.14-5.35-2.14a2.77,2.77,0,0,0-2.86,2.91A2.94,2.94,0,0,0,31.23,51a2.87,2.87,0,0,0,2.17.82C35.51,51.84,38.31,50.29,38.62,50.12ZM33,49.3a.94.94,0,0,1,0-.42,1,1,0,0,1,.11-.49.6.6,0,0,1,.26,0,5.13,5.13,0,0,1,1.9.56,5.94,5.94,0,0,1-1.87.43,1.36,1.36,0,0,1-.35,0ZM60,44.44H60c1.26-.07,5.46-.47,6.5-2.65a2.74,2.74,0,0,0-.42-2.89,2.9,2.9,0,0,0-2.39-1.4c-2.56,0-4.42,4-4.92,5.2A1.25,1.25,0,0,0,60,44.44ZM63.72,40s.17.09.36.35a1.45,1.45,0,0,1,.19.35,3.88,3.88,0,0,1-2.09.9C62.81,40.66,63.42,40,63.72,40Zm-4,13.23a1.25,1.25,0,0,0-1.11,1.82c.57,1.12,2.63,4.78,5.11,4.78a2.84,2.84,0,0,0,2.42-1.48,2.68,2.68,0,0,0,.28-2.86C65.26,53.4,61,53.24,59.7,53.24ZM64,57c-.17.26-.3.34-.33.34-.34,0-1-.58-1.6-1.4a4.15,4.15,0,0,1,2.1.7A1,1,0,0,1,64,57Zm2.6-11.14c-2.18,0-5,1.92-5.35,2.14a1.25,1.25,0,0,0,.09,2.12c.31.18,3.1,1.73,5.22,1.73h0A2.86,2.86,0,0,0,68.77,51a2.93,2.93,0,0,0,.72-2.26A2.77,2.77,0,0,0,66.63,45.86ZM67,49.29a.84.84,0,0,1-.36.05h0a6,6,0,0,1-1.87-.43,5.15,5.15,0,0,1,1.89-.56.63.63,0,0,1,.26,0,1,1,0,0,1,.11.49A1.37,1.37,0,0,1,67,49.29Z"/></g></g></svg>