<svg xmlns="http://www.w3.org/2000/svg" viewBox="0 0 100 100"><defs><style>.cls-1{fill:#f34e55;}.cls-2{fill:#fff;}</style></defs><title>tomato_2_icon</title><g id="Layer_2" data-name="Layer 2"><g id="Layer_2-2" data-name="Layer 2"><rect class="cls-1" width="100" height="100"/><path class="cls-2" d="M46.9,77.13a1.5,1.5,0,0,1-1.48,1.24l-.26,0c-10.45-1.81-17.46-9.28-17.86-19a23.08,23.08,0,0,1,.16-3.94,1.5,1.5,0,1,1,3,.39,20.17,20.17,0,0,0-.14,3.43c.35,8.41,6.24,14.61,15.38,16.2A1.5,1.5,0,0,1,46.9,77.13ZM80.06,59.19C79.21,75,66.85,86,50,86S20.78,75,19.94,59.19c-.4-7.48,2-14.51,6.47-19.27a20.27,20.27,0,0,1,8.9-5.52A15.71,15.71,0,0,1,30.89,27a1.7,1.7,0,0,1,1-1.92,15.58,15.58,0,0,1,11.78.13,17,17,0,0,1,5.3-8.83,1.7,1.7,0,0,1,2.17,0,17,17,0,0,1,5.26,8.82,15.55,15.55,0,0,1,11.77-.12,1.7,1.7,0,0,1,1,1.94,16,16,0,0,1-4.45,7.32,20.28,20.28,0,0,1,8.94,5.54C78.11,44.68,80.47,51.71,80.06,59.19ZM39.85,33.54c.66-.06,1.33-.09,2-.09A28.5,28.5,0,0,1,50,34.7a28.53,28.53,0,0,1,8.13-1.25c.66,0,1.31,0,2,.09a12.4,12.4,0,0,0,5.18-5.77,11.78,11.78,0,0,0-8.14.88,11,11,0,0,0-1.19.73A1.7,1.7,0,0,1,53.26,28,12.29,12.29,0,0,0,50,20.14,12.4,12.4,0,0,0,46.75,28a1.7,1.7,0,0,1-2.67,1.38,11.22,11.22,0,0,0-1.19-.74,11.8,11.8,0,0,0-8.16-.88A12.26,12.26,0,0,0,39.85,33.54Zm31.27,8.71C66.19,37,58.71,35.51,50.51,38.09a1.71,1.71,0,0,1-1,0,25.44,25.44,0,0,0-7.62-1.25,17.43,17.43,0,0,0-13,5.41C25,46.34,23,52.45,23.33,59,24.08,72.88,35,82.57,50,82.57S75.92,72.88,76.67,59C77,52.45,75,46.35,71.12,42.25Z"/></g></g></svg>