<svg xmlns="http://www.w3.org/2000/svg" viewBox="0 0 100 100"><defs><style>.cls-1{fill:#ff8d8d;}.cls-2{fill:#fff;}</style></defs><title>turnip_2_icon</title><g id="Layer_2" data-name="Layer 2"><g id="Layer_2-2" data-name="Layer 2"><rect class="cls-1" width="100" height="100"/><path class="cls-2" d="M85.31,35.82a6.86,6.86,0,0,0-3.82-3.73,7.39,7.39,0,0,0-.08-5.48,6.85,6.85,0,0,0-4.15-3.85,6.85,6.85,0,0,0-3.85-4.15,7.45,7.45,0,0,0-5.48-.08,6.86,6.86,0,0,0-3.74-3.82,7.17,7.17,0,0,0-2.81-.57,8,8,0,0,0-7.12,4.56,7.79,7.79,0,0,0-.53,1.45A7.26,7.26,0,0,0,52,19.94a8,8,0,0,0-7.12,4.56c-3.14,6.58,4.84,16.39,8.41,20.3L51,47c-9.35-8.62-21-9.36-28.7-1.67-4.8,4.8-6.45,11.17-4.77,18.43a23.63,23.63,0,0,0,2.24,5.87c1.21,2.24,1,2.67-.19,5l-.19.38c-.06.13-.18.32-.31.56-1.1,1.93-2.77,4.84-1.2,6.42s4.49-.09,6.42-1.2l.57-.32.37-.18c2.38-1.19,2.81-1.4,5.05-.19A23.79,23.79,0,0,0,41.54,83a18,18,0,0,0,13.09-5.41,17.38,17.38,0,0,0,5.16-14.78A25.39,25.39,0,0,0,53,48.95l2.23-2.23c3.14,2.87,10.73,9.15,17,9.15a7.73,7.73,0,0,0,3.35-.72,7.91,7.91,0,0,0,4.35-8.86,7.75,7.75,0,0,0,1.46-.53A7.83,7.83,0,0,0,85.31,35.82Zm-38-10.15a5.23,5.23,0,0,1,4.67-3,4.47,4.47,0,0,1,1.76.35,4.3,4.3,0,0,1,.45.22,1.36,1.36,0,0,0,2-1.19,4.94,4.94,0,0,1,.49-2.18,5.24,5.24,0,0,1,4.67-3,4.47,4.47,0,0,1,1.75.35,4.23,4.23,0,0,1,2.55,3.46,1.36,1.36,0,0,0,2.1,1,4.87,4.87,0,0,1,4.56-.52A4.15,4.15,0,0,1,74,22.38a10.66,10.66,0,0,0-5.23,1.94,6.12,6.12,0,0,0-8.56,1.23,6.13,6.13,0,0,0-7.66.81c-2.66,2.66-2.15,7.77-1.06,12C47,32.26,46.29,27.83,47.32,25.67ZM71.44,40.45l.25.23a3.41,3.41,0,0,1,0,4.82,5.47,5.47,0,0,1-3.93,1.16h0c-4.34,0-9.93-2.18-11.57-2.86-2.08-4.86-4.25-13-1.71-15.51a3.4,3.4,0,0,1,4.82,0,3.34,3.34,0,0,1,.25.28,1.36,1.36,0,0,0,2.34-.43,3.4,3.4,0,0,1,6.55,1.8,1.36,1.36,0,0,0,1.61,1.61,3.43,3.43,0,0,1,3.13.92,3.4,3.4,0,0,1-1.32,5.64,1.36,1.36,0,0,0-.43,2.34ZM36.82,79.77a21,21,0,0,1-5.2-2A7.63,7.63,0,0,0,28,76.66a8.88,8.88,0,0,0-3.94,1.28l-.36.18-.71.39a15.68,15.68,0,0,1-2.94,1.42A15.67,15.67,0,0,1,21.48,77c.17-.3.31-.55.39-.7l.18-.37c1.37-2.75,1.95-4.21.15-7.55a20.91,20.91,0,0,1-2-5.19C19.26,59,19.11,53.07,23.57,48A5.48,5.48,0,0,1,24,49.72a6.48,6.48,0,0,0,6.09,6.09,4.12,4.12,0,0,1,4,4,6.49,6.49,0,0,0,6.1,6.09,4.12,4.12,0,0,1,4,4,6.49,6.49,0,0,0,6.1,6.1,5.59,5.59,0,0,1,1.66.38C46.92,80.88,41,80.73,36.82,79.77Zm16.87-5.11a6.8,6.8,0,0,0-3.1-1,4.13,4.13,0,0,1-4-4,6.49,6.49,0,0,0-6.1-6.1,4.12,4.12,0,0,1-4-4,6.49,6.49,0,0,0-6.1-6.09,4.12,4.12,0,0,1-4-4,6.79,6.79,0,0,0-1-3.12c6.84-5.73,16.82-4.37,24.76,3.58l0,0a23.15,23.15,0,0,1,7,13.26A14.66,14.66,0,0,1,53.69,74.65ZM80.15,43.31A5,5,0,0,1,78,43.8h0a1.36,1.36,0,0,0-1.18,2,4.62,4.62,0,0,1,.23.45,5.09,5.09,0,0,1-4.85,6.88h0c-3,0-6.93-2.07-10.52-4.67a25.64,25.64,0,0,0,6.12.89h0c2.59,0,4.56-.66,5.85-2a6.13,6.13,0,0,0,.83-7.63,6.25,6.25,0,0,0,.67-.58,6.12,6.12,0,0,0-3.88-10.43,6.08,6.08,0,0,0-.68-2.38,6.88,6.88,0,0,1,5.23-1.24h.09a4.2,4.2,0,0,1,3,2.48,4.83,4.83,0,0,1-.52,4.56,1.36,1.36,0,0,0,1,2.1,4.23,4.23,0,0,1,3.45,2.55A5.09,5.09,0,0,1,80.15,43.31Z"/></g></g></svg>