<svg xmlns="http://www.w3.org/2000/svg" viewBox="0 0 100 100"><defs><style>.cls-1{fill:#ecddaa;}.cls-2{fill:#fff;}</style></defs><title>turnip_icon</title><g id="Layer_2" data-name="Layer 2"><g id="Layer_2-2" data-name="Layer 2"><rect class="cls-1" width="100" height="100"/><path class="cls-2" d="M57.46,30.2l6-13.47a1.62,1.62,0,0,0-.9-2.17l-9-3.47a1.62,1.62,0,0,0-2.06.86l-1.5,3.4-1.5-3.39a1.62,1.62,0,0,0-2.06-.86l-9,3.47a1.62,1.62,0,0,0-.9,2.17l6,13.51C30,32.76,21.83,41.46,21.83,53.1c0,8.38,4.12,15.38,11.92,20.24a29.1,29.1,0,0,0,7.07,3.17c3,.92,3.26,1.55,4.29,4.63l.16.49c.06.17.13.44.22.77C46.21,85,47.29,89,50,89h0c2.71,0,3.79-4,4.51-6.63.09-.33.16-.6.22-.77l.16-.49c1-3.07,1.24-3.71,4.28-4.62a29.18,29.18,0,0,0,7.08-3.17c7.8-4.87,11.92-11.87,11.92-20.24C78.17,41.4,70,32.66,57.46,30.2ZM53.74,14.67l6,2.31L55.19,27.32l-3.52-8ZM40,17l6-2.31,6.58,14.91c-.87-.06-1.74-.09-2.64-.09a40,40,0,0,0-4.33.23ZM50,32.73c14,0,23.9,7.58,24.85,18.63a8.37,8.37,0,0,0-3.6,1.84,5.16,5.16,0,0,1-7.1,0,8,8,0,0,0-10.6,0,5.15,5.15,0,0,1-7.09,0,8,8,0,0,0-10.6,0,5.14,5.14,0,0,1-7.09,0,8.33,8.33,0,0,0-3.63-1.85C26.1,40.3,36,32.73,50,32.73ZM64.54,70.6a25.93,25.93,0,0,1-6.29,2.82c-4.65,1.4-5.32,3.39-6.43,6.7l-.16.48c-.07.21-.16.54-.27.95A17.66,17.66,0,0,1,50,85.46a17.67,17.67,0,0,1-1.39-3.91c-.11-.41-.2-.75-.28-1l-.16-.48c-1.11-3.31-1.77-5.3-6.43-6.7a25.85,25.85,0,0,1-6.29-2.82c-4.53-2.83-9.87-7.92-10.35-16.3A6.58,6.58,0,0,1,27,55.46a8,8,0,0,0,10.59,0,5.15,5.15,0,0,1,7.09,0,8,8,0,0,0,10.6,0,5.15,5.15,0,0,1,7.09,0,8,8,0,0,0,10.6,0,6.72,6.72,0,0,1,1.88-1.15C74.41,62.68,69.06,67.77,64.54,70.6Z"/></g></g></svg>