<svg xmlns="http://www.w3.org/2000/svg" viewBox="0 0 100 100"><defs><style>.cls-1{fill:#7fd18f;}.cls-2{fill:#fff;}</style></defs><title>watermelon_icon</title><g id="Layer_2" data-name="Layer 2"><g id="Layer_2-2" data-name="Layer 2"><rect class="cls-1" width="100" height="100"/><path class="cls-2" d="M50,21.25C29.07,21.25,15,32.8,15,50S29.07,78.75,50,78.75,85,67.2,85,50,70.93,21.25,50,21.25ZM80.72,57c-.3.49-.64,1-1,1.6a10.59,10.59,0,0,1-2.91,3,3.29,3.29,0,0,1-.46.27l-.31.16-.75.28a6.37,6.37,0,0,1-.69.12,8.28,8.28,0,0,1-2.26-.14A10.82,10.82,0,0,1,71.09,62a7.24,7.24,0,0,0-3.4-.46,6.32,6.32,0,0,0-3.57,2.37,12.32,12.32,0,0,1-3.25,2.61,6.73,6.73,0,0,1-1.38.55l-.83.16H58.4l-.37,0h-.09l-.55,0L57,67.18l-.24-.06c-.18,0-.37-.09-.56-.16a11.31,11.31,0,0,1-1.29-.55,11.52,11.52,0,0,1-1.25-.76,9.93,9.93,0,0,0-2.35-1.27c-2-.65-3.7.45-5.09,1.34-.42.27-.82.53-1.17.69a7.84,7.84,0,0,1-2.87.89,7.36,7.36,0,0,1-.92,0l-.21,0-.22,0-.35-.08-.22-.06-.55-.18-.32-.13-.41-.2a17,17,0,0,1-3.78-2.78l-.22-.2a5.94,5.94,0,0,0-3.54-2,7.09,7.09,0,0,0-2.71.46,8.64,8.64,0,0,1-1.15.31,8.46,8.46,0,0,1-2.18.15l-.66-.1-.66-.2-.11,0-.12-.07L23.65,62l-.22-.12L23,61.62c-.14-.09-.29-.18-.37-.24L22.13,61a10.33,10.33,0,0,1-.78-.78,13.22,13.22,0,0,1-1.2-1.55c-.39-.6-.74-1.16-1-1.66L19,56.76a24.6,24.6,0,0,1-.56-2.68,8,8,0,0,1,.73.57c.3.27.61.56.91.86a9.77,9.77,0,0,0,3.79,2.65c2,.59,3.64-.21,5-.85a13.16,13.16,0,0,1,1.44-.62,9.16,9.16,0,0,1,1.07-.28l.21,0,.42-.06.81,0,.59,0,.16,0h0l.5.12a6.73,6.73,0,0,1,1.39.56,9.37,9.37,0,0,1,1.75,1.36,16.18,16.18,0,0,0,1.52,1.27,4,4,0,0,0,2.33.78,7.07,7.07,0,0,0,3.6-1.36,19.74,19.74,0,0,1,2.24-1.24,9.45,9.45,0,0,1,1.39-.5,8.59,8.59,0,0,1,1-.18l.35,0h.29a7.53,7.53,0,0,1,3,.72,19.89,19.89,0,0,1,2.26,1.25,5.76,5.76,0,0,0,5.54.68A9.2,9.2,0,0,0,63,58.14a8.35,8.35,0,0,1,1.4-1.1,6.28,6.28,0,0,1,5.19-.32,13.46,13.46,0,0,1,1.48.63,7.84,7.84,0,0,0,4.21,1.06c2-.2,3.25-1.54,4.39-2.73.36-.37.7-.73,1.05-1a8.32,8.32,0,0,1,.7-.55L81.6,54c-.12.81-.28,1.6-.47,2.37ZM19.2,42.81c.31-.5.65-1.05,1-1.62a10.56,10.56,0,0,1,2.9-3,3.52,3.52,0,0,1,.47-.28l1.05-.44a6.88,6.88,0,0,1,.69-.12,8.39,8.39,0,0,1,2.26.14,10.82,10.82,0,0,1,1.24.34,7.2,7.2,0,0,0,3.4.46,6.32,6.32,0,0,0,3.57-2.37,12.31,12.31,0,0,1,3.25-2.61,6.85,6.85,0,0,1,1.42-.56l.69-.14.1,0h.23l.39,0H42l.56.05.42.07.2.05c.2.05.4.1.59.17a9.79,9.79,0,0,1,2.54,1.31,9.88,9.88,0,0,0,2.36,1.27c2,.65,3.69-.45,5.08-1.33a13.29,13.29,0,0,1,1.18-.7,7.67,7.67,0,0,1,2.86-.89,7.14,7.14,0,0,1,.94,0h0l.12,0H59v.06l1.24.36a2.79,2.79,0,0,1,.34.15l.39.19a16.87,16.87,0,0,1,3.78,2.78l.21.2a6,6,0,0,0,3.54,2,7.18,7.18,0,0,0,2.72-.46,8.79,8.79,0,0,1,1.14-.31,8.25,8.25,0,0,1,2.18-.15l.66.1.66.2.13.05,0,0,.92.54a3.66,3.66,0,0,1,.37.25l.46.38a10.39,10.39,0,0,1,.78.77,13.85,13.85,0,0,1,1.2,1.55c.4.6.74,1.16,1,1.67l.19.3a24.46,24.46,0,0,1,.57,2.64,7.56,7.56,0,0,1-.78-.6c-.3-.27-.61-.56-.92-.87a9.73,9.73,0,0,0-3.79-2.65c-2-.59-3.64.21-5,.85a13,13,0,0,1-1.45.62,8.34,8.34,0,0,1-1.07.28l-.22,0-.4.06c-.29,0-.58,0-.81,0l-.6,0h0l-.18,0h0l-.52-.12a6.63,6.63,0,0,1-1.39-.56,9.45,9.45,0,0,1-1.74-1.36,16.36,16.36,0,0,0-1.53-1.27c-2.34-1.65-4.5-.32-5.93.57A19.66,19.66,0,0,1,53,42a9.78,9.78,0,0,1-1.39.5,9.21,9.21,0,0,1-.95.18l-.65,0A7.46,7.46,0,0,1,47,42a18.5,18.5,0,0,1-2.26-1.25A5.77,5.77,0,0,0,39.2,40a9.16,9.16,0,0,0-2.29,1.65,8.37,8.37,0,0,1-1.4,1.1,6.25,6.25,0,0,1-5.19.32,13.33,13.33,0,0,1-1.48-.63,7.9,7.9,0,0,0-4.21-1.06c-2,.2-3.25,1.54-4.39,2.73-.36.37-.7.73-1.05,1a8.65,8.65,0,0,1-.68.54l-.09.06a24.38,24.38,0,0,1,.56-2.6Zm62.45,8.12-.28.11-.36.14a7.22,7.22,0,0,0-1.21.73,10.33,10.33,0,0,0-.86.69c-.43.38-.83.79-1.22,1.19-.9.93-1.74,1.81-2.71,1.91a5.71,5.71,0,0,1-2.77-.82,15.72,15.72,0,0,0-1.8-.76,8.84,8.84,0,0,0-7.36.53,10.49,10.49,0,0,0-1.89,1.45,7,7,0,0,1-1.59,1.2,3.16,3.16,0,0,1-3-.52A22.25,22.25,0,0,0,54,55.37a10.3,10.3,0,0,0-4.16-1l-.43,0h-.24l-.23,0a11.46,11.46,0,0,0-1.34.25,12.22,12.22,0,0,0-1.83.65,22,22,0,0,0-2.58,1.41c-1.56,1-2.17,1.19-2.92.66a14.06,14.06,0,0,1-1.27-1.06,11.58,11.58,0,0,0-2.3-1.75,9.57,9.57,0,0,0-2-.8l-.49-.12-.12,0-.09,0-.09,0-.26,0h-.15l-.71,0c-.36,0-.71,0-1.09,0s-.45.05-.65.09l-.24,0a11.82,11.82,0,0,0-1.47.38,15.27,15.27,0,0,0-1.75.74c-1.29.61-2.12,1-3,.7a7.76,7.76,0,0,1-2.67-2c-.34-.33-.68-.66-1-1A9.57,9.57,0,0,0,19,51.27l-.08,0L18.46,51l-.08,0-.16-.06h0l-.06,0h0c0-.3,0-.59,0-.89s0-.71,0-1.07h0a1.93,1.93,0,0,0,.4-.14l.33-.13a7.42,7.42,0,0,0,1.24-.74,10.89,10.89,0,0,0,.85-.68c.43-.38.83-.79,1.21-1.19.9-.93,1.74-1.81,2.71-1.91a5.67,5.67,0,0,1,2.76.81,15.48,15.48,0,0,0,1.8.76,8.82,8.82,0,0,0,7.36-.53,10.49,10.49,0,0,0,1.89-1.45,7,7,0,0,1,1.59-1.2,3.16,3.16,0,0,1,3,.51,21.26,21.26,0,0,0,2.58,1.42,10.25,10.25,0,0,0,4.16,1l.91-.06a11.94,11.94,0,0,0,1.33-.25,12.48,12.48,0,0,0,1.83-.65A22.07,22.07,0,0,0,56.7,43c1.56-1,2.17-1.19,2.92-.66a14.1,14.1,0,0,1,1.27,1.07,11.58,11.58,0,0,0,2.29,1.74,9.51,9.51,0,0,0,2,.81l.48.11.19,0,.17,0,.22,0h.24l.59,0c.35,0,.7,0,1.1,0l.63-.09.24,0a11.32,11.32,0,0,0,1.48-.38A15.38,15.38,0,0,0,72.28,45c1.29-.61,2.12-1,3-.7a7.72,7.72,0,0,1,2.67,2c.34.33.68.66,1,1a9.52,9.52,0,0,0,1.92,1.34l.08,0,.48.21.1,0,.11,0,.2.06c0,.35,0,.7,0,1.05s0,.58,0,.87l-.22.06ZM50,24.35c12.15,0,21.6,4,27,10.76L76.82,35c-.3-.1-.62-.2-.93-.28l-.08,0c-.3-.06-.59-.1-.95-.15a10.87,10.87,0,0,0-2.93.17,11,11,0,0,0-1.51.4,4.88,4.88,0,0,1-1.7.35,3.79,3.79,0,0,1-1.89-1.24l-.22-.2a19.29,19.29,0,0,0-4.41-3.22l-.41-.2a5.39,5.39,0,0,0-.64-.27l-.89-.29-.1,0L60,30l-.08,0-.18,0,0,.15L59.58,30l0-.11,0,.1L59.44,30V29.9l-.11,0-.2,0h-.23a9.76,9.76,0,0,0-1.35,0A10.34,10.34,0,0,0,53.73,31a15.24,15.24,0,0,0-1.45.85c-1,.66-2,1.29-2.76,1a7.79,7.79,0,0,1-1.7-1A13.71,13.71,0,0,0,46.26,31a14.2,14.2,0,0,0-1.58-.67c-.24-.09-.54-.17-.82-.24l-.13,0a5.58,5.58,0,0,0-.82-.15c-.26,0-.52-.06-.76-.07a2.59,2.59,0,0,0-.41,0h-.24a2.94,2.94,0,0,0-.66.07h0l-1,.19-.08,0a9.57,9.57,0,0,0-2,.81,15.17,15.17,0,0,0-2.77,2A14.64,14.64,0,0,0,33.8,34a4.17,4.17,0,0,1-2,1.53,5.11,5.11,0,0,1-2.15-.37,13.08,13.08,0,0,0-1.59-.42,11.34,11.34,0,0,0-3-.17,9.72,9.72,0,0,0-1.14.2l-.15,0-.35.13-.27.09h0l-.14.05C28.39,28.31,37.84,24.35,50,24.35Zm0,51.31c-12.28,0-21.79-4-27.13-11l.23.09c.31.11.62.2.94.29l.1,0c.29.06.58.1.94.14A11.17,11.17,0,0,0,28,65.06a10.78,10.78,0,0,0,1.52-.4,4.84,4.84,0,0,1,1.69-.35,3.85,3.85,0,0,1,1.88,1.23l.23.21A19.38,19.38,0,0,0,37.74,69l.45.22a5.48,5.48,0,0,0,.59.24l.59.2.34.1.08,0,.58.13.21,0,.2,0H41c.25,0,.53,0,.82,0l.52,0a10.49,10.49,0,0,0,3.84-1.15A15.64,15.64,0,0,0,47.64,68c1-.64,2-1.29,2.76-1a7.88,7.88,0,0,1,1.7,1,13.78,13.78,0,0,0,1.56.94,13.6,13.6,0,0,0,1.57.66c.24.09.52.16.79.24l.18,0A5.51,5.51,0,0,0,57,70l.75.07h.67a3,3,0,0,0,.64-.07v0l.18,0,.85-.18a9.47,9.47,0,0,0,2-.81,15.17,15.17,0,0,0,2.77-2,14.61,14.61,0,0,0,1.18-1.18,4.17,4.17,0,0,1,2-1.53,5.09,5.09,0,0,1,2.15.37,12.81,12.81,0,0,0,1.59.42,11.45,11.45,0,0,0,3,.17A9.09,9.09,0,0,0,76,65l.11,0,.38-.14.16-.05h0l.12,0h0l.22-.09.11,0,.11-.05C71.91,71.56,62.35,75.65,50,75.65Z"/></g></g></svg>