<svg xmlns="http://www.w3.org/2000/svg" viewBox="0 0 100 100"><defs><style>.cls-1{fill:#ffb95a;}.cls-2{fill:#fff;}</style></defs><title>yam_icon</title><g id="Layer_2" data-name="Layer 2"><g id="Layer_2-2" data-name="Layer 2"><rect class="cls-1" width="100" height="100"/><path class="cls-2" d="M81.1,21.2a1.7,1.7,0,0,0-1.26-1.29,37.47,37.47,0,0,0-8.16-.78c-9.74,0-24.15,2.79-37.45,16.1-21,21-15.56,44.61-15.32,45.61A1.7,1.7,0,0,0,20.2,82.1a39,39,0,0,0,7.65.65,53.41,53.41,0,0,0,37.92-16C86.28,46.26,81.32,22.21,81.1,21.2ZM70.21,56a39.88,39.88,0,0,0-3.12-3.8,1.35,1.35,0,0,0-2,1.85,33.87,33.87,0,0,1,3.43,4.33,53.3,53.3,0,0,1-5.19,6A50.33,50.33,0,0,1,40.29,77.73,35.52,35.52,0,0,0,35.63,72a1.35,1.35,0,1,0-1.88,1.93,34.29,34.29,0,0,1,3.73,4.47,49.41,49.41,0,0,1-9.63,1A41.56,41.56,0,0,1,22,79a43.72,43.72,0,0,1,0-12.73,50,50,0,0,1,14.65-28.6A52,52,0,0,1,53.43,26.19a66.69,66.69,0,0,1,9.48,7,1.35,1.35,0,0,0,1.79-2A70.07,70.07,0,0,0,56.61,25a47.4,47.4,0,0,1,15.07-2.46A39.4,39.4,0,0,1,78,23,49.56,49.56,0,0,1,70.21,56ZM67.95,33.79a1.35,1.35,0,0,1-1,2.3,1.34,1.34,0,0,1-.95-2.3A1.38,1.38,0,0,1,67.95,33.79Zm-7.2,11.66a1.35,1.35,0,1,1-1.94,1.88A81.38,81.38,0,0,0,50.4,40,1.35,1.35,0,0,1,52,37.87,83,83,0,0,1,60.74,45.45ZM37.63,59a1.35,1.35,0,1,1-1.84,2,36.88,36.88,0,0,0-6.4-4.76,1.35,1.35,0,1,1,1.31-2.36A39,39,0,0,1,37.63,59Zm19.05,2.71a1.35,1.35,0,0,1-2.12,1.68,41.14,41.14,0,0,0-7.32-7.19,1.35,1.35,0,1,1,1.62-2.16A43.83,43.83,0,0,1,56.68,61.74Zm-10.9-9.86a1.36,1.36,0,0,1,.39,1,1.35,1.35,0,0,1-1.35,1.35,1.37,1.37,0,0,1-1.35-1.35,1.37,1.37,0,0,1,.4-1A1.4,1.4,0,0,1,45.78,51.88Z"/></g></g></svg>