<svg xmlns="http://www.w3.org/2000/svg" viewBox="0 0 100 100"><defs><style>.cls-1{fill:#6cad73;}.cls-2{fill:#fff;}</style></defs><title>zuccini_icon</title><g id="Layer_2" data-name="Layer 2"><g id="Layer_2-2" data-name="Layer 2"><rect class="cls-1" width="100" height="100"/><path class="cls-2" d="M79.8,20.89c-2.3-2.31-4.2-3.15-5.64-2.49a33.83,33.83,0,0,0-4.52,2.74c-5.33-.85-10.19,3.37-14,6.7l-1.89,1.64c-8.37,7.25-17,14.75-24.9,22.79l-.61.62c-6.5,6.61-16.32,16.59-6.69,26.23l.11.1.1.11c2.9,2.9,5.82,4,8.68,4,6.65,0,12.93-6.18,17.56-10.73l.62-.61c8.07-7.92,15.6-16.6,22.88-25L73,45.24c3.4-3.91,7.72-8.89,6.64-14.36a31.38,31.38,0,0,0,2.63-4.36C82.94,25.08,82.1,23.19,79.8,20.89Zm-13,18.26L65,41C57.45,49,49.67,57.3,41.75,65.16l-.61.61C36.42,70.45,28,78.8,24.37,78.07c-.24-.21-.48-.43-.71-.67l-.11-.1-.1-.11c-.24-.24-.46-.48-.67-.71-.73-3.64,7.62-12,12.3-16.76l.61-.61c7.86-7.93,16.14-15.72,24.14-23.26l1.87-1.76c3.89-3.67,9.06-8.53,11.67-8.1.22.2.44.4.66.62l.21.21c.22.22.43.45.62.67C75.3,30.1,70.44,35.26,66.77,39.14ZM30.15,54.79l.61-.62c7.81-8,16.42-15.42,24.74-22.64l1.89-1.64c5.14-4.47,9.14-7.44,13.38-5.61-3.17,1.29-6.9,4.8-10.55,8.24l-1.87,1.76c-8,7.55-16.3,15.36-24.19,23.31l-.61.61c-5,5.07-10.93,11-12.55,15.62C18.21,67.76,23.49,61.56,30.15,54.79ZM71,43.46l-1.55,1.79c-7.24,8.36-14.74,17-22.73,24.84l-.62.61c-6.78,6.67-13,12-19.05,9.14,4.62-1.61,10.56-7.5,15.64-12.54l.61-.6C51.21,58.81,59,50.53,66.55,42.52l1.79-1.9c3.44-3.65,7-7.38,8.24-10.54C78.41,34.32,75.44,38.31,71,43.46ZM78.46,27.8a14.61,14.61,0,0,0-2.29-2.9L76,24.69a14.25,14.25,0,0,0-3.14-2.42,27.49,27.49,0,0,1,2.39-1.37,6.92,6.92,0,0,1,2.67,1.91,6.91,6.91,0,0,1,1.9,2.67A23.9,23.9,0,0,1,78.46,27.8Z"/></g></g></svg>