<svg xmlns="http://www.w3.org/2000/svg" viewBox="0 0 302.2 320.13"><defs><style>.cls-1{fill:#b3b3b3;}.cls-2{fill:#a6120d;}.cls-3{fill:#dd1b16;}.cls-4{fill:#f2f2f2;}</style></defs><title>angular_icon</title><g id="Layer_2" data-name="Layer 2"><g id="Angular"><path class="cls-1" d="M150.62,0,0,53,23.8,250.34l127,69.79,127.63-70.73L302.2,52.07Z"/><path class="cls-2" d="M287.18,63.47,150.27,16.78V303.45L265,240,287.18,63.47Z"/><path class="cls-3" d="M16.9,64.31,37.3,240.8l113,62.66V16.78L16.9,64.31Z"/><path class="cls-4" d="M188,169.39,150.27,187H110.54l-18.67,46.7-34.73.64L150.27,27.19,188,169.39Zm-3.64-8.87-33.79-66.9L122.8,159.37h27.47l34,1.15Z"/><path class="cls-1" d="M150.27,27.19l.25,66.43L182,159.42H150.34L150.27,187,194,187l20.44,47.35,33.23.62L150.27,27.19Z"/></g></g></svg>