<svg xmlns="http://www.w3.org/2000/svg" xmlns:xlink="http://www.w3.org/1999/xlink" viewBox="0 0 343.38 343.38"><defs><style>.cls-1{fill:url(#linear-gradient);}.cls-2{fill:#fff;}</style><linearGradient id="linear-gradient" x1="11.44" y1="295.56" x2="307.88" y2="66.41" gradientUnits="userSpaceOnUse"><stop offset="0" stop-color="#101034"/><stop offset="1" stop-color="#612d50"/></linearGradient></defs><title>bootstrap_icon</title><g id="Layer_2" data-name="Layer 2"><g id="Bootstrap"><rect class="cls-1" width="343.38" height="343.38" rx="46.13" ry="46.13"/><path class="cls-2" d="M82.57,64.18H182.84c56.76,0,69,40.34,69,56.27,0,32.21-18.27,40.45-27.39,44.15,13.86,3.91,36.33,15.73,36.33,56.7,0,11.71-1.48,57.89-75.37,57.89H82.57Zm55.5,84H168.6c22.59,0,24.86-14.8,24.86-21.89,0-6.57-4.11-21-24.47-21H138.07Zm0,93.42h35c29.1,0,30.8-20.47,30.8-27.67,0-6.68-2.51-27.34-30.93-27.34H138.07Z"/></g></g></svg>