<svg xmlns="http://www.w3.org/2000/svg" xmlns:xlink="http://www.w3.org/1999/xlink" viewBox="0 0 247.58 346.82"><defs><style>.cls-1{fill:#2062af;}.cls-2{fill:#3c9cd7;}.cls-3{fill:#fff;}.cls-4{fill:url(#linear-gradient);}.cls-5{fill:url(#linear-gradient-2);}.cls-6{fill:url(#linear-gradient-3);}.cls-7{opacity:0.05;isolation:isolate;}.cls-8{fill:url(#linear-gradient-4);}</style><linearGradient id="linear-gradient" x1="-977.31" y1="-724.61" x2="-977.31" y2="-737.46" gradientTransform="translate(4624.17 3574.67) scale(4.64)" gradientUnits="userSpaceOnUse"><stop offset="0.39" stop-color="#d1d3d4" stop-opacity="0"/><stop offset="1" stop-color="#d1d3d4"/></linearGradient><linearGradient id="linear-gradient-2" x1="-961.25" y1="-731.02" x2="-961.25" y2="-744.38" xlink:href="#linear-gradient"/><linearGradient id="linear-gradient-3" x1="-985.04" y1="-718.87" x2="-954.17" y2="-718.87" gradientTransform="translate(4624.17 3574.67) scale(4.64)" gradientUnits="userSpaceOnUse"><stop offset="0" stop-color="#e8e7e5"/><stop offset="1" stop-color="#fff"/></linearGradient><linearGradient id="linear-gradient-4" x1="-986.46" y1="-741.11" x2="-952.94" y2="-741.11" xlink:href="#linear-gradient-3"/></defs><title>css_icon</title><g id="Layer_2" data-name="Layer 2"><g id="CSS"><path class="cls-1" d="M224.37,319.73,123.79,346.82,23.21,319.73,0,68.29H247.58Z"/><path class="cls-2" d="M123.79,88.65V325.22l.23.06,81.39-21.92L224.2,88.65H123.79Z"/><path d="M66.71,31.34v-15H88.54V0H50.33V46.29H88.54V31.34Zm61.12-15h15.27V0H104.87V16.38c5.11,5.11,7.78,7.56,15.17,15H104.87V46.29h38.22V31.34l-15.27-15Zm54.16,0h15.27V0H159V16.38c5.11,5.11,7.78,7.56,15.18,15H159V46.29h38.22V31.34L182,16.38Z"/><path class="cls-3" d="M123.7,151.53l-72,30,2.39,29.68,69.6-29.76,74-31.65,3.07-30.37L123.7,151.53Z"/><path class="cls-4" d="M51.71,181.51l2.39,29.68,69.6-29.76V151.53Z"/><path class="cls-5" d="M200.81,119.41,123.7,151.53v29.91l74-31.65Z"/><path class="cls-6" d="M51.82,181.51l2.39,29.68,106.79.34-2.39,39.58L123.47,261l-33.78-8.53-2-24.57H56.26l4.09,47.42,63.46,18.76,63.12-18.42,8.19-94.16Z"/><path class="cls-7" d="M123.7,181.51h-72l2.39,29.68,69.6.22V181.51Zm0,79.4-.34.1-33.78-8.53-2-24.57H56.15l4.09,47.42L123.7,294.1Z"/><path class="cls-8" d="M45.23,119.41H200.81l-3.07,30.37H49l-3.75-30.37Z"/><path class="cls-7" d="M123.84,119.77l-78.47-.72,3.47,30.4,74.72.69.28-30.36Z"/></g></g></svg>