<svg xmlns="http://www.w3.org/2000/svg" viewBox="0 0 345.1 99.95"><defs><style>.cls-1{fill:#222;}</style></defs><title>express_icon</title><g id="Layer_2" data-name="Layer 2"><g id="Express"><path class="cls-1" d="M2.25,77.94V39.53h48V37.28h-48v-35h51V0H0V80.18H53.68V77.94H2.25ZM96.91,22.46,77,48.63,57.61,22.46H54.69l21,27.85-23,29.87h2.7L77,52,98.82,80.18h2.81L78.5,50.31,99.61,22.46H96.91Zm11.45,77.49V64h.22a23.06,23.06,0,0,0,8,12.63q6,4.77,15.16,4.77a21.94,21.94,0,0,0,18.25-9,30.58,30.58,0,0,0,4.72-9.66,40.56,40.56,0,0,0,1.63-11.57,40.89,40.89,0,0,0-1.69-12,28.76,28.76,0,0,0-4.88-9.55A22.45,22.45,0,0,0,142,23.36a22.89,22.89,0,0,0-10.28-2.25,24.92,24.92,0,0,0-8.14,1.29,21.79,21.79,0,0,0-6.68,3.65,24.72,24.72,0,0,0-5.05,5.56,25.6,25.6,0,0,0-3.26,7h-.22V22.46h-2.25V99.95h2.25Zm23.36-20.66q-10.56,0-17-7.24t-6.4-20.83a35.71,35.71,0,0,1,1.57-10.67,27.63,27.63,0,0,1,4.55-8.87,21.84,21.84,0,0,1,7.36-6.06,21.34,21.34,0,0,1,9.88-2.25,20.57,20.57,0,0,1,9.83,2.25,19.92,19.92,0,0,1,7,6.12,28.5,28.5,0,0,1,4.16,8.87,39.09,39.09,0,0,1,1.4,10.61,40,40,0,0,1-1.29,10.05,28.73,28.73,0,0,1-4,9,21.7,21.7,0,0,1-6.91,6.51,19.41,19.41,0,0,1-10.16,2.53Zm36.95.9V47.5A31.85,31.85,0,0,1,170,38.29a22.55,22.55,0,0,1,4.15-7.92A19.47,19.47,0,0,1,181.31,25a21.64,21.64,0,0,1,10.28-1.63V21.11a27.82,27.82,0,0,0-9,1.12,22,22,0,0,0-6.68,3.37,17.21,17.21,0,0,0-4.49,5,22.34,22.34,0,0,0-2.47,6.12h-.22V22.46h-2.25V80.18h2.25Zm25.72-28.41h48.29a40,40,0,0,0-1.18-11.45A28.49,28.49,0,0,0,237,30.55a22.87,22.87,0,0,0-8-6.85,24.55,24.55,0,0,0-11.62-2.58A23.64,23.64,0,0,0,199.89,29a29.92,29.92,0,0,0-5.61,9.49,35.86,35.86,0,0,0-2.13,12.8,47,47,0,0,0,1.46,12,28,28,0,0,0,4.49,9.66,20.27,20.27,0,0,0,7.81,6.34,25.82,25.82,0,0,0,11.51,2.13q9.88,0,16.62-5.56t8-15.67h-2.25q-1.46,9.55-7.47,14.32t-15.1,4.77a23.19,23.19,0,0,1-10.44-2.13,18.92,18.92,0,0,1-7-5.84,25.47,25.47,0,0,1-4-8.7,46.82,46.82,0,0,1-1.4-10.84Zm46-2.25h-46a34.72,34.72,0,0,1,2.25-10.89,27,27,0,0,1,5-8.25,20.89,20.89,0,0,1,7.19-5.22,21.72,21.72,0,0,1,8.82-1.8,22.32,22.32,0,0,1,9.88,2.08,20.41,20.41,0,0,1,7.13,5.67A25,25,0,0,1,239,39.47a34.18,34.18,0,0,1,1.46,10.05Zm48.85-10h2.25q0-9.66-5.61-14t-15.27-4.38a26.79,26.79,0,0,0-9.1,1.35,18.19,18.19,0,0,0-6.06,3.48,12.53,12.53,0,0,0-3.37,4.72,13.55,13.55,0,0,0-1,4.94,14.54,14.54,0,0,0,1.69,7.52,11.08,11.08,0,0,0,5.28,4.38,40.65,40.65,0,0,0,5.62,2q3.14.9,7.3,1.91l7.3,1.8a26.37,26.37,0,0,1,6.34,2.41,13.72,13.72,0,0,1,4.49,3.87,10.15,10.15,0,0,1,1.74,6.18A11,11,0,0,1,289.12,72a14,14,0,0,1-4.44,4.21,19.76,19.76,0,0,1-6,2.36,30,30,0,0,1-6.46.73q-10.22,0-15.67-4.55T251.1,60.42h-2.25q0,10.89,5.9,15.95t17.46,5.05a34.11,34.11,0,0,0,7.47-.84,20.75,20.75,0,0,0,6.74-2.75,15.23,15.23,0,0,0,4.83-4.94,14,14,0,0,0,1.85-7.41,12.48,12.48,0,0,0-1.63-6.74,13.66,13.66,0,0,0-4.27-4.27,22.63,22.63,0,0,0-6-2.64q-3.33-1-6.68-1.85-4.12-1.08-8.25-2.13a50.13,50.13,0,0,1-6.57-2.13,11.15,11.15,0,0,1-4.66-3.54,10.72,10.72,0,0,1-1.74-6.57,15.48,15.48,0,0,1,.45-2.81,10.07,10.07,0,0,1,2.13-4.1A14.37,14.37,0,0,1,261.1,25a22.94,22.94,0,0,1,9.55-1.63,29.88,29.88,0,0,1,7.58.9,15.76,15.76,0,0,1,5.9,2.86,13,13,0,0,1,3.82,5,18.22,18.22,0,0,1,1.35,7.41Zm52,0h2.25q0-9.66-5.61-14t-15.27-4.38a26.79,26.79,0,0,0-9.1,1.35,18.17,18.17,0,0,0-6.06,3.48,12.52,12.52,0,0,0-3.37,4.72,13.55,13.55,0,0,0-1,4.94,14.54,14.54,0,0,0,1.69,7.52,11.08,11.08,0,0,0,5.28,4.38,40.67,40.67,0,0,0,5.61,2q3.14.9,7.3,1.91l7.3,1.8a26.37,26.37,0,0,1,6.35,2.41,13.71,13.71,0,0,1,4.49,3.87,10.15,10.15,0,0,1,1.74,6.18A11,11,0,0,1,341.11,72a14,14,0,0,1-4.44,4.21,19.76,19.76,0,0,1-6,2.36,30,30,0,0,1-6.46.73q-10.22,0-15.67-4.55T303.1,60.42h-2.25q0,10.89,5.9,15.95t17.46,5.05a34.1,34.1,0,0,0,7.47-.84,20.76,20.76,0,0,0,6.74-2.75,15.23,15.23,0,0,0,4.83-4.94,14,14,0,0,0,1.85-7.41,12.47,12.47,0,0,0-1.63-6.74,13.65,13.65,0,0,0-4.27-4.27,22.64,22.64,0,0,0-6-2.64q-3.33-1-6.68-1.85-4.12-1.08-8.25-2.13a50.1,50.1,0,0,1-6.57-2.13,11.14,11.14,0,0,1-4.66-3.54,10.72,10.72,0,0,1-1.74-6.57,15.44,15.44,0,0,1,.45-2.81,10.07,10.07,0,0,1,2.13-4.1A14.37,14.37,0,0,1,313.09,25a22.94,22.94,0,0,1,9.55-1.63,29.88,29.88,0,0,1,7.58.9,15.76,15.76,0,0,1,5.9,2.86,13,13,0,0,1,3.82,5,18.22,18.22,0,0,1,1.35,7.41Z"/></g></g></svg>