<svg xmlns="http://www.w3.org/2000/svg" viewBox="0 0 346.82 346.82"><title>github_icon</title><g id="Layer_2" data-name="Layer 2"><g id="Github"><path d="M0,173.41Q0,101.61,50.8,50.8T173.41,0Q245.21,0,296,50.8t50.8,122.61q0,71.8-50.8,122.61t-122.61,50.8q-71.8,0-122.61-50.8T0,173.41Zm19,0q0,63.67,45.38,109.06t109.06,45.38q63.67,0,109.06-45.38t45.38-109.06q0-63.67-45.38-109.06T173.41,19Q109.73,19,64.35,64.35T19,173.41Zm48.77,37.26a1.69,1.69,0,0,1,0-2.71,7.33,7.33,0,0,1,6.77-2q4.06.68,4.74,1.35,4.74,2,10.5,9.14a69,69,0,0,0,9.14,9.82q16.26,13.55,33.19,2a20.29,20.29,0,0,1,4.4-8.13,20.51,20.51,0,0,1,5.76-4.74q2.71-1.35,9.48-4.06-22.35-2-36.24-7.79T93.48,189q-10.84-12.19-13.21-31.84t3-35.9A59.65,59.65,0,0,1,94.83,103q-5.42-16.93,2-38.61a70.35,70.35,0,0,1,39.29,14.9q33.87-8.81,70.45-.68a127.3,127.3,0,0,1,14.56-8.47Q231,65,245.89,64.35A73,73,0,0,1,249.61,82a58.22,58.22,0,0,1-1,19q15.58,16.26,16.26,43.35,0,21.68-7.45,35.9T231,203.89q-12.87,6.1-33.87,7.45,9.48,4.74,13.89,9.82t5.76,15.92v21.34l.68,20.66a25.47,25.47,0,0,0,9.48,9.15,2.29,2.29,0,0,1,1.35,3q-.68,2-5.42,2-11.52,0-18.29-8.13a15.51,15.51,0,0,1-2-8.13V244.53q0-5.42-2.71-7.79a13.22,13.22,0,0,0-5.42-3v42.67q0,11.52,2.71,14.9A16,16,0,0,1,200.5,298q.68.68-1,1t-5.76-1q-8.81-2-12.19-9.14a35,35,0,0,1-3.39-15.24v-42h-8.81v42A37.23,37.23,0,0,1,166,289.24q-4.74,9.48-17.61,10.16-2-.68-2-1.35a57.44,57.44,0,0,0,4.06-6.77,31.44,31.44,0,0,0,1.69-5.42,39.35,39.35,0,0,0,1-9.48V233.69a11,11,0,0,0-5.08,3q-2.37,2.37-2.37,7.79V277a15.51,15.51,0,0,1-2,8.13q-6.1,8.13-18.29,8.13-4.74,0-5.42-2a1.88,1.88,0,0,1,.34-2.37,20.63,20.63,0,0,1,3-2.37,20.21,20.21,0,0,0,2.71-2,12.33,12.33,0,0,0,4.06-5.42q2-2.71,1-14.22t-.34-14.9q-17.61,6.1-35.9-6.1Q89.41,238.44,84,228.28q-4.06-7.45-16.26-17.61Z"/></g></g></svg>