<svg xmlns="http://www.w3.org/2000/svg" viewBox="0 0 279.73 346.82"><defs><style>.cls-1{fill:#6762a6;}.cls-2{fill:#fff;}</style></defs><title>heroku_icon</title><g id="Layer_2" data-name="Layer 2"><g id="Heroku"><path class="cls-1" d="M246.65,346.82H33.08A33.07,33.07,0,0,1,0,313.74V33.08A33.08,33.08,0,0,1,33.08,0H246.65a33.08,33.08,0,0,1,33.08,33.08V313.74a33.08,33.08,0,0,1-33.08,33.07Z"/><path class="cls-2" d="M175.3,299.1V161.37s9-33-110.35,13.48c-.22.59-.22-127.36-.22-127.36l39-.24v82s109.15-43,109.15,32.6V299.1H175.3ZM197.52,96.86H156.17c14.88-18.2,28.36-49.38,28.36-49.38h42.75S220,67.81,197.52,96.86Zm-132.07,202V220.42l39.22,39.22L65.44,298.86Z"/></g></g></svg>