<svg xmlns="http://www.w3.org/2000/svg" viewBox="0 0 245.71 346.82"><defs><style>.cls-1{fill:#e44d26;}.cls-2{fill:#f16529;}.cls-3{fill:#ebebeb;}.cls-4{fill:#fff;}</style></defs><title>html_icon</title><g id="Layer_2" data-name="Layer 2"><g id="HTML"><polygon class="cls-1" points="22.36 318.96 0 68.16 245.71 68.16 223.32 318.92 122.7 346.82 22.36 318.96"/><polygon class="cls-2" points="122.85 325.5 204.16 302.95 223.29 88.67 122.85 88.67 122.85 325.5"/><path class="cls-3" d="M122.85,181.68H82.15l-2.81-31.5h43.51V119.43H45.72l.74,8.25L54,212.44h68.84Zm0,79.89-.14,0-34.26-9.25-2.19-24.53H55.39l4.31,48.3,63,17.49.14,0Z"/><path d="M22.86,0H38.49V15.44h14.3V0H68.42V46.77H52.79V31.11H38.49V46.77H22.86ZM89,15.51H75.22V0h43.16V15.51H104.62V46.77H89V15.51ZM125.23,0h16.3l10,16.43L161.58,0h16.31V46.77H162.31V23.59L151.56,40.22h-.27L140.53,23.59V46.77h-15.3V0Zm60.43,0H201.3V31.31h22V46.77H185.66Z"/><path class="cls-4" d="M122.75,181.68v30.76h37.88l-3.57,39.89-34.31,9.26v32l63.06-17.48.46-5.2,7.23-81,.75-8.26h-71.5Zm0-62.26v30.76H197l.62-6.91,1.4-15.59.74-8.25Z"/></g></g></svg>