<svg xmlns="http://www.w3.org/2000/svg" viewBox="0 0 346.82 346.82"><defs><style>.cls-1{fill:#f0db4f;}.cls-2{fill:#323330;}</style></defs><title>js_icon</title><g id="Layer_2" data-name="Layer 2"><g id="Javascript"><path class="cls-1" d="M0,0H346.82V346.82H0Z"/><path class="cls-2" d="M318.43,264.1C315.89,248.28,305.58,235,275,222.6c-10.62-4.88-22.45-8.37-26-16.42-1.25-4.68-1.42-7.32-.63-10.15,2.27-9.2,13.25-12.07,22-9.43a24.16,24.16,0,0,1,14.11,13.09c15-9.69,14.93-9.63,25.38-16.29-3.82-5.93-5.87-8.67-8.37-11.21-9-10.06-21.26-15.23-40.88-14.84l-10.22,1.32c-9.79,2.47-19.12,7.62-24.59,14.51-16.42,18.63-11.74,51.23,8.24,64.65,19.68,14.77,48.59,18.13,52.29,31.95,3.59,16.91-12.43,22.38-28.35,20.44-11.74-2.44-18.26-8.41-25.32-19.25-13,7.52-13,7.52-26.34,15.2,3.16,6.92,6.49,10.06,11.8,16.06,25.12,25.48,88,24.23,99.26-14.34C317.84,286.55,320.87,277.72,318.43,264.1ZM188.54,159.4H156.1c0,28-.13,55.85-.13,83.87,0,17.84.92,34.19-2,39.2-4.75,9.86-17,8.64-22.65,6.73-5.7-2.8-8.6-6.79-12-12.43a16.7,16.7,0,0,0-1.85-3q-13.2,8.06-26.37,16.15c4.38,9,10.85,16.81,19.12,21.89,12.36,7.42,29,9.69,46.35,5.7,11.31-3.3,21.07-10.12,26.18-20.51,7.38-13.62,5.8-30.1,5.74-48.33.16-29.74,0-59.47,0-89.31Z"/></g></g></svg>