<svg xmlns="http://www.w3.org/2000/svg" viewBox="0 0 340.48 340.48"><defs><style>.cls-1{fill:#e16426;}</style></defs><title>knex_icon</title><g id="Layer_2" data-name="Layer 2"><g id="Knex"><path class="cls-1" d="M338.59,188.9l-41.91-20.25,39.7-18.57a6.11,6.11,0,0,0,2.76-8.8L335,136.51c-2.66-2.91-5.55-5-9.07-3.65L296.45,144a3.23,3.23,0,0,1-2,.09L283,140.82a2.5,2.5,0,0,0-2.4.59L268.41,153a99.2,99.2,0,0,0-18.28-42.39l17.86-.14a2.13,2.13,0,0,0,1.85-1.1l6.32-11.46a3,3,0,0,1,1.47-1.33l29.22-12.46c1.79-.76,2.9-4.49,2.55-6.91l-1-8.72c-.78-2.51-4.3-4.71-6-4.09l-44,15.32,14.94-41.2a6.11,6.11,0,0,0-4.28-8.18l-6.29-.46c-3.94-.18-7.49.37-9,3.83l-13,28.72a3.22,3.22,0,0,1-1.36,1.48l-10.36,5.79a2.5,2.5,0,0,0-1.28,2.11l-.44,16.84a99.09,99.09,0,0,0-42.91-17L197.1,58.86a2.13,2.13,0,0,0,.53-2.08L194,44.21a3.06,3.06,0,0,1,.1-2l11.85-29.47c.73-1.81-1.13-5.23-3.08-6.69L196,.56c-2.32-1.22-6.37-.29-7.12,1.33L168.65,43.81,150.08,4.1a6.11,6.11,0,0,0-8.8-2.76L136.5,5.47c-2.91,2.66-5,5.55-3.65,9.07L144,44a3.22,3.22,0,0,1,.09,2l-3.23,11.42a2.49,2.49,0,0,0,.59,2.39L153,72.07a99.2,99.2,0,0,0-42.39,18.27l-.14-17.85a2.13,2.13,0,0,0-1.1-1.85L97.91,64.33a3,3,0,0,1-1.33-1.47L84.12,33.63c-.76-1.79-4.49-2.9-6.91-2.55L68.48,32c-2.5.78-4.71,4.3-4.09,6L79.72,82,38.51,67a6.11,6.11,0,0,0-8.18,4.28l-.46,6.29c-.18,3.94.37,7.49,3.83,9l28.72,13a3.22,3.22,0,0,1,1.48,1.36l5.79,10.36a2.49,2.49,0,0,0,2.11,1.28l16.84.44a99.09,99.09,0,0,0-17,42.9L58.86,143.38a2.13,2.13,0,0,0-2.08-.53L44.2,146.49a3,3,0,0,1-2-.1L12.75,134.54c-1.81-.73-5.23,1.13-6.69,3.08l-5.5,6.84c-1.22,2.32-.29,6.37,1.34,7.12L43.8,171.83,4.1,190.4a6.11,6.11,0,0,0-2.76,8.8L5.47,204c2.66,2.91,5.55,5,9.07,3.65L44,196.51a3.23,3.23,0,0,1,2-.09l11.42,3.23a2.5,2.5,0,0,0,2.39-.59l12.21-11.59a99.2,99.2,0,0,0,18.27,42.39L72.49,230a2.13,2.13,0,0,0-1.85,1.1l-6.32,11.46a3.06,3.06,0,0,1-1.48,1.33L33.64,256.36c-1.8.76-2.9,4.49-2.55,6.91L32,272c.78,2.51,4.3,4.71,6,4.09l44-15.32L67,302a6.11,6.11,0,0,0,4.28,8.18l6.29.46c3.94.18,7.49-.37,9-3.83l13-28.72a3.23,3.23,0,0,1,1.36-1.48l10.36-5.79a2.49,2.49,0,0,0,1.28-2.11l.44-16.84a99.08,99.08,0,0,0,42.91,17l-12.54,12.73a2.13,2.13,0,0,0-.53,2.08l3.64,12.58a3.06,3.06,0,0,1-.1,2l-11.85,29.47c-.73,1.81,1.13,5.23,3.08,6.69l6.84,5.5c2.32,1.22,6.37.29,7.12-1.33l20.24-41.91,18.57,39.7a6.11,6.11,0,0,0,8.8,2.76L204,335c2.91-2.66,5-5.55,3.65-9.07l-11.12-29.5a3.22,3.22,0,0,1-.08-2L199.66,283a2.49,2.49,0,0,0-.59-2.39l-11.59-12.21a99.18,99.18,0,0,0,42.39-18.28L230,268a2.12,2.12,0,0,0,1.1,1.85l11.46,6.32a3.06,3.06,0,0,1,1.33,1.47l12.46,29.22c.76,1.79,4.49,2.9,6.91,2.55l8.72-.95c2.51-.78,4.71-4.3,4.09-6l-15.32-44L302,273.47a6.11,6.11,0,0,0,8.18-4.28l.46-6.29c.18-3.94-.37-7.49-3.83-9l-28.72-13a3.23,3.23,0,0,1-1.48-1.36l-5.79-10.36a2.49,2.49,0,0,0-2.11-1.28l-16.84-.44a99.09,99.09,0,0,0,17-42.9l12.73,12.54a2.13,2.13,0,0,0,2.08.53L296.28,194a3,3,0,0,1,2,.1l29.47,11.85c1.81.73,5.23-1.13,6.69-3.08l5.5-6.84c1.22-2.32.29-6.37-1.33-7.12Zm-96.88-29.77H220.52A51.21,51.21,0,0,0,211.93,140l14.85-14.86a72,72,0,0,1,14.92,33.94Zm-43.78-32.29a51.14,51.14,0,0,0-19.56-7.44v-21a71.9,71.9,0,0,1,34.54,13.47Zm-2.58,43.41a25.1,25.1,0,1,1-25.1-25.1A25.1,25.1,0,0,1,195.35,170.24ZM159.13,98.77V120A51.24,51.24,0,0,0,140,128.55l-14.86-14.86A72,72,0,0,1,159.13,98.77Zm-32.29,43.78a51.16,51.16,0,0,0-7.44,19.56h-21a71.92,71.92,0,0,1,13.47-34.54Zm-28.06,38.8H120a51.21,51.21,0,0,0,8.58,19.09L113.7,215.3a72,72,0,0,1-14.92-33.94Zm43.78,32.29a51.16,51.16,0,0,0,19.56,7.44v21a71.89,71.89,0,0,1-34.54-13.47l15-15Zm38.8,28.06V220.52a51.25,51.25,0,0,0,19.09-8.58l14.85,14.85a72,72,0,0,1-33.94,14.92Zm32.29-43.78a51.18,51.18,0,0,0,7.44-19.56h21a71.92,71.92,0,0,1-13.47,34.54l-15-15Z"/></g></g></svg>