<svg xmlns="http://www.w3.org/2000/svg" viewBox="0 0 311.6 343.38"><defs><style>.cls-1{fill:#8cc84b;}</style></defs><title>node_icon</title><g id="Layer_2" data-name="Layer 2"><g id="Node"><path class="cls-1" d="M141.74,3.66a28.8,28.8,0,0,1,28.11,0Q234,39.94,298.25,76.19A26.43,26.43,0,0,1,311.6,99V244.44c.06,9.66-5.86,18.83-14.35,23.26q-64,36.07-127.94,72.18a28,28,0,0,1-28.42-.79Q121.71,328,102.5,316.89c-2.61-1.56-5.56-2.8-7.4-5.33,1.63-2.2,4.55-2.47,6.92-3.43,5.34-1.7,10.24-4.42,15.14-7.07a3.53,3.53,0,0,1,3.94.24c10.94,6.27,21.77,12.72,32.75,18.93,2.34,1.35,4.71-.44,6.71-1.56q62.79-35.49,125.62-70.89a4.15,4.15,0,0,0,2.28-4.09q0-72,0-144a4.5,4.5,0,0,0-2.68-4.49Q222,59.3,158.3,23.35a4.43,4.43,0,0,0-5,0Q89.54,59.27,25.82,95.23a4.45,4.45,0,0,0-2.7,4.47q0,72,0,144a4.07,4.07,0,0,0,2.31,4q17,9.65,34,19.23c6.39,3.44,14.24,5.49,21.29,2.85a16.15,16.15,0,0,0,10.45-15.17c.06-47.71,0-95.44,0-143.14a3.59,3.59,0,0,1,3.91-3.67c5.45,0,10.91-.07,16.36,0a3.77,3.77,0,0,1,3.56,4.36c0,48,.06,96,0,144.05,0,12.8-5.24,26.72-17.08,33-14.58,7.55-32.61,6-47-1.29-12.47-6.22-24.37-13.57-36.62-20.24A26.66,26.66,0,0,1,0,244.44V99A26.48,26.48,0,0,1,13.81,75.9Q77.78,39.8,141.74,3.66Z"/><path class="cls-1" d="M178.95,104.45c18.6-1.2,38.51-.71,55.25,8.45,13,7,20.14,21.76,20.37,36.16a3.91,3.91,0,0,1-4.25,2.88c-5.4,0-10.79.07-16.19,0-2.29.09-3.62-2-3.91-4-1.55-6.89-5.31-13.71-11.79-17-10-5-21.49-4.73-32.35-4.63-7.92.42-16.44,1.11-23.16,5.77-5.15,3.53-6.72,10.65-4.88,16.39,1.73,4.12,6.49,5.45,10.38,6.67,22.42,5.86,46.17,5.28,68.16,13,9.1,3.15,18,9.26,21.13,18.79,4.08,12.77,2.29,28-6.8,38.3-7.37,8.44-18.11,13-28.81,15.53-14.24,3.18-29,3.26-43.49,1.85-13.6-1.55-27.76-5.12-38.26-14.39-9-7.8-13.36-19.94-12.93-31.67a3.63,3.63,0,0,1,4-3.2c5.43,0,10.87-.06,16.3,0A3.81,3.81,0,0,1,151.6,197c1,6.56,3.47,13.45,9.19,17.34,11,7.13,24.91,6.64,37.55,6.84,10.48-.46,22.24-.61,30.79-7.53,4.51-4,5.85-10.56,4.63-16.24-1.32-4.8-6.34-7-10.65-8.5-22.13-7-46.15-4.46-68.06-12.38-8.9-3.14-17.5-9.09-20.92-18.23-4.77-12.94-2.58-28.94,7.46-38.85,9.79-9.86,23.92-13.65,37.36-15Z"/></g></g></svg>