<svg xmlns="http://www.w3.org/2000/svg" viewBox="0 0 336.09 346.82"><defs><style>.cls-1{fill:#326690;}</style></defs><title>psql_icon</title><g id="Layer_2" data-name="Layer 2"><g id="Layer_12" data-name="Layer 12"><path class="cls-1" d="M217.41,21.52c19.49-4.18,40.39-3.65,59.17,3.43a78.44,78.44,0,0,1,33.23,24.37c4.14,5.19,4.66,12.15,4.93,18.52C314.93,83,311.87,98,308,112.65a319.19,319.19,0,0,1-33,77.08,66.66,66.66,0,0,1-4.63,6.85c-.13-.66-.39-2-.53-2.68,1.77-4.65,4.36-9,5.36-14,3.57-13.92.55-28.25-.73-42.26-1.35-13.23,3.17-26.09,3.06-39.28.51-6.46-2-12.57-4.53-18.37-9-20.08-23.27-38-41.6-50.23C226.87,26.74,221.87,24.6,217.41,21.52Z"/><path class="cls-1" d="M163.26,23.36c24-3,49.17,3.55,68.22,18.55a108.19,108.19,0,0,1,34.9,48.26c-11.15-.39-23.79-.84-32.79,6.9-8.17,6.89-9.23,18.65-7.39,28.53,4.27,23.49,18.12,43.46,28.35,64.58,2.72,5,6.37,9.27,9.84,13.72-4.14,2.09-8.75,4.09-11.1,8.34-4.11,6.63-2.67,14.72-3.68,22.09-2.36,20.64-4.69,41.31-8.05,61.81-1.59,9.82-5.76,20.27-15,25.17-9.51,4.83-20.56,7.87-31.25,6.23-10.16-1.79-16.55-11.24-19.43-20.47-2.1-7.73-2.33-15.81-2.92-23.76-1-19.21-1-38.46-.54-57.69.42-7.51-3.44-15.33-10.13-19-3.24-1.82-7-2.07-10.67-2.36,2.85-14.13,11.45-26.33,14.4-40.44,3.83-17.46,1.71-35.63-2.2-52.87-1.91-8.6-8.45-16.21-17.17-18.3-13.41-3.38-26.93,1.87-38.93,7.48,1.52-19.49,6.73-39.43,18.67-55.26A55.4,55.4,0,0,1,163.26,23.36Z"/><path class="cls-1" d="M61.06,25c21.35-4.11,43.25.24,63.75,6.5a94.15,94.15,0,0,0-20.19,34.44A139.13,139.13,0,0,0,97.8,119.2a190.18,190.18,0,0,1-1.32,38c-2.21,16.41,4.37,33.28,16.55,44.35-8.3,9.7-17.09,19-25.13,28.88-3.55,4.18-8.34,9.16-14.39,7.92-7.07-2-11.57-8.5-15.51-14.3-10.64-17-17.07-36.27-22.94-55.37C28.48,146,22.92,123.06,19.73,99.72,18.14,82,19.13,62.9,28.22,47.08,35,35.1,47.72,27.47,61.06,25Z"/><path class="cls-1" d="M240.49,104c7.86-5.58,18.13-4.33,27.21-3.77-.39,12.55-4.26,24.86-3,37.5,1.14,15.64,5.68,32.45-1.7,47.28-9.89-19.67-22.67-38.46-27.13-60.37C234.62,117.64,234.3,108.82,240.49,104Zm2.9,2.94c-2.62,2.15.21,5.36,2.46,6.37,5.44,3.21,12.91-1.27,13.09-7.5A15.79,15.79,0,0,0,243.39,106.91Z"/><path class="cls-1" d="M107.32,112.06c9.85-6.36,21.36-11.35,33.29-10.67A14.49,14.49,0,0,1,154,112.11c5.42,21.58,7.1,45.59-3.28,66a193.9,193.9,0,0,0-9.09,24.34c-17.26.17-31.95-14.41-35-30.85-2.09-9.29.64-18.63,1-27.95C108.28,133.14,107.53,122.6,107.32,112.06ZM135,107.28c-1.5.53-3.08,1.55-2.78,3.39,1.08,6.25,9.46,10.06,14.73,6.17,2.32-1.31,4.77-4.92,2.09-7.1C145.21,106.63,139.65,106,135,107.28Z"/><path class="cls-1" d="M262.89,215.77c2.56-1.88,6.19-3.62,9.15-1.57,12.57,6.62,27.17,3.39,40.54,1.77-8.16,7.94-19.48,11.66-30.6,12.86-7.37.88-15,1.14-22.12-1.3C259.9,223.51,259.68,218.75,262.89,215.77Z"/><path class="cls-1" d="M136.34,231.16c7.22-3.88,10.08-12.43,16.82-16.82,7.34-1,12.71,9.87,7.16,15-10.84,14.68-32.53,17.48-48.21,9.49C119.85,235.29,128.89,235.57,136.34,231.16Z"/><path d="M200.66,5.81c20.9-5.48,43-7.82,64.39-3.76A98.91,98.91,0,0,1,317,28.6c6.22,6.23,12.53,13,14.87,21.77,4.18,15,2.52,30.91,0,46.05-6.63,36.34-21,70.9-39.36,102.83,8.27,0,16.22-2.63,24.42-3.17,8-.53,16.63,4.42,18.56,12.57,2.42,8.67-3,17.08-9.42,22.46-16.26,14.47-38.82,19.26-60.08,18-1.27,21.94-1.71,44.74-11,65.1a50.82,50.82,0,0,1-19.21,22.43c-8.19,5.1-17.69,7.51-27.07,9.3-10.25,1.85-21.5.84-30.34-5.05-8.17-5.2-13.3-13.95-16.24-23-7.26-18.88-6.53-39.46-7.39-59.34-14.39,5.79-30.76,5.77-45.36.76a37.6,37.6,0,0,1-13.55-8.64C88.37,257,78,260.17,68.41,257.46c-12.22-3.33-20.87-13.58-27.37-23.9C29.77,215,22.7,194.35,16.46,173.68,9.57,149.81,3.72,125.56.57,100.89c-1.77-21.93.2-45.38,12-64.5,9.51-15.66,26.18-26.12,44-29.61,25.27-5.14,51.32-.17,75.55,7.4,7.84-3.52,15.67-7.38,24.26-8.77C171,2.44,186,3.8,200.66,5.81Zm-.07,9.84c-1.88.38-3.73-.46-5.58-.7-20.67-4.2-43.46-2.55-61.39,9.42C112.12,16.63,89,12,66.07,14.35,49,16.12,31.94,24,22.16,38.54,9.8,56.64,8.13,79.75,10.1,101A495.76,495.76,0,0,0,29.67,183.9c5.76,16.86,12.09,33.84,22.33,48.56,5.2,7.23,12.11,14.52,21.41,15.66,8.27,1,15.75-4.12,20.81-10.19,8.76-10.5,17.78-20.79,27.13-30.75a53.1,53.1,0,0,0,19.52,5.22c-3.67,4.36-6.69,10-12.53,11.75-7.87,3-17.09,2.63-24,7.87a8.17,8.17,0,0,0-.6,12.39c6.5,6.31,16.08,7.67,24.73,8.39a47,47,0,0,0,34-11.22c-.06,19.49,0,39,2.23,58.41,1.09,11.35,6,22.66,14.62,30.29,8.14,7.1,19.74,8.58,30.06,6.78,10.13-1.92,20.56-5,28.47-11.89,8.42-7.41,12-18.62,13.68-29.38,3-19.26,5.32-38.63,7.51-58,21.67,3.66,46.18-.49,62.36-16.31,3.46-3.25,6.74-8.9,3.33-13.32-3.51-4.06-9.49-2.95-14.13-2-11.13,2-23.24,4.29-34-.33,19.26-30.38,34.41-63.56,42.87-98.58,3.08-13.31,5.46-26.92,5-40.62C324,58.95,323,50.79,318.3,44.44A87.91,87.91,0,0,0,271.35,13C248.2,6.74,223.36,8.61,200.59,15.65Z"/></g></g></svg>