<svg xmlns="http://www.w3.org/2000/svg" viewBox="0 0 305.39 346.82"><defs><style>.cls-1{fill:#8c3123;}.cls-2{fill:#e05243;}.cls-3{fill:#5e1f18;}.cls-4{fill:#f2b0a9;}</style></defs><title>s3_icon</title><g id="Layer_2" data-name="Layer 2"><g id="AWS"><path class="cls-1" d="M24.6,60.17,0,71.73V274.63l24.6,11.49.15-.17V60.33l-.15-.16"/><path class="cls-2" d="M156.27,256.67,24.6,286.12V60.17L156.27,89V256.67"/><path class="cls-1" d="M96.84,210.57l55.85,6.68.35-.76.31-86-.66-.67-55.85,6.58v74.21"/><path class="cls-1" d="M152.69,257l128.09,29.18.2-.3V60.37l-.2-.2L152.69,89.31V257"/><path class="cls-2" d="M208.56,210.57l-55.87,6.68V129.77l55.87,6.58v74.21"/><path class="cls-3" d="M208.56,100.46,152.69,110l-55.85-9.57,55.78-13.74,55.94,13.74"/><path class="cls-4" d="M208.56,246.36l-55.87-9.63-55.85,9.63L152.62,261l55.93-14.63"/><path class="cls-1" d="M96.84,100.46l55.85-13,.45-.13V.35L152.69,0,96.84,26.24v74.22"/><path class="cls-2" d="M208.56,100.46l-55.87-13V0l55.87,26.24v74.22"/><path class="cls-1" d="M152.69,346.82,96.83,320.58V246.37l55.86,13,.82.88-.22,85.08-.6,1.51"/><path class="cls-2" d="M152.69,346.82l55.86-26.23V246.37l-55.86,13v87.47M280.78,60.17l24.61,11.56V274.63l-24.61,11.56v-226"/></g></g></svg>