<svg xmlns="http://www.w3.org/2000/svg" viewBox="0 0 252.67 513.03">
  <title>forum_button</title>
  <g id="Layer_2" data-name="Layer 2">
    <g id="Layer_1-2" data-name="Layer 1">
      <g>
        <rect width="252.67" height="513.03" rx="3" ry="3" style="fill: #ecddaa"/>
        <g>
          <path d="M53.73,347.71V142.14a72.81,72.81,0,0,1,72.6-72.6h0a72.81,72.81,0,0,1,72.6,72.6V347.71a72.81,72.81,0,0,1-72.6,72.6h0A72.81,72.81,0,0,1,53.73,347.71Z" style="fill: #5a9411;fill-rule: evenodd"/>
          <path d="M53.74,347.71V142.14A72.73,72.73,0,0,1,88.51,80.25l2,0h0a72.82,72.82,0,0,1,72.6,72.6V358.39a72.73,72.73,0,0,1-34.77,61.89l-2,0h0A72.81,72.81,0,0,1,53.74,347.71Z" style="fill: #66aa13;fill-rule: evenodd"/>
          <rect x="84.55" y="198.14" width="13.12" height="175.74" rx="6.56" ry="6.56" style="fill: #5a9411"/>
          <rect x="137.81" y="159.61" width="13.12" height="175.74" rx="6.56" ry="6.56" style="fill: #5a9411"/>
          <g>
            <path d="M198.94,131.07a72.6,72.6,0,1,0-72.6,72.6A72.74,72.74,0,0,0,198.94,131.07Z" style="fill: #66aa13;fill-rule: evenodd"/>
            <path d="M187.36,131.07a61,61,0,1,0-61,61A61.14,61.14,0,0,0,187.36,131.07Z" style="fill: #c9dd88;fill-rule: evenodd"/>
            <path d="M156.57,130.58a34,34,0,1,0-34,34A34.06,34.06,0,0,0,156.57,130.58Z" style="fill: #b7d037;fill-rule: evenodd"/>
            <g>
              <ellipse cx="126.33" cy="110.02" rx="4.62" ry="9.64" style="fill: #ecf2ce"/>
              <ellipse cx="126.33" cy="152.12" rx="4.62" ry="9.64" style="fill: #ecf2ce"/>
            </g>
            <g>
              <path d="M114.93,131.07c0-2.54-4.33-4.62-9.64-4.62s-9.64,2.07-9.64,4.62,4.33,4.62,9.64,4.62S114.93,133.61,114.93,131.07Z" style="fill: #ecf2ce;fill-rule: evenodd"/>
              <path d="M157,131.07c0-2.54-4.33-4.62-9.64-4.62s-9.64,2.07-9.64,4.62,4.33,4.62,9.64,4.62S157,133.61,157,131.07Z" style="fill: #ecf2ce;fill-rule: evenodd"/>
            </g>
            <g>
              <ellipse cx="105.14" cy="109.88" rx="6.57" ry="13.73" transform="translate(-46.9 106.51) rotate(-44.99)" style="fill: #ecf2ce"/>
              <ellipse cx="147.53" cy="152.27" rx="6.57" ry="13.73" transform="translate(-64.46 148.9) rotate(-45)" style="fill: #ecf2ce"/>
            </g>
            <ellipse cx="144.47" cy="112.94" rx="11.75" ry="5.63" transform="translate(-37.55 135.19) rotate(-44.99)" style="fill: #ecf2ce"/>
            <ellipse cx="108.2" cy="149.21" rx="11.75" ry="5.63" transform="translate(-73.81 120.22) rotate(-45)" style="fill: #ecf2ce"/>
            <ellipse cx="126.56" cy="126.46" rx="7.12" ry="3.41" transform="translate(-28.4 37.04) rotate(-14.99)" style="fill: #ecf2ce"/>
            <ellipse cx="157.8" cy="118.59" rx="7.12" ry="3.41" transform="translate(-25.32 44.89) rotate(-15)" style="fill: #ecf2ce"/>
            <ellipse cx="155.62" cy="142.76" rx="3.41" ry="7.12" transform="matrix(0.26, -0.97, 0.97, 0.26, -22.53, 256.16)" style="fill: #ecf2ce"/>
            <ellipse cx="96.96" cy="119.13" rx="3.41" ry="7.12" transform="translate(-43.21 181.95) rotate(-75)" style="fill: #ecf2ce"/>
          </g>
          <path d="M128.31,408.3V424a30.5,30.5,0,0,1-9,21.58v0h0a30.51,30.51,0,0,1-21.58,9V439.81a15.76,15.76,0,0,0,11.17-4.63l0,0A15.77,15.77,0,0,0,113.55,424V408.3c0-.34,0-.68,0-1h14.77C128.3,407.62,128.31,408,128.31,408.3Z" style="fill: #66aa13;fill-rule: evenodd"/>
          <rect x="110.34" y="232.85" width="13.12" height="175.74" rx="6.56" ry="6.56" style="fill: #5a9411"/>
        </g>
      </g>
    </g>
  </g>
</svg>
