<svg xmlns="http://www.w3.org/2000/svg" viewBox="0 0 252.67 513.03">
  <title>forum_hover_button</title>
  <g id="Layer_2" data-name="Layer 2">
    <g id="Layer_2-2" data-name="Layer 2">
      <g>
        <g>
          <path d="M53.73,347.71V142.14a72.81,72.81,0,0,1,72.6-72.6h0a72.81,72.81,0,0,1,72.6,72.6V347.71a72.81,72.81,0,0,1-72.6,72.6h0A72.81,72.81,0,0,1,53.73,347.71Z" style="fill: #5a9411;fill-rule: evenodd"/>
          <path d="M53.74,347.71V142.14A72.73,72.73,0,0,1,88.51,80.25l2,0h0a72.82,72.82,0,0,1,72.6,72.6V358.39a72.73,72.73,0,0,1-34.77,61.89l-2,0h0A72.81,72.81,0,0,1,53.74,347.71Z" style="fill: #66aa13;fill-rule: evenodd"/>
          <rect x="84.55" y="198.14" width="13.12" height="175.74" rx="6.56" ry="6.56" style="fill: #5a9411"/>
          <rect x="137.81" y="159.61" width="13.12" height="175.74" rx="6.56" ry="6.56" style="fill: #5a9411"/>
          <g>
            <path d="M198.94,131.07a72.6,72.6,0,1,0-72.6,72.6A72.74,72.74,0,0,0,198.94,131.07Z" style="fill: #66aa13;fill-rule: evenodd"/>
            <path d="M187.36,131.07a61,61,0,1,0-61,61A61.14,61.14,0,0,0,187.36,131.07Z" style="fill: #c9dd88;fill-rule: evenodd"/>
            <path d="M156.57,130.58a34,34,0,1,0-34,34A34.06,34.06,0,0,0,156.57,130.58Z" style="fill: #b7d037;fill-rule: evenodd"/>
            <g>
              <ellipse cx="126.33" cy="110.02" rx="4.62" ry="9.64" style="fill: #ecf2ce"/>
              <ellipse cx="126.33" cy="152.12" rx="4.62" ry="9.64" style="fill: #ecf2ce"/>
            </g>
            <g>
              <path d="M114.93,131.07c0-2.54-4.33-4.62-9.64-4.62s-9.64,2.07-9.64,4.62,4.33,4.62,9.64,4.62S114.93,133.61,114.93,131.07Z" style="fill: #ecf2ce;fill-rule: evenodd"/>
              <path d="M157,131.07c0-2.54-4.33-4.62-9.64-4.62s-9.64,2.07-9.64,4.62,4.33,4.62,9.64,4.62S157,133.61,157,131.07Z" style="fill: #ecf2ce;fill-rule: evenodd"/>
            </g>
            <g>
              <ellipse cx="105.14" cy="109.88" rx="6.57" ry="13.73" transform="translate(-46.9 106.51) rotate(-44.99)" style="fill: #ecf2ce"/>
              <ellipse cx="147.53" cy="152.27" rx="6.57" ry="13.73" transform="translate(-64.46 148.9) rotate(-45)" style="fill: #ecf2ce"/>
            </g>
            <ellipse cx="144.47" cy="112.94" rx="11.75" ry="5.63" transform="translate(-37.55 135.19) rotate(-44.99)" style="fill: #ecf2ce"/>
            <ellipse cx="108.2" cy="149.21" rx="11.75" ry="5.63" transform="translate(-73.81 120.22) rotate(-45)" style="fill: #ecf2ce"/>
            <ellipse cx="126.56" cy="126.46" rx="7.12" ry="3.41" transform="translate(-28.4 37.04) rotate(-14.99)" style="fill: #ecf2ce"/>
            <ellipse cx="157.8" cy="118.59" rx="7.12" ry="3.41" transform="matrix(0.97, -0.26, 0.26, 0.97, -25.32, 44.89)" style="fill: #ecf2ce"/>
            <ellipse cx="155.62" cy="142.76" rx="3.41" ry="7.12" transform="translate(-22.53 256.16) rotate(-75.01)" style="fill: #ecf2ce"/>
            <ellipse cx="96.96" cy="119.13" rx="3.41" ry="7.12" transform="translate(-43.21 181.95) rotate(-75)" style="fill: #ecf2ce"/>
          </g>
          <path d="M128.31,408.3V424a30.5,30.5,0,0,1-9,21.58v0h0a30.51,30.51,0,0,1-21.58,9V439.81a15.76,15.76,0,0,0,11.17-4.63l0,0A15.77,15.77,0,0,0,113.55,424V408.3c0-.34,0-.68,0-1h14.77C128.3,407.62,128.31,408,128.31,408.3Z" style="fill: #66aa13;fill-rule: evenodd"/>
          <rect x="110.34" y="232.85" width="13.12" height="175.74" rx="6.56" ry="6.56" style="fill: #5a9411"/>
        </g>
        <g>
          <rect width="252.67" height="513.03" rx="3" ry="3" style="fill: #ecddaa;opacity: 0.75"/>
          <g>
            <path d="M53.38,216.39a12,12,0,0,1,4.25,4.73A14.76,14.76,0,0,1,59.18,228a15.1,15.1,0,0,1-1.54,6.89,11.81,11.81,0,0,1-4.2,4.75,10.69,10.69,0,0,1-5.88,1.7,10.3,10.3,0,0,1-4.34-.94,11.5,11.5,0,0,1-3.38-2.28v.29a2.88,2.88,0,0,1-.82,2.09,2.76,2.76,0,0,1-2.06.84,2.8,2.8,0,0,1-2.06-.82,2.86,2.86,0,0,1-.82-2.11V208.25a2.88,2.88,0,0,1,.82-2.09,3,3,0,0,1,4.13,0,2.88,2.88,0,0,1,.82,2.09v10a9.94,9.94,0,0,1,3.22-2.52,9.2,9.2,0,0,1,4.32-1.08A11,11,0,0,1,53.38,216.39ZM51.7,233.74a9.42,9.42,0,0,0,0-11.5A6.34,6.34,0,0,0,46.66,220a6.41,6.41,0,0,0-5.09,2.28,8.46,8.46,0,0,0-2,5.74,8.56,8.56,0,0,0,2,5.76,6.72,6.72,0,0,0,10.13,0Z" style="fill: #6cad73"/>
            <path d="M84.55,215.5a2.43,2.43,0,0,1,1,1.92,3,3,0,0,1-.77,2.23,2.53,2.53,0,0,1-1.82.74,4.77,4.77,0,0,1-1.63-.34l-.65-.19a3.89,3.89,0,0,0-1.08-.14,4.27,4.27,0,0,0-2.4.77,5.61,5.61,0,0,0-1.9,2.33,8.58,8.58,0,0,0-.74,3.72v11.38a2.88,2.88,0,0,1-.82,2.09,3,3,0,0,1-4.13,0,2.88,2.88,0,0,1-.82-2.09V218.09A2.88,2.88,0,0,1,69.6,216a3,3,0,0,1,4.13,0,2.88,2.88,0,0,1,.82,2.09v.62a7.28,7.28,0,0,1,3.17-3,9.75,9.75,0,0,1,4.42-1A3.67,3.67,0,0,1,84.55,215.5Z" style="fill: #6cad73"/>
            <path d="M116.3,234.92a12.2,12.2,0,0,1-4.73,4.73,13.85,13.85,0,0,1-13.22,0,12.24,12.24,0,0,1-4.7-4.73,14.59,14.59,0,0,1,0-13.78,12.43,12.43,0,0,1,4.7-4.75,13.68,13.68,0,0,1,13.22,0,12.39,12.39,0,0,1,4.73,4.75,14.6,14.6,0,0,1,0,13.78Zm-5-11.09a7.25,7.25,0,0,0-2.64-2.86,7.19,7.19,0,0,0-7.34,0,7.24,7.24,0,0,0-2.64,2.86,8.79,8.79,0,0,0-1,4.2,8.65,8.65,0,0,0,1,4.18A7.28,7.28,0,0,0,101.3,235a7.19,7.19,0,0,0,7.34,0,7.29,7.29,0,0,0,2.64-2.83,8.67,8.67,0,0,0,1-4.18A8.8,8.8,0,0,0,111.29,223.83Z" style="fill: #6cad73"/>
            <path d="M159.14,216a3,3,0,0,1,.79,2.14,4.24,4.24,0,0,1-.19,1.1L152.4,239a2.6,2.6,0,0,1-1,1.37,2.82,2.82,0,0,1-1.61.5l-.38,0a2.81,2.81,0,0,1-2.45-1.82l-4.08-11.81L139,239a2.81,2.81,0,0,1-2.45,1.82l-.38,0a2.81,2.81,0,0,1-1.61-.5,2.6,2.6,0,0,1-1-1.37l-7.34-19.78a3.21,3.21,0,0,1-.19-1.1,3,3,0,0,1,.79-2.09,2.66,2.66,0,0,1,2.09-.89,3,3,0,0,1,1.66.46,2.45,2.45,0,0,1,1,1.37l5.18,14.06,3.79-10.27a2.68,2.68,0,0,1,2.64-1.78,2.48,2.48,0,0,1,1.56.43,3.29,3.29,0,0,1,.94,1.34l3.7,10L154.42,217a2.4,2.4,0,0,1,1-1.37,3.26,3.26,0,0,1,1.78-.46A2.57,2.57,0,0,1,159.14,216Z" style="fill: #6cad73"/>
            <path d="M167.14,235.42a2.73,2.73,0,0,1,2.64-2.54,2.71,2.71,0,0,1,1.92.91,10.13,10.13,0,0,0,3,2.21,9,9,0,0,0,3.77.72q3.74-.14,3.74-2.83a2.3,2.3,0,0,0-1.27-2.11,18,18,0,0,0-4-1.44,34.3,34.3,0,0,1-4.54-1.54,8,8,0,0,1-3-2.33,6.44,6.44,0,0,1-1.27-4.2,6.35,6.35,0,0,1,1.32-4,8.68,8.68,0,0,1,3.46-2.64,11.17,11.17,0,0,1,4.54-.94,14,14,0,0,1,4.9.91,8.53,8.53,0,0,1,3.84,2.69,2.67,2.67,0,0,1,.62,1.73,2.23,2.23,0,0,1-.91,1.82,2.42,2.42,0,0,1-1.54.53,2.33,2.33,0,0,1-1.73-.67,6.11,6.11,0,0,0-2.23-1.68,7.39,7.39,0,0,0-3.1-.62q-3.65,0-3.65,2.64a2.25,2.25,0,0,0,.67,1.7,4.57,4.57,0,0,0,1.7,1q1,.36,2.9.89a31.7,31.7,0,0,1,4.32,1.49,7.41,7.41,0,0,1,2.93,2.35,6.74,6.74,0,0,1,1.2,4.18,6.4,6.4,0,0,1-1.39,4.1,8.82,8.82,0,0,1-3.58,2.66,11.56,11.56,0,0,1-4.49.91,16.26,16.26,0,0,1-5.9-1.06,9.81,9.81,0,0,1-4.46-3.41A2.33,2.33,0,0,1,167.14,235.42Z" style="fill: #6cad73"/>
            <path d="M219.12,229.28a3.05,3.05,0,0,1-2,.72H201.26a7.24,7.24,0,0,0,2.64,4.44,7.38,7.38,0,0,0,4.66,1.61,10.31,10.31,0,0,0,3.07-.36,8,8,0,0,0,1.75-.77l.89-.55a3.67,3.67,0,0,1,1.63-.43,2.36,2.36,0,0,1,1.73.72,2.3,2.3,0,0,1,.72,1.68,3,3,0,0,1-1.34,2.35,11.45,11.45,0,0,1-3.6,1.87,14.87,14.87,0,0,1-11.59-.91,11.72,11.72,0,0,1-4.63-4.63,13.51,13.51,0,0,1-1.63-6.65,14.71,14.71,0,0,1,1.73-7.25,12.26,12.26,0,0,1,4.56-4.78,11.78,11.78,0,0,1,6-1.66,11.21,11.21,0,0,1,6,1.73,12.93,12.93,0,0,1,4.49,4.66A12.53,12.53,0,0,1,220,227.4,2.46,2.46,0,0,1,219.12,229.28Zm-17.81-4.08h12.58v-.34a5,5,0,0,0-2-3.46,6.23,6.23,0,0,0-4-1.44Q202.32,220,201.31,225.2Z" style="fill: #6cad73"/>
            <path d="M58.51,268.95a3.42,3.42,0,0,0-.67,2v2.26h4.37a2.65,2.65,0,0,1,1.92.74,2.72,2.72,0,0,1,0,3.79,2.65,2.65,0,0,1-1.92.74H57.84v17A2.88,2.88,0,0,1,57,297.6a3,3,0,0,1-4.13,0,2.87,2.87,0,0,1-.82-2.09v-17H49.49a2.65,2.65,0,0,1-1.92-.74,2.73,2.73,0,0,1,0-3.79,2.65,2.65,0,0,1,1.92-.74h2.59V271a7.56,7.56,0,0,1,2.47-5.86q2.47-2.26,7.13-2.26a6.36,6.36,0,0,1,3.1.72,2.36,2.36,0,0,1,1.32,2.21,2.64,2.64,0,0,1-.67,1.87,2.16,2.16,0,0,1-1.63.72,2.79,2.79,0,0,1-.5,0l-.55-.1a8.18,8.18,0,0,0-1.92-.29A2.64,2.64,0,0,0,58.51,268.95Z" style="fill: #6cad73"/>
            <path d="M96.24,292.52a12.2,12.2,0,0,1-4.73,4.73,13.85,13.85,0,0,1-13.22,0,12.24,12.24,0,0,1-4.7-4.73,14.59,14.59,0,0,1,0-13.78,12.43,12.43,0,0,1,4.7-4.75,13.68,13.68,0,0,1,13.22,0,12.39,12.39,0,0,1,4.73,4.75,14.6,14.6,0,0,1,0,13.78Zm-5-11.09a7.25,7.25,0,0,0-2.64-2.86,7.19,7.19,0,0,0-7.34,0,7.24,7.24,0,0,0-2.64,2.86,8.79,8.79,0,0,0-1,4.2,8.65,8.65,0,0,0,1,4.18,7.28,7.28,0,0,0,2.64,2.83,7.19,7.19,0,0,0,7.34,0,7.29,7.29,0,0,0,2.64-2.83,8.67,8.67,0,0,0,1-4.18A8.8,8.8,0,0,0,91.22,281.43Z" style="fill: #6cad73"/>
            <path d="M123.34,273.1a2.43,2.43,0,0,1,1,1.92,3,3,0,0,1-.77,2.23,2.53,2.53,0,0,1-1.82.74,4.77,4.77,0,0,1-1.63-.34l-.65-.19a3.89,3.89,0,0,0-1.08-.14,4.27,4.27,0,0,0-2.4.77,5.61,5.61,0,0,0-1.9,2.33,8.58,8.58,0,0,0-.74,3.72v11.38a2.88,2.88,0,0,1-.82,2.09,3,3,0,0,1-4.13,0,2.88,2.88,0,0,1-.82-2.09V275.69a2.88,2.88,0,0,1,.82-2.09,3,3,0,0,1,4.13,0,2.88,2.88,0,0,1,.82,2.09v.62a7.28,7.28,0,0,1,3.17-3,9.75,9.75,0,0,1,4.42-1A3.67,3.67,0,0,1,123.34,273.1Z" style="fill: #6cad73"/>
            <path d="M154.32,273.6a2.88,2.88,0,0,1,.82,2.09v12.19q0,5.18-2.86,8.11t-8.14,2.93q-5.28,0-8.11-2.93t-2.83-8.11V275.69a2.88,2.88,0,0,1,.82-2.09,3,3,0,0,1,4.13,0,2.88,2.88,0,0,1,.82,2.09v12.19a6.26,6.26,0,0,0,1.3,4.34,5,5,0,0,0,3.89,1.42,5.08,5.08,0,0,0,3.94-1.42,6.26,6.26,0,0,0,1.3-4.34V275.69a2.88,2.88,0,0,1,.82-2.09,3,3,0,0,1,4.13,0Z" style="fill: #6cad73"/>
            <path d="M202.37,275.19q1.82,2.9,1.82,8v12.29a2.88,2.88,0,0,1-.82,2.09,3,3,0,0,1-4.13,0,2.87,2.87,0,0,1-.82-2.09V283.23a7.28,7.28,0,0,0-1-4.15,4.07,4.07,0,0,0-3.62-1.51,5.49,5.49,0,0,0-4.2,1.61,5.69,5.69,0,0,0-1.51,4.06v12.29a2.88,2.88,0,0,1-.82,2.09,3,3,0,0,1-4.13,0,2.87,2.87,0,0,1-.82-2.09V283.23a7.28,7.28,0,0,0-1-4.15,4.07,4.07,0,0,0-3.62-1.51,5.49,5.49,0,0,0-4.2,1.61,5.69,5.69,0,0,0-1.51,4.06v12.29a2.88,2.88,0,0,1-.82,2.09,3,3,0,0,1-4.13,0,2.88,2.88,0,0,1-.82-2.09V275.69a2.88,2.88,0,0,1,.82-2.09,3,3,0,0,1,4.13,0,2.88,2.88,0,0,1,.82,2.09v.77a11.72,11.72,0,0,1,3.29-3,8.31,8.31,0,0,1,4.44-1.22q6,0,7.73,5.28a11.31,11.31,0,0,1,3.34-3.65,8.37,8.37,0,0,1,5.06-1.63Q200.54,272.28,202.37,275.19Z" style="fill: #6cad73"/>
          </g>
        </g>
      </g>
    </g>
  </g>
</svg>
