<svg xmlns="http://www.w3.org/2000/svg" viewBox="0 0 252.67 513.03">
  <title>gardens_hover_button</title>
  <g id="Layer_2" data-name="Layer 2">
    <g id="Layer_2-2" data-name="Layer 2">
      <g id="garden_hover">
        <rect width="252.67" height="513.03" rx="3" ry="3" style="fill: #ecddaa"/>
        <g>
          <path d="M126.34,186.74c9.2-8.34,19.31-25.83,26-46.46s8.29-39,4.94-48.62Z" style="fill: #5a9411;fill-rule: evenodd"/>
          <path d="M126.34,186.74c-3.34-9.62-1.78-28,4.94-48.61s16.84-38.12,26-46.47Z" style="fill: #66aa13;fill-rule: evenodd"/>
          <path d="M126.34,186.74c-9.2-8.34-19.31-25.83-26-46.46s-8.29-39-4.94-48.62Z" style="fill: #66aa13;fill-rule: evenodd"/>
          <path d="M126.34,186.74c3.34-9.62,1.78-28-4.94-48.61s-16.84-38.12-26-46.47Z" style="fill: #5a9411;fill-rule: evenodd"/>
          <path d="M126.34,186.74c-10.27-14.72-17.28-44.07-17.28-77.88s7-63.17,17.28-77.88Z" style="fill: #66aa13;fill-rule: evenodd"/>
          <path d="M126.34,186.74c10.27-14.72,17.28-44.07,17.28-77.88s-7-63.17-17.28-77.88Z" style="fill: #5a9411;fill-rule: evenodd"/>
          <path d="M138.49,469.5l24-270.21a36.22,36.22,0,0,0-36.11-36.11h0a36.22,36.22,0,0,0-36.11,36.11l24,270.21h.25c0,.21,0,.42,0,.63a11.92,11.92,0,0,0,23.85,0c0-.21,0-.42,0-.63Z" style="fill: #ff8300;fill-rule: evenodd"/>
          <path d="M91.71,216l.55,6.23h13.91a3.12,3.12,0,0,0,3.11-3.11h0a3.12,3.12,0,0,0-3.11-3.11Zm5.94,67.06.56,6.23h9.72a3.12,3.12,0,0,0,3.11-3.12h0a3.12,3.12,0,0,0-3.11-3.12ZM103,343.5l.55,6.23h9.17a3.12,3.12,0,0,0,3.12-3.11h0a3.12,3.12,0,0,0-3.12-3.11ZM107,388l.55,6.23h5.87a3.12,3.12,0,0,0,3.11-3.11h0a3.12,3.12,0,0,0-3.11-3.11Z" style="fill: #e7410f;fill-rule: evenodd"/>
          <path d="M138.49,469.5l24-270.21a36.22,36.22,0,0,0-36.11-36.11h0V482.05a11.92,11.92,0,0,0,11.92-11.92c0-.22,0-.42,0-.63Z" style="fill: #e7410f;fill-rule: evenodd"/>
          <path d="M109.47,193.49H128.9A3.12,3.12,0,0,1,132,196.6v0a3.11,3.11,0,0,1-3.11,3.11H109.46a3.11,3.11,0,0,1-3.11-3.11v0a3.12,3.12,0,0,1,3.12-3.12Z" style="fill: #e7410f"/>
          <path d="M113,302h19.44a3.11,3.11,0,0,1,3.11,3.11v0a3.12,3.12,0,0,1-3.12,3.12H113a3.11,3.11,0,0,1-3.11-3.11v0A3.11,3.11,0,0,1,113,302Z" style="fill: #e7410f"/>
          <rect x="118.87" y="325.33" width="20.9" height="5.08" rx="2.54" ry="2.54" style="fill: #e7410f"/>
          <rect x="107.32" y="234.19" width="25.67" height="6.23" rx="3.12" ry="3.12" style="fill: #e7410f"/>
          <path d="M120.34,372.41h19.44a3.11,3.11,0,0,1,3.11,3.11v0a3.12,3.12,0,0,1-3.12,3.12H120.34a3.12,3.12,0,0,1-3.12-3.12v0A3.11,3.11,0,0,1,120.34,372.41Z" style="fill: #e7410f"/>
          <path d="M115.94,251.66h0a3.73,3.73,0,0,0,3.72,3.72h23.17a3.73,3.73,0,0,0,3.72-3.72h0a3.72,3.72,0,0,0-3.72-3.72H119.66A3.73,3.73,0,0,0,115.94,251.66Z" style="fill: #e7410f;fill-rule: evenodd"/>
        </g>
        <rect width="252.67" height="513.03" rx="3" ry="3" style="fill: #ecddaa;opacity: 0.75"/>
        <text transform="translate(26.59 240.84)" style="font-size: 48px;fill: #6cad73;font-family: Quicksand-Bold, Quicksand;font-weight: 700;letter-spacing: 0.10001627604166667em">exp<tspan x="95.52" y="0" style="letter-spacing: 0.09002685546875em">l</tspan><tspan x="112.8" y="0" style="letter-spacing: 0.09999593098958333em">o</tspan><tspan x="147.07" y="0" style="letter-spacing: 0.07802327473958333em">r</tspan><tspan x="171.65" y="0" style="letter-spacing: 0.09999593098958333em">e</tspan><tspan style="letter-spacing: 0.09501139322916667em"><tspan x="-9.31" y="57.6">g</tspan><tspan x="25.63" y="57.6" style="letter-spacing: 0.09999593098958333em">a</tspan><tspan x="60.34" y="57.6" style="letter-spacing: 0.0780029296875em">r</tspan><tspan x="84.91" y="57.6" style="letter-spacing: 0.09999593098958333em">dens</tspan></tspan></text>
      </g>
    </g>
  </g>
</svg>
