<svg xmlns="http://www.w3.org/2000/svg" viewBox="0 0 252.67 513.03">
  <title>gardens_hover_button</title>
  <g id="Layer_2" data-name="Layer 2">
    <g id="Layer_2-2" data-name="Layer 2">
      <g id="garden_hover">
        <rect width="252.67" height="513.03" rx="3" ry="3" style="fill: #ecddaa"/>
        <g>
          <path d="M126.34,186.74c9.2-8.34,19.31-25.83,26-46.46s8.29-39,4.94-48.62Z" style="fill: #5a9411;fill-rule: evenodd"/>
          <path d="M126.34,186.74c-3.34-9.62-1.78-28,4.94-48.61s16.84-38.12,26-46.47Z" style="fill: #66aa13;fill-rule: evenodd"/>
          <path d="M126.34,186.74c-9.2-8.34-19.31-25.83-26-46.46s-8.29-39-4.94-48.62Z" style="fill: #66aa13;fill-rule: evenodd"/>
          <path d="M126.34,186.74c3.34-9.62,1.78-28-4.94-48.61s-16.84-38.12-26-46.47Z" style="fill: #5a9411;fill-rule: evenodd"/>
          <path d="M126.34,186.74c-10.27-14.72-17.28-44.07-17.28-77.88s7-63.17,17.28-77.88Z" style="fill: #66aa13;fill-rule: evenodd"/>
          <path d="M126.34,186.74c10.27-14.72,17.28-44.07,17.28-77.88s-7-63.17-17.28-77.88Z" style="fill: #5a9411;fill-rule: evenodd"/>
          <path d="M138.49,469.5l24-270.21a36.22,36.22,0,0,0-36.11-36.11h0a36.22,36.22,0,0,0-36.11,36.11l24,270.21h.25c0,.21,0,.42,0,.63a11.92,11.92,0,0,0,23.85,0c0-.21,0-.42,0-.63Z" style="fill: #ff8300;fill-rule: evenodd"/>
          <path d="M91.71,216l.55,6.23h13.91a3.12,3.12,0,0,0,3.11-3.11h0a3.12,3.12,0,0,0-3.11-3.11Zm5.94,67.06.56,6.23h9.72a3.12,3.12,0,0,0,3.11-3.12h0a3.12,3.12,0,0,0-3.11-3.12ZM103,343.5l.55,6.23h9.17a3.12,3.12,0,0,0,3.12-3.11h0a3.12,3.12,0,0,0-3.12-3.11ZM107,388l.55,6.23h5.87a3.12,3.12,0,0,0,3.11-3.11h0a3.12,3.12,0,0,0-3.11-3.11Z" style="fill: #e7410f;fill-rule: evenodd"/>
          <path d="M138.49,469.5l24-270.21a36.22,36.22,0,0,0-36.11-36.11h0V482.05a11.92,11.92,0,0,0,11.92-11.92c0-.22,0-.42,0-.63Z" style="fill: #e7410f;fill-rule: evenodd"/>
          <path d="M109.47,193.49H128.9A3.12,3.12,0,0,1,132,196.6v0a3.11,3.11,0,0,1-3.11,3.11H109.46a3.11,3.11,0,0,1-3.11-3.11v0a3.12,3.12,0,0,1,3.12-3.12Z" style="fill: #e7410f"/>
          <path d="M113,302h19.44a3.11,3.11,0,0,1,3.11,3.11v0a3.12,3.12,0,0,1-3.12,3.12H113a3.11,3.11,0,0,1-3.11-3.11v0A3.11,3.11,0,0,1,113,302Z" style="fill: #e7410f"/>
          <rect x="118.87" y="325.33" width="20.9" height="5.08" rx="2.54" ry="2.54" style="fill: #e7410f"/>
          <rect x="107.32" y="234.19" width="25.67" height="6.23" rx="3.12" ry="3.12" style="fill: #e7410f"/>
          <path d="M120.34,372.41h19.44a3.11,3.11,0,0,1,3.11,3.11v0a3.12,3.12,0,0,1-3.12,3.12H120.34a3.12,3.12,0,0,1-3.12-3.12v0a3.11,3.11,0,0,1,3.11-3.11Z" style="fill: #e7410f"/>
          <path d="M115.94,251.66h0a3.73,3.73,0,0,0,3.72,3.72h23.17a3.73,3.73,0,0,0,3.72-3.72h0a3.72,3.72,0,0,0-3.72-3.72H119.66A3.73,3.73,0,0,0,115.94,251.66Z" style="fill: #e7410f;fill-rule: evenodd"/>
        </g>
        <rect width="252.67" height="513.03" rx="3" ry="3" style="fill: #ecddaa;opacity: 0.75"/>
        <g>
          <path d="M51.84,229.28a3.05,3.05,0,0,1-2,.72H34a7.24,7.24,0,0,0,2.64,4.44A7.38,7.38,0,0,0,41.28,236a10.31,10.31,0,0,0,3.07-.36,8,8,0,0,0,1.75-.77l.89-.55a3.67,3.67,0,0,1,1.63-.43,2.36,2.36,0,0,1,1.73.72,2.3,2.3,0,0,1,.72,1.68,3,3,0,0,1-1.34,2.35,11.45,11.45,0,0,1-3.6,1.87,14.87,14.87,0,0,1-11.59-.91A11.72,11.72,0,0,1,29.9,235a13.51,13.51,0,0,1-1.63-6.65A14.71,14.71,0,0,1,30,221.12a12.26,12.26,0,0,1,4.56-4.78,11.78,11.78,0,0,1,6-1.66,11.21,11.21,0,0,1,6,1.73,12.93,12.93,0,0,1,4.49,4.66,12.53,12.53,0,0,1,1.68,6.34A2.46,2.46,0,0,1,51.84,229.28ZM34,225.2H46.61v-.34a5,5,0,0,0-2-3.46,6.23,6.23,0,0,0-4-1.44Q35,220,34,225.2Z" style="fill: #6cad73"/>
          <path d="M81.89,238a2.75,2.75,0,0,1-.91,2.06,2.82,2.82,0,0,1-4.37-.38l-5.76-7.15-5.62,7.15a3,3,0,0,1-1,.89,2.72,2.72,0,0,1-1.27.31,2.94,2.94,0,0,1-1.92-.77,2.27,2.27,0,0,1-.91-1.78,2.81,2.81,0,0,1,.72-1.82l6.67-8.16-6.91-8.59A2.67,2.67,0,0,1,60,218a2.7,2.7,0,0,1,.89-2,2.88,2.88,0,0,1,2-.84,2.91,2.91,0,0,1,2.35,1.2l5.9,7.34,5.47-7.25a2.73,2.73,0,0,1,2.3-1.3,2.64,2.64,0,0,1,1.94.79,2.48,2.48,0,0,1,.79,1.8,2.86,2.86,0,0,1-.67,1.87l-6.62,8.06,6.91,8.59A2.67,2.67,0,0,1,81.89,238Z" style="fill: #6cad73"/>
          <path d="M109.82,216.39a12,12,0,0,1,4.25,4.73,14.76,14.76,0,0,1,1.56,6.86,15.1,15.1,0,0,1-1.54,6.89,11.81,11.81,0,0,1-4.2,4.75,10.69,10.69,0,0,1-5.88,1.7,10.3,10.3,0,0,1-4.34-.94,11.5,11.5,0,0,1-3.38-2.28v9.41a2.88,2.88,0,0,1-.82,2.09,2.76,2.76,0,0,1-2.06.84,2.8,2.8,0,0,1-2.06-.82,2.86,2.86,0,0,1-.82-2.11V218.09a2.88,2.88,0,0,1,.82-2.09,3,3,0,0,1,4.13,0,2.88,2.88,0,0,1,.82,2.09v.19a9.94,9.94,0,0,1,3.22-2.52,9.2,9.2,0,0,1,4.32-1.08A11,11,0,0,1,109.82,216.39Zm-1.68,17.35a9.42,9.42,0,0,0,0-11.5A6.34,6.34,0,0,0,103.1,220,6.41,6.41,0,0,0,98,222.24,8.46,8.46,0,0,0,96,228a8.56,8.56,0,0,0,2,5.76,6.72,6.72,0,0,0,10.13,0Z" style="fill: #6cad73"/>
          <path d="M130.63,240a2.83,2.83,0,0,1-2.09.84,2.7,2.7,0,0,1-2-.84,2.87,2.87,0,0,1-.82-2.09V208.25a2.87,2.87,0,0,1,2.93-2.93,2.7,2.7,0,0,1,2,.84,2.88,2.88,0,0,1,.82,2.09v29.66A2.84,2.84,0,0,1,130.63,240Z" style="fill: #6cad73"/>
          <path d="M165.46,234.92a12.2,12.2,0,0,1-4.73,4.73,13.85,13.85,0,0,1-13.22,0,12.24,12.24,0,0,1-4.7-4.73,14.59,14.59,0,0,1,0-13.78,12.43,12.43,0,0,1,4.7-4.75,13.68,13.68,0,0,1,13.22,0,12.39,12.39,0,0,1,4.73,4.75,14.6,14.6,0,0,1,0,13.78Zm-5-11.09A7.25,7.25,0,0,0,157.8,221a7.19,7.19,0,0,0-7.34,0,7.24,7.24,0,0,0-2.64,2.86,8.79,8.79,0,0,0-1,4.2,8.65,8.65,0,0,0,1,4.18,7.28,7.28,0,0,0,2.64,2.83,7.19,7.19,0,0,0,7.34,0,7.29,7.29,0,0,0,2.64-2.83,8.67,8.67,0,0,0,1-4.18A8.8,8.8,0,0,0,160.44,223.83Z" style="fill: #6cad73"/>
          <path d="M192.55,215.5a2.43,2.43,0,0,1,1,1.92,3,3,0,0,1-.77,2.23,2.53,2.53,0,0,1-1.82.74,4.77,4.77,0,0,1-1.63-.34l-.65-.19a3.89,3.89,0,0,0-1.08-.14,4.27,4.27,0,0,0-2.4.77,5.61,5.61,0,0,0-1.9,2.33,8.58,8.58,0,0,0-.74,3.72v11.38a2.88,2.88,0,0,1-.82,2.09,3,3,0,0,1-4.13,0,2.88,2.88,0,0,1-.82-2.09V218.09a2.88,2.88,0,0,1,.82-2.09,3,3,0,0,1,4.13,0,2.88,2.88,0,0,1,.82,2.09v.62a7.28,7.28,0,0,1,3.17-3,9.75,9.75,0,0,1,4.42-1A3.67,3.67,0,0,1,192.55,215.5Z" style="fill: #6cad73"/>
          <path d="M223.49,229.28a3.05,3.05,0,0,1-2,.72H205.63a7.24,7.24,0,0,0,2.64,4.44,7.38,7.38,0,0,0,4.66,1.61,10.31,10.31,0,0,0,3.07-.36,8,8,0,0,0,1.75-.77l.89-.55a3.67,3.67,0,0,1,1.63-.43,2.36,2.36,0,0,1,1.73.72,2.3,2.3,0,0,1,.72,1.68,3,3,0,0,1-1.34,2.35,11.45,11.45,0,0,1-3.6,1.87,14.87,14.87,0,0,1-11.59-.91,11.72,11.72,0,0,1-4.63-4.63,13.51,13.51,0,0,1-1.63-6.65,14.71,14.71,0,0,1,1.73-7.25,12.26,12.26,0,0,1,4.56-4.78,11.78,11.78,0,0,1,6-1.66,11.21,11.21,0,0,1,6,1.73,12.93,12.93,0,0,1,4.49,4.66,12.53,12.53,0,0,1,1.68,6.34A2.46,2.46,0,0,1,223.49,229.28Zm-17.81-4.08h12.58v-.34a5,5,0,0,0-2-3.46,6.23,6.23,0,0,0-4-1.44Q206.69,220,205.68,225.2Z" style="fill: #6cad73"/>
          <path d="M43.73,273.1a2.86,2.86,0,0,1,.82,2.11v21.36q0,5.86-3.62,8.66A14.56,14.56,0,0,1,31.73,308a22.59,22.59,0,0,1-4-.48,17.49,17.49,0,0,1-3.58-1q-2.35-1-2.35-2.78a2.47,2.47,0,0,1,.14-.77,3,3,0,0,1,1-1.61,2.38,2.38,0,0,1,1.51-.55,2.88,2.88,0,0,1,.91.14q.19,0,2.38.89a11.18,11.18,0,0,0,4,.84,8.34,8.34,0,0,0,5.3-1.42,4.86,4.86,0,0,0,1.75-4V295a9.57,9.57,0,0,1-3.19,2.69,9.22,9.22,0,0,1-4.58,1.2,11.42,11.42,0,0,1-6.12-1.7,11.93,11.93,0,0,1-4.34-4.73A14.57,14.57,0,0,1,19,285.63a14.9,14.9,0,0,1,1.56-6.89A11.85,11.85,0,0,1,24.79,274a11.1,11.1,0,0,1,6-1.7,10.45,10.45,0,0,1,4.56,1,10.73,10.73,0,0,1,3.41,2.45v-.53a2.88,2.88,0,0,1,.82-2.09,2.75,2.75,0,0,1,2.06-.84A2.8,2.8,0,0,1,43.73,273.1ZM37,291.36a8.28,8.28,0,0,0,2-5.74,8.37,8.37,0,0,0-2-5.76,6.7,6.7,0,0,0-5.26-2.3,6.63,6.63,0,0,0-5.23,2.3,8.43,8.43,0,0,0-2,5.76,8.34,8.34,0,0,0,2,5.74,6.66,6.66,0,0,0,5.23,2.28A6.73,6.73,0,0,0,37,291.36Z" style="fill: #6cad73"/>
          <path d="M78.19,273.1a2.86,2.86,0,0,1,.82,2.11v20.3a2.88,2.88,0,0,1-.82,2.09,2.75,2.75,0,0,1-2.06.84,2.71,2.71,0,0,1-2-.82,3,3,0,0,1-.84-2.06,10.41,10.41,0,0,1-7.54,3.36,11,11,0,0,1-6-1.7,11.93,11.93,0,0,1-4.25-4.73,14.75,14.75,0,0,1-1.56-6.86,15.09,15.09,0,0,1,1.54-6.89,11.81,11.81,0,0,1,4.2-4.75,10.69,10.69,0,0,1,5.88-1.7,11.13,11.13,0,0,1,4.32.84,11.36,11.36,0,0,1,3.41,2.14v0a2.88,2.88,0,0,1,.82-2.09,2.76,2.76,0,0,1,2.06-.84A2.8,2.8,0,0,1,78.19,273.1Zm-6.67,18.26a8.47,8.47,0,0,0,2-5.74,8.56,8.56,0,0,0-2-5.76,6.72,6.72,0,0,0-10.13,0,9.43,9.43,0,0,0,0,11.5,6.34,6.34,0,0,0,5.06,2.28A6.41,6.41,0,0,0,71.52,291.36Z" style="fill: #6cad73"/>
          <path d="M105.82,273.1a2.43,2.43,0,0,1,1,1.92,3,3,0,0,1-.77,2.23,2.53,2.53,0,0,1-1.82.74,4.77,4.77,0,0,1-1.63-.34l-.65-.19a3.89,3.89,0,0,0-1.08-.14,4.27,4.27,0,0,0-2.4.77,5.61,5.61,0,0,0-1.9,2.33,8.58,8.58,0,0,0-.74,3.72v11.38A2.88,2.88,0,0,1,95,297.6a3,3,0,0,1-4.13,0,2.88,2.88,0,0,1-.82-2.09V275.69a2.88,2.88,0,0,1,.82-2.09,3,3,0,0,1,4.13,0,2.88,2.88,0,0,1,.82,2.09v.62a7.28,7.28,0,0,1,3.17-3,9.75,9.75,0,0,1,4.42-1A3.67,3.67,0,0,1,105.82,273.1Z" style="fill: #6cad73"/>
          <path d="M137.47,263.74a2.86,2.86,0,0,1,.82,2.11v29.66a2.88,2.88,0,0,1-.82,2.09,2.75,2.75,0,0,1-2.06.84,2.71,2.71,0,0,1-2-.82,3,3,0,0,1-.84-2.06,10.41,10.41,0,0,1-7.54,3.36,11,11,0,0,1-6-1.7,11.93,11.93,0,0,1-4.25-4.73,14.75,14.75,0,0,1-1.56-6.86,15.09,15.09,0,0,1,1.54-6.89,11.81,11.81,0,0,1,4.2-4.75,10.69,10.69,0,0,1,5.88-1.7,11.13,11.13,0,0,1,4.32.84,11.36,11.36,0,0,1,3.41,2.14v-9.41a2.88,2.88,0,0,1,.82-2.09,2.76,2.76,0,0,1,2.06-.84A2.8,2.8,0,0,1,137.47,263.74Zm-6.67,27.62a8.47,8.47,0,0,0,2-5.74,8.56,8.56,0,0,0-2-5.76,6.72,6.72,0,0,0-10.13,0,9.43,9.43,0,0,0,0,11.5,6.34,6.34,0,0,0,5.06,2.28A6.41,6.41,0,0,0,130.8,291.36Z" style="fill: #6cad73"/>
          <path d="M171.46,286.88a3.05,3.05,0,0,1-2,.72H153.6a7.24,7.24,0,0,0,2.64,4.44,7.38,7.38,0,0,0,4.66,1.61,10.31,10.31,0,0,0,3.07-.36,8,8,0,0,0,1.75-.77l.89-.55a3.67,3.67,0,0,1,1.63-.43,2.36,2.36,0,0,1,1.73.72,2.3,2.3,0,0,1,.72,1.68,3,3,0,0,1-1.34,2.35,11.45,11.45,0,0,1-3.6,1.87,14.87,14.87,0,0,1-11.59-.91,11.72,11.72,0,0,1-4.63-4.63,13.51,13.51,0,0,1-1.63-6.65,14.71,14.71,0,0,1,1.73-7.25,12.26,12.26,0,0,1,4.56-4.78,11.78,11.78,0,0,1,6-1.66,11.21,11.21,0,0,1,6,1.73,12.93,12.93,0,0,1,4.49,4.66,12.53,12.53,0,0,1,1.68,6.34A2.46,2.46,0,0,1,171.46,286.88Zm-17.81-4.08h12.58v-.34a5,5,0,0,0-2-3.46,6.23,6.23,0,0,0-4-1.44Q154.66,277.56,153.65,282.8Z" style="fill: #6cad73"/>
          <path d="M202.46,275.19q1.87,2.9,1.87,8v12.29a2.88,2.88,0,0,1-.82,2.09,3,3,0,0,1-4.13,0,2.87,2.87,0,0,1-.82-2.09V283.23a6.92,6.92,0,0,0-1.1-4.15,4.39,4.39,0,0,0-3.79-1.51,5.85,5.85,0,0,0-4.37,1.61,5.55,5.55,0,0,0-1.58,4.06v12.29a2.88,2.88,0,0,1-.82,2.09,3,3,0,0,1-4.13,0,2.88,2.88,0,0,1-.82-2.09V275.69a2.88,2.88,0,0,1,.82-2.09,3,3,0,0,1,4.13,0,2.88,2.88,0,0,1,.82,2.09v.82a11.61,11.61,0,0,1,3.38-3,8.77,8.77,0,0,1,4.58-1.25Q200.59,272.28,202.46,275.19Z" style="fill: #6cad73"/>
          <path d="M213.45,293a2.73,2.73,0,0,1,2.64-2.54,2.71,2.71,0,0,1,1.92.91,10.13,10.13,0,0,0,3,2.21,9,9,0,0,0,3.77.72q3.74-.14,3.74-2.83a2.3,2.3,0,0,0-1.27-2.11,18,18,0,0,0-4-1.44,34.3,34.3,0,0,1-4.54-1.54,8,8,0,0,1-3-2.33,6.44,6.44,0,0,1-1.27-4.2,6.35,6.35,0,0,1,1.32-4,8.68,8.68,0,0,1,3.46-2.64,11.17,11.17,0,0,1,4.54-.94,14,14,0,0,1,4.9.91,8.53,8.53,0,0,1,3.84,2.69,2.67,2.67,0,0,1,.62,1.73,2.23,2.23,0,0,1-.91,1.82,2.42,2.42,0,0,1-1.54.53,2.33,2.33,0,0,1-1.73-.67,6.11,6.11,0,0,0-2.23-1.68,7.39,7.39,0,0,0-3.1-.62q-3.65,0-3.65,2.64a2.25,2.25,0,0,0,.67,1.7,4.57,4.57,0,0,0,1.7,1q1,.36,2.9.89a31.7,31.7,0,0,1,4.32,1.49,7.41,7.41,0,0,1,2.93,2.35,6.74,6.74,0,0,1,1.2,4.18,6.4,6.4,0,0,1-1.39,4.1,8.82,8.82,0,0,1-3.58,2.66,11.56,11.56,0,0,1-4.49.91,16.26,16.26,0,0,1-5.9-1.06,9.81,9.81,0,0,1-4.46-3.41A2.33,2.33,0,0,1,213.45,293Z" style="fill: #6cad73"/>
        </g>
      </g>
    </g>
  </g>
</svg>
