<svg xmlns="http://www.w3.org/2000/svg" viewBox="0 0 252.67 513.03">
  <title>produce_hover_button</title>
  <g id="Layer_2" data-name="Layer 2">
    <g id="Layer_2-2" data-name="Layer 2">
      <g>
        <rect width="252.67" height="513.03" rx="3" ry="3" style="fill: #ecddaa"/>
        <g>
          <path d="M117.41,117.4c0-34.39,9.3-63.83,22.48-76v76h0v41.48a11.28,11.28,0,0,1-11.24,11.24H117.4V117.4Z" style="fill: #9ac512;fill-rule: evenodd"/>
          <path d="M172.69,236.89q0-4.49-.21-8.86h0V151.6h0c0-49.86-13.48-92.55-32.59-110.21V151.6h0v60.14a16.36,16.36,0,0,0,10.32,15.15v10h0v41.48a11.27,11.27,0,0,0,11.24,11.24h11.25V236.89Z" style="fill: #5d9f14;fill-rule: evenodd"/>
          <g>
            <rect x="104.26" y="125.94" width="49.77" height="256.5" style="fill: #f5a600"/>
            <path d="M91.82,373.6h0a8.87,8.87,0,0,1,8.85-8.85,8.88,8.88,0,0,1-8.85-8.85h0a8.88,8.88,0,0,1,8.85-8.85,8.87,8.87,0,0,1-8.85-8.85h0a8.87,8.87,0,0,1,8.85-8.85,8.87,8.87,0,0,1-8.85-8.85h0a8.87,8.87,0,0,1,8.85-8.85,8.88,8.88,0,0,1-8.85-8.85h0a8.87,8.87,0,0,1,8.85-8.85,8.87,8.87,0,0,1-8.85-8.85h0a8.87,8.87,0,0,1,8.85-8.85,8.88,8.88,0,0,1-8.85-8.85h0a8.87,8.87,0,0,1,8.85-8.85,8.88,8.88,0,0,1-8.85-8.85h0a8.87,8.87,0,0,1,8.85-8.85A8.87,8.87,0,0,1,91.82,232h0a8.88,8.88,0,0,1,8.85-8.85,8.87,8.87,0,0,1-8.85-8.85h0a8.88,8.88,0,0,1,8.85-8.85,8.87,8.87,0,0,1-8.85-8.85h0a8.87,8.87,0,0,1,8.85-8.85,8.87,8.87,0,0,1-8.85-8.85h0a8.87,8.87,0,0,1,8.85-8.85,8.87,8.87,0,0,1-8.85-8.85h0a8.88,8.88,0,0,1,8.85-8.85,8.87,8.87,0,0,1-8.85-8.85h0a8.87,8.87,0,0,1,8.85-8.85h7.19a8.87,8.87,0,0,1,8.85,8.85h0a8.87,8.87,0,0,1-8.85,8.85,8.87,8.87,0,0,1,8.85,8.85h0a8.87,8.87,0,0,1-8.85,8.85,8.87,8.87,0,0,1,8.85,8.85h0a8.87,8.87,0,0,1-8.85,8.85,8.87,8.87,0,0,1,8.85,8.85h0a8.87,8.87,0,0,1-8.85,8.85,8.87,8.87,0,0,1,8.85,8.85h0a8.87,8.87,0,0,1-8.85,8.85,8.87,8.87,0,0,1,8.85,8.85h0a8.87,8.87,0,0,1-8.85,8.85,8.87,8.87,0,0,1,8.85,8.85h0a8.87,8.87,0,0,1-8.85,8.85,8.87,8.87,0,0,1,8.85,8.85h0a8.87,8.87,0,0,1-8.85,8.85,8.87,8.87,0,0,1,8.85,8.85h0a8.87,8.87,0,0,1-8.85,8.85,8.87,8.87,0,0,1,8.85,8.85h0a8.87,8.87,0,0,1-8.85,8.85,8.87,8.87,0,0,1,8.85,8.85h0a8.87,8.87,0,0,1-8.85,8.85,8.87,8.87,0,0,1,8.85,8.85h0a8.87,8.87,0,0,1-8.85,8.85,8.87,8.87,0,0,1,8.85,8.85h0a8.87,8.87,0,0,1-8.85,8.85,8.87,8.87,0,0,1,8.85,8.85h0a8.87,8.87,0,0,1-8.85,8.85h-7.19A8.87,8.87,0,0,1,91.82,373.6Z" style="fill: #ebd400;fill-rule: evenodd"/>
            <path d="M91.82,373.6h0a8.78,8.78,0,1,1,17.56,0h0a8.78,8.78,0,1,1-17.56,0Zm8.78-8.85a8.88,8.88,0,0,1-8.78-8.85h0a8.78,8.78,0,1,1,17.56,0h0a8.87,8.87,0,0,1-8.78,8.85Zm0-17.7a8.88,8.88,0,0,1-8.78-8.85h0a8.78,8.78,0,1,1,17.56,0h0A8.88,8.88,0,0,1,100.6,347Zm0-17.7a8.88,8.88,0,0,1-8.78-8.85h0a8.78,8.78,0,1,1,17.56,0h0a8.87,8.87,0,0,1-8.78,8.85Zm0-17.7a8.88,8.88,0,0,1-8.78-8.85h0a8.78,8.78,0,1,1,17.56,0h0a8.87,8.87,0,0,1-8.78,8.85Zm0-17.7a8.88,8.88,0,0,1-8.78-8.85h0a8.78,8.78,0,1,1,17.56,0h0A8.88,8.88,0,0,1,100.6,294Zm0-17.7a8.88,8.88,0,0,1-8.78-8.85h0a8.78,8.78,0,1,1,17.56,0h0a8.87,8.87,0,0,1-8.78,8.85Zm0-17.7a8.88,8.88,0,0,1-8.78-8.85h0a8.78,8.78,0,1,1,17.56,0h0a8.87,8.87,0,0,1-8.78,8.85Zm0-17.7A8.88,8.88,0,0,1,91.82,232h0a8.78,8.78,0,1,1,17.56,0h0a8.87,8.87,0,0,1-8.78,8.85Zm0-17.7a8.88,8.88,0,0,1-8.78-8.85h0a8.78,8.78,0,1,1,17.56,0h0a8.88,8.88,0,0,1-8.78,8.85Zm0-17.7a8.87,8.87,0,0,0,8.78-8.85h0a8.78,8.78,0,1,0-17.56,0h0a8.88,8.88,0,0,0,8.78,8.85Zm0-17.7a8.88,8.88,0,0,1-8.78-8.85h0a8.78,8.78,0,1,1,17.56,0h0a8.87,8.87,0,0,1-8.78,8.85Zm0-17.7a8.88,8.88,0,0,1-8.78-8.85h0a8.78,8.78,0,1,1,17.56,0h0a8.87,8.87,0,0,1-8.78,8.85Zm0-17.7a8.87,8.87,0,0,0,8.78-8.85h0a8.78,8.78,0,1,0-17.56,0h0A8.88,8.88,0,0,0,100.6,152.37Z" style="fill: #fce300;fill-rule: evenodd"/>
            <path d="M141.59,373.6h0a8.87,8.87,0,0,0-8.85-8.85,8.88,8.88,0,0,0,8.85-8.85h0a8.88,8.88,0,0,0-8.85-8.85,8.87,8.87,0,0,0,8.85-8.85h0a8.87,8.87,0,0,0-8.85-8.85,8.87,8.87,0,0,0,8.85-8.85h0a8.87,8.87,0,0,0-8.85-8.85,8.88,8.88,0,0,0,8.85-8.85h0a8.88,8.88,0,0,0-8.85-8.85,8.87,8.87,0,0,0,8.85-8.85h0a8.87,8.87,0,0,0-8.85-8.85,8.88,8.88,0,0,0,8.85-8.85h0a8.87,8.87,0,0,0-8.85-8.85,8.88,8.88,0,0,0,8.85-8.85h0a8.87,8.87,0,0,0-8.85-8.85,8.87,8.87,0,0,0,8.85-8.85h0a8.88,8.88,0,0,0-8.85-8.85,8.87,8.87,0,0,0,8.85-8.85h0a8.88,8.88,0,0,0-8.85-8.85,8.87,8.87,0,0,0,8.85-8.85h0a8.87,8.87,0,0,0-8.85-8.85,8.88,8.88,0,0,0,8.85-8.85h0a8.87,8.87,0,0,0-8.85-8.85,8.87,8.87,0,0,0,8.85-8.85h0a8.88,8.88,0,0,0-8.85-8.85,8.87,8.87,0,0,0,8.85-8.85h0a8.88,8.88,0,0,0-7.83-8.79,8.88,8.88,0,0,0,7.83-8.79h0a8.87,8.87,0,0,0-8.85-8.85h-7.19a8.88,8.88,0,0,0-8.85,8.85h0a8.88,8.88,0,0,0,7.83,8.79,8.88,8.88,0,0,0-7.83,8.79h0a8.87,8.87,0,0,0,8.85,8.85,8.88,8.88,0,0,0-8.85,8.85h0a8.88,8.88,0,0,0,8.85,8.85,8.88,8.88,0,0,0-8.85,8.85h0a8.88,8.88,0,0,0,8.85,8.85,8.88,8.88,0,0,0-8.85,8.85h0a8.87,8.87,0,0,0,8.85,8.85,8.88,8.88,0,0,0-8.85,8.85h0a8.87,8.87,0,0,0,8.85,8.85,8.88,8.88,0,0,0-8.85,8.85h0a8.88,8.88,0,0,0,8.85,8.85,8.87,8.87,0,0,0-8.85,8.85h0a8.88,8.88,0,0,0,8.85,8.85,8.87,8.87,0,0,0-8.85,8.85h0a8.88,8.88,0,0,0,8.85,8.85,8.87,8.87,0,0,0-8.85,8.85h0a8.87,8.87,0,0,0,8.85,8.85,8.88,8.88,0,0,0-8.85,8.85h0a8.88,8.88,0,0,0,8.85,8.85,8.87,8.87,0,0,0-8.85,8.85h0a8.87,8.87,0,0,0,8.85,8.85,8.88,8.88,0,0,0-8.85,8.85h0a8.88,8.88,0,0,0,8.85,8.85,8.88,8.88,0,0,0-8.85,8.85h0a8.88,8.88,0,0,0,8.85,8.85,8.87,8.87,0,0,0-8.85,8.85h0a8.88,8.88,0,0,0,8.85,8.85h7.19A8.87,8.87,0,0,0,141.59,373.6Z" style="fill: #ebd400;fill-rule: evenodd"/>
            <path d="M125.69,117.09h-.14a8.88,8.88,0,0,0-8.85,8.85h0a8.88,8.88,0,0,0,7.83,8.79,8.88,8.88,0,0,0-7.83,8.79h0a8.87,8.87,0,0,0,8.85,8.85,8.88,8.88,0,0,0-8.85,8.85h0a8.88,8.88,0,0,0,8.85,8.85,8.88,8.88,0,0,0-8.85,8.85h0a8.88,8.88,0,0,0,8.85,8.85,8.88,8.88,0,0,0-8.85,8.85h0a8.87,8.87,0,0,0,8.85,8.85,8.88,8.88,0,0,0-8.85,8.85h0a8.87,8.87,0,0,0,8.85,8.85,8.88,8.88,0,0,0-8.85,8.85h0a8.88,8.88,0,0,0,8.85,8.85,8.87,8.87,0,0,0-8.85,8.85h0a8.88,8.88,0,0,0,8.85,8.85,8.87,8.87,0,0,0-8.85,8.85h0a8.88,8.88,0,0,0,8.85,8.85,8.87,8.87,0,0,0-8.85,8.85h0a8.87,8.87,0,0,0,8.85,8.85,8.88,8.88,0,0,0-8.85,8.85h0a8.88,8.88,0,0,0,8.85,8.85,8.87,8.87,0,0,0-8.85,8.85h0a8.87,8.87,0,0,0,8.85,8.85,8.88,8.88,0,0,0-8.85,8.85h0a8.88,8.88,0,0,0,8.85,8.85,8.88,8.88,0,0,0-8.85,8.85h0a8.88,8.88,0,0,0,8.85,8.85,8.87,8.87,0,0,0-8.85,8.85h0a8.88,8.88,0,0,0,8.85,8.85h.14a8.87,8.87,0,0,0,8.85-8.85h0a8.87,8.87,0,0,0-8.85-8.85,8.87,8.87,0,0,0,8.85-8.85h0a8.87,8.87,0,0,0-8.85-8.85,8.87,8.87,0,0,0,8.85-8.85h0a8.87,8.87,0,0,0-8.85-8.85,8.87,8.87,0,0,0,8.85-8.85h0a8.87,8.87,0,0,0-8.85-8.85,8.88,8.88,0,0,0,8.85-8.85h0a8.87,8.87,0,0,0-8.85-8.85,8.87,8.87,0,0,0,8.85-8.85h0a8.87,8.87,0,0,0-8.85-8.85,8.88,8.88,0,0,0,8.85-8.85h0a8.87,8.87,0,0,0-8.85-8.85,8.88,8.88,0,0,0,8.85-8.85h0a8.87,8.87,0,0,0-8.85-8.85,8.87,8.87,0,0,0,8.85-8.85h0a8.88,8.88,0,0,0-8.85-8.85,8.87,8.87,0,0,0,8.85-8.85h0a8.88,8.88,0,0,0-8.85-8.85,8.87,8.87,0,0,0,8.85-8.85h0a8.87,8.87,0,0,0-8.85-8.85,8.87,8.87,0,0,0,8.85-8.85h0a8.87,8.87,0,0,0-8.85-8.85,8.87,8.87,0,0,0,8.85-8.85h0a8.87,8.87,0,0,0-8.85-8.85,8.87,8.87,0,0,0,8.85-8.85h0a8.88,8.88,0,0,0-7.83-8.79,8.88,8.88,0,0,0,7.83-8.79h0A8.87,8.87,0,0,0,125.69,117.09Z" style="fill: #ffec00;fill-rule: evenodd"/>
            <path d="M141.59,373.6h0a8.87,8.87,0,0,1,8.85-8.85,8.87,8.87,0,0,1-8.85-8.85h0a8.87,8.87,0,0,1,8.85-8.85,8.87,8.87,0,0,1-8.85-8.85h0a8.87,8.87,0,0,1,8.85-8.85,8.87,8.87,0,0,1-8.85-8.85h0a8.87,8.87,0,0,1,8.85-8.85,8.88,8.88,0,0,1-8.85-8.85h0a8.87,8.87,0,0,1,8.85-8.85,8.87,8.87,0,0,1-8.85-8.85h0a8.87,8.87,0,0,1,8.85-8.85,8.87,8.87,0,0,1-8.85-8.85h0a8.87,8.87,0,0,1,8.85-8.85,8.88,8.88,0,0,1-8.85-8.85h0a8.87,8.87,0,0,1,8.85-8.85,8.87,8.87,0,0,1-8.85-8.85h0a8.88,8.88,0,0,1,8.85-8.85,8.87,8.87,0,0,1-8.85-8.85h0a8.87,8.87,0,0,1,8.85-8.85,8.87,8.87,0,0,1-8.85-8.85h0a8.87,8.87,0,0,1,8.85-8.85,8.87,8.87,0,0,1-8.85-8.85h0a8.87,8.87,0,0,1,8.85-8.85,8.87,8.87,0,0,1-8.85-8.85h0a8.87,8.87,0,0,1,8.85-8.85,8.87,8.87,0,0,1-8.85-8.85h0a8.87,8.87,0,0,1,8.85-8.85h-2.81a6.48,6.48,0,0,1-6.46-6.46h0a6.48,6.48,0,0,1,6.46-6.47h5.25a6.48,6.48,0,0,1,6.46,6.47h0a6.48,6.48,0,0,1-6.46,6.46h4.74a8.87,8.87,0,0,1,8.85,8.85h0a8.87,8.87,0,0,1-8.85,8.85,8.88,8.88,0,0,1,8.85,8.85h0a8.87,8.87,0,0,1-8.85,8.85,8.87,8.87,0,0,1,8.85,8.85h0a8.88,8.88,0,0,1-8.85,8.85,8.87,8.87,0,0,1,8.85,8.85h0a8.87,8.87,0,0,1-8.85,8.85,8.88,8.88,0,0,1,8.85,8.85h0a8.87,8.87,0,0,1-8.85,8.85,8.88,8.88,0,0,1,8.85,8.85h0a8.87,8.87,0,0,1-8.85,8.85,8.87,8.87,0,0,1,8.85,8.85h0a8.88,8.88,0,0,1-8.85,8.85,8.87,8.87,0,0,1,8.85,8.85h0a8.88,8.88,0,0,1-8.85,8.85,8.87,8.87,0,0,1,8.85,8.85h0a8.87,8.87,0,0,1-8.85,8.85,8.87,8.87,0,0,1,8.85,8.85h0a8.88,8.88,0,0,1-8.85,8.85,8.87,8.87,0,0,1,8.85,8.85h0a8.87,8.87,0,0,1-8.85,8.85,8.87,8.87,0,0,1,8.85,8.85h0a8.87,8.87,0,0,1-8.85,8.85,8.88,8.88,0,0,1,8.85,8.85h0a8.88,8.88,0,0,1-8.85,8.85,8.87,8.87,0,0,1,8.85,8.85h0a8.87,8.87,0,0,1-8.85,8.85h-7.19A8.87,8.87,0,0,1,141.59,373.6Z" style="fill: #ebbe00;fill-rule: evenodd"/>
            <path d="M141.59,373.6h0a8.87,8.87,0,0,1,8.85-8.85,8.87,8.87,0,0,1-8.85-8.85h0a8.87,8.87,0,0,1,8.85-8.85,8.87,8.87,0,0,1-8.85-8.85h0a8.87,8.87,0,0,1,8.85-8.85,8.87,8.87,0,0,1-8.85-8.85h0a8.87,8.87,0,0,1,8.85-8.85,8.88,8.88,0,0,1-8.85-8.85h0a8.87,8.87,0,0,1,8.85-8.85,8.87,8.87,0,0,1-8.85-8.85h0a8.87,8.87,0,0,1,8.85-8.85,8.87,8.87,0,0,1-8.85-8.85h0a8.87,8.87,0,0,1,8.85-8.85,8.88,8.88,0,0,1-8.85-8.85h0a8.87,8.87,0,0,1,8.85-8.85,8.87,8.87,0,0,1-8.85-8.85h0a8.88,8.88,0,0,1,8.85-8.85,8.87,8.87,0,0,1-8.85-8.85h0a8.87,8.87,0,0,1,8.85-8.85,8.87,8.87,0,0,1-8.85-8.85h0a8.87,8.87,0,0,1,8.85-8.85,8.87,8.87,0,0,1-8.85-8.85h0a8.87,8.87,0,0,1,8.85-8.85,8.87,8.87,0,0,1-8.85-8.85h0a8.87,8.87,0,0,1,8.85-8.85,8.87,8.87,0,0,1-8.85-8.85h0a8.87,8.87,0,0,1,8.85-8.85h.83a8.87,8.87,0,0,1,8.85,8.85h0a8.87,8.87,0,0,1-8.85,8.85,8.87,8.87,0,0,1,8.85,8.85h0a8.87,8.87,0,0,1-8.85,8.85,8.87,8.87,0,0,1,8.85,8.85h0a8.87,8.87,0,0,1-8.85,8.85,8.87,8.87,0,0,1,8.85,8.85h0a8.87,8.87,0,0,1-8.85,8.85,8.87,8.87,0,0,1,8.85,8.85h0a8.87,8.87,0,0,1-8.85,8.85,8.87,8.87,0,0,1,8.85,8.85h0a8.87,8.87,0,0,1-8.85,8.85,8.87,8.87,0,0,1,8.85,8.85h0a8.87,8.87,0,0,1-8.85,8.85,8.87,8.87,0,0,1,8.85,8.85h0a8.87,8.87,0,0,1-8.85,8.85,8.87,8.87,0,0,1,8.85,8.85h0a8.87,8.87,0,0,1-8.85,8.85,8.87,8.87,0,0,1,8.85,8.85h0a8.87,8.87,0,0,1-8.85,8.85,8.87,8.87,0,0,1,8.85,8.85h0a8.87,8.87,0,0,1-8.85,8.85,8.87,8.87,0,0,1,8.85,8.85h0a8.87,8.87,0,0,1-8.85,8.85,8.87,8.87,0,0,1,8.85,8.85h0a8.87,8.87,0,0,1-8.85,8.85,8.87,8.87,0,0,1,8.85,8.85h0a8.87,8.87,0,0,1-8.85,8.85h-.83a8.87,8.87,0,0,1-8.85-8.85Zm5.49-238.95a6.49,6.49,0,0,1-5.91-6.44h0a5.93,5.93,0,1,1,11.82,0h0A6.49,6.49,0,0,1,147.08,134.65Z" style="fill: #ebd400;fill-rule: evenodd"/>
            <rect x="98.52" y="121.74" width="18.18" height="12.93" rx="6.46" ry="6.46" style="fill: #fce300"/>
          </g>
          <path d="M136.58,341.26c0-74.35-20.1-138-48.6-164.34V429.27a24.38,24.38,0,0,0,24.3,24.3h24.31Z" style="fill: #5d9f14;fill-rule: evenodd"/>
          <path d="M88,261.52V429.27a24.38,24.38,0,0,0,24.3,24.3h3.55V386.38h0C115.83,335.1,104.86,289.66,88,261.52Z" style="fill: #9ac512;fill-rule: evenodd"/>
          <path d="M136.58,377.13c0-49.86,13.48-92.55,32.59-110.21V377.13h0v60.14a16.35,16.35,0,0,1-16.29,16.3h-16.3V377.13Z" style="fill: #73ae0e;fill-rule: evenodd"/>
          <rect x="144.97" y="361.24" width="4.48" height="78.2" rx="2.24" ry="2.24" style="fill: #9ac512"/>
          <path d="M156.09,318.8V437.21a2.24,2.24,0,0,0,2.24,2.24h0a2.24,2.24,0,0,0,2.24-2.24V318.8a2.25,2.25,0,0,0-2.24-2.24h0A2.24,2.24,0,0,0,156.09,318.8Z" style="fill: #9ac512;fill-rule: evenodd"/>
          <rect x="106.57" y="365.65" width="4.48" height="78.2" rx="2.24" ry="2.24" style="fill: #7fbc0a"/>
          <path d="M95.45,311.65V433.95a2.24,2.24,0,0,0,2.24,2.24h0a2.24,2.24,0,0,0,2.24-2.24V311.65a2.24,2.24,0,0,0-2.24-2.24h0A2.25,2.25,0,0,0,95.45,311.65Z" style="fill: #7fbc0a;fill-rule: evenodd"/>
          <path d="M60.13,369V201.22a24.38,24.38,0,0,1,24.3-24.3H88V244.1h0C88,295.39,77,340.83,60.13,369Z" style="fill: #9ac512;fill-rule: evenodd"/>
          <path d="M75.3,178.71a24.15,24.15,0,0,1,4.47-1.34v76.48a2.24,2.24,0,0,1-2.24,2.24h0a2.24,2.24,0,0,1-2.24-2.24Z" style="fill: #aecc29;fill-rule: evenodd"/>
          <path d="M65.28,186.31a24.79,24.79,0,0,1,4.47-4.42V295.75A2.24,2.24,0,0,1,67.52,298h0a2.24,2.24,0,0,1-2.24-2.24Z" style="fill: #aecc29;fill-rule: evenodd"/>
          <path d="M192.54,428V287.31a20.45,20.45,0,0,0-20.38-20.38h-3v56.36h0C169.18,366.3,178.38,404.42,192.54,428Z" style="fill: #73ae0e;fill-rule: evenodd"/>
          <polygon points="115.83 453.57 143.59 453.57 143.59 471.65 141.28 466.56 138.97 461.46 136.65 466.56 134.34 471.65 132.03 466.56 129.71 461.46 127.4 466.56 125.09 471.65 122.77 466.56 120.46 461.46 118.14 466.56 115.83 471.65 115.83 453.57" style="fill: #5d9f14;fill-rule: evenodd"/>
          <polygon points="136.58 453.57 143.59 453.57 143.59 471.65 141.28 466.56 138.97 461.46 136.65 466.56 136.58 466.7 136.58 453.57" style="fill: #73ae0e;fill-rule: evenodd"/>
        </g>
        <rect width="252.67" height="513.03" rx="3" ry="3" style="fill: #ecddaa;opacity: 0.75"/>
        <g>
          <path d="M95.3,216a2.47,2.47,0,0,1,.77,1.85,3.72,3.72,0,0,1-.38,1.44l-9,19.78a3,3,0,0,1-1,1.3,2.67,2.67,0,0,1-1.46.53l-.43,0a2.52,2.52,0,0,1-1.51-.5A3.29,3.29,0,0,1,81.24,239l-8.93-19.78a3.8,3.8,0,0,1-.34-1.54,2.4,2.4,0,0,1,.82-1.75,2.78,2.78,0,0,1,2-.79,3.12,3.12,0,0,1,1.68.48A3,3,0,0,1,77.64,217l6.62,15.17L90.84,217a3.16,3.16,0,0,1,1.06-1.39,2.27,2.27,0,0,1,1.49-.43A2.65,2.65,0,0,1,95.3,216Z" style="fill: #6cad73"/>
          <path d="M105.62,211.52a2.25,2.25,0,0,1-.67-1.87v-.91a2.18,2.18,0,0,1,.72-1.87,5.4,5.4,0,0,1,4.66,0,2.26,2.26,0,0,1,.67,1.87v.91a2.21,2.21,0,0,1-.7,1.9,4.19,4.19,0,0,1-2.38.5A3.81,3.81,0,0,1,105.62,211.52ZM110,240a3,3,0,0,1-4.13,0,2.88,2.88,0,0,1-.82-2.09V218.09a2.88,2.88,0,0,1,.82-2.09,3,3,0,0,1,4.13,0,2.88,2.88,0,0,1,.82,2.09v19.82A2.88,2.88,0,0,1,110,240Z" style="fill: #6cad73"/>
          <path d="M119.64,235.42a2.73,2.73,0,0,1,2.64-2.54,2.71,2.71,0,0,1,1.92.91,10.13,10.13,0,0,0,3,2.21,9,9,0,0,0,3.77.72q3.74-.14,3.74-2.83a2.3,2.3,0,0,0-1.27-2.11,18,18,0,0,0-4-1.44,34.3,34.3,0,0,1-4.54-1.54,8,8,0,0,1-3-2.33,6.44,6.44,0,0,1-1.27-4.2,6.35,6.35,0,0,1,1.32-4,8.68,8.68,0,0,1,3.46-2.64,11.17,11.17,0,0,1,4.54-.94,14,14,0,0,1,4.9.91,8.53,8.53,0,0,1,3.84,2.69,2.67,2.67,0,0,1,.62,1.73,2.23,2.23,0,0,1-.91,1.82,2.42,2.42,0,0,1-1.54.53,2.33,2.33,0,0,1-1.73-.67,6.11,6.11,0,0,0-2.23-1.68,7.39,7.39,0,0,0-3.1-.62q-3.65,0-3.65,2.64a2.25,2.25,0,0,0,.67,1.7,4.57,4.57,0,0,0,1.7,1q1,.36,2.9.89a31.7,31.7,0,0,1,4.32,1.49,7.41,7.41,0,0,1,2.93,2.35,6.74,6.74,0,0,1,1.2,4.18,6.4,6.4,0,0,1-1.39,4.1,8.82,8.82,0,0,1-3.58,2.66,11.56,11.56,0,0,1-4.49.91,16.26,16.26,0,0,1-5.9-1.06,9.81,9.81,0,0,1-4.46-3.41A2.33,2.33,0,0,1,119.64,235.42Z" style="fill: #6cad73"/>
          <path d="M149.69,211.52a2.25,2.25,0,0,1-.67-1.87v-.91a2.18,2.18,0,0,1,.72-1.87,5.4,5.4,0,0,1,4.66,0,2.26,2.26,0,0,1,.67,1.87v.91a2.21,2.21,0,0,1-.7,1.9,4.19,4.19,0,0,1-2.38.5A3.81,3.81,0,0,1,149.69,211.52ZM154.1,240a3,3,0,0,1-4.13,0,2.88,2.88,0,0,1-.82-2.09V218.09A2.88,2.88,0,0,1,150,216a3,3,0,0,1,4.13,0,2.88,2.88,0,0,1,.82,2.09v19.82A2.88,2.88,0,0,1,154.1,240Z" style="fill: #6cad73"/>
          <path d="M179.23,236.07a2.54,2.54,0,0,1,.55,1.7,2.57,2.57,0,0,1-1.42,2.18,5.89,5.89,0,0,1-3.19.89,9.3,9.3,0,0,1-5-1.27q-2-1.27-2-5.4V220.92h-2.21a2.63,2.63,0,0,1-2.69-2.69,2.47,2.47,0,0,1,.77-1.85,2.65,2.65,0,0,1,1.92-.74h2.21v-3.07a2.87,2.87,0,0,1,2.93-2.93,2.7,2.7,0,0,1,2,.84,2.88,2.88,0,0,1,.82,2.09v3.07h3.41a2.62,2.62,0,0,1,2.69,2.69,2.47,2.47,0,0,1-.77,1.85,2.65,2.65,0,0,1-1.92.74h-3.41v13a1.83,1.83,0,0,0,.53,1.46,2.12,2.12,0,0,0,1.44.46,4.13,4.13,0,0,0,1.06-.19,2.86,2.86,0,0,1,1.1-.24A1.6,1.6,0,0,1,179.23,236.07Z" style="fill: #6cad73"/>
          <path d="M39.07,274a12,12,0,0,1,4.25,4.73,14.76,14.76,0,0,1,1.56,6.86,15.1,15.1,0,0,1-1.54,6.89,11.81,11.81,0,0,1-4.2,4.75,10.69,10.69,0,0,1-5.88,1.7,10.3,10.3,0,0,1-4.34-.94,11.5,11.5,0,0,1-3.38-2.28v9.41a2.88,2.88,0,0,1-.82,2.09,2.76,2.76,0,0,1-2.06.84,2.8,2.8,0,0,1-2.06-.82,2.86,2.86,0,0,1-.82-2.11V275.69a2.88,2.88,0,0,1,.82-2.09,3,3,0,0,1,4.13,0,2.88,2.88,0,0,1,.82,2.09v.19a9.94,9.94,0,0,1,3.22-2.52,9.2,9.2,0,0,1,4.32-1.08A11,11,0,0,1,39.07,274Zm-1.68,17.35a9.42,9.42,0,0,0,0-11.5,6.34,6.34,0,0,0-5.06-2.28,6.41,6.41,0,0,0-5.09,2.28,8.46,8.46,0,0,0-2,5.74,8.56,8.56,0,0,0,2,5.76,6.38,6.38,0,0,0,5.09,2.3A6.33,6.33,0,0,0,37.39,291.34Z" style="fill: #6cad73"/>
          <path d="M70.25,273.1a2.43,2.43,0,0,1,1,1.92,3,3,0,0,1-.77,2.23,2.53,2.53,0,0,1-1.82.74,4.77,4.77,0,0,1-1.63-.34l-.65-.19a3.89,3.89,0,0,0-1.08-.14,4.27,4.27,0,0,0-2.4.77,5.61,5.61,0,0,0-1.9,2.33,8.58,8.58,0,0,0-.74,3.72v11.38a2.88,2.88,0,0,1-.82,2.09,3,3,0,0,1-4.13,0,2.88,2.88,0,0,1-.82-2.09V275.69a2.88,2.88,0,0,1,.82-2.09,3,3,0,0,1,4.13,0,2.88,2.88,0,0,1,.82,2.09v.62a7.28,7.28,0,0,1,3.17-3,9.75,9.75,0,0,1,4.42-1A3.67,3.67,0,0,1,70.25,273.1Z" style="fill: #6cad73"/>
          <path d="M102,292.52a12.2,12.2,0,0,1-4.73,4.73,13.85,13.85,0,0,1-13.22,0,12.24,12.24,0,0,1-4.7-4.73,14.59,14.59,0,0,1,0-13.78A12.43,12.43,0,0,1,84,274a13.68,13.68,0,0,1,13.22,0,12.39,12.39,0,0,1,4.73,4.75,14.6,14.6,0,0,1,0,13.78Zm-5-11.09a7.25,7.25,0,0,0-2.64-2.86,7.19,7.19,0,0,0-7.34,0,7.24,7.24,0,0,0-2.64,2.86,8.79,8.79,0,0,0-1,4.2,8.65,8.65,0,0,0,1,4.18A7.28,7.28,0,0,0,87,292.64a7.19,7.19,0,0,0,7.34,0A7.29,7.29,0,0,0,97,289.8a8.67,8.67,0,0,0,1-4.18A8.8,8.8,0,0,0,97,281.43Z" style="fill: #6cad73"/>
          <path d="M136.18,263.74a2.86,2.86,0,0,1,.82,2.11v29.66a2.88,2.88,0,0,1-.82,2.09,2.75,2.75,0,0,1-2.06.84,2.71,2.71,0,0,1-2-.82,3,3,0,0,1-.84-2.06,10.41,10.41,0,0,1-7.54,3.36,11,11,0,0,1-6-1.7,11.93,11.93,0,0,1-4.25-4.73,14.75,14.75,0,0,1-1.56-6.86,15.09,15.09,0,0,1,1.54-6.89,11.81,11.81,0,0,1,4.2-4.75,10.69,10.69,0,0,1,5.88-1.7,11.13,11.13,0,0,1,4.32.84,11.36,11.36,0,0,1,3.41,2.14v-9.41a2.88,2.88,0,0,1,.82-2.09,2.76,2.76,0,0,1,2.06-.84A2.8,2.8,0,0,1,136.18,263.74Zm-6.67,27.62a8.47,8.47,0,0,0,2-5.74,8.56,8.56,0,0,0-2-5.76,6.72,6.72,0,0,0-10.13,0,9.43,9.43,0,0,0,0,11.5,6.34,6.34,0,0,0,5.06,2.28A6.41,6.41,0,0,0,129.5,291.36Z" style="fill: #6cad73"/>
          <path d="M169.92,273.6a2.88,2.88,0,0,1,.82,2.09v12.19q0,5.18-2.86,8.11t-8.14,2.93q-5.28,0-8.11-2.93t-2.83-8.11V275.69a2.88,2.88,0,0,1,.82-2.09,3,3,0,0,1,4.13,0,2.88,2.88,0,0,1,.82,2.09v12.19a6.26,6.26,0,0,0,1.3,4.34,5,5,0,0,0,3.89,1.42,5.08,5.08,0,0,0,3.94-1.42,6.26,6.26,0,0,0,1.3-4.34V275.69a2.88,2.88,0,0,1,.82-2.09,3,3,0,0,1,4.13,0Z" style="fill: #6cad73"/>
          <path d="M199.54,273.56q2.5,1.27,2.5,3.38a2.9,2.9,0,0,1-.62,1.85,2,2,0,0,1-1.63.79,3.05,3.05,0,0,1-1.25-.22,4.47,4.47,0,0,1-.94-.58,6.64,6.64,0,0,0-.89-.6,6.06,6.06,0,0,0-1.42-.43,8,8,0,0,0-1.51-.19,7.26,7.26,0,0,0-5.64,2.23,9.18,9.18,0,0,0,0,11.57,6.8,6.8,0,0,0,5.28,2.28,8.17,8.17,0,0,0,3.5-.58,6.39,6.39,0,0,0,.79-.5,5.42,5.42,0,0,1,.94-.55,2.6,2.6,0,0,1,1.06-.19,2.44,2.44,0,0,1,1.9.77,2.82,2.82,0,0,1,.7,2,2.78,2.78,0,0,1-1.34,2.16,10.47,10.47,0,0,1-3.55,1.61,17.89,17.89,0,0,1-4.7.6,12.15,12.15,0,0,1-6.5-1.73,11.63,11.63,0,0,1-4.34-4.78,14.87,14.87,0,0,1-1.54-6.79,14.49,14.49,0,0,1,1.61-6.91,11.83,11.83,0,0,1,4.49-4.73,12.58,12.58,0,0,1,6.53-1.7A14.54,14.54,0,0,1,199.54,273.56Z" style="fill: #6cad73"/>
          <path d="M233.42,286.88a3.05,3.05,0,0,1-2,.72H215.57a7.24,7.24,0,0,0,2.64,4.44,7.38,7.38,0,0,0,4.66,1.61,10.31,10.31,0,0,0,3.07-.36,8,8,0,0,0,1.75-.77l.89-.55a3.67,3.67,0,0,1,1.63-.43,2.36,2.36,0,0,1,1.73.72,2.3,2.3,0,0,1,.72,1.68,3,3,0,0,1-1.34,2.35,11.45,11.45,0,0,1-3.6,1.87,14.87,14.87,0,0,1-11.59-.91,11.72,11.72,0,0,1-4.63-4.63,13.51,13.51,0,0,1-1.63-6.65,14.71,14.71,0,0,1,1.73-7.25,12.26,12.26,0,0,1,4.56-4.78,11.78,11.78,0,0,1,6-1.66,11.21,11.21,0,0,1,6,1.73,12.93,12.93,0,0,1,4.49,4.66,12.53,12.53,0,0,1,1.68,6.34A2.46,2.46,0,0,1,233.42,286.88Zm-17.81-4.08h12.58v-.34a5,5,0,0,0-2-3.46,6.23,6.23,0,0,0-4-1.44Q216.62,277.56,215.62,282.8Z" style="fill: #6cad73"/>
        </g>
      </g>
    </g>
  </g>
</svg>
