<svg xmlns="http://www.w3.org/2000/svg" viewBox="0 0 252.67 513.03">
  <title>produce_hover_button</title>
  <g id="Layer_2" data-name="Layer 2">
    <g id="Layer_2-2" data-name="Layer 2">
      <g>
        <rect width="252.67" height="513.03" rx="3" ry="3" style="fill: #ecddaa"/>
        <g>
          <path d="M117.41,117.4c0-34.39,9.3-63.83,22.48-76v76h0v41.48a11.28,11.28,0,0,1-11.24,11.24H117.4V117.4Z" style="fill: #9ac512;fill-rule: evenodd"/>
          <path d="M172.69,236.89q0-4.49-.21-8.86h0V151.6h0c0-49.86-13.48-92.55-32.59-110.21V151.6h0v60.14a16.36,16.36,0,0,0,10.32,15.15v10h0v41.48a11.27,11.27,0,0,0,11.24,11.24h11.25V236.89Z" style="fill: #5d9f14;fill-rule: evenodd"/>
          <g>
            <rect x="104.26" y="125.94" width="49.77" height="256.5" style="fill: #f5a600"/>
            <path d="M91.82,373.6h0a8.87,8.87,0,0,1,8.85-8.85,8.88,8.88,0,0,1-8.85-8.85h0a8.88,8.88,0,0,1,8.85-8.85,8.87,8.87,0,0,1-8.85-8.85h0a8.87,8.87,0,0,1,8.85-8.85,8.87,8.87,0,0,1-8.85-8.85h0a8.87,8.87,0,0,1,8.85-8.85,8.88,8.88,0,0,1-8.85-8.85h0a8.87,8.87,0,0,1,8.85-8.85,8.87,8.87,0,0,1-8.85-8.85h0a8.87,8.87,0,0,1,8.85-8.85,8.88,8.88,0,0,1-8.85-8.85h0a8.87,8.87,0,0,1,8.85-8.85,8.88,8.88,0,0,1-8.85-8.85h0a8.87,8.87,0,0,1,8.85-8.85A8.87,8.87,0,0,1,91.82,232h0a8.88,8.88,0,0,1,8.85-8.85,8.87,8.87,0,0,1-8.85-8.85h0a8.88,8.88,0,0,1,8.85-8.85,8.87,8.87,0,0,1-8.85-8.85h0a8.87,8.87,0,0,1,8.85-8.85,8.87,8.87,0,0,1-8.85-8.85h0a8.87,8.87,0,0,1,8.85-8.85,8.87,8.87,0,0,1-8.85-8.85h0a8.88,8.88,0,0,1,8.85-8.85,8.87,8.87,0,0,1-8.85-8.85h0a8.87,8.87,0,0,1,8.85-8.85h7.19a8.87,8.87,0,0,1,8.85,8.85h0a8.87,8.87,0,0,1-8.85,8.85,8.87,8.87,0,0,1,8.85,8.85h0a8.87,8.87,0,0,1-8.85,8.85,8.87,8.87,0,0,1,8.85,8.85h0a8.87,8.87,0,0,1-8.85,8.85,8.87,8.87,0,0,1,8.85,8.85h0a8.87,8.87,0,0,1-8.85,8.85,8.87,8.87,0,0,1,8.85,8.85h0a8.87,8.87,0,0,1-8.85,8.85,8.87,8.87,0,0,1,8.85,8.85h0a8.87,8.87,0,0,1-8.85,8.85,8.87,8.87,0,0,1,8.85,8.85h0a8.87,8.87,0,0,1-8.85,8.85,8.87,8.87,0,0,1,8.85,8.85h0a8.87,8.87,0,0,1-8.85,8.85,8.87,8.87,0,0,1,8.85,8.85h0a8.87,8.87,0,0,1-8.85,8.85,8.87,8.87,0,0,1,8.85,8.85h0a8.87,8.87,0,0,1-8.85,8.85,8.87,8.87,0,0,1,8.85,8.85h0a8.87,8.87,0,0,1-8.85,8.85,8.87,8.87,0,0,1,8.85,8.85h0a8.87,8.87,0,0,1-8.85,8.85,8.87,8.87,0,0,1,8.85,8.85h0a8.87,8.87,0,0,1-8.85,8.85,8.87,8.87,0,0,1,8.85,8.85h0a8.87,8.87,0,0,1-8.85,8.85h-7.19A8.87,8.87,0,0,1,91.82,373.6Z" style="fill: #ebd400;fill-rule: evenodd"/>
            <path d="M91.82,373.6h0a8.78,8.78,0,1,1,17.56,0h0a8.78,8.78,0,1,1-17.56,0Zm8.78-8.85a8.88,8.88,0,0,1-8.78-8.85h0a8.78,8.78,0,1,1,17.56,0h0a8.87,8.87,0,0,1-8.78,8.85Zm0-17.7a8.88,8.88,0,0,1-8.78-8.85h0a8.78,8.78,0,1,1,17.56,0h0A8.88,8.88,0,0,1,100.6,347Zm0-17.7a8.88,8.88,0,0,1-8.78-8.85h0a8.78,8.78,0,1,1,17.56,0h0a8.87,8.87,0,0,1-8.78,8.85Zm0-17.7a8.88,8.88,0,0,1-8.78-8.85h0a8.78,8.78,0,1,1,17.56,0h0a8.87,8.87,0,0,1-8.78,8.85Zm0-17.7a8.88,8.88,0,0,1-8.78-8.85h0a8.78,8.78,0,1,1,17.56,0h0A8.88,8.88,0,0,1,100.6,294Zm0-17.7a8.88,8.88,0,0,1-8.78-8.85h0a8.78,8.78,0,1,1,17.56,0h0a8.87,8.87,0,0,1-8.78,8.85Zm0-17.7a8.88,8.88,0,0,1-8.78-8.85h0a8.78,8.78,0,1,1,17.56,0h0a8.87,8.87,0,0,1-8.78,8.85Zm0-17.7A8.88,8.88,0,0,1,91.82,232h0a8.78,8.78,0,1,1,17.56,0h0a8.87,8.87,0,0,1-8.78,8.85Zm0-17.7a8.88,8.88,0,0,1-8.78-8.85h0a8.78,8.78,0,1,1,17.56,0h0a8.88,8.88,0,0,1-8.78,8.85Zm0-17.7a8.87,8.87,0,0,0,8.78-8.85h0a8.78,8.78,0,1,0-17.56,0h0a8.88,8.88,0,0,0,8.78,8.85Zm0-17.7a8.88,8.88,0,0,1-8.78-8.85h0a8.78,8.78,0,1,1,17.56,0h0a8.87,8.87,0,0,1-8.78,8.85Zm0-17.7a8.88,8.88,0,0,1-8.78-8.85h0a8.78,8.78,0,1,1,17.56,0h0a8.87,8.87,0,0,1-8.78,8.85Zm0-17.7a8.87,8.87,0,0,0,8.78-8.85h0a8.78,8.78,0,1,0-17.56,0h0A8.88,8.88,0,0,0,100.6,152.37Z" style="fill: #fce300;fill-rule: evenodd"/>
            <path d="M141.59,373.6h0a8.87,8.87,0,0,0-8.85-8.85,8.88,8.88,0,0,0,8.85-8.85h0a8.88,8.88,0,0,0-8.85-8.85,8.87,8.87,0,0,0,8.85-8.85h0a8.87,8.87,0,0,0-8.85-8.85,8.87,8.87,0,0,0,8.85-8.85h0a8.87,8.87,0,0,0-8.85-8.85,8.88,8.88,0,0,0,8.85-8.85h0a8.88,8.88,0,0,0-8.85-8.85,8.87,8.87,0,0,0,8.85-8.85h0a8.87,8.87,0,0,0-8.85-8.85,8.88,8.88,0,0,0,8.85-8.85h0a8.87,8.87,0,0,0-8.85-8.85,8.88,8.88,0,0,0,8.85-8.85h0a8.87,8.87,0,0,0-8.85-8.85,8.87,8.87,0,0,0,8.85-8.85h0a8.88,8.88,0,0,0-8.85-8.85,8.87,8.87,0,0,0,8.85-8.85h0a8.88,8.88,0,0,0-8.85-8.85,8.87,8.87,0,0,0,8.85-8.85h0a8.87,8.87,0,0,0-8.85-8.85,8.88,8.88,0,0,0,8.85-8.85h0a8.87,8.87,0,0,0-8.85-8.85,8.87,8.87,0,0,0,8.85-8.85h0a8.88,8.88,0,0,0-8.85-8.85,8.87,8.87,0,0,0,8.85-8.85h0a8.88,8.88,0,0,0-7.83-8.79,8.88,8.88,0,0,0,7.83-8.79h0a8.87,8.87,0,0,0-8.85-8.85h-7.19a8.88,8.88,0,0,0-8.85,8.85h0a8.88,8.88,0,0,0,7.83,8.79,8.88,8.88,0,0,0-7.83,8.79h0a8.87,8.87,0,0,0,8.85,8.85,8.88,8.88,0,0,0-8.85,8.85h0a8.88,8.88,0,0,0,8.85,8.85,8.88,8.88,0,0,0-8.85,8.85h0a8.88,8.88,0,0,0,8.85,8.85,8.88,8.88,0,0,0-8.85,8.85h0a8.87,8.87,0,0,0,8.85,8.85,8.88,8.88,0,0,0-8.85,8.85h0a8.87,8.87,0,0,0,8.85,8.85,8.88,8.88,0,0,0-8.85,8.85h0a8.88,8.88,0,0,0,8.85,8.85,8.87,8.87,0,0,0-8.85,8.85h0a8.88,8.88,0,0,0,8.85,8.85,8.87,8.87,0,0,0-8.85,8.85h0a8.88,8.88,0,0,0,8.85,8.85,8.87,8.87,0,0,0-8.85,8.85h0a8.87,8.87,0,0,0,8.85,8.85,8.88,8.88,0,0,0-8.85,8.85h0a8.88,8.88,0,0,0,8.85,8.85,8.87,8.87,0,0,0-8.85,8.85h0a8.87,8.87,0,0,0,8.85,8.85,8.88,8.88,0,0,0-8.85,8.85h0a8.88,8.88,0,0,0,8.85,8.85,8.88,8.88,0,0,0-8.85,8.85h0a8.88,8.88,0,0,0,8.85,8.85,8.87,8.87,0,0,0-8.85,8.85h0a8.88,8.88,0,0,0,8.85,8.85h7.19A8.87,8.87,0,0,0,141.59,373.6Z" style="fill: #ebd400;fill-rule: evenodd"/>
            <path d="M125.69,117.09h-.14a8.88,8.88,0,0,0-8.85,8.85h0a8.88,8.88,0,0,0,7.83,8.79,8.88,8.88,0,0,0-7.83,8.79h0a8.87,8.87,0,0,0,8.85,8.85,8.88,8.88,0,0,0-8.85,8.85h0a8.88,8.88,0,0,0,8.85,8.85,8.88,8.88,0,0,0-8.85,8.85h0a8.88,8.88,0,0,0,8.85,8.85,8.88,8.88,0,0,0-8.85,8.85h0a8.87,8.87,0,0,0,8.85,8.85,8.88,8.88,0,0,0-8.85,8.85h0a8.87,8.87,0,0,0,8.85,8.85,8.88,8.88,0,0,0-8.85,8.85h0a8.88,8.88,0,0,0,8.85,8.85,8.87,8.87,0,0,0-8.85,8.85h0a8.88,8.88,0,0,0,8.85,8.85,8.87,8.87,0,0,0-8.85,8.85h0a8.88,8.88,0,0,0,8.85,8.85,8.87,8.87,0,0,0-8.85,8.85h0a8.87,8.87,0,0,0,8.85,8.85,8.88,8.88,0,0,0-8.85,8.85h0a8.88,8.88,0,0,0,8.85,8.85,8.87,8.87,0,0,0-8.85,8.85h0a8.87,8.87,0,0,0,8.85,8.85,8.88,8.88,0,0,0-8.85,8.85h0a8.88,8.88,0,0,0,8.85,8.85,8.88,8.88,0,0,0-8.85,8.85h0a8.88,8.88,0,0,0,8.85,8.85,8.87,8.87,0,0,0-8.85,8.85h0a8.88,8.88,0,0,0,8.85,8.85h.14a8.87,8.87,0,0,0,8.85-8.85h0a8.87,8.87,0,0,0-8.85-8.85,8.87,8.87,0,0,0,8.85-8.85h0a8.87,8.87,0,0,0-8.85-8.85,8.87,8.87,0,0,0,8.85-8.85h0a8.87,8.87,0,0,0-8.85-8.85,8.87,8.87,0,0,0,8.85-8.85h0a8.87,8.87,0,0,0-8.85-8.85,8.88,8.88,0,0,0,8.85-8.85h0a8.87,8.87,0,0,0-8.85-8.85,8.87,8.87,0,0,0,8.85-8.85h0a8.87,8.87,0,0,0-8.85-8.85,8.88,8.88,0,0,0,8.85-8.85h0a8.87,8.87,0,0,0-8.85-8.85,8.88,8.88,0,0,0,8.85-8.85h0a8.87,8.87,0,0,0-8.85-8.85,8.87,8.87,0,0,0,8.85-8.85h0a8.88,8.88,0,0,0-8.85-8.85,8.87,8.87,0,0,0,8.85-8.85h0a8.88,8.88,0,0,0-8.85-8.85,8.87,8.87,0,0,0,8.85-8.85h0a8.87,8.87,0,0,0-8.85-8.85,8.87,8.87,0,0,0,8.85-8.85h0a8.87,8.87,0,0,0-8.85-8.85,8.87,8.87,0,0,0,8.85-8.85h0a8.87,8.87,0,0,0-8.85-8.85,8.87,8.87,0,0,0,8.85-8.85h0a8.88,8.88,0,0,0-7.83-8.79,8.88,8.88,0,0,0,7.83-8.79h0A8.87,8.87,0,0,0,125.69,117.09Z" style="fill: #ffec00;fill-rule: evenodd"/>
            <path d="M141.59,373.6h0a8.87,8.87,0,0,1,8.85-8.85,8.87,8.87,0,0,1-8.85-8.85h0a8.87,8.87,0,0,1,8.85-8.85,8.87,8.87,0,0,1-8.85-8.85h0a8.87,8.87,0,0,1,8.85-8.85,8.87,8.87,0,0,1-8.85-8.85h0a8.87,8.87,0,0,1,8.85-8.85,8.88,8.88,0,0,1-8.85-8.85h0a8.87,8.87,0,0,1,8.85-8.85,8.87,8.87,0,0,1-8.85-8.85h0a8.87,8.87,0,0,1,8.85-8.85,8.87,8.87,0,0,1-8.85-8.85h0a8.87,8.87,0,0,1,8.85-8.85,8.88,8.88,0,0,1-8.85-8.85h0a8.87,8.87,0,0,1,8.85-8.85,8.87,8.87,0,0,1-8.85-8.85h0a8.88,8.88,0,0,1,8.85-8.85,8.87,8.87,0,0,1-8.85-8.85h0a8.87,8.87,0,0,1,8.85-8.85,8.87,8.87,0,0,1-8.85-8.85h0a8.87,8.87,0,0,1,8.85-8.85,8.87,8.87,0,0,1-8.85-8.85h0a8.87,8.87,0,0,1,8.85-8.85,8.87,8.87,0,0,1-8.85-8.85h0a8.87,8.87,0,0,1,8.85-8.85,8.87,8.87,0,0,1-8.85-8.85h0a8.87,8.87,0,0,1,8.85-8.85h-2.81a6.48,6.48,0,0,1-6.46-6.46h0a6.48,6.48,0,0,1,6.46-6.47h5.25a6.48,6.48,0,0,1,6.46,6.47h0a6.48,6.48,0,0,1-6.46,6.46h4.74a8.87,8.87,0,0,1,8.85,8.85h0a8.87,8.87,0,0,1-8.85,8.85,8.88,8.88,0,0,1,8.85,8.85h0a8.87,8.87,0,0,1-8.85,8.85,8.87,8.87,0,0,1,8.85,8.85h0a8.88,8.88,0,0,1-8.85,8.85,8.87,8.87,0,0,1,8.85,8.85h0a8.87,8.87,0,0,1-8.85,8.85,8.88,8.88,0,0,1,8.85,8.85h0a8.87,8.87,0,0,1-8.85,8.85,8.88,8.88,0,0,1,8.85,8.85h0a8.87,8.87,0,0,1-8.85,8.85,8.87,8.87,0,0,1,8.85,8.85h0a8.88,8.88,0,0,1-8.85,8.85,8.87,8.87,0,0,1,8.85,8.85h0a8.88,8.88,0,0,1-8.85,8.85,8.87,8.87,0,0,1,8.85,8.85h0a8.87,8.87,0,0,1-8.85,8.85,8.87,8.87,0,0,1,8.85,8.85h0a8.88,8.88,0,0,1-8.85,8.85,8.87,8.87,0,0,1,8.85,8.85h0a8.87,8.87,0,0,1-8.85,8.85,8.87,8.87,0,0,1,8.85,8.85h0a8.87,8.87,0,0,1-8.85,8.85,8.88,8.88,0,0,1,8.85,8.85h0a8.88,8.88,0,0,1-8.85,8.85,8.87,8.87,0,0,1,8.85,8.85h0a8.87,8.87,0,0,1-8.85,8.85h-7.19A8.87,8.87,0,0,1,141.59,373.6Z" style="fill: #ebbe00;fill-rule: evenodd"/>
            <path d="M141.59,373.6h0a8.87,8.87,0,0,1,8.85-8.85,8.87,8.87,0,0,1-8.85-8.85h0a8.87,8.87,0,0,1,8.85-8.85,8.87,8.87,0,0,1-8.85-8.85h0a8.87,8.87,0,0,1,8.85-8.85,8.87,8.87,0,0,1-8.85-8.85h0a8.87,8.87,0,0,1,8.85-8.85,8.88,8.88,0,0,1-8.85-8.85h0a8.87,8.87,0,0,1,8.85-8.85,8.87,8.87,0,0,1-8.85-8.85h0a8.87,8.87,0,0,1,8.85-8.85,8.87,8.87,0,0,1-8.85-8.85h0a8.87,8.87,0,0,1,8.85-8.85,8.88,8.88,0,0,1-8.85-8.85h0a8.87,8.87,0,0,1,8.85-8.85,8.87,8.87,0,0,1-8.85-8.85h0a8.88,8.88,0,0,1,8.85-8.85,8.87,8.87,0,0,1-8.85-8.85h0a8.87,8.87,0,0,1,8.85-8.85,8.87,8.87,0,0,1-8.85-8.85h0a8.87,8.87,0,0,1,8.85-8.85,8.87,8.87,0,0,1-8.85-8.85h0a8.87,8.87,0,0,1,8.85-8.85,8.87,8.87,0,0,1-8.85-8.85h0a8.87,8.87,0,0,1,8.85-8.85,8.87,8.87,0,0,1-8.85-8.85h0a8.87,8.87,0,0,1,8.85-8.85h.83a8.87,8.87,0,0,1,8.85,8.85h0a8.87,8.87,0,0,1-8.85,8.85,8.87,8.87,0,0,1,8.85,8.85h0a8.87,8.87,0,0,1-8.85,8.85,8.87,8.87,0,0,1,8.85,8.85h0a8.87,8.87,0,0,1-8.85,8.85,8.87,8.87,0,0,1,8.85,8.85h0a8.87,8.87,0,0,1-8.85,8.85,8.87,8.87,0,0,1,8.85,8.85h0a8.87,8.87,0,0,1-8.85,8.85,8.87,8.87,0,0,1,8.85,8.85h0a8.87,8.87,0,0,1-8.85,8.85,8.87,8.87,0,0,1,8.85,8.85h0a8.87,8.87,0,0,1-8.85,8.85,8.87,8.87,0,0,1,8.85,8.85h0a8.87,8.87,0,0,1-8.85,8.85,8.87,8.87,0,0,1,8.85,8.85h0a8.87,8.87,0,0,1-8.85,8.85,8.87,8.87,0,0,1,8.85,8.85h0a8.87,8.87,0,0,1-8.85,8.85,8.87,8.87,0,0,1,8.85,8.85h0a8.87,8.87,0,0,1-8.85,8.85,8.87,8.87,0,0,1,8.85,8.85h0a8.87,8.87,0,0,1-8.85,8.85,8.87,8.87,0,0,1,8.85,8.85h0a8.87,8.87,0,0,1-8.85,8.85,8.87,8.87,0,0,1,8.85,8.85h0a8.87,8.87,0,0,1-8.85,8.85h-.83a8.87,8.87,0,0,1-8.85-8.85Zm5.49-238.95a6.49,6.49,0,0,1-5.91-6.44h0a5.93,5.93,0,1,1,11.82,0h0A6.49,6.49,0,0,1,147.08,134.65Z" style="fill: #ebd400;fill-rule: evenodd"/>
            <rect x="98.52" y="121.74" width="18.18" height="12.93" rx="6.46" ry="6.46" style="fill: #fce300"/>
          </g>
          <path d="M136.58,341.26c0-74.35-20.1-138-48.6-164.34V429.27a24.38,24.38,0,0,0,24.3,24.3h24.31Z" style="fill: #5d9f14;fill-rule: evenodd"/>
          <path d="M88,261.52V429.27a24.38,24.38,0,0,0,24.3,24.3h3.55V386.38h0C115.83,335.1,104.86,289.66,88,261.52Z" style="fill: #9ac512;fill-rule: evenodd"/>
          <path d="M136.58,377.13c0-49.86,13.48-92.55,32.59-110.21V377.13h0v60.14a16.35,16.35,0,0,1-16.29,16.3h-16.3V377.13Z" style="fill: #73ae0e;fill-rule: evenodd"/>
          <rect x="144.97" y="361.24" width="4.48" height="78.2" rx="2.24" ry="2.24" style="fill: #9ac512"/>
          <path d="M156.09,318.8V437.21a2.24,2.24,0,0,0,2.24,2.24h0a2.24,2.24,0,0,0,2.24-2.24V318.8a2.25,2.25,0,0,0-2.24-2.24h0A2.24,2.24,0,0,0,156.09,318.8Z" style="fill: #9ac512;fill-rule: evenodd"/>
          <rect x="106.57" y="365.65" width="4.48" height="78.2" rx="2.24" ry="2.24" style="fill: #7fbc0a"/>
          <path d="M95.45,311.65V433.95a2.24,2.24,0,0,0,2.24,2.24h0a2.24,2.24,0,0,0,2.24-2.24V311.65a2.24,2.24,0,0,0-2.24-2.24h0A2.25,2.25,0,0,0,95.45,311.65Z" style="fill: #7fbc0a;fill-rule: evenodd"/>
          <path d="M60.13,369V201.22a24.38,24.38,0,0,1,24.3-24.3H88V244.1h0C88,295.39,77,340.83,60.13,369Z" style="fill: #9ac512;fill-rule: evenodd"/>
          <path d="M75.3,178.71a24.15,24.15,0,0,1,4.47-1.34v76.48a2.24,2.24,0,0,1-2.24,2.24h0a2.24,2.24,0,0,1-2.24-2.24Z" style="fill: #aecc29;fill-rule: evenodd"/>
          <path d="M65.28,186.31a24.79,24.79,0,0,1,4.47-4.42V295.75A2.24,2.24,0,0,1,67.52,298h0a2.24,2.24,0,0,1-2.24-2.24Z" style="fill: #aecc29;fill-rule: evenodd"/>
          <path d="M192.54,428V287.31a20.45,20.45,0,0,0-20.38-20.38h-3v56.36h0C169.18,366.3,178.38,404.42,192.54,428Z" style="fill: #73ae0e;fill-rule: evenodd"/>
          <polygon points="115.83 453.57 143.59 453.57 143.59 471.65 141.28 466.56 138.97 461.46 136.65 466.56 134.34 471.65 132.03 466.56 129.71 461.46 127.4 466.56 125.09 471.65 122.77 466.56 120.46 461.46 118.14 466.56 115.83 471.65 115.83 453.57" style="fill: #5d9f14;fill-rule: evenodd"/>
          <polygon points="136.58 453.57 143.59 453.57 143.59 471.65 141.28 466.56 138.97 461.46 136.65 466.56 136.58 466.7 136.58 453.57" style="fill: #73ae0e;fill-rule: evenodd"/>
        </g>
        <rect width="252.67" height="513.03" rx="3" ry="3" style="fill: #ecddaa;opacity: 0.75"/>
        <text transform="translate(67.63 240.84)" style="font-size: 48px;fill: #6cad73;font-family: Quicksand-Bold, Quicksand;font-weight: 700;letter-spacing: 0.09999593098958333em">view<tspan x="-50.98" y="57.6">p</tspan><tspan x="-16.27" y="57.6" style="letter-spacing: 0.0780029296875em">r</tspan><tspan x="8.3" y="57.6" style="letter-spacing: 0.10001627604166667em">o</tspan><tspan x="42.58" y="57.6" style="letter-spacing: 0.11598714192708333em">d</tspan><tspan x="78.05" y="57.6">uce</tspan></text>
      </g>
    </g>
  </g>
</svg>
