<svg xmlns="http://www.w3.org/2000/svg" viewBox="0 0 322.52 1069.14">
  <title>11th_map</title>
  <g id="Layer_2" data-name="Layer 2">
    <g id="_11th" data-name="11th">
      <g id="Layer_14" data-name="Layer 14">
        <g>
          <circle cx="66.11" cy="167.46" r="9.44" style="fill: #e6e6e6"/>
          <circle cx="66.11" cy="148.57" r="9.44" style="fill: #e6e6e6"/>
          <circle cx="47.22" cy="167.46" r="9.44" style="fill: #e6e6e6"/>
          <circle cx="47.22" cy="148.57" r="9.44" style="fill: #e6e6e6"/>
          <circle cx="28.33" cy="167.46" r="9.44" style="fill: #e6e6e6"/>
          <circle cx="28.33" cy="148.57" r="9.44" style="fill: #e6e6e6"/>
          <circle cx="9.44" cy="167.46" r="9.44" style="fill: #e6e6e6"/>
          <circle cx="9.44" cy="148.57" r="9.44" style="fill: #e6e6e6"/>
          <circle cx="66.11" cy="205.47" r="9.44" style="fill: #e6e6e6"/>
          <circle cx="66.11" cy="186.59" r="9.44" style="fill: #e6e6e6"/>
          <circle cx="47.22" cy="205.47" r="9.44" style="fill: #e6e6e6"/>
          <circle cx="47.22" cy="186.59" r="9.44" style="fill: #e6e6e6"/>
          <circle cx="28.33" cy="205.47" r="9.44" style="fill: #e6e6e6"/>
          <circle cx="28.33" cy="186.59" r="9.44" style="fill: #e6e6e6"/>
          <circle cx="9.44" cy="205.47" r="9.44" style="fill: #e6e6e6"/>
          <circle cx="9.44" cy="186.59" r="9.44" style="fill: #e6e6e6"/>
        </g>
        <g>
          <circle cx="162" cy="167.58" r="9.44" style="fill: #e6e6e6"/>
          <circle cx="162" cy="148.69" r="9.44" style="fill: #e6e6e6"/>
          <circle cx="143.11" cy="167.58" r="9.44" style="fill: #e6e6e6"/>
          <circle cx="143.11" cy="148.69" r="9.44" style="fill: #e6e6e6"/>
          <circle cx="124.22" cy="167.58" r="9.44" style="fill: #e6e6e6"/>
          <circle cx="124.22" cy="148.69" r="9.44" style="fill: #e6e6e6"/>
          <circle cx="105.33" cy="167.58" r="9.44" style="fill: #e6e6e6"/>
          <circle cx="105.33" cy="148.69" r="9.44" style="fill: #e6e6e6"/>
          <circle cx="162" cy="205.6" r="9.44" style="fill: #e6e6e6"/>
          <circle cx="162" cy="186.71" r="9.44" style="fill: #e6e6e6"/>
          <circle cx="143.11" cy="205.6" r="9.44" style="fill: #e6e6e6"/>
          <circle cx="143.11" cy="186.71" r="9.44" style="fill: #e6e6e6"/>
          <circle cx="124.22" cy="205.6" r="9.44" style="fill: #e6e6e6"/>
          <circle cx="124.22" cy="186.71" r="9.44" style="fill: #e6e6e6"/>
          <circle cx="105.33" cy="205.6" r="9.44" style="fill: #e6e6e6"/>
          <circle cx="105.33" cy="186.71" r="9.44" style="fill: #e6e6e6"/>
        </g>
        <circle cx="162" cy="262.26" r="9.44" style="fill: #e6e6e6"/>
        <circle cx="162" cy="243.37" r="9.44" style="fill: #e6e6e6"/>
        <circle cx="143.11" cy="262.26" r="9.44" style="fill: #e6e6e6"/>
        <circle cx="143.11" cy="243.37" r="9.44" style="fill: #e6e6e6"/>
        <circle cx="124.22" cy="262.26" r="9.44" style="fill: #e6e6e6"/>
        <circle cx="124.22" cy="243.37" r="9.44" style="fill: #e6e6e6"/>
        <circle cx="105.33" cy="262.26" r="9.44" style="fill: #e6e6e6"/>
        <circle cx="105.33" cy="243.37" r="9.44" style="fill: #e6e6e6"/>
        <circle cx="162" cy="300.28" r="9.44" style="fill: #e6e6e6"/>
        <circle cx="162" cy="281.39" r="9.44" style="fill: #e6e6e6"/>
        <circle cx="143.11" cy="300.28" r="9.44" style="fill: #e6e6e6"/>
        <circle cx="143.11" cy="281.39" r="9.44" style="fill: #e6e6e6"/>
        <circle cx="124.22" cy="300.28" r="9.44" style="fill: #e6e6e6"/>
        <circle cx="124.22" cy="281.39" r="9.44" style="fill: #e6e6e6"/>
        <circle cx="105.33" cy="300.28" r="9.44" style="fill: #e6e6e6"/>
        <circle cx="105.33" cy="281.39" r="9.44" style="fill: #e6e6e6"/>
        <g>
          <circle cx="252.57" cy="262.26" r="9.44" style="fill: #e6e6e6"/>
          <circle cx="252.57" cy="243.37" r="9.44" style="fill: #e6e6e6"/>
          <circle cx="233.68" cy="262.26" r="9.44" style="fill: #e6e6e6"/>
          <circle cx="233.68" cy="243.37" r="9.44" style="fill: #e6e6e6"/>
          <circle cx="252.57" cy="300.28" r="9.44" style="fill: #e6e6e6"/>
          <circle cx="252.57" cy="281.39" r="9.44" style="fill: #e6e6e6"/>
          <circle cx="233.68" cy="300.28" r="9.44" style="fill: #e6e6e6"/>
          <circle cx="233.68" cy="281.39" r="9.44" style="fill: #e6e6e6"/>
        </g>
        <g>
          <circle cx="252.57" cy="357.31" r="9.44" style="fill: #e6e6e6"/>
          <circle cx="252.57" cy="338.42" r="9.44" style="fill: #e6e6e6"/>
          <circle cx="233.68" cy="357.31" r="9.44" style="fill: #e6e6e6"/>
          <circle cx="233.68" cy="338.42" r="9.44" style="fill: #e6e6e6"/>
          <circle cx="252.57" cy="395.33" r="9.44" style="fill: #e6e6e6"/>
          <circle cx="252.57" cy="376.44" r="9.44" style="fill: #e6e6e6"/>
          <circle cx="233.68" cy="395.33" r="9.44" style="fill: #e6e6e6"/>
          <circle cx="233.68" cy="376.44" r="9.44" style="fill: #e6e6e6"/>
        </g>
        <g>
          <circle cx="252.57" cy="452.23" r="9.44" style="fill: #e6e6e6"/>
          <circle cx="252.57" cy="433.35" r="9.44" style="fill: #e6e6e6"/>
          <circle cx="233.68" cy="452.23" r="9.44" style="fill: #e6e6e6"/>
          <circle cx="233.68" cy="433.35" r="9.44" style="fill: #e6e6e6"/>
          <circle cx="252.57" cy="490.25" r="9.44" style="fill: #e6e6e6"/>
          <circle cx="252.57" cy="471.37" r="9.44" style="fill: #e6e6e6"/>
          <circle cx="233.68" cy="490.25" r="9.44" style="fill: #e6e6e6"/>
          <circle cx="233.68" cy="471.37" r="9.44" style="fill: #e6e6e6"/>
        </g>
        <g>
          <circle cx="252.57" cy="547.04" r="9.44" style="fill: #e6e6e6"/>
          <circle cx="252.57" cy="528.15" r="9.44" style="fill: #e6e6e6"/>
          <circle cx="233.68" cy="547.04" r="9.44" style="fill: #e6e6e6"/>
          <circle cx="233.68" cy="528.15" r="9.44" style="fill: #e6e6e6"/>
          <circle cx="252.57" cy="585.06" r="9.44" style="fill: #e6e6e6"/>
          <circle cx="252.57" cy="566.17" r="9.44" style="fill: #e6e6e6"/>
          <circle cx="233.68" cy="585.06" r="9.44" style="fill: #e6e6e6"/>
          <circle cx="233.68" cy="566.17" r="9.44" style="fill: #e6e6e6"/>
        </g>
        <g>
          <circle cx="252.57" cy="642.03" r="9.44" style="fill: #e6e6e6"/>
          <circle cx="252.57" cy="623.14" r="9.44" style="fill: #e6e6e6"/>
          <circle cx="233.68" cy="642.03" r="9.44" style="fill: #e6e6e6"/>
          <circle cx="233.68" cy="623.14" r="9.44" style="fill: #e6e6e6"/>
          <circle cx="252.57" cy="680.05" r="9.44" style="fill: #e6e6e6"/>
          <circle cx="252.57" cy="661.16" r="9.44" style="fill: #e6e6e6"/>
          <circle cx="233.68" cy="680.05" r="9.44" style="fill: #e6e6e6"/>
          <circle cx="233.68" cy="661.16" r="9.44" style="fill: #e6e6e6"/>
        </g>
        <g>
          <circle cx="252.57" cy="737.01" r="9.44" style="fill: #e6e6e6"/>
          <circle cx="252.57" cy="718.13" r="9.44" style="fill: #e6e6e6"/>
          <circle cx="233.68" cy="737.01" r="9.44" style="fill: #e6e6e6"/>
          <circle cx="233.68" cy="718.13" r="9.44" style="fill: #e6e6e6"/>
          <circle cx="252.57" cy="775.03" r="9.44" style="fill: #e6e6e6"/>
          <circle cx="252.57" cy="756.15" r="9.44" style="fill: #e6e6e6"/>
          <circle cx="233.68" cy="775.03" r="9.44" style="fill: #e6e6e6"/>
          <circle cx="233.68" cy="756.15" r="9.44" style="fill: #e6e6e6"/>
        </g>
        <g>
          <circle cx="252.57" cy="831.94" r="9.44" style="fill: #e6e6e6"/>
          <circle cx="252.57" cy="813.05" r="9.44" style="fill: #e6e6e6"/>
          <circle cx="233.68" cy="831.94" r="9.44" style="fill: #e6e6e6"/>
          <circle cx="233.68" cy="813.05" r="9.44" style="fill: #e6e6e6"/>
          <circle cx="252.57" cy="869.96" r="9.44" style="fill: #e6e6e6"/>
          <circle cx="252.57" cy="851.07" r="9.44" style="fill: #e6e6e6"/>
          <circle cx="233.68" cy="869.96" r="9.44" style="fill: #e6e6e6"/>
          <circle cx="233.68" cy="851.07" r="9.44" style="fill: #e6e6e6"/>
        </g>
        <g>
          <circle cx="252.57" cy="927.11" r="9.44" style="fill: #e6e6e6"/>
          <circle cx="252.57" cy="908.22" r="9.44" style="fill: #e6e6e6"/>
          <circle cx="233.68" cy="927.11" r="9.44" style="fill: #e6e6e6"/>
          <circle cx="233.68" cy="908.22" r="9.44" style="fill: #e6e6e6"/>
          <circle cx="252.57" cy="965.13" r="9.44" style="fill: #e6e6e6"/>
          <circle cx="252.57" cy="946.24" r="9.44" style="fill: #e6e6e6"/>
          <circle cx="233.68" cy="965.13" r="9.44" style="fill: #e6e6e6"/>
          <circle cx="233.68" cy="946.24" r="9.44" style="fill: #e6e6e6"/>
        </g>
        <g>
          <circle cx="252.57" cy="1021.67" r="9.44" style="fill: #e6e6e6"/>
          <circle cx="252.57" cy="1002.78" r="9.44" style="fill: #e6e6e6"/>
          <circle cx="233.68" cy="1021.67" r="9.44" style="fill: #e6e6e6"/>
          <circle cx="233.68" cy="1002.78" r="9.44" style="fill: #e6e6e6"/>
          <circle cx="252.57" cy="1059.69" r="9.44" style="fill: #e6e6e6"/>
          <circle cx="252.57" cy="1040.8" r="9.44" style="fill: #e6e6e6"/>
          <circle cx="233.68" cy="1059.69" r="9.44" style="fill: #e6e6e6"/>
          <circle cx="233.68" cy="1040.8" r="9.44" style="fill: #e6e6e6"/>
        </g>
        <g>
          <circle cx="313.08" cy="262.26" r="9.44" style="fill: #e6e6e6"/>
          <circle cx="313.08" cy="243.37" r="9.44" style="fill: #e6e6e6"/>
          <circle cx="294.19" cy="262.26" r="9.44" style="fill: #e6e6e6"/>
          <circle cx="294.19" cy="243.37" r="9.44" style="fill: #e6e6e6"/>
          <circle cx="313.08" cy="300.28" r="9.44" style="fill: #e6e6e6"/>
          <circle cx="313.08" cy="281.39" r="9.44" style="fill: #e6e6e6"/>
          <circle cx="294.19" cy="300.28" r="9.44" style="fill: #e6e6e6"/>
          <circle cx="294.19" cy="281.39" r="9.44" style="fill: #e6e6e6"/>
        </g>
        <g>
          <circle cx="313.08" cy="357.31" r="9.44" style="fill: #e6e6e6"/>
          <circle cx="313.08" cy="338.42" r="9.44" style="fill: #e6e6e6"/>
          <circle cx="294.19" cy="357.31" r="9.44" style="fill: #e6e6e6"/>
          <circle cx="294.19" cy="338.42" r="9.44" style="fill: #e6e6e6"/>
          <circle cx="313.08" cy="395.33" r="9.44" style="fill: #e6e6e6"/>
          <circle cx="313.08" cy="376.44" r="9.44" style="fill: #e6e6e6"/>
          <circle cx="294.19" cy="395.33" r="9.44" style="fill: #e6e6e6"/>
          <circle cx="294.19" cy="376.44" r="9.44" style="fill: #e6e6e6"/>
        </g>
        <g>
          <circle cx="313.08" cy="452.23" r="9.44" style="fill: #e6e6e6"/>
          <circle cx="313.08" cy="433.35" r="9.44" style="fill: #e6e6e6"/>
          <circle cx="294.19" cy="452.23" r="9.44" style="fill: #e6e6e6"/>
          <circle cx="294.19" cy="433.35" r="9.44" style="fill: #e6e6e6"/>
          <circle cx="313.08" cy="490.25" r="9.44" style="fill: #e6e6e6"/>
          <circle cx="313.08" cy="471.37" r="9.44" style="fill: #e6e6e6"/>
          <circle cx="294.19" cy="490.25" r="9.44" style="fill: #e6e6e6"/>
          <circle cx="294.19" cy="471.37" r="9.44" style="fill: #e6e6e6"/>
        </g>
        <g>
          <circle cx="313.08" cy="547.04" r="9.44" style="fill: #e6e6e6"/>
          <circle cx="313.08" cy="528.15" r="9.44" style="fill: #e6e6e6"/>
          <circle cx="294.19" cy="547.04" r="9.44" style="fill: #e6e6e6"/>
          <circle cx="294.19" cy="528.15" r="9.44" style="fill: #e6e6e6"/>
          <circle cx="313.08" cy="585.06" r="9.44" style="fill: #e6e6e6"/>
          <circle cx="313.08" cy="566.17" r="9.44" style="fill: #e6e6e6"/>
          <circle cx="294.19" cy="585.06" r="9.44" style="fill: #e6e6e6"/>
          <circle cx="294.19" cy="566.17" r="9.44" style="fill: #e6e6e6"/>
        </g>
        <g>
          <circle cx="313.08" cy="642.03" r="9.44" style="fill: #e6e6e6"/>
          <circle cx="313.08" cy="623.14" r="9.44" style="fill: #e6e6e6"/>
          <circle cx="294.19" cy="642.03" r="9.44" style="fill: #e6e6e6"/>
          <circle cx="294.19" cy="623.14" r="9.44" style="fill: #e6e6e6"/>
          <circle cx="313.08" cy="680.05" r="9.44" style="fill: #e6e6e6"/>
          <circle cx="313.08" cy="661.16" r="9.44" style="fill: #e6e6e6"/>
          <circle cx="294.19" cy="680.05" r="9.44" style="fill: #e6e6e6"/>
          <circle cx="294.19" cy="661.16" r="9.44" style="fill: #e6e6e6"/>
        </g>
        <g>
          <circle cx="313.08" cy="737.01" r="9.44" style="fill: #e6e6e6"/>
          <circle cx="313.08" cy="718.13" r="9.44" style="fill: #e6e6e6"/>
          <circle cx="294.19" cy="737.01" r="9.44" style="fill: #e6e6e6"/>
          <circle cx="294.19" cy="718.13" r="9.44" style="fill: #e6e6e6"/>
          <circle cx="313.08" cy="775.03" r="9.44" style="fill: #e6e6e6"/>
          <circle cx="313.08" cy="756.15" r="9.44" style="fill: #e6e6e6"/>
          <circle cx="294.19" cy="775.03" r="9.44" style="fill: #e6e6e6"/>
          <circle cx="294.19" cy="756.15" r="9.44" style="fill: #e6e6e6"/>
        </g>
        <g>
          <circle cx="313.08" cy="831.94" r="9.44" style="fill: #e6e6e6"/>
          <circle cx="313.08" cy="813.05" r="9.44" style="fill: #e6e6e6"/>
          <circle cx="294.19" cy="831.94" r="9.44" style="fill: #e6e6e6"/>
          <circle cx="294.19" cy="813.05" r="9.44" style="fill: #e6e6e6"/>
          <circle cx="313.08" cy="869.96" r="9.44" style="fill: #e6e6e6"/>
          <circle cx="313.08" cy="851.07" r="9.44" style="fill: #e6e6e6"/>
          <circle cx="294.19" cy="869.96" r="9.44" style="fill: #e6e6e6"/>
          <circle cx="294.19" cy="851.07" r="9.44" style="fill: #e6e6e6"/>
        </g>
        <g>
          <circle cx="313.08" cy="927.11" r="9.44" style="fill: #e6e6e6"/>
          <circle cx="313.08" cy="908.22" r="9.44" style="fill: #e6e6e6"/>
          <circle cx="294.19" cy="927.11" r="9.44" style="fill: #e6e6e6"/>
          <circle cx="294.19" cy="908.22" r="9.44" style="fill: #e6e6e6"/>
          <circle cx="313.08" cy="965.13" r="9.44" style="fill: #e6e6e6"/>
          <circle cx="313.08" cy="946.24" r="9.44" style="fill: #e6e6e6"/>
          <circle cx="294.19" cy="965.13" r="9.44" style="fill: #e6e6e6"/>
          <circle cx="294.19" cy="946.24" r="9.44" style="fill: #e6e6e6"/>
        </g>
        <g>
          <circle cx="313.08" cy="1021.67" r="9.44" style="fill: #e6e6e6"/>
          <circle cx="313.08" cy="1002.78" r="9.44" style="fill: #e6e6e6"/>
          <circle cx="294.19" cy="1021.67" r="9.44" style="fill: #e6e6e6"/>
          <circle cx="294.19" cy="1002.78" r="9.44" style="fill: #e6e6e6"/>
          <circle cx="313.08" cy="1059.69" r="9.44" style="fill: #e6e6e6"/>
          <circle cx="313.08" cy="1040.8" r="9.44" style="fill: #e6e6e6"/>
          <circle cx="294.19" cy="1059.69" r="9.44" style="fill: #e6e6e6"/>
          <circle cx="294.19" cy="1040.8" r="9.44" style="fill: #e6e6e6"/>
        </g>
        <g>
          <circle cx="162" cy="357.19" r="9.44" style="fill: #e6e6e6"/>
          <circle cx="162" cy="338.3" r="9.44" style="fill: #e6e6e6"/>
          <circle cx="143.11" cy="357.19" r="9.44" style="fill: #e6e6e6"/>
          <circle cx="143.11" cy="338.3" r="9.44" style="fill: #e6e6e6"/>
          <circle cx="124.22" cy="357.19" r="9.44" style="fill: #e6e6e6"/>
          <circle cx="124.22" cy="338.3" r="9.44" style="fill: #e6e6e6"/>
          <circle cx="105.33" cy="357.19" r="9.44" style="fill: #e6e6e6"/>
          <circle cx="105.33" cy="338.3" r="9.44" style="fill: #e6e6e6"/>
          <circle cx="162" cy="395.21" r="9.44" style="fill: #e6e6e6"/>
          <circle cx="162" cy="376.32" r="9.44" style="fill: #e6e6e6"/>
          <circle cx="143.11" cy="395.21" r="9.44" style="fill: #e6e6e6"/>
          <circle cx="143.11" cy="376.32" r="9.44" style="fill: #e6e6e6"/>
          <circle cx="124.22" cy="395.21" r="9.44" style="fill: #e6e6e6"/>
          <circle cx="124.22" cy="376.32" r="9.44" style="fill: #e6e6e6"/>
          <circle cx="105.33" cy="395.21" r="9.44" style="fill: #e6e6e6"/>
          <circle cx="105.33" cy="376.32" r="9.44" style="fill: #e6e6e6"/>
        </g>
        <g>
          <circle cx="162" cy="452.36" r="9.44" style="fill: #e6e6e6"/>
          <circle cx="162" cy="433.47" r="9.44" style="fill: #e6e6e6"/>
          <circle cx="143.11" cy="452.36" r="9.44" style="fill: #e6e6e6"/>
          <circle cx="143.11" cy="433.47" r="9.44" style="fill: #e6e6e6"/>
          <circle cx="124.22" cy="452.36" r="9.44" style="fill: #e6e6e6"/>
          <circle cx="124.22" cy="433.47" r="9.44" style="fill: #e6e6e6"/>
          <circle cx="105.33" cy="452.36" r="9.44" style="fill: #e6e6e6"/>
          <circle cx="105.33" cy="433.47" r="9.44" style="fill: #e6e6e6"/>
          <circle cx="162" cy="490.38" r="9.44" style="fill: #e6e6e6"/>
          <circle cx="162" cy="471.49" r="9.44" style="fill: #e6e6e6"/>
          <circle cx="143.11" cy="490.38" r="9.44" style="fill: #e6e6e6"/>
          <circle cx="143.11" cy="471.49" r="9.44" style="fill: #e6e6e6"/>
          <circle cx="124.22" cy="490.38" r="9.44" style="fill: #e6e6e6"/>
          <circle cx="124.22" cy="471.49" r="9.44" style="fill: #e6e6e6"/>
          <circle cx="105.33" cy="490.38" r="9.44" style="fill: #e6e6e6"/>
          <circle cx="105.33" cy="471.49" r="9.44" style="fill: #e6e6e6"/>
        </g>
        <g>
          <circle cx="162" cy="547.28" r="9.44" style="fill: #e6e6e6"/>
          <circle cx="162" cy="528.39" r="9.44" style="fill: #e6e6e6"/>
          <circle cx="143.11" cy="547.28" r="9.44" style="fill: #e6e6e6"/>
          <circle cx="143.11" cy="528.39" r="9.44" style="fill: #e6e6e6"/>
          <circle cx="124.22" cy="547.28" r="9.44" style="fill: #e6e6e6"/>
          <circle cx="124.22" cy="528.39" r="9.44" style="fill: #e6e6e6"/>
          <circle cx="105.33" cy="547.28" r="9.44" style="fill: #e6e6e6"/>
          <circle cx="105.33" cy="528.39" r="9.44" style="fill: #e6e6e6"/>
          <circle cx="162" cy="585.3" r="9.44" style="fill: #e6e6e6"/>
          <circle cx="162" cy="566.41" r="9.44" style="fill: #e6e6e6"/>
          <circle cx="143.11" cy="585.3" r="9.44" style="fill: #e6e6e6"/>
          <circle cx="143.11" cy="566.41" r="9.44" style="fill: #e6e6e6"/>
          <circle cx="124.22" cy="585.3" r="9.44" style="fill: #e6e6e6"/>
          <circle cx="124.22" cy="566.41" r="9.44" style="fill: #e6e6e6"/>
          <circle cx="105.33" cy="585.3" r="9.44" style="fill: #e6e6e6"/>
          <circle cx="105.33" cy="566.41" r="9.44" style="fill: #e6e6e6"/>
        </g>
        <g>
          <circle cx="162" cy="736.89" r="9.44" style="fill: #e6e6e6"/>
          <circle cx="162" cy="718.01" r="9.44" style="fill: #e6e6e6"/>
          <circle cx="143.11" cy="736.89" r="9.44" style="fill: #e6e6e6"/>
          <circle cx="143.11" cy="718.01" r="9.44" style="fill: #e6e6e6"/>
          <circle cx="124.22" cy="736.89" r="9.44" style="fill: #e6e6e6"/>
          <circle cx="124.22" cy="718.01" r="9.44" style="fill: #e6e6e6"/>
          <circle cx="105.33" cy="736.89" r="9.44" style="fill: #e6e6e6"/>
          <circle cx="105.33" cy="718.01" r="9.44" style="fill: #e6e6e6"/>
          <circle cx="162" cy="774.91" r="9.44" style="fill: #e6e6e6"/>
          <circle cx="162" cy="756.02" r="9.44" style="fill: #e6e6e6"/>
          <circle cx="143.11" cy="774.91" r="9.44" style="fill: #e6e6e6"/>
          <circle cx="143.11" cy="756.02" r="9.44" style="fill: #e6e6e6"/>
          <circle cx="124.22" cy="774.91" r="9.44" style="fill: #e6e6e6"/>
          <circle cx="124.22" cy="756.02" r="9.44" style="fill: #e6e6e6"/>
          <circle cx="105.33" cy="774.91" r="9.44" style="fill: #e6e6e6"/>
          <circle cx="105.33" cy="756.02" r="9.44" style="fill: #e6e6e6"/>
        </g>
        <g>
          <circle cx="162" cy="832.06" r="9.44" style="fill: #e6e6e6"/>
          <circle cx="162" cy="813.17" r="9.44" style="fill: #e6e6e6"/>
          <circle cx="143.11" cy="832.06" r="9.44" style="fill: #e6e6e6"/>
          <circle cx="143.11" cy="813.17" r="9.44" style="fill: #e6e6e6"/>
          <circle cx="124.22" cy="832.06" r="9.44" style="fill: #e6e6e6"/>
          <circle cx="124.22" cy="813.17" r="9.44" style="fill: #e6e6e6"/>
          <circle cx="105.33" cy="832.06" r="9.44" style="fill: #e6e6e6"/>
          <circle cx="105.33" cy="813.17" r="9.44" style="fill: #e6e6e6"/>
          <circle cx="162" cy="870.08" r="9.44" style="fill: #e6e6e6"/>
          <circle cx="162" cy="851.19" r="9.44" style="fill: #e6e6e6"/>
          <circle cx="143.11" cy="870.08" r="9.44" style="fill: #e6e6e6"/>
          <circle cx="143.11" cy="851.19" r="9.44" style="fill: #e6e6e6"/>
          <circle cx="124.22" cy="870.08" r="9.44" style="fill: #e6e6e6"/>
          <circle cx="124.22" cy="851.19" r="9.44" style="fill: #e6e6e6"/>
          <circle cx="105.33" cy="870.08" r="9.44" style="fill: #e6e6e6"/>
          <circle cx="105.33" cy="851.19" r="9.44" style="fill: #e6e6e6"/>
        </g>
        <g>
          <circle cx="162" cy="926.99" r="9.44" style="fill: #e6e6e6"/>
          <circle cx="162" cy="908.1" r="9.44" style="fill: #e6e6e6"/>
          <circle cx="143.11" cy="926.99" r="9.44" style="fill: #e6e6e6"/>
          <circle cx="143.11" cy="908.1" r="9.44" style="fill: #e6e6e6"/>
          <circle cx="124.22" cy="926.99" r="9.44" style="fill: #e6e6e6"/>
          <circle cx="124.22" cy="908.1" r="9.44" style="fill: #e6e6e6"/>
          <circle cx="105.33" cy="926.99" r="9.44" style="fill: #e6e6e6"/>
          <circle cx="105.33" cy="908.1" r="9.44" style="fill: #e6e6e6"/>
          <circle cx="162" cy="965.01" r="9.44" style="fill: #e6e6e6"/>
          <circle cx="162" cy="946.12" r="9.44" style="fill: #e6e6e6"/>
          <circle cx="143.11" cy="965.01" r="9.44" style="fill: #e6e6e6"/>
          <circle cx="143.11" cy="946.12" r="9.44" style="fill: #e6e6e6"/>
          <circle cx="124.22" cy="965.01" r="9.44" style="fill: #e6e6e6"/>
          <circle cx="124.22" cy="946.12" r="9.44" style="fill: #e6e6e6"/>
          <circle cx="105.33" cy="965.01" r="9.44" style="fill: #e6e6e6"/>
          <circle cx="105.33" cy="946.12" r="9.44" style="fill: #e6e6e6"/>
        </g>
        <g>
          <circle cx="66.11" cy="262.38" r="9.44" style="fill: #e6e6e6"/>
          <circle cx="66.11" cy="243.49" r="9.44" style="fill: #e6e6e6"/>
          <circle cx="47.22" cy="262.38" r="9.44" style="fill: #e6e6e6"/>
          <circle cx="47.22" cy="243.49" r="9.44" style="fill: #e6e6e6"/>
          <circle cx="28.33" cy="262.38" r="9.44" style="fill: #e6e6e6"/>
          <circle cx="28.33" cy="243.49" r="9.44" style="fill: #e6e6e6"/>
          <circle cx="9.44" cy="262.38" r="9.44" style="fill: #e6e6e6"/>
          <circle cx="9.44" cy="243.49" r="9.44" style="fill: #e6e6e6"/>
          <circle cx="66.11" cy="300.4" r="9.44" style="fill: #e6e6e6"/>
          <circle cx="66.11" cy="281.51" r="9.44" style="fill: #e6e6e6"/>
          <circle cx="47.22" cy="300.4" r="9.44" style="fill: #e6e6e6"/>
          <circle cx="47.22" cy="281.51" r="9.44" style="fill: #e6e6e6"/>
          <circle cx="28.33" cy="300.4" r="9.44" style="fill: #e6e6e6"/>
          <circle cx="28.33" cy="281.51" r="9.44" style="fill: #e6e6e6"/>
          <circle cx="9.44" cy="300.4" r="9.44" style="fill: #e6e6e6"/>
          <circle cx="9.44" cy="281.51" r="9.44" style="fill: #e6e6e6"/>
        </g>
        <g>
          <circle cx="66.11" cy="357.31" r="9.44" style="fill: #e6e6e6"/>
          <circle cx="66.11" cy="338.42" r="9.44" style="fill: #e6e6e6"/>
          <circle cx="47.22" cy="357.31" r="9.44" style="fill: #e6e6e6"/>
          <circle cx="47.22" cy="338.42" r="9.44" style="fill: #e6e6e6"/>
          <circle cx="28.33" cy="357.31" r="9.44" style="fill: #e6e6e6"/>
          <circle cx="28.33" cy="338.42" r="9.44" style="fill: #e6e6e6"/>
          <circle cx="9.44" cy="357.31" r="9.44" style="fill: #e6e6e6"/>
          <circle cx="9.44" cy="338.42" r="9.44" style="fill: #e6e6e6"/>
          <circle cx="66.11" cy="395.33" r="9.44" style="fill: #e6e6e6"/>
          <circle cx="66.11" cy="376.44" r="9.44" style="fill: #e6e6e6"/>
          <circle cx="47.22" cy="395.33" r="9.44" style="fill: #e6e6e6"/>
          <circle cx="47.22" cy="376.44" r="9.44" style="fill: #e6e6e6"/>
          <circle cx="28.33" cy="395.33" r="9.44" style="fill: #e6e6e6"/>
          <circle cx="28.33" cy="376.44" r="9.44" style="fill: #e6e6e6"/>
          <circle cx="9.44" cy="395.33" r="9.44" style="fill: #e6e6e6"/>
          <circle cx="9.44" cy="376.44" r="9.44" style="fill: #e6e6e6"/>
        </g>
        <g>
          <circle cx="66.11" cy="452.23" r="9.44" style="fill: #e6e6e6"/>
          <circle cx="66.11" cy="433.35" r="9.44" style="fill: #e6e6e6"/>
          <circle cx="47.22" cy="452.23" r="9.44" style="fill: #e6e6e6"/>
          <circle cx="47.22" cy="433.35" r="9.44" style="fill: #e6e6e6"/>
          <circle cx="28.33" cy="452.23" r="9.44" style="fill: #e6e6e6"/>
          <circle cx="28.33" cy="433.35" r="9.44" style="fill: #e6e6e6"/>
          <circle cx="9.44" cy="452.23" r="9.44" style="fill: #e6e6e6"/>
          <circle cx="9.44" cy="433.35" r="9.44" style="fill: #e6e6e6"/>
          <circle cx="66.11" cy="490.25" r="9.44" style="fill: #e6e6e6"/>
          <circle cx="66.11" cy="471.37" r="9.44" style="fill: #e6e6e6"/>
          <circle cx="47.22" cy="490.25" r="9.44" style="fill: #e6e6e6"/>
          <circle cx="47.22" cy="471.37" r="9.44" style="fill: #e6e6e6"/>
          <circle cx="28.33" cy="490.25" r="9.44" style="fill: #e6e6e6"/>
          <circle cx="28.33" cy="471.37" r="9.44" style="fill: #e6e6e6"/>
          <circle cx="9.44" cy="490.25" r="9.44" style="fill: #e6e6e6"/>
          <circle cx="9.44" cy="471.37" r="9.44" style="fill: #e6e6e6"/>
        </g>
        <g>
          <circle cx="66.11" cy="547.16" r="9.44" style="fill: #e6e6e6"/>
          <circle cx="66.11" cy="528.27" r="9.44" style="fill: #e6e6e6"/>
          <circle cx="47.22" cy="547.16" r="9.44" style="fill: #e6e6e6"/>
          <circle cx="47.22" cy="528.27" r="9.44" style="fill: #e6e6e6"/>
          <circle cx="28.33" cy="547.16" r="9.44" style="fill: #e6e6e6"/>
          <circle cx="28.33" cy="528.27" r="9.44" style="fill: #e6e6e6"/>
          <circle cx="9.44" cy="547.16" r="9.44" style="fill: #e6e6e6"/>
          <circle cx="9.44" cy="528.27" r="9.44" style="fill: #e6e6e6"/>
          <circle cx="66.11" cy="585.18" r="9.44" style="fill: #e6e6e6"/>
          <circle cx="66.11" cy="566.29" r="9.44" style="fill: #e6e6e6"/>
          <circle cx="47.22" cy="585.18" r="9.44" style="fill: #e6e6e6"/>
          <circle cx="47.22" cy="566.29" r="9.44" style="fill: #e6e6e6"/>
          <circle cx="28.33" cy="585.18" r="9.44" style="fill: #e6e6e6"/>
          <circle cx="28.33" cy="566.29" r="9.44" style="fill: #e6e6e6"/>
          <circle cx="9.44" cy="585.18" r="9.44" style="fill: #e6e6e6"/>
          <circle cx="9.44" cy="566.29" r="9.44" style="fill: #e6e6e6"/>
        </g>
        <g>
          <circle cx="66.11" cy="642.09" r="9.44" style="fill: #e6e6e6"/>
          <circle cx="66.11" cy="623.2" r="9.44" style="fill: #e6e6e6"/>
          <circle cx="47.22" cy="642.09" r="9.44" style="fill: #e6e6e6"/>
          <circle cx="47.22" cy="623.2" r="9.44" style="fill: #e6e6e6"/>
          <circle cx="28.33" cy="642.09" r="9.44" style="fill: #e6e6e6"/>
          <circle cx="28.33" cy="623.2" r="9.44" style="fill: #e6e6e6"/>
          <circle cx="9.44" cy="642.09" r="9.44" style="fill: #e6e6e6"/>
          <circle cx="9.44" cy="623.2" r="9.44" style="fill: #e6e6e6"/>
          <circle cx="66.11" cy="680.11" r="9.44" style="fill: #e6e6e6"/>
          <circle cx="66.11" cy="661.22" r="9.44" style="fill: #e6e6e6"/>
          <circle cx="47.22" cy="680.11" r="9.44" style="fill: #e6e6e6"/>
          <circle cx="47.22" cy="661.22" r="9.44" style="fill: #e6e6e6"/>
          <circle cx="28.33" cy="680.11" r="9.44" style="fill: #e6e6e6"/>
          <circle cx="28.33" cy="661.22" r="9.44" style="fill: #e6e6e6"/>
          <circle cx="9.44" cy="680.11" r="9.44" style="fill: #e6e6e6"/>
          <circle cx="9.44" cy="661.22" r="9.44" style="fill: #e6e6e6"/>
        </g>
        <g>
          <circle cx="66.11" cy="737.01" r="9.44" style="fill: #e6e6e6"/>
          <circle cx="66.11" cy="718.13" r="9.44" style="fill: #e6e6e6"/>
          <circle cx="47.22" cy="737.01" r="9.44" style="fill: #e6e6e6"/>
          <circle cx="47.22" cy="718.13" r="9.44" style="fill: #e6e6e6"/>
          <circle cx="28.33" cy="737.01" r="9.44" style="fill: #e6e6e6"/>
          <circle cx="28.33" cy="718.13" r="9.44" style="fill: #e6e6e6"/>
          <circle cx="9.44" cy="737.01" r="9.44" style="fill: #e6e6e6"/>
          <circle cx="9.44" cy="718.13" r="9.44" style="fill: #e6e6e6"/>
          <circle cx="66.11" cy="775.03" r="9.44" style="fill: #e6e6e6"/>
          <circle cx="66.11" cy="756.15" r="9.44" style="fill: #e6e6e6"/>
          <circle cx="47.22" cy="775.03" r="9.44" style="fill: #e6e6e6"/>
          <circle cx="47.22" cy="756.15" r="9.44" style="fill: #e6e6e6"/>
          <circle cx="28.33" cy="775.03" r="9.44" style="fill: #e6e6e6"/>
          <circle cx="28.33" cy="756.15" r="9.44" style="fill: #e6e6e6"/>
          <circle cx="9.44" cy="775.03" r="9.44" style="fill: #e6e6e6"/>
          <circle cx="9.44" cy="756.15" r="9.44" style="fill: #e6e6e6"/>
        </g>
        <g>
          <circle cx="66.11" cy="831.94" r="9.44" style="fill: #e6e6e6"/>
          <circle cx="66.11" cy="813.05" r="9.44" style="fill: #e6e6e6"/>
          <circle cx="47.22" cy="831.94" r="9.44" style="fill: #e6e6e6"/>
          <circle cx="47.22" cy="813.05" r="9.44" style="fill: #e6e6e6"/>
          <circle cx="28.33" cy="831.94" r="9.44" style="fill: #e6e6e6"/>
          <circle cx="28.33" cy="813.05" r="9.44" style="fill: #e6e6e6"/>
          <circle cx="9.44" cy="831.94" r="9.44" style="fill: #e6e6e6"/>
          <circle cx="9.44" cy="813.05" r="9.44" style="fill: #e6e6e6"/>
          <circle cx="66.11" cy="869.96" r="9.44" style="fill: #e6e6e6"/>
          <circle cx="66.11" cy="851.07" r="9.44" style="fill: #e6e6e6"/>
          <circle cx="47.22" cy="869.96" r="9.44" style="fill: #e6e6e6"/>
          <circle cx="47.22" cy="851.07" r="9.44" style="fill: #e6e6e6"/>
          <circle cx="28.33" cy="869.96" r="9.44" style="fill: #e6e6e6"/>
          <circle cx="28.33" cy="851.07" r="9.44" style="fill: #e6e6e6"/>
          <circle cx="9.44" cy="869.96" r="9.44" style="fill: #e6e6e6"/>
          <circle cx="9.44" cy="851.07" r="9.44" style="fill: #e6e6e6"/>
        </g>
        <g>
          <circle cx="66.11" cy="926.87" r="9.44" style="fill: #e6e6e6"/>
          <circle cx="66.11" cy="907.98" r="9.44" style="fill: #e6e6e6"/>
          <circle cx="47.22" cy="926.87" r="9.44" style="fill: #e6e6e6"/>
          <circle cx="47.22" cy="907.98" r="9.44" style="fill: #e6e6e6"/>
          <circle cx="28.33" cy="926.87" r="9.44" style="fill: #e6e6e6"/>
          <circle cx="28.33" cy="907.98" r="9.44" style="fill: #e6e6e6"/>
          <circle cx="9.44" cy="926.87" r="9.44" style="fill: #e6e6e6"/>
          <circle cx="9.44" cy="907.98" r="9.44" style="fill: #e6e6e6"/>
          <circle cx="66.11" cy="964.89" r="9.44" style="fill: #e6e6e6"/>
          <circle cx="66.11" cy="946" r="9.44" style="fill: #e6e6e6"/>
          <circle cx="47.22" cy="964.89" r="9.44" style="fill: #e6e6e6"/>
          <circle cx="47.22" cy="946" r="9.44" style="fill: #e6e6e6"/>
          <circle cx="28.33" cy="964.89" r="9.44" style="fill: #e6e6e6"/>
          <circle cx="28.33" cy="946" r="9.44" style="fill: #e6e6e6"/>
          <circle cx="9.44" cy="964.89" r="9.44" style="fill: #e6e6e6"/>
          <circle cx="9.44" cy="946" r="9.44" style="fill: #e6e6e6"/>
        </g>
        <g>
          <circle cx="66.11" cy="1021.79" r="9.44" style="fill: #e6e6e6"/>
          <circle cx="66.11" cy="1002.91" r="9.44" style="fill: #e6e6e6"/>
          <circle cx="47.22" cy="1021.79" r="9.44" style="fill: #e6e6e6"/>
          <circle cx="47.22" cy="1002.91" r="9.44" style="fill: #e6e6e6"/>
          <circle cx="28.33" cy="1021.79" r="9.44" style="fill: #e6e6e6"/>
          <circle cx="28.33" cy="1002.91" r="9.44" style="fill: #e6e6e6"/>
          <circle cx="9.44" cy="1021.79" r="9.44" style="fill: #e6e6e6"/>
          <circle cx="9.44" cy="1002.91" r="9.44" style="fill: #e6e6e6"/>
        </g>
      </g>
    </g>
  </g>
</svg>
