<svg xmlns="http://www.w3.org/2000/svg" viewBox="0 0 380 362"><defs><style>.cls-1{fill:#ba9873;opacity:0.75;}</style></defs><title>centennial_garden</title><g id="Layer_2" data-name="Layer 2"><g id="Layer_2-2" data-name="Layer 2"><rect class="cls-1" y="186" width="29" height="52"/><rect class="cls-1" y="124" width="29" height="52"/><rect class="cls-1" y="62" width="29" height="52"/><rect class="cls-1" width="29" height="52"/><rect class="cls-1" x="39" y="186" width="29" height="52"/><rect class="cls-1" x="39" y="124" width="29" height="52"/><rect class="cls-1" x="39" y="62" width="29" height="52"/><rect class="cls-1" x="39" width="29" height="52"/><rect class="cls-1" x="78" y="310" width="29" height="52"/><rect class="cls-1" x="78" y="248" width="29" height="52"/><rect class="cls-1" x="78" y="186" width="29" height="52"/><rect class="cls-1" x="78" y="124" width="29" height="52"/><rect class="cls-1" x="78" y="62" width="29" height="52"/><rect class="cls-1" x="78" width="29" height="52"/><rect class="cls-1" x="117" y="310" width="29" height="52"/><rect class="cls-1" x="117" y="248" width="29" height="52"/><rect class="cls-1" x="117" y="186" width="29" height="52"/><rect class="cls-1" x="117" y="124" width="29" height="52"/><rect class="cls-1" x="117" y="62" width="29" height="52"/><rect class="cls-1" x="117" width="29" height="52"/><rect class="cls-1" x="156" y="310" width="29" height="52"/><rect class="cls-1" x="156" y="248" width="29" height="52"/><rect class="cls-1" x="156" y="186" width="29" height="52"/><rect class="cls-1" x="156" y="124" width="29" height="52"/><rect class="cls-1" x="156" y="62" width="29" height="52"/><rect class="cls-1" x="156" width="29" height="52"/><rect class="cls-1" x="195" y="310" width="29" height="52"/><rect class="cls-1" x="195" y="248" width="29" height="52"/><rect class="cls-1" x="195" y="186" width="29" height="52"/><rect class="cls-1" x="195" y="124" width="29" height="52"/><rect class="cls-1" x="195" y="62" width="29" height="52"/><rect class="cls-1" x="195" width="29" height="52"/><rect class="cls-1" x="234" y="310" width="29" height="52"/><rect class="cls-1" x="234" y="248" width="29" height="52"/><rect class="cls-1" x="234" y="186" width="29" height="52"/><rect class="cls-1" x="234" y="124" width="29" height="52"/><rect class="cls-1" x="234" y="62" width="29" height="52"/><rect class="cls-1" x="273" y="310" width="29" height="52"/><rect class="cls-1" x="273" y="248" width="29" height="52"/><rect class="cls-1" x="273" y="186" width="29" height="52"/><rect class="cls-1" x="273" y="124" width="29" height="52"/><rect class="cls-1" x="312" y="310" width="29" height="52"/><rect class="cls-1" x="312" y="248" width="29" height="52"/><rect class="cls-1" x="312" y="186" width="29" height="52"/><rect class="cls-1" x="351" y="310" width="29" height="52"/><rect class="cls-1" x="351" y="248" width="29" height="52"/></g></g></svg>