<svg xmlns="http://www.w3.org/2000/svg" viewBox="0 0 641.9 1774"><defs><style>.cls-1{fill:#e6e6e6;}</style></defs><title>foothills_map</title><g id="Layer_2" data-name="Layer 2"><g id="foothills"><g id="Layer_6" data-name="Layer 6"><circle class="cls-1" cx="103.13" cy="103.13" r="14.73"/><circle class="cls-1" cx="103.13" cy="73.66" r="14.73"/><circle class="cls-1" cx="103.13" cy="44.2" r="14.73"/><circle class="cls-1" cx="103.13" cy="14.73" r="14.73"/><circle class="cls-1" cx="73.66" cy="103.13" r="14.73"/><circle class="cls-1" cx="73.66" cy="73.66" r="14.73"/><circle class="cls-1" cx="73.66" cy="44.2" r="14.73"/><circle class="cls-1" cx="73.66" cy="14.73" r="14.73"/><circle class="cls-1" cx="44.2" cy="103.13" r="14.73"/><circle class="cls-1" cx="44.2" cy="73.66" r="14.73"/><circle class="cls-1" cx="44.2" cy="44.2" r="14.73"/><circle class="cls-1" cx="44.2" cy="14.73" r="14.73"/><circle class="cls-1" cx="14.73" cy="103.13" r="14.73"/><circle class="cls-1" cx="14.73" cy="73.66" r="14.73"/><circle class="cls-1" cx="14.73" cy="44.2" r="14.73"/><circle class="cls-1" cx="14.73" cy="14.73" r="14.73"/><circle class="cls-1" cx="103.13" cy="244.36" r="14.73"/><circle class="cls-1" cx="103.13" cy="214.9" r="14.73"/><circle class="cls-1" cx="103.13" cy="185.43" r="14.73"/><circle class="cls-1" cx="103.13" cy="155.97" r="14.73"/><circle class="cls-1" cx="73.66" cy="244.36" r="14.73"/><circle class="cls-1" cx="73.66" cy="214.9" r="14.73"/><circle class="cls-1" cx="73.66" cy="185.43" r="14.73"/><circle class="cls-1" cx="73.66" cy="155.97" r="14.73"/><circle class="cls-1" cx="44.2" cy="244.36" r="14.73"/><circle class="cls-1" cx="44.2" cy="214.9" r="14.73"/><circle class="cls-1" cx="44.2" cy="185.43" r="14.73"/><circle class="cls-1" cx="44.2" cy="155.97" r="14.73"/><circle class="cls-1" cx="14.73" cy="244.36" r="14.73"/><circle class="cls-1" cx="14.73" cy="214.9" r="14.73"/><circle class="cls-1" cx="14.73" cy="185.43" r="14.73"/><circle class="cls-1" cx="14.73" cy="155.97" r="14.73"/><circle class="cls-1" cx="103.13" cy="385.6" r="14.73"/><circle class="cls-1" cx="103.13" cy="356.14" r="14.73"/><circle class="cls-1" cx="103.13" cy="326.67" r="14.73"/><circle class="cls-1" cx="103.13" cy="297.21" r="14.73"/><circle class="cls-1" cx="73.66" cy="385.6" r="14.73"/><circle class="cls-1" cx="73.66" cy="356.14" r="14.73"/><circle class="cls-1" cx="73.66" cy="326.67" r="14.73"/><circle class="cls-1" cx="73.66" cy="297.21" r="14.73"/><circle class="cls-1" cx="44.2" cy="385.6" r="14.73"/><circle class="cls-1" cx="44.2" cy="356.14" r="14.73"/><circle class="cls-1" cx="44.2" cy="326.67" r="14.73"/><circle class="cls-1" cx="44.2" cy="297.21" r="14.73"/><circle class="cls-1" cx="14.73" cy="385.6" r="14.73"/><circle class="cls-1" cx="14.73" cy="356.14" r="14.73"/><circle class="cls-1" cx="14.73" cy="326.67" r="14.73"/><circle class="cls-1" cx="14.73" cy="297.21" r="14.73"/><circle class="cls-1" cx="103.13" cy="526.84" r="14.73"/><circle class="cls-1" cx="103.13" cy="497.37" r="14.73"/><circle class="cls-1" cx="103.13" cy="467.91" r="14.73"/><circle class="cls-1" cx="103.13" cy="438.44" r="14.73"/><circle class="cls-1" cx="73.66" cy="526.84" r="14.73"/><circle class="cls-1" cx="73.66" cy="497.37" r="14.73"/><circle class="cls-1" cx="73.66" cy="467.91" r="14.73"/><circle class="cls-1" cx="73.66" cy="438.44" r="14.73"/><circle class="cls-1" cx="44.2" cy="526.84" r="14.73"/><circle class="cls-1" cx="44.2" cy="497.37" r="14.73"/><circle class="cls-1" cx="44.2" cy="467.91" r="14.73"/><circle class="cls-1" cx="44.2" cy="438.44" r="14.73"/><circle class="cls-1" cx="14.73" cy="526.84" r="14.73"/><circle class="cls-1" cx="14.73" cy="497.37" r="14.73"/><circle class="cls-1" cx="14.73" cy="467.91" r="14.73"/><circle class="cls-1" cx="14.73" cy="438.44" r="14.73"/><circle class="cls-1" cx="103.13" cy="770.61" r="14.73"/><circle class="cls-1" cx="103.13" cy="741.15" r="14.73"/><circle class="cls-1" cx="103.13" cy="711.68" r="14.73"/><circle class="cls-1" cx="103.13" cy="682.22" r="14.73"/><circle class="cls-1" cx="73.66" cy="770.61" r="14.73"/><circle class="cls-1" cx="73.66" cy="741.15" r="14.73"/><circle class="cls-1" cx="73.66" cy="711.68" r="14.73"/><circle class="cls-1" cx="73.66" cy="682.22" r="14.73"/><circle class="cls-1" cx="44.2" cy="770.61" r="14.73"/><circle class="cls-1" cx="44.2" cy="741.15" r="14.73"/><circle class="cls-1" cx="44.2" cy="711.68" r="14.73"/><circle class="cls-1" cx="44.2" cy="682.22" r="14.73"/><circle class="cls-1" cx="14.73" cy="770.61" r="14.73"/><circle class="cls-1" cx="14.73" cy="741.15" r="14.73"/><circle class="cls-1" cx="14.73" cy="711.68" r="14.73"/><circle class="cls-1" cx="14.73" cy="682.22" r="14.73"/><circle class="cls-1" cx="103.13" cy="911.85" r="14.73"/><circle class="cls-1" cx="103.13" cy="882.38" r="14.73"/><circle class="cls-1" cx="103.13" cy="852.92" r="14.73"/><circle class="cls-1" cx="103.13" cy="823.45" r="14.73"/><circle class="cls-1" cx="73.66" cy="911.85" r="14.73"/><circle class="cls-1" cx="73.66" cy="882.38" r="14.73"/><circle class="cls-1" cx="73.66" cy="852.92" r="14.73"/><circle class="cls-1" cx="73.66" cy="823.45" r="14.73"/><circle class="cls-1" cx="44.2" cy="911.85" r="14.73"/><circle class="cls-1" cx="44.2" cy="882.38" r="14.73"/><circle class="cls-1" cx="44.2" cy="852.92" r="14.73"/><circle class="cls-1" cx="44.2" cy="823.45" r="14.73"/><circle class="cls-1" cx="14.73" cy="911.85" r="14.73"/><circle class="cls-1" cx="14.73" cy="882.38" r="14.73"/><circle class="cls-1" cx="14.73" cy="852.92" r="14.73"/><circle class="cls-1" cx="14.73" cy="823.45" r="14.73"/><circle class="cls-1" cx="103.13" cy="1053.08" r="14.73"/><circle class="cls-1" cx="103.13" cy="1023.62" r="14.73"/><circle class="cls-1" cx="103.13" cy="994.15" r="14.73"/><circle class="cls-1" cx="103.13" cy="964.69" r="14.73"/><circle class="cls-1" cx="73.66" cy="1053.08" r="14.73"/><circle class="cls-1" cx="73.66" cy="1023.62" r="14.73"/><circle class="cls-1" cx="73.66" cy="994.15" r="14.73"/><circle class="cls-1" cx="73.66" cy="964.69" r="14.73"/><circle class="cls-1" cx="44.2" cy="1053.08" r="14.73"/><circle class="cls-1" cx="44.2" cy="1023.62" r="14.73"/><circle class="cls-1" cx="44.2" cy="994.15" r="14.73"/><circle class="cls-1" cx="44.2" cy="964.69" r="14.73"/><circle class="cls-1" cx="14.73" cy="1053.08" r="14.73"/><circle class="cls-1" cx="14.73" cy="1023.62" r="14.73"/><circle class="cls-1" cx="14.73" cy="994.15" r="14.73"/><circle class="cls-1" cx="14.73" cy="964.69" r="14.73"/><circle class="cls-1" cx="103.13" cy="1194.32" r="14.73"/><circle class="cls-1" cx="103.13" cy="1164.86" r="14.73"/><circle class="cls-1" cx="103.13" cy="1135.39" r="14.73"/><circle class="cls-1" cx="103.13" cy="1105.93" r="14.73"/><circle class="cls-1" cx="73.66" cy="1194.32" r="14.73"/><circle class="cls-1" cx="73.66" cy="1164.86" r="14.73"/><circle class="cls-1" cx="73.66" cy="1135.39" r="14.73"/><circle class="cls-1" cx="73.66" cy="1105.93" r="14.73"/><circle class="cls-1" cx="44.2" cy="1194.32" r="14.73"/><circle class="cls-1" cx="44.2" cy="1164.86" r="14.73"/><circle class="cls-1" cx="44.2" cy="1135.39" r="14.73"/><circle class="cls-1" cx="44.2" cy="1105.93" r="14.73"/><circle class="cls-1" cx="14.73" cy="1194.32" r="14.73"/><circle class="cls-1" cx="14.73" cy="1164.86" r="14.73"/><circle class="cls-1" cx="14.73" cy="1135.39" r="14.73"/><circle class="cls-1" cx="14.73" cy="1105.93" r="14.73"/><circle class="cls-1" cx="103.13" cy="1335.56" r="14.73"/><circle class="cls-1" cx="103.13" cy="1306.09" r="14.73"/><circle class="cls-1" cx="103.13" cy="1276.63" r="14.73"/><circle class="cls-1" cx="103.13" cy="1247.16" r="14.73"/><circle class="cls-1" cx="73.66" cy="1335.56" r="14.73"/><circle class="cls-1" cx="73.66" cy="1306.09" r="14.73"/><circle class="cls-1" cx="73.66" cy="1276.63" r="14.73"/><circle class="cls-1" cx="73.66" cy="1247.16" r="14.73"/><circle class="cls-1" cx="44.2" cy="1335.56" r="14.73"/><circle class="cls-1" cx="44.2" cy="1306.09" r="14.73"/><circle class="cls-1" cx="44.2" cy="1276.63" r="14.73"/><circle class="cls-1" cx="44.2" cy="1247.16" r="14.73"/><circle class="cls-1" cx="14.73" cy="1335.56" r="14.73"/><circle class="cls-1" cx="14.73" cy="1306.09" r="14.73"/><circle class="cls-1" cx="14.73" cy="1276.63" r="14.73"/><circle class="cls-1" cx="14.73" cy="1247.16" r="14.73"/><circle class="cls-1" cx="103.13" cy="1476.79" r="14.73"/><circle class="cls-1" cx="103.13" cy="1447.33" r="14.73"/><circle class="cls-1" cx="103.13" cy="1417.86" r="14.73"/><circle class="cls-1" cx="103.13" cy="1388.4" r="14.73"/><circle class="cls-1" cx="73.66" cy="1476.79" r="14.73"/><circle class="cls-1" cx="73.66" cy="1447.33" r="14.73"/><circle class="cls-1" cx="73.66" cy="1417.86" r="14.73"/><circle class="cls-1" cx="73.66" cy="1388.4" r="14.73"/><circle class="cls-1" cx="44.2" cy="1476.79" r="14.73"/><circle class="cls-1" cx="44.2" cy="1447.33" r="14.73"/><circle class="cls-1" cx="44.2" cy="1417.86" r="14.73"/><circle class="cls-1" cx="44.2" cy="1388.4" r="14.73"/><circle class="cls-1" cx="14.73" cy="1476.79" r="14.73"/><circle class="cls-1" cx="14.73" cy="1447.33" r="14.73"/><circle class="cls-1" cx="14.73" cy="1417.86" r="14.73"/><circle class="cls-1" cx="14.73" cy="1388.4" r="14.73"/><circle class="cls-1" cx="259.95" cy="770.61" r="14.73"/><circle class="cls-1" cx="259.95" cy="741.15" r="14.73"/><circle class="cls-1" cx="259.95" cy="711.68" r="14.73"/><circle class="cls-1" cx="259.95" cy="682.22" r="14.73"/><circle class="cls-1" cx="230.48" cy="770.61" r="14.73"/><circle class="cls-1" cx="230.48" cy="741.15" r="14.73"/><circle class="cls-1" cx="230.48" cy="711.68" r="14.73"/><circle class="cls-1" cx="230.48" cy="682.22" r="14.73"/><circle class="cls-1" cx="201.02" cy="770.61" r="14.73"/><circle class="cls-1" cx="201.02" cy="741.15" r="14.73"/><circle class="cls-1" cx="201.02" cy="711.68" r="14.73"/><circle class="cls-1" cx="201.02" cy="682.22" r="14.73"/><circle class="cls-1" cx="171.55" cy="770.61" r="14.73"/><circle class="cls-1" cx="171.55" cy="741.15" r="14.73"/><circle class="cls-1" cx="171.55" cy="711.68" r="14.73"/><circle class="cls-1" cx="171.55" cy="682.22" r="14.73"/><circle class="cls-1" cx="259.95" cy="911.85" r="14.73"/><circle class="cls-1" cx="259.95" cy="882.38" r="14.73"/><circle class="cls-1" cx="259.95" cy="852.92" r="14.73"/><circle class="cls-1" cx="259.95" cy="823.45" r="14.73"/><circle class="cls-1" cx="230.48" cy="911.85" r="14.73"/><circle class="cls-1" cx="230.48" cy="882.38" r="14.73"/><circle class="cls-1" cx="230.48" cy="852.92" r="14.73"/><circle class="cls-1" cx="230.48" cy="823.45" r="14.73"/><circle class="cls-1" cx="201.02" cy="911.85" r="14.73"/><circle class="cls-1" cx="201.02" cy="882.38" r="14.73"/><circle class="cls-1" cx="201.02" cy="852.92" r="14.73"/><circle class="cls-1" cx="201.02" cy="823.45" r="14.73"/><circle class="cls-1" cx="171.55" cy="911.85" r="14.73"/><circle class="cls-1" cx="171.55" cy="882.38" r="14.73"/><circle class="cls-1" cx="171.55" cy="852.92" r="14.73"/><circle class="cls-1" cx="171.55" cy="823.45" r="14.73"/><circle class="cls-1" cx="259.95" cy="1053.08" r="14.73"/><circle class="cls-1" cx="259.95" cy="1023.62" r="14.73"/><circle class="cls-1" cx="259.95" cy="994.15" r="14.73"/><circle class="cls-1" cx="259.95" cy="964.69" r="14.73"/><circle class="cls-1" cx="230.48" cy="1053.08" r="14.73"/><circle class="cls-1" cx="230.48" cy="1023.62" r="14.73"/><circle class="cls-1" cx="230.48" cy="994.15" r="14.73"/><circle class="cls-1" cx="230.48" cy="964.69" r="14.73"/><circle class="cls-1" cx="201.02" cy="1053.08" r="14.73"/><circle class="cls-1" cx="201.02" cy="1023.62" r="14.73"/><circle class="cls-1" cx="201.02" cy="994.15" r="14.73"/><circle class="cls-1" cx="201.02" cy="964.69" r="14.73"/><circle class="cls-1" cx="171.55" cy="1053.08" r="14.73"/><circle class="cls-1" cx="171.55" cy="1023.62" r="14.73"/><circle class="cls-1" cx="171.55" cy="994.15" r="14.73"/><circle class="cls-1" cx="171.55" cy="964.69" r="14.73"/><circle class="cls-1" cx="259.95" cy="1194.32" r="14.73"/><circle class="cls-1" cx="259.95" cy="1164.86" r="14.73"/><circle class="cls-1" cx="259.95" cy="1135.39" r="14.73"/><circle class="cls-1" cx="259.95" cy="1105.93" r="14.73"/><circle class="cls-1" cx="230.48" cy="1194.32" r="14.73"/><circle class="cls-1" cx="230.48" cy="1164.86" r="14.73"/><circle class="cls-1" cx="230.48" cy="1135.39" r="14.73"/><circle class="cls-1" cx="230.48" cy="1105.93" r="14.73"/><circle class="cls-1" cx="201.02" cy="1194.32" r="14.73"/><circle class="cls-1" cx="201.02" cy="1164.86" r="14.73"/><circle class="cls-1" cx="201.02" cy="1135.39" r="14.73"/><circle class="cls-1" cx="201.02" cy="1105.93" r="14.73"/><circle class="cls-1" cx="171.55" cy="1194.32" r="14.73"/><circle class="cls-1" cx="171.55" cy="1164.86" r="14.73"/><circle class="cls-1" cx="171.55" cy="1135.39" r="14.73"/><circle class="cls-1" cx="171.55" cy="1105.93" r="14.73"/><circle class="cls-1" cx="259.95" cy="1335.56" r="14.73"/><circle class="cls-1" cx="259.95" cy="1306.09" r="14.73"/><circle class="cls-1" cx="259.95" cy="1276.63" r="14.73"/><circle class="cls-1" cx="259.95" cy="1247.16" r="14.73"/><circle class="cls-1" cx="230.48" cy="1335.56" r="14.73"/><circle class="cls-1" cx="230.48" cy="1306.09" r="14.73"/><circle class="cls-1" cx="230.48" cy="1276.63" r="14.73"/><circle class="cls-1" cx="230.48" cy="1247.16" r="14.73"/><circle class="cls-1" cx="201.02" cy="1335.56" r="14.73"/><circle class="cls-1" cx="201.02" cy="1306.09" r="14.73"/><circle class="cls-1" cx="201.02" cy="1276.63" r="14.73"/><circle class="cls-1" cx="201.02" cy="1247.16" r="14.73"/><circle class="cls-1" cx="171.55" cy="1335.56" r="14.73"/><circle class="cls-1" cx="171.55" cy="1306.09" r="14.73"/><circle class="cls-1" cx="171.55" cy="1276.63" r="14.73"/><circle class="cls-1" cx="171.55" cy="1247.16" r="14.73"/><circle class="cls-1" cx="259.95" cy="1476.79" r="14.73"/><circle class="cls-1" cx="259.95" cy="1447.33" r="14.73"/><circle class="cls-1" cx="259.95" cy="1417.86" r="14.73"/><circle class="cls-1" cx="259.95" cy="1388.4" r="14.73"/><circle class="cls-1" cx="230.48" cy="1476.79" r="14.73"/><circle class="cls-1" cx="230.48" cy="1447.33" r="14.73"/><circle class="cls-1" cx="230.48" cy="1417.86" r="14.73"/><circle class="cls-1" cx="230.48" cy="1388.4" r="14.73"/><circle class="cls-1" cx="201.02" cy="1476.79" r="14.73"/><circle class="cls-1" cx="201.02" cy="1447.33" r="14.73"/><circle class="cls-1" cx="201.02" cy="1417.86" r="14.73"/><circle class="cls-1" cx="201.02" cy="1388.4" r="14.73"/><circle class="cls-1" cx="171.55" cy="1476.79" r="14.73"/><circle class="cls-1" cx="171.55" cy="1447.33" r="14.73"/><circle class="cls-1" cx="171.55" cy="1417.86" r="14.73"/><circle class="cls-1" cx="171.55" cy="1388.4" r="14.73"/><circle class="cls-1" cx="259.95" cy="1618.03" r="14.73"/><circle class="cls-1" cx="259.95" cy="1588.57" r="14.73"/><circle class="cls-1" cx="259.95" cy="1559.1" r="14.73"/><circle class="cls-1" cx="259.95" cy="1529.64" r="14.73"/><circle class="cls-1" cx="230.48" cy="1618.03" r="14.73"/><circle class="cls-1" cx="230.48" cy="1588.57" r="14.73"/><circle class="cls-1" cx="230.48" cy="1559.1" r="14.73"/><circle class="cls-1" cx="230.48" cy="1529.64" r="14.73"/><circle class="cls-1" cx="201.02" cy="1618.03" r="14.73"/><circle class="cls-1" cx="201.02" cy="1588.57" r="14.73"/><circle class="cls-1" cx="201.02" cy="1559.1" r="14.73"/><circle class="cls-1" cx="201.02" cy="1529.64" r="14.73"/><circle class="cls-1" cx="171.55" cy="1618.03" r="14.73"/><circle class="cls-1" cx="171.55" cy="1588.57" r="14.73"/><circle class="cls-1" cx="171.55" cy="1559.1" r="14.73"/><circle class="cls-1" cx="171.55" cy="1529.64" r="14.73"/><circle class="cls-1" cx="259.95" cy="1759.27" r="14.73"/><circle class="cls-1" cx="259.95" cy="1729.8" r="14.73"/><circle class="cls-1" cx="259.95" cy="1700.34" r="14.73"/><circle class="cls-1" cx="259.95" cy="1670.87" r="14.73"/><circle class="cls-1" cx="230.48" cy="1759.27" r="14.73"/><circle class="cls-1" cx="230.48" cy="1729.8" r="14.73"/><circle class="cls-1" cx="230.48" cy="1700.34" r="14.73"/><circle class="cls-1" cx="230.48" cy="1670.87" r="14.73"/><circle class="cls-1" cx="201.02" cy="1759.27" r="14.73"/><circle class="cls-1" cx="201.02" cy="1729.8" r="14.73"/><circle class="cls-1" cx="201.02" cy="1700.34" r="14.73"/><circle class="cls-1" cx="201.02" cy="1670.87" r="14.73"/><circle class="cls-1" cx="171.55" cy="1759.27" r="14.73"/><circle class="cls-1" cx="171.55" cy="1729.8" r="14.73"/><circle class="cls-1" cx="171.55" cy="1700.34" r="14.73"/><circle class="cls-1" cx="171.55" cy="1670.87" r="14.73"/><circle class="cls-1" cx="470.34" cy="770.61" r="14.73"/><circle class="cls-1" cx="470.34" cy="741.15" r="14.73"/><circle class="cls-1" cx="470.34" cy="711.68" r="14.73"/><circle class="cls-1" cx="470.34" cy="682.22" r="14.73"/><circle class="cls-1" cx="440.88" cy="770.61" r="14.73"/><circle class="cls-1" cx="440.88" cy="741.15" r="14.73"/><circle class="cls-1" cx="440.88" cy="711.68" r="14.73"/><circle class="cls-1" cx="440.88" cy="682.22" r="14.73"/><circle class="cls-1" cx="411.41" cy="770.61" r="14.73"/><circle class="cls-1" cx="411.41" cy="741.15" r="14.73"/><circle class="cls-1" cx="411.41" cy="711.68" r="14.73"/><circle class="cls-1" cx="411.41" cy="682.22" r="14.73"/><circle class="cls-1" cx="381.95" cy="770.61" r="14.73"/><circle class="cls-1" cx="381.95" cy="741.15" r="14.73"/><circle class="cls-1" cx="381.95" cy="711.68" r="14.73"/><circle class="cls-1" cx="381.95" cy="682.22" r="14.73"/><circle class="cls-1" cx="470.34" cy="911.85" r="14.73"/><circle class="cls-1" cx="470.34" cy="882.38" r="14.73"/><circle class="cls-1" cx="470.34" cy="852.92" r="14.73"/><circle class="cls-1" cx="470.34" cy="823.45" r="14.73"/><circle class="cls-1" cx="440.88" cy="911.85" r="14.73"/><circle class="cls-1" cx="440.88" cy="882.38" r="14.73"/><circle class="cls-1" cx="440.88" cy="852.92" r="14.73"/><circle class="cls-1" cx="440.88" cy="823.45" r="14.73"/><circle class="cls-1" cx="411.41" cy="911.85" r="14.73"/><circle class="cls-1" cx="411.41" cy="882.38" r="14.73"/><circle class="cls-1" cx="411.41" cy="852.92" r="14.73"/><circle class="cls-1" cx="411.41" cy="823.45" r="14.73"/><circle class="cls-1" cx="381.95" cy="911.85" r="14.73"/><circle class="cls-1" cx="381.95" cy="882.38" r="14.73"/><circle class="cls-1" cx="381.95" cy="852.92" r="14.73"/><circle class="cls-1" cx="381.95" cy="823.45" r="14.73"/><circle class="cls-1" cx="470.34" cy="1053.08" r="14.73"/><circle class="cls-1" cx="470.34" cy="1023.62" r="14.73"/><circle class="cls-1" cx="470.34" cy="994.15" r="14.73"/><circle class="cls-1" cx="470.34" cy="964.69" r="14.73"/><circle class="cls-1" cx="440.88" cy="1053.08" r="14.73"/><circle class="cls-1" cx="440.88" cy="1023.62" r="14.73"/><circle class="cls-1" cx="440.88" cy="994.15" r="14.73"/><circle class="cls-1" cx="440.88" cy="964.69" r="14.73"/><circle class="cls-1" cx="411.41" cy="1053.08" r="14.73"/><circle class="cls-1" cx="411.41" cy="1023.62" r="14.73"/><circle class="cls-1" cx="411.41" cy="994.15" r="14.73"/><circle class="cls-1" cx="411.41" cy="964.69" r="14.73"/><circle class="cls-1" cx="381.95" cy="1053.08" r="14.73"/><circle class="cls-1" cx="381.95" cy="1023.62" r="14.73"/><circle class="cls-1" cx="381.95" cy="994.15" r="14.73"/><circle class="cls-1" cx="381.95" cy="964.69" r="14.73"/><circle class="cls-1" cx="470.34" cy="1194.32" r="14.73"/><circle class="cls-1" cx="470.34" cy="1164.86" r="14.73"/><circle class="cls-1" cx="470.34" cy="1135.39" r="14.73"/><circle class="cls-1" cx="470.34" cy="1105.93" r="14.73"/><circle class="cls-1" cx="440.88" cy="1194.32" r="14.73"/><circle class="cls-1" cx="440.88" cy="1164.86" r="14.73"/><circle class="cls-1" cx="440.88" cy="1135.39" r="14.73"/><circle class="cls-1" cx="440.88" cy="1105.93" r="14.73"/><circle class="cls-1" cx="411.41" cy="1194.32" r="14.73"/><circle class="cls-1" cx="411.41" cy="1164.86" r="14.73"/><circle class="cls-1" cx="411.41" cy="1135.39" r="14.73"/><circle class="cls-1" cx="411.41" cy="1105.93" r="14.73"/><circle class="cls-1" cx="381.95" cy="1194.32" r="14.73"/><circle class="cls-1" cx="381.95" cy="1164.86" r="14.73"/><circle class="cls-1" cx="381.95" cy="1135.39" r="14.73"/><circle class="cls-1" cx="381.95" cy="1105.93" r="14.73"/><circle class="cls-1" cx="470.34" cy="1335.56" r="14.73"/><circle class="cls-1" cx="470.34" cy="1306.09" r="14.73"/><circle class="cls-1" cx="470.34" cy="1276.63" r="14.73"/><circle class="cls-1" cx="470.34" cy="1247.16" r="14.73"/><circle class="cls-1" cx="440.88" cy="1335.56" r="14.73"/><circle class="cls-1" cx="440.88" cy="1306.09" r="14.73"/><circle class="cls-1" cx="440.88" cy="1276.63" r="14.73"/><circle class="cls-1" cx="440.88" cy="1247.16" r="14.73"/><circle class="cls-1" cx="411.41" cy="1335.56" r="14.73"/><circle class="cls-1" cx="411.41" cy="1306.09" r="14.73"/><circle class="cls-1" cx="411.41" cy="1276.63" r="14.73"/><circle class="cls-1" cx="411.41" cy="1247.16" r="14.73"/><circle class="cls-1" cx="381.95" cy="1335.56" r="14.73"/><circle class="cls-1" cx="381.95" cy="1306.09" r="14.73"/><circle class="cls-1" cx="381.95" cy="1276.63" r="14.73"/><circle class="cls-1" cx="381.95" cy="1247.16" r="14.73"/><circle class="cls-1" cx="470.34" cy="1476.79" r="14.73"/><circle class="cls-1" cx="470.34" cy="1447.33" r="14.73"/><circle class="cls-1" cx="470.34" cy="1417.86" r="14.73"/><circle class="cls-1" cx="470.34" cy="1388.4" r="14.73"/><circle class="cls-1" cx="440.88" cy="1476.79" r="14.73"/><circle class="cls-1" cx="440.88" cy="1447.33" r="14.73"/><circle class="cls-1" cx="440.88" cy="1417.86" r="14.73"/><circle class="cls-1" cx="440.88" cy="1388.4" r="14.73"/><circle class="cls-1" cx="411.41" cy="1476.79" r="14.73"/><circle class="cls-1" cx="411.41" cy="1447.33" r="14.73"/><circle class="cls-1" cx="411.41" cy="1417.86" r="14.73"/><circle class="cls-1" cx="411.41" cy="1388.4" r="14.73"/><circle class="cls-1" cx="381.95" cy="1476.79" r="14.73"/><circle class="cls-1" cx="381.95" cy="1447.33" r="14.73"/><circle class="cls-1" cx="381.95" cy="1417.86" r="14.73"/><circle class="cls-1" cx="381.95" cy="1388.4" r="14.73"/><circle class="cls-1" cx="470.34" cy="1618.03" r="14.73"/><circle class="cls-1" cx="470.34" cy="1588.57" r="14.73"/><circle class="cls-1" cx="470.34" cy="1559.1" r="14.73"/><circle class="cls-1" cx="470.34" cy="1529.64" r="14.73"/><circle class="cls-1" cx="440.88" cy="1618.03" r="14.73"/><circle class="cls-1" cx="440.88" cy="1588.57" r="14.73"/><circle class="cls-1" cx="440.88" cy="1559.1" r="14.73"/><circle class="cls-1" cx="440.88" cy="1529.64" r="14.73"/><circle class="cls-1" cx="411.41" cy="1618.03" r="14.73"/><circle class="cls-1" cx="411.41" cy="1588.57" r="14.73"/><circle class="cls-1" cx="411.41" cy="1559.1" r="14.73"/><circle class="cls-1" cx="411.41" cy="1529.64" r="14.73"/><circle class="cls-1" cx="381.95" cy="1618.03" r="14.73"/><circle class="cls-1" cx="381.95" cy="1588.57" r="14.73"/><circle class="cls-1" cx="381.95" cy="1559.1" r="14.73"/><circle class="cls-1" cx="381.95" cy="1529.64" r="14.73"/><circle class="cls-1" cx="470.34" cy="1759.27" r="14.73"/><circle class="cls-1" cx="470.34" cy="1729.8" r="14.73"/><circle class="cls-1" cx="470.34" cy="1700.34" r="14.73"/><circle class="cls-1" cx="470.34" cy="1670.87" r="14.73"/><circle class="cls-1" cx="440.88" cy="1759.27" r="14.73"/><circle class="cls-1" cx="440.88" cy="1729.8" r="14.73"/><circle class="cls-1" cx="440.88" cy="1700.34" r="14.73"/><circle class="cls-1" cx="440.88" cy="1670.87" r="14.73"/><circle class="cls-1" cx="411.41" cy="1759.27" r="14.73"/><circle class="cls-1" cx="411.41" cy="1729.8" r="14.73"/><circle class="cls-1" cx="411.41" cy="1700.34" r="14.73"/><circle class="cls-1" cx="411.41" cy="1670.87" r="14.73"/><circle class="cls-1" cx="381.95" cy="1759.27" r="14.73"/><circle class="cls-1" cx="381.95" cy="1729.8" r="14.73"/><circle class="cls-1" cx="381.95" cy="1700.34" r="14.73"/><circle class="cls-1" cx="381.95" cy="1670.87" r="14.73"/><circle class="cls-1" cx="627.16" cy="770.61" r="14.73"/><circle class="cls-1" cx="627.16" cy="741.15" r="14.73"/><circle class="cls-1" cx="627.16" cy="711.68" r="14.73"/><circle class="cls-1" cx="627.16" cy="682.22" r="14.73"/><circle class="cls-1" cx="597.7" cy="770.61" r="14.73"/><circle class="cls-1" cx="597.7" cy="741.15" r="14.73"/><circle class="cls-1" cx="597.7" cy="711.68" r="14.73"/><circle class="cls-1" cx="597.7" cy="682.22" r="14.73"/><circle class="cls-1" cx="568.23" cy="770.61" r="14.73"/><circle class="cls-1" cx="568.23" cy="741.15" r="14.73"/><circle class="cls-1" cx="568.23" cy="711.68" r="14.73"/><circle class="cls-1" cx="568.23" cy="682.22" r="14.73"/><circle class="cls-1" cx="538.77" cy="770.61" r="14.73"/><circle class="cls-1" cx="538.77" cy="741.15" r="14.73"/><circle class="cls-1" cx="538.77" cy="711.68" r="14.73"/><circle class="cls-1" cx="538.77" cy="682.22" r="14.73"/><circle class="cls-1" cx="627.16" cy="911.85" r="14.73"/><circle class="cls-1" cx="627.16" cy="882.38" r="14.73"/><circle class="cls-1" cx="627.16" cy="852.92" r="14.73"/><circle class="cls-1" cx="627.16" cy="823.45" r="14.73"/><circle class="cls-1" cx="597.7" cy="911.85" r="14.73"/><circle class="cls-1" cx="597.7" cy="882.38" r="14.73"/><circle class="cls-1" cx="597.7" cy="852.92" r="14.73"/><circle class="cls-1" cx="597.7" cy="823.45" r="14.73"/><circle class="cls-1" cx="568.23" cy="911.85" r="14.73"/><circle class="cls-1" cx="568.23" cy="882.38" r="14.73"/><circle class="cls-1" cx="568.23" cy="852.92" r="14.73"/><circle class="cls-1" cx="568.23" cy="823.45" r="14.73"/><circle class="cls-1" cx="538.77" cy="911.85" r="14.73"/><circle class="cls-1" cx="538.77" cy="882.38" r="14.73"/><circle class="cls-1" cx="538.77" cy="852.92" r="14.73"/><circle class="cls-1" cx="538.77" cy="823.45" r="14.73"/><circle class="cls-1" cx="627.16" cy="1053.08" r="14.73"/><circle class="cls-1" cx="627.16" cy="1023.62" r="14.73"/><circle class="cls-1" cx="627.16" cy="994.15" r="14.73"/><circle class="cls-1" cx="627.16" cy="964.69" r="14.73"/><circle class="cls-1" cx="597.7" cy="1053.08" r="14.73"/><circle class="cls-1" cx="597.7" cy="1023.62" r="14.73"/><circle class="cls-1" cx="597.7" cy="994.15" r="14.73"/><circle class="cls-1" cx="597.7" cy="964.69" r="14.73"/><circle class="cls-1" cx="568.23" cy="1053.08" r="14.73"/><circle class="cls-1" cx="568.23" cy="1023.62" r="14.73"/><circle class="cls-1" cx="568.23" cy="994.15" r="14.73"/><circle class="cls-1" cx="568.23" cy="964.69" r="14.73"/><circle class="cls-1" cx="538.77" cy="1053.08" r="14.73"/><circle class="cls-1" cx="538.77" cy="1023.62" r="14.73"/><circle class="cls-1" cx="538.77" cy="994.15" r="14.73"/><circle class="cls-1" cx="538.77" cy="964.69" r="14.73"/><circle class="cls-1" cx="627.16" cy="1194.32" r="14.73"/><circle class="cls-1" cx="627.16" cy="1164.86" r="14.73"/><circle class="cls-1" cx="627.16" cy="1135.39" r="14.73"/><circle class="cls-1" cx="627.16" cy="1105.93" r="14.73"/><circle class="cls-1" cx="597.7" cy="1194.32" r="14.73"/><circle class="cls-1" cx="597.7" cy="1164.86" r="14.73"/><circle class="cls-1" cx="597.7" cy="1135.39" r="14.73"/><circle class="cls-1" cx="597.7" cy="1105.93" r="14.73"/><circle class="cls-1" cx="568.23" cy="1194.32" r="14.73"/><circle class="cls-1" cx="568.23" cy="1164.86" r="14.73"/><circle class="cls-1" cx="568.23" cy="1135.39" r="14.73"/><circle class="cls-1" cx="568.23" cy="1105.93" r="14.73"/><circle class="cls-1" cx="538.77" cy="1194.32" r="14.73"/><circle class="cls-1" cx="538.77" cy="1164.86" r="14.73"/><circle class="cls-1" cx="538.77" cy="1135.39" r="14.73"/><circle class="cls-1" cx="538.77" cy="1105.93" r="14.73"/><circle class="cls-1" cx="627.16" cy="1335.56" r="14.73"/><circle class="cls-1" cx="627.16" cy="1306.09" r="14.73"/><circle class="cls-1" cx="627.16" cy="1276.63" r="14.73"/><circle class="cls-1" cx="627.16" cy="1247.16" r="14.73"/><circle class="cls-1" cx="597.7" cy="1335.56" r="14.73"/><circle class="cls-1" cx="597.7" cy="1306.09" r="14.73"/><circle class="cls-1" cx="597.7" cy="1276.63" r="14.73"/><circle class="cls-1" cx="597.7" cy="1247.16" r="14.73"/><circle class="cls-1" cx="568.23" cy="1335.56" r="14.73"/><circle class="cls-1" cx="568.23" cy="1306.09" r="14.73"/><circle class="cls-1" cx="568.23" cy="1276.63" r="14.73"/><circle class="cls-1" cx="568.23" cy="1247.16" r="14.73"/><circle class="cls-1" cx="538.77" cy="1335.56" r="14.73"/><circle class="cls-1" cx="538.77" cy="1306.09" r="14.73"/><circle class="cls-1" cx="538.77" cy="1276.63" r="14.73"/><circle class="cls-1" cx="538.77" cy="1247.16" r="14.73"/><circle class="cls-1" cx="627.16" cy="1476.79" r="14.73"/><circle class="cls-1" cx="627.16" cy="1447.33" r="14.73"/><circle class="cls-1" cx="627.16" cy="1417.86" r="14.73"/><circle class="cls-1" cx="627.16" cy="1388.4" r="14.73"/><circle class="cls-1" cx="597.7" cy="1476.79" r="14.73"/><circle class="cls-1" cx="597.7" cy="1447.33" r="14.73"/><circle class="cls-1" cx="597.7" cy="1417.86" r="14.73"/><circle class="cls-1" cx="597.7" cy="1388.4" r="14.73"/><circle class="cls-1" cx="568.23" cy="1476.79" r="14.73"/><circle class="cls-1" cx="568.23" cy="1447.33" r="14.73"/><circle class="cls-1" cx="568.23" cy="1417.86" r="14.73"/><circle class="cls-1" cx="568.23" cy="1388.4" r="14.73"/><circle class="cls-1" cx="538.77" cy="1476.79" r="14.73"/><circle class="cls-1" cx="538.77" cy="1447.33" r="14.73"/><circle class="cls-1" cx="538.77" cy="1417.86" r="14.73"/><circle class="cls-1" cx="538.77" cy="1388.4" r="14.73"/><circle class="cls-1" cx="627.16" cy="1618.03" r="14.73"/><circle class="cls-1" cx="627.16" cy="1588.57" r="14.73"/><circle class="cls-1" cx="627.16" cy="1559.1" r="14.73"/><circle class="cls-1" cx="627.16" cy="1529.64" r="14.73"/><circle class="cls-1" cx="597.7" cy="1618.03" r="14.73"/><circle class="cls-1" cx="597.7" cy="1588.57" r="14.73"/><circle class="cls-1" cx="597.7" cy="1559.1" r="14.73"/><circle class="cls-1" cx="597.7" cy="1529.64" r="14.73"/><circle class="cls-1" cx="568.23" cy="1618.03" r="14.73"/><circle class="cls-1" cx="568.23" cy="1588.57" r="14.73"/><circle class="cls-1" cx="568.23" cy="1559.1" r="14.73"/><circle class="cls-1" cx="568.23" cy="1529.64" r="14.73"/><circle class="cls-1" cx="538.77" cy="1618.03" r="14.73"/><circle class="cls-1" cx="538.77" cy="1588.57" r="14.73"/><circle class="cls-1" cx="538.77" cy="1559.1" r="14.73"/><circle class="cls-1" cx="538.77" cy="1529.64" r="14.73"/><circle class="cls-1" cx="627.16" cy="1759.27" r="14.73"/><circle class="cls-1" cx="627.16" cy="1729.8" r="14.73"/><circle class="cls-1" cx="627.16" cy="1700.34" r="14.73"/><circle class="cls-1" cx="627.16" cy="1670.87" r="14.73"/><circle class="cls-1" cx="597.7" cy="1759.27" r="14.73"/><circle class="cls-1" cx="597.7" cy="1729.8" r="14.73"/><circle class="cls-1" cx="597.7" cy="1700.34" r="14.73"/><circle class="cls-1" cx="597.7" cy="1670.87" r="14.73"/><circle class="cls-1" cx="568.23" cy="1759.27" r="14.73"/><circle class="cls-1" cx="568.23" cy="1729.8" r="14.73"/><circle class="cls-1" cx="568.23" cy="1700.34" r="14.73"/><circle class="cls-1" cx="568.23" cy="1670.87" r="14.73"/><circle class="cls-1" cx="538.77" cy="1759.27" r="14.73"/><circle class="cls-1" cx="538.77" cy="1729.8" r="14.73"/><circle class="cls-1" cx="538.77" cy="1700.34" r="14.73"/><circle class="cls-1" cx="538.77" cy="1670.87" r="14.73"/><circle class="cls-1" cx="259.95" cy="526.84" r="14.73"/><circle class="cls-1" cx="259.95" cy="497.37" r="14.73"/><circle class="cls-1" cx="259.95" cy="467.91" r="14.73"/><circle class="cls-1" cx="259.95" cy="438.44" r="14.73"/><circle class="cls-1" cx="230.48" cy="526.84" r="14.73"/><circle class="cls-1" cx="230.48" cy="497.37" r="14.73"/><circle class="cls-1" cx="230.48" cy="467.91" r="14.73"/><circle class="cls-1" cx="230.48" cy="438.44" r="14.73"/><circle class="cls-1" cx="201.02" cy="526.84" r="14.73"/><circle class="cls-1" cx="201.02" cy="497.37" r="14.73"/><circle class="cls-1" cx="201.02" cy="467.91" r="14.73"/><circle class="cls-1" cx="201.02" cy="438.44" r="14.73"/><circle class="cls-1" cx="171.55" cy="526.84" r="14.73"/><circle class="cls-1" cx="171.55" cy="497.37" r="14.73"/><circle class="cls-1" cx="171.55" cy="467.91" r="14.73"/><circle class="cls-1" cx="171.55" cy="438.44" r="14.73"/><circle class="cls-1" cx="259.95" cy="385.6" r="14.73"/><circle class="cls-1" cx="259.95" cy="356.14" r="14.73"/><circle class="cls-1" cx="259.95" cy="326.67" r="14.73"/><circle class="cls-1" cx="259.95" cy="297.21" r="14.73"/><circle class="cls-1" cx="230.48" cy="385.6" r="14.73"/><circle class="cls-1" cx="230.48" cy="356.14" r="14.73"/><circle class="cls-1" cx="230.48" cy="326.67" r="14.73"/><circle class="cls-1" cx="230.48" cy="297.21" r="14.73"/><circle class="cls-1" cx="201.02" cy="385.6" r="14.73"/><circle class="cls-1" cx="201.02" cy="356.14" r="14.73"/><circle class="cls-1" cx="201.02" cy="326.67" r="14.73"/><circle class="cls-1" cx="201.02" cy="297.21" r="14.73"/><circle class="cls-1" cx="171.55" cy="385.6" r="14.73"/><circle class="cls-1" cx="171.55" cy="356.14" r="14.73"/><circle class="cls-1" cx="171.55" cy="326.67" r="14.73"/><circle class="cls-1" cx="171.55" cy="297.21" r="14.73"/><circle class="cls-1" cx="259.95" cy="244.36" r="14.73"/><circle class="cls-1" cx="259.95" cy="214.9" r="14.73"/><circle class="cls-1" cx="259.95" cy="185.43" r="14.73"/><circle class="cls-1" cx="259.95" cy="155.97" r="14.73"/><circle class="cls-1" cx="230.48" cy="244.36" r="14.73"/><circle class="cls-1" cx="230.48" cy="214.9" r="14.73"/><circle class="cls-1" cx="230.48" cy="185.43" r="14.73"/><circle class="cls-1" cx="230.48" cy="155.97" r="14.73"/><circle class="cls-1" cx="201.02" cy="244.36" r="14.73"/><circle class="cls-1" cx="201.02" cy="214.9" r="14.73"/><circle class="cls-1" cx="201.02" cy="185.43" r="14.73"/><circle class="cls-1" cx="201.02" cy="155.97" r="14.73"/><circle class="cls-1" cx="171.55" cy="244.36" r="14.73"/><circle class="cls-1" cx="171.55" cy="214.9" r="14.73"/><circle class="cls-1" cx="171.55" cy="185.43" r="14.73"/><circle class="cls-1" cx="171.55" cy="155.97" r="14.73"/><circle class="cls-1" cx="259.95" cy="103.13" r="14.73"/><circle class="cls-1" cx="259.95" cy="73.66" r="14.73"/><circle class="cls-1" cx="259.95" cy="44.2" r="14.73"/><circle class="cls-1" cx="259.95" cy="14.73" r="14.73"/><circle class="cls-1" cx="230.48" cy="103.13" r="14.73"/><circle class="cls-1" cx="230.48" cy="73.66" r="14.73"/><circle class="cls-1" cx="230.48" cy="44.2" r="14.73"/><circle class="cls-1" cx="230.48" cy="14.73" r="14.73"/><circle class="cls-1" cx="201.02" cy="103.13" r="14.73"/><circle class="cls-1" cx="201.02" cy="73.66" r="14.73"/><circle class="cls-1" cx="201.02" cy="44.2" r="14.73"/><circle class="cls-1" cx="201.02" cy="14.73" r="14.73"/><circle class="cls-1" cx="171.55" cy="103.13" r="14.73"/><circle class="cls-1" cx="171.55" cy="73.66" r="14.73"/><circle class="cls-1" cx="171.55" cy="44.2" r="14.73"/><circle class="cls-1" cx="171.55" cy="14.73" r="14.73"/><circle class="cls-1" cx="470.34" cy="103.13" r="14.73"/><circle class="cls-1" cx="470.34" cy="73.66" r="14.73"/><circle class="cls-1" cx="470.34" cy="44.2" r="14.73"/><circle class="cls-1" cx="470.34" cy="14.73" r="14.73"/><circle class="cls-1" cx="440.88" cy="103.13" r="14.73"/><circle class="cls-1" cx="440.88" cy="73.66" r="14.73"/><circle class="cls-1" cx="440.88" cy="44.2" r="14.73"/><circle class="cls-1" cx="440.88" cy="14.73" r="14.73"/><circle class="cls-1" cx="411.41" cy="103.13" r="14.73"/><circle class="cls-1" cx="411.41" cy="73.66" r="14.73"/><circle class="cls-1" cx="411.41" cy="44.2" r="14.73"/><circle class="cls-1" cx="411.41" cy="14.73" r="14.73"/><circle class="cls-1" cx="381.95" cy="103.13" r="14.73"/><circle class="cls-1" cx="381.95" cy="73.66" r="14.73"/><circle class="cls-1" cx="381.95" cy="44.2" r="14.73"/><circle class="cls-1" cx="381.95" cy="14.73" r="14.73"/><circle class="cls-1" cx="470.34" cy="244.36" r="14.73"/><circle class="cls-1" cx="470.34" cy="214.9" r="14.73"/><circle class="cls-1" cx="470.34" cy="185.43" r="14.73"/><circle class="cls-1" cx="470.34" cy="155.97" r="14.73"/><circle class="cls-1" cx="440.88" cy="244.36" r="14.73"/><circle class="cls-1" cx="440.88" cy="214.9" r="14.73"/><circle class="cls-1" cx="440.88" cy="185.43" r="14.73"/><circle class="cls-1" cx="440.88" cy="155.97" r="14.73"/><circle class="cls-1" cx="411.41" cy="244.36" r="14.73"/><circle class="cls-1" cx="411.41" cy="214.9" r="14.73"/><circle class="cls-1" cx="411.41" cy="185.43" r="14.73"/><circle class="cls-1" cx="411.41" cy="155.97" r="14.73"/><circle class="cls-1" cx="381.95" cy="244.36" r="14.73"/><circle class="cls-1" cx="381.95" cy="214.9" r="14.73"/><circle class="cls-1" cx="381.95" cy="185.43" r="14.73"/><circle class="cls-1" cx="381.95" cy="155.97" r="14.73"/><circle class="cls-1" cx="470.34" cy="385.6" r="14.73"/><circle class="cls-1" cx="470.34" cy="356.14" r="14.73"/><circle class="cls-1" cx="470.34" cy="326.67" r="14.73"/><circle class="cls-1" cx="470.34" cy="297.21" r="14.73"/><circle class="cls-1" cx="440.88" cy="385.6" r="14.73"/><circle class="cls-1" cx="440.88" cy="356.14" r="14.73"/><circle class="cls-1" cx="440.88" cy="326.67" r="14.73"/><circle class="cls-1" cx="440.88" cy="297.21" r="14.73"/><circle class="cls-1" cx="411.41" cy="385.6" r="14.73"/><circle class="cls-1" cx="411.41" cy="356.14" r="14.73"/><circle class="cls-1" cx="411.41" cy="326.67" r="14.73"/><circle class="cls-1" cx="411.41" cy="297.21" r="14.73"/><circle class="cls-1" cx="381.95" cy="385.6" r="14.73"/><circle class="cls-1" cx="381.95" cy="356.14" r="14.73"/><circle class="cls-1" cx="381.95" cy="326.67" r="14.73"/><circle class="cls-1" cx="381.95" cy="297.21" r="14.73"/><circle class="cls-1" cx="470.34" cy="526.84" r="14.73"/><circle class="cls-1" cx="470.34" cy="497.37" r="14.73"/><circle class="cls-1" cx="470.34" cy="467.91" r="14.73"/><circle class="cls-1" cx="470.34" cy="438.44" r="14.73"/><circle class="cls-1" cx="440.88" cy="526.84" r="14.73"/><circle class="cls-1" cx="440.88" cy="497.37" r="14.73"/><circle class="cls-1" cx="440.88" cy="467.91" r="14.73"/><circle class="cls-1" cx="440.88" cy="438.44" r="14.73"/><circle class="cls-1" cx="411.41" cy="526.84" r="14.73"/><circle class="cls-1" cx="411.41" cy="497.37" r="14.73"/><circle class="cls-1" cx="411.41" cy="467.91" r="14.73"/><circle class="cls-1" cx="411.41" cy="438.44" r="14.73"/><circle class="cls-1" cx="381.95" cy="526.84" r="14.73"/><circle class="cls-1" cx="381.95" cy="497.37" r="14.73"/><circle class="cls-1" cx="381.95" cy="467.91" r="14.73"/><circle class="cls-1" cx="381.95" cy="438.44" r="14.73"/><circle class="cls-1" cx="627.16" cy="526.84" r="14.73"/><circle class="cls-1" cx="627.16" cy="497.37" r="14.73"/><circle class="cls-1" cx="627.16" cy="467.91" r="14.73"/><circle class="cls-1" cx="627.16" cy="438.44" r="14.73"/><circle class="cls-1" cx="597.7" cy="526.84" r="14.73"/><circle class="cls-1" cx="597.7" cy="497.37" r="14.73"/><circle class="cls-1" cx="597.7" cy="467.91" r="14.73"/><circle class="cls-1" cx="597.7" cy="438.44" r="14.73"/><circle class="cls-1" cx="568.23" cy="526.84" r="14.73"/><circle class="cls-1" cx="568.23" cy="497.37" r="14.73"/><circle class="cls-1" cx="568.23" cy="467.91" r="14.73"/><circle class="cls-1" cx="568.23" cy="438.44" r="14.73"/><circle class="cls-1" cx="538.77" cy="526.84" r="14.73"/><circle class="cls-1" cx="538.77" cy="497.37" r="14.73"/><circle class="cls-1" cx="538.77" cy="467.91" r="14.73"/><circle class="cls-1" cx="538.77" cy="438.44" r="14.73"/><circle class="cls-1" cx="627.16" cy="385.6" r="14.73"/><circle class="cls-1" cx="627.16" cy="356.14" r="14.73"/><circle class="cls-1" cx="627.16" cy="326.67" r="14.73"/><circle class="cls-1" cx="627.16" cy="297.21" r="14.73"/><circle class="cls-1" cx="597.7" cy="385.6" r="14.73"/><circle class="cls-1" cx="597.7" cy="356.14" r="14.73"/><circle class="cls-1" cx="597.7" cy="326.67" r="14.73"/><circle class="cls-1" cx="597.7" cy="297.21" r="14.73"/><circle class="cls-1" cx="568.23" cy="385.6" r="14.73"/><circle class="cls-1" cx="568.23" cy="356.14" r="14.73"/><circle class="cls-1" cx="568.23" cy="326.67" r="14.73"/><circle class="cls-1" cx="568.23" cy="297.21" r="14.73"/><circle class="cls-1" cx="538.77" cy="385.6" r="14.73"/><circle class="cls-1" cx="538.77" cy="356.14" r="14.73"/><circle class="cls-1" cx="538.77" cy="326.67" r="14.73"/><circle class="cls-1" cx="538.77" cy="297.21" r="14.73"/><circle class="cls-1" cx="627.16" cy="244.36" r="14.73"/><circle class="cls-1" cx="627.16" cy="214.9" r="14.73"/><circle class="cls-1" cx="627.16" cy="185.43" r="14.73"/><circle class="cls-1" cx="627.16" cy="155.97" r="14.73"/><circle class="cls-1" cx="597.7" cy="244.36" r="14.73"/><circle class="cls-1" cx="597.7" cy="214.9" r="14.73"/><circle class="cls-1" cx="597.7" cy="185.43" r="14.73"/><circle class="cls-1" cx="597.7" cy="155.97" r="14.73"/><circle class="cls-1" cx="568.23" cy="244.36" r="14.73"/><circle class="cls-1" cx="568.23" cy="214.9" r="14.73"/><circle class="cls-1" cx="568.23" cy="185.43" r="14.73"/><circle class="cls-1" cx="568.23" cy="155.97" r="14.73"/><circle class="cls-1" cx="538.77" cy="244.36" r="14.73"/><circle class="cls-1" cx="538.77" cy="214.9" r="14.73"/><circle class="cls-1" cx="538.77" cy="185.43" r="14.73"/><circle class="cls-1" cx="538.77" cy="155.97" r="14.73"/><circle class="cls-1" cx="627.16" cy="103.13" r="14.73"/><circle class="cls-1" cx="627.16" cy="73.66" r="14.73"/><circle class="cls-1" cx="627.16" cy="44.2" r="14.73"/><circle class="cls-1" cx="627.16" cy="14.73" r="14.73"/><circle class="cls-1" cx="597.7" cy="103.13" r="14.73"/><circle class="cls-1" cx="597.7" cy="73.66" r="14.73"/><circle class="cls-1" cx="597.7" cy="44.2" r="14.73"/><circle class="cls-1" cx="597.7" cy="14.73" r="14.73"/><circle class="cls-1" cx="568.23" cy="103.13" r="14.73"/><circle class="cls-1" cx="568.23" cy="73.66" r="14.73"/><circle class="cls-1" cx="568.23" cy="44.2" r="14.73"/><circle class="cls-1" cx="568.23" cy="14.73" r="14.73"/><circle class="cls-1" cx="538.77" cy="103.13" r="14.73"/><circle class="cls-1" cx="538.77" cy="73.66" r="14.73"/><circle class="cls-1" cx="538.77" cy="44.2" r="14.73"/><circle class="cls-1" cx="538.77" cy="14.73" r="14.73"/></g></g></g></svg>