<svg xmlns="http://www.w3.org/2000/svg" viewBox="0 0 705 486"><defs><style>.cls-1{fill:#acce89;opacity:0.75;}</style></defs><title>hawthorn_garden</title><g id="Layer_2" data-name="Layer 2"><g id="Layer_2-2" data-name="Layer 2"><rect class="cls-1" y="434" width="29" height="52"/><rect class="cls-1" y="372" width="29" height="52"/><rect class="cls-1" x="39" y="434" width="29" height="52"/><rect class="cls-1" x="39" y="372" width="29" height="52"/><rect class="cls-1" x="39" y="310" width="29" height="52"/><rect class="cls-1" x="78" y="434" width="29" height="52"/><rect class="cls-1" x="78" y="372" width="29" height="52"/><rect class="cls-1" x="78" y="310" width="29" height="52"/><rect class="cls-1" x="78" y="248" width="29" height="52"/><rect class="cls-1" x="117" y="434" width="29" height="52"/><rect class="cls-1" x="117" y="372" width="29" height="52"/><rect class="cls-1" x="117" y="310" width="29" height="52"/><rect class="cls-1" x="117" y="248" width="29" height="52"/><rect class="cls-1" x="117" y="186" width="29" height="52"/><rect class="cls-1" x="117" y="124" width="29" height="52"/><rect class="cls-1" x="156" y="434" width="29" height="52"/><rect class="cls-1" x="156" y="372" width="29" height="52"/><rect class="cls-1" x="156" y="310" width="29" height="52"/><rect class="cls-1" x="156" y="248" width="29" height="52"/><rect class="cls-1" x="156" y="186" width="29" height="52"/><rect class="cls-1" x="156" y="124" width="29" height="52"/><rect class="cls-1" x="156" y="62" width="29" height="52"/><rect class="cls-1" x="195" y="434" width="29" height="52"/><rect class="cls-1" x="195" y="372" width="29" height="52"/><rect class="cls-1" x="195" y="310" width="29" height="52"/><rect class="cls-1" x="195" y="248" width="29" height="52"/><rect class="cls-1" x="195" y="186" width="29" height="52"/><rect class="cls-1" x="195" y="124" width="29" height="52"/><rect class="cls-1" x="195" y="62" width="29" height="52"/><rect class="cls-1" x="195" width="29" height="52"/><rect class="cls-1" x="234" y="434" width="29" height="52"/><rect class="cls-1" x="234" y="372" width="29" height="52"/><rect class="cls-1" x="234" y="310" width="29" height="52"/><rect class="cls-1" x="234" y="248" width="29" height="52"/><rect class="cls-1" x="234" y="186" width="29" height="52"/><rect class="cls-1" x="234" y="124" width="29" height="52"/><rect class="cls-1" x="234" y="62" width="29" height="52"/><rect class="cls-1" x="234" width="29" height="52"/><rect class="cls-1" x="273" y="434" width="29" height="52"/><rect class="cls-1" x="273" y="372" width="29" height="52"/><rect class="cls-1" x="273" y="310" width="29" height="52"/><rect class="cls-1" x="273" y="248" width="29" height="52"/><rect class="cls-1" x="273" y="186" width="29" height="52"/><rect class="cls-1" x="273" y="124" width="29" height="52"/><rect class="cls-1" x="273" y="62" width="29" height="52"/><rect class="cls-1" x="273" width="29" height="52"/><rect class="cls-1" x="312" y="434" width="29" height="52"/><rect class="cls-1" x="312" y="372" width="29" height="52"/><rect class="cls-1" x="312" y="310" width="29" height="52"/><rect class="cls-1" x="312" y="248" width="29" height="52"/><rect class="cls-1" x="312" y="186" width="29" height="52"/><rect class="cls-1" x="312" y="124" width="29" height="52"/><rect class="cls-1" x="312" y="62" width="29" height="52"/><rect class="cls-1" x="312" width="29" height="52"/><rect class="cls-1" x="351" y="434" width="29" height="52"/><rect class="cls-1" x="351" y="372" width="29" height="52"/><rect class="cls-1" x="351" y="310" width="29" height="52"/><rect class="cls-1" x="351" y="248" width="29" height="52"/><rect class="cls-1" x="351" y="186" width="29" height="52"/><rect class="cls-1" x="351" y="124" width="29" height="52"/><rect class="cls-1" x="351" y="62" width="29" height="52"/><rect class="cls-1" x="351" width="29" height="52"/><rect class="cls-1" x="390" y="434" width="29" height="52"/><rect class="cls-1" x="390" y="372" width="29" height="52"/><rect class="cls-1" x="390" y="310" width="29" height="52"/><rect class="cls-1" x="390" y="248" width="29" height="52"/><rect class="cls-1" x="390" y="186" width="29" height="52"/><rect class="cls-1" x="390" y="124" width="29" height="52"/><rect class="cls-1" x="390" y="62" width="29" height="52"/><rect class="cls-1" x="390" width="29" height="52"/><rect class="cls-1" x="442" y="434" width="29" height="52"/><rect class="cls-1" x="442" y="372" width="29" height="52"/><rect class="cls-1" x="442" y="310" width="29" height="52"/><rect class="cls-1" x="442" y="248" width="29" height="52"/><rect class="cls-1" x="442" y="186" width="29" height="52"/><rect class="cls-1" x="442" y="124" width="29" height="52"/><rect class="cls-1" x="442" y="62" width="29" height="52"/><rect class="cls-1" x="442" width="29" height="52"/><rect class="cls-1" x="481" y="434" width="29" height="52"/><rect class="cls-1" x="481" y="372" width="29" height="52"/><rect class="cls-1" x="481" y="310" width="29" height="52"/><rect class="cls-1" x="481" y="248" width="29" height="52"/><rect class="cls-1" x="481" y="186" width="29" height="52"/><rect class="cls-1" x="481" y="124" width="29" height="52"/><rect class="cls-1" x="481" y="62" width="29" height="52"/><rect class="cls-1" x="481" width="29" height="52"/><rect class="cls-1" x="520" y="434" width="29" height="52"/><rect class="cls-1" x="520" y="372" width="29" height="52"/><rect class="cls-1" x="520" y="310" width="29" height="52"/><rect class="cls-1" x="520" y="248" width="29" height="52"/><rect class="cls-1" x="520" y="186" width="29" height="52"/><rect class="cls-1" x="520" y="124" width="29" height="52"/><rect class="cls-1" x="520" y="62" width="29" height="52"/><rect class="cls-1" x="520" width="29" height="52"/><rect class="cls-1" x="559" y="434" width="29" height="52"/><rect class="cls-1" x="559" y="372" width="29" height="52"/><rect class="cls-1" x="559" y="310" width="29" height="52"/><rect class="cls-1" x="559" y="248" width="29" height="52"/><rect class="cls-1" x="559" y="186" width="29" height="52"/><rect class="cls-1" x="559" y="124" width="29" height="52"/><rect class="cls-1" x="559" y="62" width="29" height="52"/><rect class="cls-1" x="559" width="29" height="52"/><rect class="cls-1" x="598" y="434" width="29" height="52"/><rect class="cls-1" x="598" y="372" width="29" height="52"/><rect class="cls-1" x="598" y="310" width="29" height="52"/><rect class="cls-1" x="598" y="248" width="29" height="52"/><rect class="cls-1" x="598" y="186" width="29" height="52"/><rect class="cls-1" x="598" y="124" width="29" height="52"/><rect class="cls-1" x="598" y="62" width="29" height="52"/><rect class="cls-1" x="598" width="29" height="52"/><rect class="cls-1" x="637" y="434" width="29" height="52"/><rect class="cls-1" x="637" y="372" width="29" height="52"/><rect class="cls-1" x="637" y="310" width="29" height="52"/><rect class="cls-1" x="637" y="248" width="29" height="52"/><rect class="cls-1" x="637" y="186" width="29" height="52"/><rect class="cls-1" x="637" y="124" width="29" height="52"/><rect class="cls-1" x="637" y="62" width="29" height="52"/><rect class="cls-1" x="637" width="29" height="52"/><rect class="cls-1" x="676" y="434" width="29" height="52"/><rect class="cls-1" x="676" y="372" width="29" height="52"/><rect class="cls-1" x="676" y="310" width="29" height="52"/><rect class="cls-1" x="676" y="248" width="29" height="52"/><rect class="cls-1" x="676" y="186" width="29" height="52"/><rect class="cls-1" x="676" y="124" width="29" height="52"/><rect class="cls-1" x="676" y="62" width="29" height="52"/><rect class="cls-1" x="676" width="29" height="52"/></g></g></svg>