<svg xmlns="http://www.w3.org/2000/svg" viewBox="0 0 934.14 1661.66">
  <title>kerr_map</title>
  <g id="Layer_2" data-name="Layer 2">
    <g id="kerr">
      <g id="Layer_20" data-name="Layer 20">
        <g id="p22">
          <circle cx="794.83" cy="139.31" r="19.9" style="fill: #e6e6e6"/>
          <circle cx="834.63" cy="139.31" r="19.9" style="fill: #e6e6e6"/>
          <circle cx="874.43" cy="139.31" r="19.9" style="fill: #e6e6e6"/>
          <circle cx="914.24" cy="139.31" r="19.9" style="fill: #e6e6e6"/>
          <circle cx="794.83" cy="99.51" r="19.9" style="fill: #e6e6e6"/>
          <circle cx="834.63" cy="99.51" r="19.9" style="fill: #e6e6e6"/>
          <circle cx="874.43" cy="99.51" r="19.9" style="fill: #e6e6e6"/>
          <circle cx="914.24" cy="99.51" r="19.9" style="fill: #e6e6e6"/>
          <circle cx="794.83" cy="59.7" r="19.9" style="fill: #e6e6e6"/>
          <circle cx="834.63" cy="59.7" r="19.9" style="fill: #e6e6e6"/>
          <circle cx="874.43" cy="59.7" r="19.9" style="fill: #e6e6e6"/>
          <circle cx="914.24" cy="59.7" r="19.9" style="fill: #e6e6e6"/>
          <circle cx="794.83" cy="19.9" r="19.9" style="fill: #e6e6e6"/>
          <circle cx="834.63" cy="19.9" r="19.9" style="fill: #e6e6e6"/>
          <circle cx="874.43" cy="19.9" r="19.9" style="fill: #e6e6e6"/>
          <circle cx="914.24" cy="19.9" r="19.9" style="fill: #e6e6e6"/>
        </g>
        <g id="p22-2" data-name="p22">
          <circle cx="794.83" cy="327.12" r="19.9" style="fill: #e6e6e6"/>
          <circle cx="834.63" cy="327.12" r="19.9" style="fill: #e6e6e6"/>
          <circle cx="874.43" cy="327.12" r="19.9" style="fill: #e6e6e6"/>
          <circle cx="914.24" cy="327.12" r="19.9" style="fill: #e6e6e6"/>
          <circle cx="794.83" cy="287.31" r="19.9" style="fill: #e6e6e6"/>
          <circle cx="834.63" cy="287.31" r="19.9" style="fill: #e6e6e6"/>
          <circle cx="874.43" cy="287.31" r="19.9" style="fill: #e6e6e6"/>
          <circle cx="914.24" cy="287.31" r="19.9" style="fill: #e6e6e6"/>
          <circle cx="794.83" cy="247.51" r="19.9" style="fill: #e6e6e6"/>
          <circle cx="834.63" cy="247.51" r="19.9" style="fill: #e6e6e6"/>
          <circle cx="874.43" cy="247.51" r="19.9" style="fill: #e6e6e6"/>
          <circle cx="914.24" cy="247.51" r="19.9" style="fill: #e6e6e6"/>
          <circle cx="794.83" cy="207.71" r="19.9" style="fill: #e6e6e6"/>
          <circle cx="834.63" cy="207.71" r="19.9" style="fill: #e6e6e6"/>
          <circle cx="874.43" cy="207.71" r="19.9" style="fill: #e6e6e6"/>
          <circle cx="914.24" cy="207.71" r="19.9" style="fill: #e6e6e6"/>
        </g>
        <g id="p22-3" data-name="p22">
          <circle cx="794.83" cy="514.92" r="19.9" style="fill: #e6e6e6"/>
          <circle cx="834.63" cy="514.92" r="19.9" style="fill: #e6e6e6"/>
          <circle cx="874.43" cy="514.92" r="19.9" style="fill: #e6e6e6"/>
          <circle cx="914.24" cy="514.92" r="19.9" style="fill: #e6e6e6"/>
          <circle cx="794.83" cy="475.12" r="19.9" style="fill: #e6e6e6"/>
          <circle cx="834.63" cy="475.12" r="19.9" style="fill: #e6e6e6"/>
          <circle cx="874.43" cy="475.12" r="19.9" style="fill: #e6e6e6"/>
          <circle cx="914.24" cy="475.12" r="19.9" style="fill: #e6e6e6"/>
          <circle cx="794.83" cy="435.32" r="19.9" style="fill: #e6e6e6"/>
          <circle cx="834.63" cy="435.32" r="19.9" style="fill: #e6e6e6"/>
          <circle cx="874.43" cy="435.32" r="19.9" style="fill: #e6e6e6"/>
          <circle cx="914.24" cy="435.32" r="19.9" style="fill: #e6e6e6"/>
          <circle cx="794.83" cy="395.51" r="19.9" style="fill: #e6e6e6"/>
          <circle cx="834.63" cy="395.51" r="19.9" style="fill: #e6e6e6"/>
          <circle cx="874.43" cy="395.51" r="19.9" style="fill: #e6e6e6"/>
          <circle cx="914.24" cy="395.51" r="19.9" style="fill: #e6e6e6"/>
        </g>
        <g id="p22-4" data-name="p22">
          <circle cx="794.83" cy="702.73" r="19.9" style="fill: #e6e6e6"/>
          <circle cx="834.63" cy="702.73" r="19.9" style="fill: #e6e6e6"/>
          <circle cx="874.43" cy="702.73" r="19.9" style="fill: #e6e6e6"/>
          <circle cx="914.24" cy="702.73" r="19.9" style="fill: #e6e6e6"/>
          <circle cx="794.83" cy="662.92" r="19.9" style="fill: #e6e6e6"/>
          <circle cx="834.63" cy="662.92" r="19.9" style="fill: #e6e6e6"/>
          <circle cx="874.43" cy="662.92" r="19.9" style="fill: #e6e6e6"/>
          <circle cx="914.24" cy="662.92" r="19.9" style="fill: #e6e6e6"/>
          <circle cx="794.83" cy="623.12" r="19.9" style="fill: #e6e6e6"/>
          <circle cx="834.63" cy="623.12" r="19.9" style="fill: #e6e6e6"/>
          <circle cx="874.43" cy="623.12" r="19.9" style="fill: #e6e6e6"/>
          <circle cx="914.24" cy="623.12" r="19.9" style="fill: #e6e6e6"/>
          <circle cx="794.83" cy="583.32" r="19.9" style="fill: #e6e6e6"/>
          <circle cx="834.63" cy="583.32" r="19.9" style="fill: #e6e6e6"/>
          <circle cx="874.43" cy="583.32" r="19.9" style="fill: #e6e6e6"/>
          <circle cx="914.24" cy="583.32" r="19.9" style="fill: #e6e6e6"/>
        </g>
        <g id="p22-5" data-name="p22">
          <circle cx="794.83" cy="890.53" r="19.9" style="fill: #e6e6e6"/>
          <circle cx="834.63" cy="890.53" r="19.9" style="fill: #e6e6e6"/>
          <circle cx="874.43" cy="890.53" r="19.9" style="fill: #e6e6e6"/>
          <circle cx="914.24" cy="890.53" r="19.9" style="fill: #e6e6e6"/>
          <circle cx="794.83" cy="850.73" r="19.9" style="fill: #e6e6e6"/>
          <circle cx="834.63" cy="850.73" r="19.9" style="fill: #e6e6e6"/>
          <circle cx="874.43" cy="850.73" r="19.9" style="fill: #e6e6e6"/>
          <circle cx="914.24" cy="850.73" r="19.9" style="fill: #e6e6e6"/>
          <circle cx="794.83" cy="810.93" r="19.9" style="fill: #e6e6e6"/>
          <circle cx="834.63" cy="810.93" r="19.9" style="fill: #e6e6e6"/>
          <circle cx="874.43" cy="810.93" r="19.9" style="fill: #e6e6e6"/>
          <circle cx="914.24" cy="810.93" r="19.9" style="fill: #e6e6e6"/>
          <circle cx="794.83" cy="771.12" r="19.9" style="fill: #e6e6e6"/>
          <circle cx="834.63" cy="771.12" r="19.9" style="fill: #e6e6e6"/>
          <circle cx="874.43" cy="771.12" r="19.9" style="fill: #e6e6e6"/>
          <circle cx="914.24" cy="771.12" r="19.9" style="fill: #e6e6e6"/>
        </g>
        <g id="p22-6" data-name="p22">
          <circle cx="794.83" cy="1078.34" r="19.9" style="fill: #e6e6e6"/>
          <circle cx="834.63" cy="1078.34" r="19.9" style="fill: #e6e6e6"/>
          <circle cx="874.43" cy="1078.34" r="19.9" style="fill: #e6e6e6"/>
          <circle cx="914.24" cy="1078.34" r="19.9" style="fill: #e6e6e6"/>
          <circle cx="794.83" cy="1038.53" r="19.9" style="fill: #e6e6e6"/>
          <circle cx="834.63" cy="1038.53" r="19.9" style="fill: #e6e6e6"/>
          <circle cx="874.43" cy="1038.53" r="19.9" style="fill: #e6e6e6"/>
          <circle cx="914.24" cy="1038.53" r="19.9" style="fill: #e6e6e6"/>
          <circle cx="794.83" cy="998.73" r="19.9" style="fill: #e6e6e6"/>
          <circle cx="834.63" cy="998.73" r="19.9" style="fill: #e6e6e6"/>
          <circle cx="874.43" cy="998.73" r="19.9" style="fill: #e6e6e6"/>
          <circle cx="914.24" cy="998.73" r="19.9" style="fill: #e6e6e6"/>
          <circle cx="794.83" cy="958.93" r="19.9" style="fill: #e6e6e6"/>
          <circle cx="834.63" cy="958.93" r="19.9" style="fill: #e6e6e6"/>
          <circle cx="874.43" cy="958.93" r="19.9" style="fill: #e6e6e6"/>
          <circle cx="914.24" cy="958.93" r="19.9" style="fill: #e6e6e6"/>
        </g>
        <g id="p22-7" data-name="p22">
          <circle cx="794.83" cy="1266.14" r="19.9" style="fill: #e6e6e6"/>
          <circle cx="834.63" cy="1266.14" r="19.9" style="fill: #e6e6e6"/>
          <circle cx="874.43" cy="1266.14" r="19.9" style="fill: #e6e6e6"/>
          <circle cx="914.24" cy="1266.14" r="19.9" style="fill: #e6e6e6"/>
          <circle cx="794.83" cy="1226.34" r="19.9" style="fill: #e6e6e6"/>
          <circle cx="834.63" cy="1226.34" r="19.9" style="fill: #e6e6e6"/>
          <circle cx="874.43" cy="1226.34" r="19.9" style="fill: #e6e6e6"/>
          <circle cx="914.24" cy="1226.34" r="19.9" style="fill: #e6e6e6"/>
          <circle cx="794.83" cy="1186.54" r="19.9" style="fill: #e6e6e6"/>
          <circle cx="834.63" cy="1186.54" r="19.9" style="fill: #e6e6e6"/>
          <circle cx="874.43" cy="1186.54" r="19.9" style="fill: #e6e6e6"/>
          <circle cx="914.24" cy="1186.54" r="19.9" style="fill: #e6e6e6"/>
          <circle cx="794.83" cy="1146.73" r="19.9" style="fill: #e6e6e6"/>
          <circle cx="834.63" cy="1146.73" r="19.9" style="fill: #e6e6e6"/>
          <circle cx="874.43" cy="1146.73" r="19.9" style="fill: #e6e6e6"/>
          <circle cx="914.24" cy="1146.73" r="19.9" style="fill: #e6e6e6"/>
        </g>
        <g id="p22-8" data-name="p22">
          <circle cx="794.83" cy="1453.95" r="19.9" style="fill: #e6e6e6"/>
          <circle cx="834.63" cy="1453.95" r="19.9" style="fill: #e6e6e6"/>
          <circle cx="874.43" cy="1453.95" r="19.9" style="fill: #e6e6e6"/>
          <circle cx="914.24" cy="1453.95" r="19.9" style="fill: #e6e6e6"/>
          <circle cx="794.83" cy="1414.15" r="19.9" style="fill: #e6e6e6"/>
          <circle cx="834.63" cy="1414.15" r="19.9" style="fill: #e6e6e6"/>
          <circle cx="874.43" cy="1414.15" r="19.9" style="fill: #e6e6e6"/>
          <circle cx="914.24" cy="1414.15" r="19.9" style="fill: #e6e6e6"/>
          <circle cx="794.83" cy="1374.34" r="19.9" style="fill: #e6e6e6"/>
          <circle cx="834.63" cy="1374.34" r="19.9" style="fill: #e6e6e6"/>
          <circle cx="874.43" cy="1374.34" r="19.9" style="fill: #e6e6e6"/>
          <circle cx="914.24" cy="1374.34" r="19.9" style="fill: #e6e6e6"/>
          <circle cx="794.83" cy="1334.54" r="19.9" style="fill: #e6e6e6"/>
          <circle cx="834.63" cy="1334.54" r="19.9" style="fill: #e6e6e6"/>
          <circle cx="874.43" cy="1334.54" r="19.9" style="fill: #e6e6e6"/>
          <circle cx="914.24" cy="1334.54" r="19.9" style="fill: #e6e6e6"/>
        </g>
        <g id="p22-9" data-name="p22">
          <circle cx="794.83" cy="1641.75" r="19.9" style="fill: #e6e6e6"/>
          <circle cx="834.63" cy="1641.75" r="19.9" style="fill: #e6e6e6"/>
          <circle cx="874.43" cy="1641.75" r="19.9" style="fill: #e6e6e6"/>
          <circle cx="914.24" cy="1641.75" r="19.9" style="fill: #e6e6e6"/>
          <circle cx="794.83" cy="1601.95" r="19.9" style="fill: #e6e6e6"/>
          <circle cx="834.63" cy="1601.95" r="19.9" style="fill: #e6e6e6"/>
          <circle cx="874.43" cy="1601.95" r="19.9" style="fill: #e6e6e6"/>
          <circle cx="914.24" cy="1601.95" r="19.9" style="fill: #e6e6e6"/>
          <circle cx="794.83" cy="1562.15" r="19.9" style="fill: #e6e6e6"/>
          <circle cx="834.63" cy="1562.15" r="19.9" style="fill: #e6e6e6"/>
          <circle cx="874.43" cy="1562.15" r="19.9" style="fill: #e6e6e6"/>
          <circle cx="914.24" cy="1562.15" r="19.9" style="fill: #e6e6e6"/>
          <circle cx="794.83" cy="1522.34" r="19.9" style="fill: #e6e6e6"/>
          <circle cx="834.63" cy="1522.34" r="19.9" style="fill: #e6e6e6"/>
          <circle cx="874.43" cy="1522.34" r="19.9" style="fill: #e6e6e6"/>
          <circle cx="914.24" cy="1522.34" r="19.9" style="fill: #e6e6e6"/>
        </g>
        <g id="p22-10" data-name="p22">
          <circle cx="606.36" cy="139.31" r="19.9" style="fill: #e6e6e6"/>
          <circle cx="646.16" cy="139.31" r="19.9" style="fill: #e6e6e6"/>
          <circle cx="685.97" cy="139.31" r="19.9" style="fill: #e6e6e6"/>
          <circle cx="725.77" cy="139.31" r="19.9" style="fill: #e6e6e6"/>
          <circle cx="606.36" cy="99.51" r="19.9" style="fill: #e6e6e6"/>
          <circle cx="646.16" cy="99.51" r="19.9" style="fill: #e6e6e6"/>
          <circle cx="685.97" cy="99.51" r="19.9" style="fill: #e6e6e6"/>
          <circle cx="725.77" cy="99.51" r="19.9" style="fill: #e6e6e6"/>
          <circle cx="606.36" cy="59.7" r="19.9" style="fill: #e6e6e6"/>
          <circle cx="646.16" cy="59.7" r="19.9" style="fill: #e6e6e6"/>
          <circle cx="685.97" cy="59.7" r="19.9" style="fill: #e6e6e6"/>
          <circle cx="725.77" cy="59.7" r="19.9" style="fill: #e6e6e6"/>
          <circle cx="606.36" cy="19.9" r="19.9" style="fill: #e6e6e6"/>
          <circle cx="646.16" cy="19.9" r="19.9" style="fill: #e6e6e6"/>
          <circle cx="685.97" cy="19.9" r="19.9" style="fill: #e6e6e6"/>
          <circle cx="725.77" cy="19.9" r="19.9" style="fill: #e6e6e6"/>
        </g>
        <g id="p22-11" data-name="p22">
          <circle cx="606.36" cy="327.12" r="19.9" style="fill: #e6e6e6"/>
          <circle cx="646.16" cy="327.12" r="19.9" style="fill: #e6e6e6"/>
          <circle cx="685.97" cy="327.12" r="19.9" style="fill: #e6e6e6"/>
          <circle cx="725.77" cy="327.12" r="19.9" style="fill: #e6e6e6"/>
          <circle cx="606.36" cy="287.31" r="19.9" style="fill: #e6e6e6"/>
          <circle cx="646.16" cy="287.31" r="19.9" style="fill: #e6e6e6"/>
          <circle cx="685.97" cy="287.31" r="19.9" style="fill: #e6e6e6"/>
          <circle cx="725.77" cy="287.31" r="19.9" style="fill: #e6e6e6"/>
          <circle cx="606.36" cy="247.51" r="19.9" style="fill: #e6e6e6"/>
          <circle cx="646.16" cy="247.51" r="19.9" style="fill: #e6e6e6"/>
          <circle cx="685.97" cy="247.51" r="19.9" style="fill: #e6e6e6"/>
          <circle cx="725.77" cy="247.51" r="19.9" style="fill: #e6e6e6"/>
          <circle cx="606.36" cy="207.71" r="19.9" style="fill: #e6e6e6"/>
          <circle cx="646.16" cy="207.71" r="19.9" style="fill: #e6e6e6"/>
          <circle cx="685.97" cy="207.71" r="19.9" style="fill: #e6e6e6"/>
          <circle cx="725.77" cy="207.71" r="19.9" style="fill: #e6e6e6"/>
        </g>
        <g id="p22-12" data-name="p22">
          <circle cx="606.36" cy="514.92" r="19.9" style="fill: #e6e6e6"/>
          <circle cx="646.16" cy="514.92" r="19.9" style="fill: #e6e6e6"/>
          <circle cx="685.97" cy="514.92" r="19.9" style="fill: #e6e6e6"/>
          <circle cx="725.77" cy="514.92" r="19.9" style="fill: #e6e6e6"/>
          <circle cx="606.36" cy="475.12" r="19.9" style="fill: #e6e6e6"/>
          <circle cx="646.16" cy="475.12" r="19.9" style="fill: #e6e6e6"/>
          <circle cx="685.97" cy="475.12" r="19.9" style="fill: #e6e6e6"/>
          <circle cx="725.77" cy="475.12" r="19.9" style="fill: #e6e6e6"/>
          <circle cx="606.36" cy="435.32" r="19.9" style="fill: #e6e6e6"/>
          <circle cx="646.16" cy="435.32" r="19.9" style="fill: #e6e6e6"/>
          <circle cx="685.97" cy="435.32" r="19.9" style="fill: #e6e6e6"/>
          <circle cx="725.77" cy="435.32" r="19.9" style="fill: #e6e6e6"/>
          <circle cx="606.36" cy="395.51" r="19.9" style="fill: #e6e6e6"/>
          <circle cx="646.16" cy="395.51" r="19.9" style="fill: #e6e6e6"/>
          <circle cx="685.97" cy="395.51" r="19.9" style="fill: #e6e6e6"/>
          <circle cx="725.77" cy="395.51" r="19.9" style="fill: #e6e6e6"/>
        </g>
        <g id="p22-13" data-name="p22">
          <circle cx="606.36" cy="702.73" r="19.9" style="fill: #e6e6e6"/>
          <circle cx="646.16" cy="702.73" r="19.9" style="fill: #e6e6e6"/>
          <circle cx="685.97" cy="702.73" r="19.9" style="fill: #e6e6e6"/>
          <circle cx="725.77" cy="702.73" r="19.9" style="fill: #e6e6e6"/>
          <circle cx="606.36" cy="662.92" r="19.9" style="fill: #e6e6e6"/>
          <circle cx="646.16" cy="662.92" r="19.9" style="fill: #e6e6e6"/>
          <circle cx="685.97" cy="662.92" r="19.9" style="fill: #e6e6e6"/>
          <circle cx="725.77" cy="662.92" r="19.9" style="fill: #e6e6e6"/>
          <circle cx="606.36" cy="623.12" r="19.9" style="fill: #e6e6e6"/>
          <circle cx="646.16" cy="623.12" r="19.9" style="fill: #e6e6e6"/>
          <circle cx="685.97" cy="623.12" r="19.9" style="fill: #e6e6e6"/>
          <circle cx="725.77" cy="623.12" r="19.9" style="fill: #e6e6e6"/>
          <circle cx="606.36" cy="583.32" r="19.9" style="fill: #e6e6e6"/>
          <circle cx="646.16" cy="583.32" r="19.9" style="fill: #e6e6e6"/>
          <circle cx="685.97" cy="583.32" r="19.9" style="fill: #e6e6e6"/>
          <circle cx="725.77" cy="583.32" r="19.9" style="fill: #e6e6e6"/>
        </g>
        <g id="p22-14" data-name="p22">
          <circle cx="606.36" cy="890.53" r="19.9" style="fill: #e6e6e6"/>
          <circle cx="646.16" cy="890.53" r="19.9" style="fill: #e6e6e6"/>
          <circle cx="685.97" cy="890.53" r="19.9" style="fill: #e6e6e6"/>
          <circle cx="725.77" cy="890.53" r="19.9" style="fill: #e6e6e6"/>
          <circle cx="606.36" cy="850.73" r="19.9" style="fill: #e6e6e6"/>
          <circle cx="646.16" cy="850.73" r="19.9" style="fill: #e6e6e6"/>
          <circle cx="685.97" cy="850.73" r="19.9" style="fill: #e6e6e6"/>
          <circle cx="725.77" cy="850.73" r="19.9" style="fill: #e6e6e6"/>
          <circle cx="606.36" cy="810.93" r="19.9" style="fill: #e6e6e6"/>
          <circle cx="646.16" cy="810.93" r="19.9" style="fill: #e6e6e6"/>
          <circle cx="685.97" cy="810.93" r="19.9" style="fill: #e6e6e6"/>
          <circle cx="725.77" cy="810.93" r="19.9" style="fill: #e6e6e6"/>
          <circle cx="606.36" cy="771.12" r="19.9" style="fill: #e6e6e6"/>
          <circle cx="646.16" cy="771.12" r="19.9" style="fill: #e6e6e6"/>
          <circle cx="685.97" cy="771.12" r="19.9" style="fill: #e6e6e6"/>
          <circle cx="725.77" cy="771.12" r="19.9" style="fill: #e6e6e6"/>
        </g>
        <g id="p22-15" data-name="p22">
          <circle cx="606.36" cy="1078.34" r="19.9" style="fill: #e6e6e6"/>
          <circle cx="646.16" cy="1078.34" r="19.9" style="fill: #e6e6e6"/>
          <circle cx="685.97" cy="1078.34" r="19.9" style="fill: #e6e6e6"/>
          <circle cx="725.77" cy="1078.34" r="19.9" style="fill: #e6e6e6"/>
          <circle cx="606.36" cy="1038.53" r="19.9" style="fill: #e6e6e6"/>
          <circle cx="646.16" cy="1038.53" r="19.9" style="fill: #e6e6e6"/>
          <circle cx="685.97" cy="1038.53" r="19.9" style="fill: #e6e6e6"/>
          <circle cx="725.77" cy="1038.53" r="19.9" style="fill: #e6e6e6"/>
          <circle cx="606.36" cy="998.73" r="19.9" style="fill: #e6e6e6"/>
          <circle cx="646.16" cy="998.73" r="19.9" style="fill: #e6e6e6"/>
          <circle cx="685.97" cy="998.73" r="19.9" style="fill: #e6e6e6"/>
          <circle cx="725.77" cy="998.73" r="19.9" style="fill: #e6e6e6"/>
          <circle cx="606.36" cy="958.93" r="19.9" style="fill: #e6e6e6"/>
          <circle cx="646.16" cy="958.93" r="19.9" style="fill: #e6e6e6"/>
          <circle cx="685.97" cy="958.93" r="19.9" style="fill: #e6e6e6"/>
          <circle cx="725.77" cy="958.93" r="19.9" style="fill: #e6e6e6"/>
        </g>
        <g id="p22-16" data-name="p22">
          <circle cx="606.36" cy="1266.14" r="19.9" style="fill: #e6e6e6"/>
          <circle cx="646.16" cy="1266.14" r="19.9" style="fill: #e6e6e6"/>
          <circle cx="685.97" cy="1266.14" r="19.9" style="fill: #e6e6e6"/>
          <circle cx="725.77" cy="1266.14" r="19.9" style="fill: #e6e6e6"/>
          <circle cx="606.36" cy="1226.34" r="19.9" style="fill: #e6e6e6"/>
          <circle cx="646.16" cy="1226.34" r="19.9" style="fill: #e6e6e6"/>
          <circle cx="685.97" cy="1226.34" r="19.9" style="fill: #e6e6e6"/>
          <circle cx="725.77" cy="1226.34" r="19.9" style="fill: #e6e6e6"/>
          <circle cx="606.36" cy="1186.54" r="19.9" style="fill: #e6e6e6"/>
          <circle cx="646.16" cy="1186.54" r="19.9" style="fill: #e6e6e6"/>
          <circle cx="685.97" cy="1186.54" r="19.9" style="fill: #e6e6e6"/>
          <circle cx="725.77" cy="1186.54" r="19.9" style="fill: #e6e6e6"/>
          <circle cx="606.36" cy="1146.73" r="19.9" style="fill: #e6e6e6"/>
          <circle cx="646.16" cy="1146.73" r="19.9" style="fill: #e6e6e6"/>
          <circle cx="685.97" cy="1146.73" r="19.9" style="fill: #e6e6e6"/>
          <circle cx="725.77" cy="1146.73" r="19.9" style="fill: #e6e6e6"/>
        </g>
        <g id="p22-17" data-name="p22">
          <circle cx="606.36" cy="1453.95" r="19.9" style="fill: #e6e6e6"/>
          <circle cx="646.16" cy="1453.95" r="19.9" style="fill: #e6e6e6"/>
          <circle cx="685.97" cy="1453.95" r="19.9" style="fill: #e6e6e6"/>
          <circle cx="725.77" cy="1453.95" r="19.9" style="fill: #e6e6e6"/>
          <circle cx="606.36" cy="1414.15" r="19.9" style="fill: #e6e6e6"/>
          <circle cx="646.16" cy="1414.15" r="19.9" style="fill: #e6e6e6"/>
          <circle cx="685.97" cy="1414.15" r="19.9" style="fill: #e6e6e6"/>
          <circle cx="725.77" cy="1414.15" r="19.9" style="fill: #e6e6e6"/>
          <circle cx="606.36" cy="1374.34" r="19.9" style="fill: #e6e6e6"/>
          <circle cx="646.16" cy="1374.34" r="19.9" style="fill: #e6e6e6"/>
          <circle cx="685.97" cy="1374.34" r="19.9" style="fill: #e6e6e6"/>
          <circle cx="725.77" cy="1374.34" r="19.9" style="fill: #e6e6e6"/>
          <circle cx="606.36" cy="1334.54" r="19.9" style="fill: #e6e6e6"/>
          <circle cx="646.16" cy="1334.54" r="19.9" style="fill: #e6e6e6"/>
          <circle cx="685.97" cy="1334.54" r="19.9" style="fill: #e6e6e6"/>
          <circle cx="725.77" cy="1334.54" r="19.9" style="fill: #e6e6e6"/>
        </g>
        <g id="p22-18" data-name="p22">
          <circle cx="606.36" cy="1641.75" r="19.9" style="fill: #e6e6e6"/>
          <circle cx="646.16" cy="1641.75" r="19.9" style="fill: #e6e6e6"/>
          <circle cx="685.97" cy="1641.75" r="19.9" style="fill: #e6e6e6"/>
          <circle cx="725.77" cy="1641.75" r="19.9" style="fill: #e6e6e6"/>
          <circle cx="606.36" cy="1601.95" r="19.9" style="fill: #e6e6e6"/>
          <circle cx="646.16" cy="1601.95" r="19.9" style="fill: #e6e6e6"/>
          <circle cx="685.97" cy="1601.95" r="19.9" style="fill: #e6e6e6"/>
          <circle cx="725.77" cy="1601.95" r="19.9" style="fill: #e6e6e6"/>
          <circle cx="606.36" cy="1562.15" r="19.9" style="fill: #e6e6e6"/>
          <circle cx="646.16" cy="1562.15" r="19.9" style="fill: #e6e6e6"/>
          <circle cx="685.97" cy="1562.15" r="19.9" style="fill: #e6e6e6"/>
          <circle cx="725.77" cy="1562.15" r="19.9" style="fill: #e6e6e6"/>
          <circle cx="606.36" cy="1522.34" r="19.9" style="fill: #e6e6e6"/>
          <circle cx="646.16" cy="1522.34" r="19.9" style="fill: #e6e6e6"/>
          <circle cx="685.97" cy="1522.34" r="19.9" style="fill: #e6e6e6"/>
          <circle cx="725.77" cy="1522.34" r="19.9" style="fill: #e6e6e6"/>
        </g>
        <g id="p22-19" data-name="p22">
          <circle cx="419.03" cy="139.31" r="19.9" style="fill: #e6e6e6"/>
          <circle cx="458.83" cy="139.31" r="19.9" style="fill: #e6e6e6"/>
          <circle cx="498.63" cy="139.31" r="19.9" style="fill: #e6e6e6"/>
          <circle cx="538.44" cy="139.31" r="19.9" style="fill: #e6e6e6"/>
          <circle cx="419.03" cy="99.51" r="19.9" style="fill: #e6e6e6"/>
          <circle cx="458.83" cy="99.51" r="19.9" style="fill: #e6e6e6"/>
          <circle cx="498.63" cy="99.51" r="19.9" style="fill: #e6e6e6"/>
          <circle cx="538.44" cy="99.51" r="19.9" style="fill: #e6e6e6"/>
          <circle cx="419.03" cy="59.7" r="19.9" style="fill: #e6e6e6"/>
          <circle cx="458.83" cy="59.7" r="19.9" style="fill: #e6e6e6"/>
          <circle cx="498.63" cy="59.7" r="19.9" style="fill: #e6e6e6"/>
          <circle cx="538.44" cy="59.7" r="19.9" style="fill: #e6e6e6"/>
          <circle cx="419.03" cy="19.9" r="19.9" style="fill: #e6e6e6"/>
          <circle cx="458.83" cy="19.9" r="19.9" style="fill: #e6e6e6"/>
          <circle cx="498.63" cy="19.9" r="19.9" style="fill: #e6e6e6"/>
          <circle cx="538.44" cy="19.9" r="19.9" style="fill: #e6e6e6"/>
        </g>
        <g id="p22-20" data-name="p22">
          <circle cx="419.03" cy="327.12" r="19.9" style="fill: #e6e6e6"/>
          <circle cx="458.83" cy="327.12" r="19.9" style="fill: #e6e6e6"/>
          <circle cx="498.63" cy="327.12" r="19.9" style="fill: #e6e6e6"/>
          <circle cx="538.44" cy="327.12" r="19.9" style="fill: #e6e6e6"/>
          <circle cx="419.03" cy="287.31" r="19.9" style="fill: #e6e6e6"/>
          <circle cx="458.83" cy="287.31" r="19.9" style="fill: #e6e6e6"/>
          <circle cx="498.63" cy="287.31" r="19.9" style="fill: #e6e6e6"/>
          <circle cx="538.44" cy="287.31" r="19.9" style="fill: #e6e6e6"/>
          <circle cx="419.03" cy="247.51" r="19.9" style="fill: #e6e6e6"/>
          <circle cx="458.83" cy="247.51" r="19.9" style="fill: #e6e6e6"/>
          <circle cx="498.63" cy="247.51" r="19.9" style="fill: #e6e6e6"/>
          <circle cx="538.44" cy="247.51" r="19.9" style="fill: #e6e6e6"/>
          <circle cx="419.03" cy="207.71" r="19.9" style="fill: #e6e6e6"/>
          <circle cx="458.83" cy="207.71" r="19.9" style="fill: #e6e6e6"/>
          <circle cx="498.63" cy="207.71" r="19.9" style="fill: #e6e6e6"/>
          <circle cx="538.44" cy="207.71" r="19.9" style="fill: #e6e6e6"/>
        </g>
        <g id="p22-21" data-name="p22">
          <circle cx="419.03" cy="514.92" r="19.9" style="fill: #e6e6e6"/>
          <circle cx="458.83" cy="514.92" r="19.9" style="fill: #e6e6e6"/>
          <circle cx="498.63" cy="514.92" r="19.9" style="fill: #e6e6e6"/>
          <circle cx="538.44" cy="514.92" r="19.9" style="fill: #e6e6e6"/>
          <circle cx="419.03" cy="475.12" r="19.9" style="fill: #e6e6e6"/>
          <circle cx="458.83" cy="475.12" r="19.9" style="fill: #e6e6e6"/>
          <circle cx="498.63" cy="475.12" r="19.9" style="fill: #e6e6e6"/>
          <circle cx="538.44" cy="475.12" r="19.9" style="fill: #e6e6e6"/>
          <circle cx="419.03" cy="435.32" r="19.9" style="fill: #e6e6e6"/>
          <circle cx="458.83" cy="435.32" r="19.9" style="fill: #e6e6e6"/>
          <circle cx="498.63" cy="435.32" r="19.9" style="fill: #e6e6e6"/>
          <circle cx="538.44" cy="435.32" r="19.9" style="fill: #e6e6e6"/>
          <circle cx="419.03" cy="395.51" r="19.9" style="fill: #e6e6e6"/>
          <circle cx="458.83" cy="395.51" r="19.9" style="fill: #e6e6e6"/>
          <circle cx="498.63" cy="395.51" r="19.9" style="fill: #e6e6e6"/>
          <circle cx="538.44" cy="395.51" r="19.9" style="fill: #e6e6e6"/>
        </g>
        <g id="p22-22" data-name="p22">
          <circle cx="419.03" cy="702.73" r="19.9" style="fill: #e6e6e6"/>
          <circle cx="458.83" cy="702.73" r="19.9" style="fill: #e6e6e6"/>
          <circle cx="498.63" cy="702.73" r="19.9" style="fill: #e6e6e6"/>
          <circle cx="538.44" cy="702.73" r="19.9" style="fill: #e6e6e6"/>
          <circle cx="419.03" cy="662.92" r="19.9" style="fill: #e6e6e6"/>
          <circle cx="458.83" cy="662.92" r="19.9" style="fill: #e6e6e6"/>
          <circle cx="498.63" cy="662.92" r="19.9" style="fill: #e6e6e6"/>
          <circle cx="538.44" cy="662.92" r="19.9" style="fill: #e6e6e6"/>
          <circle cx="419.03" cy="623.12" r="19.9" style="fill: #e6e6e6"/>
          <circle cx="458.83" cy="623.12" r="19.9" style="fill: #e6e6e6"/>
          <circle cx="498.63" cy="623.12" r="19.9" style="fill: #e6e6e6"/>
          <circle cx="538.44" cy="623.12" r="19.9" style="fill: #e6e6e6"/>
          <circle cx="419.03" cy="583.32" r="19.9" style="fill: #e6e6e6"/>
          <circle cx="458.83" cy="583.32" r="19.9" style="fill: #e6e6e6"/>
          <circle cx="498.63" cy="583.32" r="19.9" style="fill: #e6e6e6"/>
          <circle cx="538.44" cy="583.32" r="19.9" style="fill: #e6e6e6"/>
        </g>
        <g id="p22-23" data-name="p22">
          <circle cx="419.03" cy="890.53" r="19.9" style="fill: #e6e6e6"/>
          <circle cx="458.83" cy="890.53" r="19.9" style="fill: #e6e6e6"/>
          <circle cx="498.63" cy="890.53" r="19.9" style="fill: #e6e6e6"/>
          <circle cx="538.44" cy="890.53" r="19.9" style="fill: #e6e6e6"/>
          <circle cx="419.03" cy="850.73" r="19.9" style="fill: #e6e6e6"/>
          <circle cx="458.83" cy="850.73" r="19.9" style="fill: #e6e6e6"/>
          <circle cx="498.63" cy="850.73" r="19.9" style="fill: #e6e6e6"/>
          <circle cx="538.44" cy="850.73" r="19.9" style="fill: #e6e6e6"/>
          <circle cx="419.03" cy="810.93" r="19.9" style="fill: #e6e6e6"/>
          <circle cx="458.83" cy="810.93" r="19.9" style="fill: #e6e6e6"/>
          <circle cx="498.63" cy="810.93" r="19.9" style="fill: #e6e6e6"/>
          <circle cx="538.44" cy="810.93" r="19.9" style="fill: #e6e6e6"/>
          <circle cx="419.03" cy="771.12" r="19.9" style="fill: #e6e6e6"/>
          <circle cx="458.83" cy="771.12" r="19.9" style="fill: #e6e6e6"/>
          <circle cx="498.63" cy="771.12" r="19.9" style="fill: #e6e6e6"/>
          <circle cx="538.44" cy="771.12" r="19.9" style="fill: #e6e6e6"/>
        </g>
        <g id="p22-24" data-name="p22">
          <circle cx="419.03" cy="1078.34" r="19.9" style="fill: #e6e6e6"/>
          <circle cx="458.83" cy="1078.34" r="19.9" style="fill: #e6e6e6"/>
          <circle cx="498.63" cy="1078.34" r="19.9" style="fill: #e6e6e6"/>
          <circle cx="538.44" cy="1078.34" r="19.9" style="fill: #e6e6e6"/>
          <circle cx="419.03" cy="1038.53" r="19.9" style="fill: #e6e6e6"/>
          <circle cx="458.83" cy="1038.53" r="19.9" style="fill: #e6e6e6"/>
          <circle cx="498.63" cy="1038.53" r="19.9" style="fill: #e6e6e6"/>
          <circle cx="538.44" cy="1038.53" r="19.9" style="fill: #e6e6e6"/>
          <circle cx="419.03" cy="998.73" r="19.9" style="fill: #e6e6e6"/>
          <circle cx="458.83" cy="998.73" r="19.9" style="fill: #e6e6e6"/>
          <circle cx="498.63" cy="998.73" r="19.9" style="fill: #e6e6e6"/>
          <circle cx="538.44" cy="998.73" r="19.9" style="fill: #e6e6e6"/>
          <circle cx="419.03" cy="958.93" r="19.9" style="fill: #e6e6e6"/>
          <circle cx="458.83" cy="958.93" r="19.9" style="fill: #e6e6e6"/>
          <circle cx="498.63" cy="958.93" r="19.9" style="fill: #e6e6e6"/>
          <circle cx="538.44" cy="958.93" r="19.9" style="fill: #e6e6e6"/>
        </g>
        <g id="p22-25" data-name="p22">
          <circle cx="419.03" cy="1266.14" r="19.9" style="fill: #e6e6e6"/>
          <circle cx="458.83" cy="1266.14" r="19.9" style="fill: #e6e6e6"/>
          <circle cx="498.63" cy="1266.14" r="19.9" style="fill: #e6e6e6"/>
          <circle cx="538.44" cy="1266.14" r="19.9" style="fill: #e6e6e6"/>
          <circle cx="419.03" cy="1226.34" r="19.9" style="fill: #e6e6e6"/>
          <circle cx="458.83" cy="1226.34" r="19.9" style="fill: #e6e6e6"/>
          <circle cx="498.63" cy="1226.34" r="19.9" style="fill: #e6e6e6"/>
          <circle cx="538.44" cy="1226.34" r="19.9" style="fill: #e6e6e6"/>
          <circle cx="419.03" cy="1186.54" r="19.9" style="fill: #e6e6e6"/>
          <circle cx="458.83" cy="1186.54" r="19.9" style="fill: #e6e6e6"/>
          <circle cx="498.63" cy="1186.54" r="19.9" style="fill: #e6e6e6"/>
          <circle cx="538.44" cy="1186.54" r="19.9" style="fill: #e6e6e6"/>
          <circle cx="419.03" cy="1146.73" r="19.9" style="fill: #e6e6e6"/>
          <circle cx="458.83" cy="1146.73" r="19.9" style="fill: #e6e6e6"/>
          <circle cx="498.63" cy="1146.73" r="19.9" style="fill: #e6e6e6"/>
          <circle cx="538.44" cy="1146.73" r="19.9" style="fill: #e6e6e6"/>
        </g>
        <g id="p22-26" data-name="p22">
          <circle cx="419.03" cy="1453.95" r="19.9" style="fill: #e6e6e6"/>
          <circle cx="458.83" cy="1453.95" r="19.9" style="fill: #e6e6e6"/>
          <circle cx="498.63" cy="1453.95" r="19.9" style="fill: #e6e6e6"/>
          <circle cx="538.44" cy="1453.95" r="19.9" style="fill: #e6e6e6"/>
          <circle cx="419.03" cy="1414.15" r="19.9" style="fill: #e6e6e6"/>
          <circle cx="458.83" cy="1414.15" r="19.9" style="fill: #e6e6e6"/>
          <circle cx="498.63" cy="1414.15" r="19.9" style="fill: #e6e6e6"/>
          <circle cx="538.44" cy="1414.15" r="19.9" style="fill: #e6e6e6"/>
          <circle cx="419.03" cy="1374.34" r="19.9" style="fill: #e6e6e6"/>
          <circle cx="458.83" cy="1374.34" r="19.9" style="fill: #e6e6e6"/>
          <circle cx="498.63" cy="1374.34" r="19.9" style="fill: #e6e6e6"/>
          <circle cx="538.44" cy="1374.34" r="19.9" style="fill: #e6e6e6"/>
          <circle cx="419.03" cy="1334.54" r="19.9" style="fill: #e6e6e6"/>
          <circle cx="458.83" cy="1334.54" r="19.9" style="fill: #e6e6e6"/>
          <circle cx="498.63" cy="1334.54" r="19.9" style="fill: #e6e6e6"/>
          <circle cx="538.44" cy="1334.54" r="19.9" style="fill: #e6e6e6"/>
        </g>
        <g>
          <circle cx="219.46" cy="1437.19" r="19.9" style="fill: #e6e6e6"/>
          <circle cx="259.27" cy="1437.19" r="19.9" style="fill: #e6e6e6"/>
          <circle cx="299.07" cy="1437.19" r="19.9" style="fill: #e6e6e6"/>
          <circle cx="338.87" cy="1437.19" r="19.9" style="fill: #e6e6e6"/>
          <circle cx="219.46" cy="1397.39" r="19.9" style="fill: #e6e6e6"/>
          <circle cx="259.27" cy="1397.39" r="19.9" style="fill: #e6e6e6"/>
          <circle cx="299.07" cy="1397.39" r="19.9" style="fill: #e6e6e6"/>
          <circle cx="338.87" cy="1397.39" r="19.9" style="fill: #e6e6e6"/>
        </g>
        <g>
          <circle cx="219.46" cy="1334.65" r="19.9" style="fill: #e6e6e6"/>
          <circle cx="259.27" cy="1334.65" r="19.9" style="fill: #e6e6e6"/>
          <circle cx="299.07" cy="1334.65" r="19.9" style="fill: #e6e6e6"/>
          <circle cx="338.87" cy="1334.65" r="19.9" style="fill: #e6e6e6"/>
          <circle cx="219.46" cy="1294.84" r="19.9" style="fill: #e6e6e6"/>
          <circle cx="259.27" cy="1294.84" r="19.9" style="fill: #e6e6e6"/>
          <circle cx="299.07" cy="1294.84" r="19.9" style="fill: #e6e6e6"/>
          <circle cx="338.87" cy="1294.84" r="19.9" style="fill: #e6e6e6"/>
        </g>
        <g>
          <circle cx="219.46" cy="1232.1" r="19.9" style="fill: #e6e6e6"/>
          <circle cx="259.27" cy="1232.1" r="19.9" style="fill: #e6e6e6"/>
          <circle cx="299.07" cy="1232.1" r="19.9" style="fill: #e6e6e6"/>
          <circle cx="338.87" cy="1232.1" r="19.9" style="fill: #e6e6e6"/>
          <circle cx="219.46" cy="1192.3" r="19.9" style="fill: #e6e6e6"/>
          <circle cx="259.27" cy="1192.3" r="19.9" style="fill: #e6e6e6"/>
          <circle cx="299.07" cy="1192.3" r="19.9" style="fill: #e6e6e6"/>
          <circle cx="338.87" cy="1192.3" r="19.9" style="fill: #e6e6e6"/>
        </g>
        <g>
          <circle cx="219.46" cy="1129.56" r="19.9" style="fill: #e6e6e6"/>
          <circle cx="259.27" cy="1129.56" r="19.9" style="fill: #e6e6e6"/>
          <circle cx="299.07" cy="1129.56" r="19.9" style="fill: #e6e6e6"/>
          <circle cx="338.87" cy="1129.56" r="19.9" style="fill: #e6e6e6"/>
          <circle cx="219.46" cy="1089.75" r="19.9" style="fill: #e6e6e6"/>
          <circle cx="259.27" cy="1089.75" r="19.9" style="fill: #e6e6e6"/>
          <circle cx="299.07" cy="1089.75" r="19.9" style="fill: #e6e6e6"/>
          <circle cx="338.87" cy="1089.75" r="19.9" style="fill: #e6e6e6"/>
        </g>
        <g>
          <circle cx="219.46" cy="1027.01" r="19.9" style="fill: #e6e6e6"/>
          <circle cx="259.27" cy="1027.01" r="19.9" style="fill: #e6e6e6"/>
          <circle cx="299.07" cy="1027.01" r="19.9" style="fill: #e6e6e6"/>
          <circle cx="338.87" cy="1027.01" r="19.9" style="fill: #e6e6e6"/>
          <circle cx="219.46" cy="987.21" r="19.9" style="fill: #e6e6e6"/>
          <circle cx="259.27" cy="987.21" r="19.9" style="fill: #e6e6e6"/>
          <circle cx="299.07" cy="987.21" r="19.9" style="fill: #e6e6e6"/>
          <circle cx="338.87" cy="987.21" r="19.9" style="fill: #e6e6e6"/>
        </g>
        <g>
          <circle cx="314" cy="925.77" r="14.93" style="fill: #e6e6e6"/>
          <circle cx="343.85" cy="925.77" r="14.93" style="fill: #e6e6e6"/>
          <g>
            <circle cx="314" cy="895.92" r="14.93" style="fill: #e6e6e6"/>
            <circle cx="343.85" cy="895.92" r="14.93" style="fill: #e6e6e6"/>
          </g>
          <g>
            <circle cx="314" cy="866.06" r="14.93" style="fill: #e6e6e6"/>
            <circle cx="343.85" cy="866.06" r="14.93" style="fill: #e6e6e6"/>
          </g>
        </g>
        <g>
          <circle cx="224.29" cy="925.77" r="14.93" style="fill: #e6e6e6"/>
          <circle cx="254.14" cy="925.77" r="14.93" style="fill: #e6e6e6"/>
          <g>
            <circle cx="224.29" cy="895.92" r="14.93" style="fill: #e6e6e6"/>
            <circle cx="254.14" cy="895.92" r="14.93" style="fill: #e6e6e6"/>
          </g>
          <g>
            <circle cx="224.29" cy="866.06" r="14.93" style="fill: #e6e6e6"/>
            <circle cx="254.14" cy="866.06" r="14.93" style="fill: #e6e6e6"/>
          </g>
        </g>
        <g>
          <circle cx="134.59" cy="925.77" r="14.93" style="fill: #e6e6e6"/>
          <circle cx="164.44" cy="925.77" r="14.93" style="fill: #e6e6e6"/>
          <g>
            <circle cx="134.59" cy="895.92" r="14.93" style="fill: #e6e6e6"/>
            <circle cx="164.44" cy="895.92" r="14.93" style="fill: #e6e6e6"/>
          </g>
          <g>
            <circle cx="134.59" cy="866.06" r="14.93" style="fill: #e6e6e6"/>
            <circle cx="164.44" cy="866.06" r="14.93" style="fill: #e6e6e6"/>
          </g>
        </g>
        <g>
          <circle cx="44.88" cy="925.77" r="14.93" style="fill: #e6e6e6"/>
          <circle cx="74.73" cy="925.77" r="14.93" style="fill: #e6e6e6"/>
          <g>
            <circle cx="44.88" cy="895.92" r="14.93" style="fill: #e6e6e6"/>
            <circle cx="74.73" cy="895.92" r="14.93" style="fill: #e6e6e6"/>
          </g>
          <g>
            <circle cx="44.88" cy="866.06" r="14.93" style="fill: #e6e6e6"/>
            <circle cx="74.73" cy="866.06" r="14.93" style="fill: #e6e6e6"/>
          </g>
        </g>
        <g>
          <circle cx="19.9" cy="1437.19" r="19.9" style="fill: #e6e6e6"/>
          <circle cx="59.7" cy="1437.19" r="19.9" style="fill: #e6e6e6"/>
          <circle cx="99.51" cy="1437.19" r="19.9" style="fill: #e6e6e6"/>
          <circle cx="139.31" cy="1437.19" r="19.9" style="fill: #e6e6e6"/>
          <circle cx="19.9" cy="1397.39" r="19.9" style="fill: #e6e6e6"/>
          <circle cx="59.7" cy="1397.39" r="19.9" style="fill: #e6e6e6"/>
          <circle cx="99.51" cy="1397.39" r="19.9" style="fill: #e6e6e6"/>
          <circle cx="139.31" cy="1397.39" r="19.9" style="fill: #e6e6e6"/>
        </g>
        <g>
          <circle cx="19.9" cy="1334.65" r="19.9" style="fill: #e6e6e6"/>
          <circle cx="59.7" cy="1334.65" r="19.9" style="fill: #e6e6e6"/>
          <circle cx="99.51" cy="1334.65" r="19.9" style="fill: #e6e6e6"/>
          <circle cx="139.31" cy="1334.65" r="19.9" style="fill: #e6e6e6"/>
          <circle cx="19.9" cy="1294.84" r="19.9" style="fill: #e6e6e6"/>
          <circle cx="59.7" cy="1294.84" r="19.9" style="fill: #e6e6e6"/>
          <circle cx="99.51" cy="1294.84" r="19.9" style="fill: #e6e6e6"/>
          <circle cx="139.31" cy="1294.84" r="19.9" style="fill: #e6e6e6"/>
        </g>
        <g>
          <circle cx="19.9" cy="1232.1" r="19.9" style="fill: #e6e6e6"/>
          <circle cx="59.7" cy="1232.1" r="19.9" style="fill: #e6e6e6"/>
          <circle cx="99.51" cy="1232.1" r="19.9" style="fill: #e6e6e6"/>
          <circle cx="139.31" cy="1232.1" r="19.9" style="fill: #e6e6e6"/>
          <circle cx="19.9" cy="1192.3" r="19.9" style="fill: #e6e6e6"/>
          <circle cx="59.7" cy="1192.3" r="19.9" style="fill: #e6e6e6"/>
          <circle cx="99.51" cy="1192.3" r="19.9" style="fill: #e6e6e6"/>
          <circle cx="139.31" cy="1192.3" r="19.9" style="fill: #e6e6e6"/>
        </g>
        <g>
          <circle cx="19.9" cy="1129.56" r="19.9" style="fill: #e6e6e6"/>
          <circle cx="59.7" cy="1129.56" r="19.9" style="fill: #e6e6e6"/>
          <circle cx="99.51" cy="1129.56" r="19.9" style="fill: #e6e6e6"/>
          <circle cx="139.31" cy="1129.56" r="19.9" style="fill: #e6e6e6"/>
          <circle cx="19.9" cy="1089.75" r="19.9" style="fill: #e6e6e6"/>
          <circle cx="59.7" cy="1089.75" r="19.9" style="fill: #e6e6e6"/>
          <circle cx="99.51" cy="1089.75" r="19.9" style="fill: #e6e6e6"/>
          <circle cx="139.31" cy="1089.75" r="19.9" style="fill: #e6e6e6"/>
        </g>
        <g>
          <circle cx="19.9" cy="1027.01" r="19.9" style="fill: #e6e6e6"/>
          <circle cx="59.7" cy="1027.01" r="19.9" style="fill: #e6e6e6"/>
          <circle cx="99.51" cy="1027.01" r="19.9" style="fill: #e6e6e6"/>
          <circle cx="139.31" cy="1027.01" r="19.9" style="fill: #e6e6e6"/>
          <circle cx="19.9" cy="987.21" r="19.9" style="fill: #e6e6e6"/>
          <circle cx="59.7" cy="987.21" r="19.9" style="fill: #e6e6e6"/>
          <circle cx="99.51" cy="987.21" r="19.9" style="fill: #e6e6e6"/>
          <circle cx="139.31" cy="987.21" r="19.9" style="fill: #e6e6e6"/>
        </g>
        <g id="p22-27" data-name="p22">
          <circle cx="419.03" cy="1641.75" r="19.9" style="fill: #e6e6e6"/>
          <circle cx="458.83" cy="1641.75" r="19.9" style="fill: #e6e6e6"/>
          <circle cx="498.63" cy="1641.75" r="19.9" style="fill: #e6e6e6"/>
          <circle cx="538.44" cy="1641.75" r="19.9" style="fill: #e6e6e6"/>
          <circle cx="419.03" cy="1601.95" r="19.9" style="fill: #e6e6e6"/>
          <circle cx="458.83" cy="1601.95" r="19.9" style="fill: #e6e6e6"/>
          <circle cx="498.63" cy="1601.95" r="19.9" style="fill: #e6e6e6"/>
          <circle cx="538.44" cy="1601.95" r="19.9" style="fill: #e6e6e6"/>
          <circle cx="419.03" cy="1562.15" r="19.9" style="fill: #e6e6e6"/>
          <circle cx="458.83" cy="1562.15" r="19.9" style="fill: #e6e6e6"/>
          <circle cx="498.63" cy="1562.15" r="19.9" style="fill: #e6e6e6"/>
          <circle cx="538.44" cy="1562.15" r="19.9" style="fill: #e6e6e6"/>
          <circle cx="419.03" cy="1522.34" r="19.9" style="fill: #e6e6e6"/>
          <circle cx="458.83" cy="1522.34" r="19.9" style="fill: #e6e6e6"/>
          <circle cx="498.63" cy="1522.34" r="19.9" style="fill: #e6e6e6"/>
          <circle cx="538.44" cy="1522.34" r="19.9" style="fill: #e6e6e6"/>
        </g>
      </g>
    </g>
  </g>
</svg>
