<svg xmlns="http://www.w3.org/2000/svg" viewBox="0 0 723.33 408.06">
  <title>living_harvest_map</title>
  <g id="Layer_2" data-name="Layer 2">
    <g id="living_harvest" data-name="living harvest">
      <g id="Layer_11" data-name="Layer 11">
        <g id="p255">
          <circle cx="90.06" cy="38.6" r="12.87" style="fill: #e6e6e6"/>
          <circle cx="90.06" cy="12.87" r="12.87" style="fill: #e6e6e6"/>
          <circle cx="115.79" cy="38.6" r="12.87" style="fill: #e6e6e6"/>
          <circle cx="115.79" cy="12.87" r="12.87" style="fill: #e6e6e6"/>
          <circle cx="64.33" cy="38.6" r="12.87" style="fill: #e6e6e6"/>
          <circle cx="64.33" cy="12.87" r="12.87" style="fill: #e6e6e6"/>
          <circle cx="38.6" cy="38.6" r="12.87" style="fill: #e6e6e6"/>
          <circle cx="38.6" cy="12.87" r="12.87" style="fill: #e6e6e6"/>
          <circle cx="12.87" cy="38.6" r="12.87" style="fill: #e6e6e6"/>
          <circle cx="12.87" cy="12.87" r="12.87" style="fill: #e6e6e6"/>
        </g>
        <g id="p256">
          <circle cx="90.06" cy="109.87" r="12.87" style="fill: #e6e6e6"/>
          <circle cx="90.06" cy="84.13" r="12.87" style="fill: #e6e6e6"/>
          <circle cx="115.79" cy="109.87" r="12.87" style="fill: #e6e6e6"/>
          <circle cx="115.79" cy="84.13" r="12.87" style="fill: #e6e6e6"/>
          <circle cx="64.33" cy="109.87" r="12.87" style="fill: #e6e6e6"/>
          <circle cx="64.33" cy="84.13" r="12.87" style="fill: #e6e6e6"/>
          <circle cx="38.6" cy="109.87" r="12.87" style="fill: #e6e6e6"/>
          <circle cx="38.6" cy="84.13" r="12.87" style="fill: #e6e6e6"/>
          <circle cx="12.87" cy="109.87" r="12.87" style="fill: #e6e6e6"/>
          <circle cx="12.87" cy="84.13" r="12.87" style="fill: #e6e6e6"/>
        </g>
        <g id="p257">
          <circle cx="90.06" cy="181.2" r="12.87" style="fill: #e6e6e6"/>
          <circle cx="90.06" cy="155.47" r="12.87" style="fill: #e6e6e6"/>
          <circle cx="115.79" cy="181.2" r="12.87" style="fill: #e6e6e6"/>
          <circle cx="115.79" cy="155.47" r="12.87" style="fill: #e6e6e6"/>
          <circle cx="64.33" cy="181.2" r="12.87" style="fill: #e6e6e6"/>
          <circle cx="64.33" cy="155.47" r="12.87" style="fill: #e6e6e6"/>
          <circle cx="38.6" cy="181.2" r="12.87" style="fill: #e6e6e6"/>
          <circle cx="38.6" cy="155.47" r="12.87" style="fill: #e6e6e6"/>
          <circle cx="12.87" cy="181.2" r="12.87" style="fill: #e6e6e6"/>
          <circle cx="12.87" cy="155.47" r="12.87" style="fill: #e6e6e6"/>
        </g>
        <g id="p256-2" data-name="p256">
          <circle cx="90.06" cy="252.53" r="12.87" style="fill: #e6e6e6"/>
          <circle cx="90.06" cy="226.8" r="12.87" style="fill: #e6e6e6"/>
          <circle cx="115.79" cy="252.53" r="12.87" style="fill: #e6e6e6"/>
          <circle cx="115.79" cy="226.8" r="12.87" style="fill: #e6e6e6"/>
          <circle cx="64.33" cy="252.53" r="12.87" style="fill: #e6e6e6"/>
          <circle cx="64.33" cy="226.8" r="12.87" style="fill: #e6e6e6"/>
          <circle cx="38.6" cy="252.53" r="12.87" style="fill: #e6e6e6"/>
          <circle cx="38.6" cy="226.8" r="12.87" style="fill: #e6e6e6"/>
          <circle cx="12.87" cy="252.53" r="12.87" style="fill: #e6e6e6"/>
          <circle cx="12.87" cy="226.8" r="12.87" style="fill: #e6e6e6"/>
        </g>
        <g id="p257-2" data-name="p257">
          <circle cx="90.06" cy="323.87" r="12.87" style="fill: #e6e6e6"/>
          <circle cx="90.06" cy="298.13" r="12.87" style="fill: #e6e6e6"/>
          <circle cx="115.79" cy="323.87" r="12.87" style="fill: #e6e6e6"/>
          <circle cx="115.79" cy="298.13" r="12.87" style="fill: #e6e6e6"/>
          <circle cx="64.33" cy="323.87" r="12.87" style="fill: #e6e6e6"/>
          <circle cx="64.33" cy="298.13" r="12.87" style="fill: #e6e6e6"/>
          <circle cx="38.6" cy="323.87" r="12.87" style="fill: #e6e6e6"/>
          <circle cx="38.6" cy="298.13" r="12.87" style="fill: #e6e6e6"/>
          <circle cx="12.87" cy="323.87" r="12.87" style="fill: #e6e6e6"/>
          <circle cx="12.87" cy="298.13" r="12.87" style="fill: #e6e6e6"/>
        </g>
        <g id="p258">
          <circle cx="90.06" cy="395.2" r="12.87" style="fill: #e6e6e6"/>
          <circle cx="90.06" cy="369.47" r="12.87" style="fill: #e6e6e6"/>
          <circle cx="115.79" cy="395.2" r="12.87" style="fill: #e6e6e6"/>
          <circle cx="115.79" cy="369.47" r="12.87" style="fill: #e6e6e6"/>
          <circle cx="64.33" cy="395.2" r="12.87" style="fill: #e6e6e6"/>
          <circle cx="64.33" cy="369.47" r="12.87" style="fill: #e6e6e6"/>
          <circle cx="38.6" cy="395.2" r="12.87" style="fill: #e6e6e6"/>
          <circle cx="38.6" cy="369.47" r="12.87" style="fill: #e6e6e6"/>
          <circle cx="12.87" cy="395.2" r="12.87" style="fill: #e6e6e6"/>
          <circle cx="12.87" cy="369.47" r="12.87" style="fill: #e6e6e6"/>
        </g>
        <g id="p259">
          <circle cx="238.73" cy="38.6" r="12.87" style="fill: #e6e6e6"/>
          <circle cx="238.73" cy="12.87" r="12.87" style="fill: #e6e6e6"/>
          <circle cx="264.46" cy="38.6" r="12.87" style="fill: #e6e6e6"/>
          <circle cx="264.46" cy="12.87" r="12.87" style="fill: #e6e6e6"/>
          <circle cx="213" cy="38.6" r="12.87" style="fill: #e6e6e6"/>
          <circle cx="213" cy="12.87" r="12.87" style="fill: #e6e6e6"/>
          <circle cx="187.27" cy="38.6" r="12.87" style="fill: #e6e6e6"/>
          <circle cx="187.27" cy="12.87" r="12.87" style="fill: #e6e6e6"/>
          <circle cx="161.54" cy="38.6" r="12.87" style="fill: #e6e6e6"/>
          <circle cx="161.54" cy="12.87" r="12.87" style="fill: #e6e6e6"/>
        </g>
        <g id="p260">
          <circle cx="238.73" cy="109.87" r="12.87" style="fill: #e6e6e6"/>
          <circle cx="238.73" cy="84.13" r="12.87" style="fill: #e6e6e6"/>
          <circle cx="264.46" cy="109.87" r="12.87" style="fill: #e6e6e6"/>
          <circle cx="264.46" cy="84.13" r="12.87" style="fill: #e6e6e6"/>
          <circle cx="213" cy="109.87" r="12.87" style="fill: #e6e6e6"/>
          <circle cx="213" cy="84.13" r="12.87" style="fill: #e6e6e6"/>
          <circle cx="187.27" cy="109.87" r="12.87" style="fill: #e6e6e6"/>
          <circle cx="187.27" cy="84.13" r="12.87" style="fill: #e6e6e6"/>
          <circle cx="161.54" cy="109.87" r="12.87" style="fill: #e6e6e6"/>
          <circle cx="161.54" cy="84.13" r="12.87" style="fill: #e6e6e6"/>
        </g>
        <g id="p261">
          <circle cx="238.73" cy="181.2" r="12.87" style="fill: #e6e6e6"/>
          <circle cx="238.73" cy="155.47" r="12.87" style="fill: #e6e6e6"/>
          <circle cx="264.46" cy="181.2" r="12.87" style="fill: #e6e6e6"/>
          <circle cx="264.46" cy="155.47" r="12.87" style="fill: #e6e6e6"/>
          <circle cx="213" cy="181.2" r="12.87" style="fill: #e6e6e6"/>
          <circle cx="213" cy="155.47" r="12.87" style="fill: #e6e6e6"/>
          <circle cx="187.27" cy="181.2" r="12.87" style="fill: #e6e6e6"/>
          <circle cx="187.27" cy="155.47" r="12.87" style="fill: #e6e6e6"/>
          <circle cx="161.54" cy="181.2" r="12.87" style="fill: #e6e6e6"/>
          <circle cx="161.54" cy="155.47" r="12.87" style="fill: #e6e6e6"/>
        </g>
        <g id="p262">
          <circle cx="238.73" cy="252.53" r="12.87" style="fill: #e6e6e6"/>
          <circle cx="238.73" cy="226.8" r="12.87" style="fill: #e6e6e6"/>
          <circle cx="264.46" cy="252.53" r="12.87" style="fill: #e6e6e6"/>
          <circle cx="264.46" cy="226.8" r="12.87" style="fill: #e6e6e6"/>
          <circle cx="213" cy="252.53" r="12.87" style="fill: #e6e6e6"/>
          <circle cx="213" cy="226.8" r="12.87" style="fill: #e6e6e6"/>
          <circle cx="187.27" cy="252.53" r="12.87" style="fill: #e6e6e6"/>
          <circle cx="187.27" cy="226.8" r="12.87" style="fill: #e6e6e6"/>
          <circle cx="161.54" cy="252.53" r="12.87" style="fill: #e6e6e6"/>
          <circle cx="161.54" cy="226.8" r="12.87" style="fill: #e6e6e6"/>
        </g>
        <g id="p263">
          <circle cx="238.73" cy="323.87" r="12.87" style="fill: #e6e6e6"/>
          <circle cx="238.73" cy="298.13" r="12.87" style="fill: #e6e6e6"/>
          <circle cx="264.46" cy="323.87" r="12.87" style="fill: #e6e6e6"/>
          <circle cx="264.46" cy="298.13" r="12.87" style="fill: #e6e6e6"/>
          <circle cx="213" cy="323.87" r="12.87" style="fill: #e6e6e6"/>
          <circle cx="213" cy="298.13" r="12.87" style="fill: #e6e6e6"/>
          <circle cx="187.27" cy="323.87" r="12.87" style="fill: #e6e6e6"/>
          <circle cx="187.27" cy="298.13" r="12.87" style="fill: #e6e6e6"/>
          <circle cx="161.54" cy="323.87" r="12.87" style="fill: #e6e6e6"/>
          <circle cx="161.54" cy="298.13" r="12.87" style="fill: #e6e6e6"/>
        </g>
        <g id="p264">
          <circle cx="238.73" cy="395.2" r="12.87" style="fill: #e6e6e6"/>
          <circle cx="238.73" cy="369.47" r="12.87" style="fill: #e6e6e6"/>
          <circle cx="264.46" cy="395.2" r="12.87" style="fill: #e6e6e6"/>
          <circle cx="264.46" cy="369.47" r="12.87" style="fill: #e6e6e6"/>
          <circle cx="213" cy="395.2" r="12.87" style="fill: #e6e6e6"/>
          <circle cx="213" cy="369.47" r="12.87" style="fill: #e6e6e6"/>
          <circle cx="187.27" cy="395.2" r="12.87" style="fill: #e6e6e6"/>
          <circle cx="187.27" cy="369.47" r="12.87" style="fill: #e6e6e6"/>
          <circle cx="161.54" cy="395.2" r="12.87" style="fill: #e6e6e6"/>
          <circle cx="161.54" cy="369.47" r="12.87" style="fill: #e6e6e6"/>
        </g>
        <g id="p265">
          <circle cx="387.4" cy="38.6" r="12.87" style="fill: #e6e6e6"/>
          <circle cx="387.4" cy="12.87" r="12.87" style="fill: #e6e6e6"/>
          <circle cx="413.13" cy="38.6" r="12.87" style="fill: #e6e6e6"/>
          <circle cx="413.13" cy="12.87" r="12.87" style="fill: #e6e6e6"/>
          <circle cx="361.67" cy="38.6" r="12.87" style="fill: #e6e6e6"/>
          <circle cx="361.67" cy="12.87" r="12.87" style="fill: #e6e6e6"/>
          <circle cx="335.94" cy="38.6" r="12.87" style="fill: #e6e6e6"/>
          <circle cx="335.94" cy="12.87" r="12.87" style="fill: #e6e6e6"/>
          <circle cx="310.21" cy="38.6" r="12.87" style="fill: #e6e6e6"/>
          <circle cx="310.21" cy="12.87" r="12.87" style="fill: #e6e6e6"/>
        </g>
        <g id="p266">
          <circle cx="387.4" cy="109.87" r="12.87" style="fill: #e6e6e6"/>
          <circle cx="387.4" cy="84.13" r="12.87" style="fill: #e6e6e6"/>
          <circle cx="413.13" cy="109.87" r="12.87" style="fill: #e6e6e6"/>
          <circle cx="413.13" cy="84.13" r="12.87" style="fill: #e6e6e6"/>
          <circle cx="361.67" cy="109.87" r="12.87" style="fill: #e6e6e6"/>
          <circle cx="361.67" cy="84.13" r="12.87" style="fill: #e6e6e6"/>
          <circle cx="335.94" cy="109.87" r="12.87" style="fill: #e6e6e6"/>
          <circle cx="335.94" cy="84.13" r="12.87" style="fill: #e6e6e6"/>
          <circle cx="310.21" cy="109.87" r="12.87" style="fill: #e6e6e6"/>
          <circle cx="310.21" cy="84.13" r="12.87" style="fill: #e6e6e6"/>
        </g>
        <g id="p267">
          <circle cx="387.4" cy="181.2" r="12.87" style="fill: #e6e6e6"/>
          <circle cx="387.4" cy="155.47" r="12.87" style="fill: #e6e6e6"/>
          <circle cx="413.13" cy="181.2" r="12.87" style="fill: #e6e6e6"/>
          <circle cx="413.13" cy="155.47" r="12.87" style="fill: #e6e6e6"/>
          <circle cx="361.67" cy="181.2" r="12.87" style="fill: #e6e6e6"/>
          <circle cx="361.67" cy="155.47" r="12.87" style="fill: #e6e6e6"/>
          <circle cx="335.94" cy="181.2" r="12.87" style="fill: #e6e6e6"/>
          <circle cx="335.94" cy="155.47" r="12.87" style="fill: #e6e6e6"/>
          <circle cx="310.21" cy="181.2" r="12.87" style="fill: #e6e6e6"/>
          <circle cx="310.21" cy="155.47" r="12.87" style="fill: #e6e6e6"/>
        </g>
        <g id="p268">
          <circle cx="387.4" cy="252.53" r="12.87" style="fill: #e6e6e6"/>
          <circle cx="387.4" cy="226.8" r="12.87" style="fill: #e6e6e6"/>
          <circle cx="413.13" cy="252.53" r="12.87" style="fill: #e6e6e6"/>
          <circle cx="413.13" cy="226.8" r="12.87" style="fill: #e6e6e6"/>
          <circle cx="361.67" cy="252.53" r="12.87" style="fill: #e6e6e6"/>
          <circle cx="361.67" cy="226.8" r="12.87" style="fill: #e6e6e6"/>
          <circle cx="335.94" cy="252.53" r="12.87" style="fill: #e6e6e6"/>
          <circle cx="335.94" cy="226.8" r="12.87" style="fill: #e6e6e6"/>
          <circle cx="310.21" cy="252.53" r="12.87" style="fill: #e6e6e6"/>
          <circle cx="310.21" cy="226.8" r="12.87" style="fill: #e6e6e6"/>
        </g>
        <g id="p269">
          <circle cx="387.4" cy="323.87" r="12.87" style="fill: #e6e6e6"/>
          <circle cx="387.4" cy="298.13" r="12.87" style="fill: #e6e6e6"/>
          <circle cx="413.13" cy="323.87" r="12.87" style="fill: #e6e6e6"/>
          <circle cx="413.13" cy="298.13" r="12.87" style="fill: #e6e6e6"/>
          <circle cx="361.67" cy="323.87" r="12.87" style="fill: #e6e6e6"/>
          <circle cx="361.67" cy="298.13" r="12.87" style="fill: #e6e6e6"/>
          <circle cx="335.94" cy="323.87" r="12.87" style="fill: #e6e6e6"/>
          <circle cx="335.94" cy="298.13" r="12.87" style="fill: #e6e6e6"/>
          <circle cx="310.21" cy="323.87" r="12.87" style="fill: #e6e6e6"/>
          <circle cx="310.21" cy="298.13" r="12.87" style="fill: #e6e6e6"/>
        </g>
        <g id="p270">
          <circle cx="387.4" cy="395.2" r="12.87" style="fill: #e6e6e6"/>
          <circle cx="387.4" cy="369.47" r="12.87" style="fill: #e6e6e6"/>
          <circle cx="413.13" cy="395.2" r="12.87" style="fill: #e6e6e6"/>
          <circle cx="413.13" cy="369.47" r="12.87" style="fill: #e6e6e6"/>
          <circle cx="361.67" cy="395.2" r="12.87" style="fill: #e6e6e6"/>
          <circle cx="361.67" cy="369.47" r="12.87" style="fill: #e6e6e6"/>
          <circle cx="335.94" cy="395.2" r="12.87" style="fill: #e6e6e6"/>
          <circle cx="335.94" cy="369.47" r="12.87" style="fill: #e6e6e6"/>
          <circle cx="310.21" cy="395.2" r="12.87" style="fill: #e6e6e6"/>
          <circle cx="310.21" cy="369.47" r="12.87" style="fill: #e6e6e6"/>
        </g>
        <g id="p271">
          <circle cx="536.07" cy="38.6" r="12.87" style="fill: #e6e6e6"/>
          <circle cx="536.07" cy="12.87" r="12.87" style="fill: #e6e6e6"/>
          <circle cx="561.8" cy="38.6" r="12.87" style="fill: #e6e6e6"/>
          <circle cx="561.8" cy="12.87" r="12.87" style="fill: #e6e6e6"/>
          <circle cx="510.34" cy="38.6" r="12.87" style="fill: #e6e6e6"/>
          <circle cx="510.34" cy="12.87" r="12.87" style="fill: #e6e6e6"/>
          <circle cx="484.61" cy="38.6" r="12.87" style="fill: #e6e6e6"/>
          <circle cx="484.61" cy="12.87" r="12.87" style="fill: #e6e6e6"/>
          <circle cx="458.88" cy="38.6" r="12.87" style="fill: #e6e6e6"/>
          <circle cx="458.88" cy="12.87" r="12.87" style="fill: #e6e6e6"/>
        </g>
        <g id="p272">
          <circle cx="536.07" cy="109.87" r="12.87" style="fill: #e6e6e6"/>
          <circle cx="536.07" cy="84.13" r="12.87" style="fill: #e6e6e6"/>
          <circle cx="561.8" cy="109.87" r="12.87" style="fill: #e6e6e6"/>
          <circle cx="561.8" cy="84.13" r="12.87" style="fill: #e6e6e6"/>
          <circle cx="510.34" cy="109.87" r="12.87" style="fill: #e6e6e6"/>
          <circle cx="510.34" cy="84.13" r="12.87" style="fill: #e6e6e6"/>
          <circle cx="484.61" cy="109.87" r="12.87" style="fill: #e6e6e6"/>
          <circle cx="484.61" cy="84.13" r="12.87" style="fill: #e6e6e6"/>
          <circle cx="458.88" cy="109.87" r="12.87" style="fill: #e6e6e6"/>
          <circle cx="458.88" cy="84.13" r="12.87" style="fill: #e6e6e6"/>
        </g>
        <g id="p273">
          <circle cx="536.07" cy="181.2" r="12.87" style="fill: #e6e6e6"/>
          <circle cx="536.07" cy="155.47" r="12.87" style="fill: #e6e6e6"/>
          <circle cx="561.8" cy="181.2" r="12.87" style="fill: #e6e6e6"/>
          <circle cx="561.8" cy="155.47" r="12.87" style="fill: #e6e6e6"/>
          <circle cx="510.34" cy="181.2" r="12.87" style="fill: #e6e6e6"/>
          <circle cx="510.34" cy="155.47" r="12.87" style="fill: #e6e6e6"/>
          <circle cx="484.61" cy="181.2" r="12.87" style="fill: #e6e6e6"/>
          <circle cx="484.61" cy="155.47" r="12.87" style="fill: #e6e6e6"/>
          <circle cx="458.88" cy="181.2" r="12.87" style="fill: #e6e6e6"/>
          <circle cx="458.88" cy="155.47" r="12.87" style="fill: #e6e6e6"/>
        </g>
        <g id="p274">
          <circle cx="536.07" cy="252.53" r="12.87" style="fill: #e6e6e6"/>
          <circle cx="536.07" cy="226.8" r="12.87" style="fill: #e6e6e6"/>
          <circle cx="561.8" cy="252.53" r="12.87" style="fill: #e6e6e6"/>
          <circle cx="561.8" cy="226.8" r="12.87" style="fill: #e6e6e6"/>
          <circle cx="510.34" cy="252.53" r="12.87" style="fill: #e6e6e6"/>
          <circle cx="510.34" cy="226.8" r="12.87" style="fill: #e6e6e6"/>
          <circle cx="484.61" cy="252.53" r="12.87" style="fill: #e6e6e6"/>
          <circle cx="484.61" cy="226.8" r="12.87" style="fill: #e6e6e6"/>
          <circle cx="458.88" cy="252.53" r="12.87" style="fill: #e6e6e6"/>
          <circle cx="458.88" cy="226.8" r="12.87" style="fill: #e6e6e6"/>
        </g>
        <g id="p275">
          <circle cx="536.07" cy="323.87" r="12.87" style="fill: #e6e6e6"/>
          <circle cx="536.07" cy="298.13" r="12.87" style="fill: #e6e6e6"/>
          <circle cx="561.8" cy="323.87" r="12.87" style="fill: #e6e6e6"/>
          <circle cx="561.8" cy="298.13" r="12.87" style="fill: #e6e6e6"/>
          <circle cx="510.34" cy="323.87" r="12.87" style="fill: #e6e6e6"/>
          <circle cx="510.34" cy="298.13" r="12.87" style="fill: #e6e6e6"/>
          <circle cx="484.61" cy="323.87" r="12.87" style="fill: #e6e6e6"/>
          <circle cx="484.61" cy="298.13" r="12.87" style="fill: #e6e6e6"/>
          <circle cx="458.88" cy="323.87" r="12.87" style="fill: #e6e6e6"/>
          <circle cx="458.88" cy="298.13" r="12.87" style="fill: #e6e6e6"/>
        </g>
        <g id="_0276" data-name="0276">
          <circle cx="536.07" cy="395.2" r="12.87" style="fill: #e6e6e6"/>
          <circle cx="536.07" cy="369.47" r="12.87" style="fill: #e6e6e6"/>
          <circle cx="561.8" cy="395.2" r="12.87" style="fill: #e6e6e6"/>
          <circle cx="561.8" cy="369.47" r="12.87" style="fill: #e6e6e6"/>
          <circle cx="510.34" cy="395.2" r="12.87" style="fill: #e6e6e6"/>
          <circle cx="510.34" cy="369.47" r="12.87" style="fill: #e6e6e6"/>
          <circle cx="484.61" cy="395.2" r="12.87" style="fill: #e6e6e6"/>
          <circle cx="484.61" cy="369.47" r="12.87" style="fill: #e6e6e6"/>
          <circle cx="458.88" cy="395.2" r="12.87" style="fill: #e6e6e6"/>
          <circle cx="458.88" cy="369.47" r="12.87" style="fill: #e6e6e6"/>
        </g>
        <g id="p277">
          <circle cx="684.73" cy="38.6" r="12.87" style="fill: #e6e6e6"/>
          <circle cx="684.73" cy="12.87" r="12.87" style="fill: #e6e6e6"/>
          <circle cx="710.46" cy="38.6" r="12.87" style="fill: #e6e6e6"/>
          <circle cx="710.46" cy="12.87" r="12.87" style="fill: #e6e6e6"/>
          <circle cx="659" cy="38.6" r="12.87" style="fill: #e6e6e6"/>
          <circle cx="659" cy="12.87" r="12.87" style="fill: #e6e6e6"/>
          <circle cx="633.27" cy="38.6" r="12.87" style="fill: #e6e6e6"/>
          <circle cx="633.27" cy="12.87" r="12.87" style="fill: #e6e6e6"/>
          <circle cx="607.54" cy="38.6" r="12.87" style="fill: #e6e6e6"/>
          <circle cx="607.54" cy="12.87" r="12.87" style="fill: #e6e6e6"/>
        </g>
        <g id="p278">
          <circle cx="684.73" cy="109.87" r="12.87" style="fill: #e6e6e6"/>
          <circle cx="684.73" cy="84.13" r="12.87" style="fill: #e6e6e6"/>
          <circle cx="710.46" cy="109.87" r="12.87" style="fill: #e6e6e6"/>
          <circle cx="710.46" cy="84.13" r="12.87" style="fill: #e6e6e6"/>
          <circle cx="659" cy="109.87" r="12.87" style="fill: #e6e6e6"/>
          <circle cx="659" cy="84.13" r="12.87" style="fill: #e6e6e6"/>
          <circle cx="633.27" cy="109.87" r="12.87" style="fill: #e6e6e6"/>
          <circle cx="633.27" cy="84.13" r="12.87" style="fill: #e6e6e6"/>
          <circle cx="607.54" cy="109.87" r="12.87" style="fill: #e6e6e6"/>
          <circle cx="607.54" cy="84.13" r="12.87" style="fill: #e6e6e6"/>
        </g>
        <g id="p279">
          <circle cx="684.73" cy="181.2" r="12.87" style="fill: #e6e6e6"/>
          <circle cx="684.73" cy="155.47" r="12.87" style="fill: #e6e6e6"/>
          <circle cx="710.46" cy="181.2" r="12.87" style="fill: #e6e6e6"/>
          <circle cx="710.46" cy="155.47" r="12.87" style="fill: #e6e6e6"/>
          <circle cx="659" cy="181.2" r="12.87" style="fill: #e6e6e6"/>
          <circle cx="659" cy="155.47" r="12.87" style="fill: #e6e6e6"/>
          <circle cx="633.27" cy="181.2" r="12.87" style="fill: #e6e6e6"/>
          <circle cx="633.27" cy="155.47" r="12.87" style="fill: #e6e6e6"/>
          <circle cx="607.54" cy="181.2" r="12.87" style="fill: #e6e6e6"/>
          <circle cx="607.54" cy="155.47" r="12.87" style="fill: #e6e6e6"/>
        </g>
        <g id="p280">
          <circle cx="684.73" cy="252.53" r="12.87" style="fill: #e6e6e6"/>
          <circle cx="684.73" cy="226.8" r="12.87" style="fill: #e6e6e6"/>
          <circle cx="710.46" cy="252.53" r="12.87" style="fill: #e6e6e6"/>
          <circle cx="710.46" cy="226.8" r="12.87" style="fill: #e6e6e6"/>
          <circle cx="659" cy="252.53" r="12.87" style="fill: #e6e6e6"/>
          <circle cx="659" cy="226.8" r="12.87" style="fill: #e6e6e6"/>
          <circle cx="633.27" cy="252.53" r="12.87" style="fill: #e6e6e6"/>
          <circle cx="633.27" cy="226.8" r="12.87" style="fill: #e6e6e6"/>
          <circle cx="607.54" cy="252.53" r="12.87" style="fill: #e6e6e6"/>
          <circle cx="607.54" cy="226.8" r="12.87" style="fill: #e6e6e6"/>
        </g>
        <g id="p281">
          <circle cx="684.73" cy="323.87" r="12.87" style="fill: #e6e6e6"/>
          <circle cx="684.73" cy="298.13" r="12.87" style="fill: #e6e6e6"/>
          <circle cx="710.46" cy="323.87" r="12.87" style="fill: #e6e6e6"/>
          <circle cx="710.46" cy="298.13" r="12.87" style="fill: #e6e6e6"/>
          <circle cx="659" cy="323.87" r="12.87" style="fill: #e6e6e6"/>
          <circle cx="659" cy="298.13" r="12.87" style="fill: #e6e6e6"/>
          <circle cx="633.27" cy="323.87" r="12.87" style="fill: #e6e6e6"/>
          <circle cx="633.27" cy="298.13" r="12.87" style="fill: #e6e6e6"/>
          <circle cx="607.54" cy="323.87" r="12.87" style="fill: #e6e6e6"/>
          <circle cx="607.54" cy="298.13" r="12.87" style="fill: #e6e6e6"/>
        </g>
        <g id="p282">
          <circle cx="684.73" cy="395.2" r="12.87" style="fill: #e6e6e6"/>
          <circle cx="684.73" cy="369.47" r="12.87" style="fill: #e6e6e6"/>
          <circle cx="710.46" cy="395.2" r="12.87" style="fill: #e6e6e6"/>
          <circle cx="710.46" cy="369.47" r="12.87" style="fill: #e6e6e6"/>
          <circle cx="659" cy="395.2" r="12.87" style="fill: #e6e6e6"/>
          <circle cx="659" cy="369.47" r="12.87" style="fill: #e6e6e6"/>
          <circle cx="633.27" cy="395.2" r="12.87" style="fill: #e6e6e6"/>
          <circle cx="633.27" cy="369.47" r="12.87" style="fill: #e6e6e6"/>
          <circle cx="607.54" cy="395.2" r="12.87" style="fill: #e6e6e6"/>
          <circle cx="607.54" cy="369.47" r="12.87" style="fill: #e6e6e6"/>
        </g>
      </g>
    </g>
  </g>
</svg>
